G04 #@! TF.GenerationSoftware,KiCad,Pcbnew,(5.0.0)*
G04 #@! TF.CreationDate,2019-01-30T09:07:07+03:00*
G04 #@! TF.ProjectId,module,6D6F64756C652E6B696361645F706362,rev?*
G04 #@! TF.SameCoordinates,Original*
G04 #@! TF.FileFunction,Copper,L2,Bot,Signal*
G04 #@! TF.FilePolarity,Positive*
%FSLAX46Y46*%
G04 Gerber Fmt 4.6, Leading zero omitted, Abs format (unit mm)*
G04 Created by KiCad (PCBNEW (5.0.0)) date 01/30/19 09:07:07*
%MOMM*%
%LPD*%
G01*
G04 APERTURE LIST*
G04 #@! TA.AperFunction,ComponentPad*
%ADD10C,1.700000*%
G04 #@! TD*
G04 #@! TA.AperFunction,ComponentPad*
%ADD11R,1.700000X1.700000*%
G04 #@! TD*
G04 #@! TA.AperFunction,ComponentPad*
%ADD12C,7.000000*%
G04 #@! TD*
G04 #@! TA.AperFunction,Conductor*
%ADD13C,0.100000*%
G04 #@! TD*
G04 #@! TA.AperFunction,ComponentPad*
%ADD14C,2.000000*%
G04 #@! TD*
G04 #@! TA.AperFunction,ComponentPad*
%ADD15R,4.000000X2.000000*%
G04 #@! TD*
G04 #@! TA.AperFunction,ViaPad*
%ADD16C,0.800000*%
G04 #@! TD*
G04 #@! TA.AperFunction,Conductor*
%ADD17C,0.400000*%
G04 #@! TD*
G04 #@! TA.AperFunction,Conductor*
%ADD18C,0.300000*%
G04 #@! TD*
G04 APERTURE END LIST*
D10*
G04 #@! TO.P,XP1,1*
G04 #@! TO.N,Net-(FU1-Pad1)*
X199500000Y-76000000D03*
D11*
G04 #@! TO.P,XP1,2*
X199500000Y-78540000D03*
G04 #@! TO.P,XP1,3*
X199500000Y-81080000D03*
G04 #@! TO.P,XP1,4*
G04 #@! TO.N,Net-(R2-Pad1)*
X199500000Y-83620000D03*
G04 #@! TO.P,XP1,5*
G04 #@! TO.N,Net-(R1-Pad1)*
X199500000Y-86160000D03*
G04 #@! TO.P,XP1,6*
G04 #@! TO.N,Net-(C3-Pad2)*
X199500000Y-88700000D03*
G04 #@! TO.P,XP1,7*
X199500000Y-91240000D03*
G04 #@! TO.P,XP1,8*
X199500000Y-93780000D03*
G04 #@! TD*
D10*
G04 #@! TO.P,XP2,1*
G04 #@! TO.N,Net-(VT1-Pad5)*
X234500000Y-73500000D03*
D11*
G04 #@! TO.P,XP2,2*
X234500000Y-76040000D03*
G04 #@! TO.P,XP2,3*
X234500000Y-78580000D03*
G04 #@! TO.P,XP2,4*
X234500000Y-81120000D03*
G04 #@! TO.P,XP2,5*
X234500000Y-83660000D03*
G04 #@! TO.P,XP2,6*
X234500000Y-86200000D03*
G04 #@! TD*
G04 #@! TO.P,FU1,2*
G04 #@! TO.N,Net-(C3-Pad1)*
X210500000Y-72500000D03*
G04 #@! TO.P,FU1,1*
G04 #@! TO.N,Net-(FU1-Pad1)*
X205000000Y-72500000D03*
G04 #@! TD*
D12*
G04 #@! TO.P,rM3,*
G04 #@! TO.N,*
X232000000Y-95000000D03*
G04 #@! TD*
D13*
G04 #@! TO.N,Net-(R2-Pad2)*
G04 #@! TO.C,VT3*
G36*
X215009009Y-74502408D02*
X215057545Y-74509607D01*
X215105142Y-74521530D01*
X215151342Y-74538060D01*
X215195698Y-74559039D01*
X215237785Y-74584265D01*
X215277197Y-74613495D01*
X215313553Y-74646447D01*
X215346505Y-74682803D01*
X215375735Y-74722215D01*
X215400961Y-74764302D01*
X215421940Y-74808658D01*
X215438470Y-74854858D01*
X215450393Y-74902455D01*
X215457592Y-74950991D01*
X215460000Y-75000000D01*
X215460000Y-78000000D01*
X215457592Y-78049009D01*
X215450393Y-78097545D01*
X215438470Y-78145142D01*
X215421940Y-78191342D01*
X215400961Y-78235698D01*
X215375735Y-78277785D01*
X215346505Y-78317197D01*
X215313553Y-78353553D01*
X215277197Y-78386505D01*
X215237785Y-78415735D01*
X215195698Y-78440961D01*
X215151342Y-78461940D01*
X215105142Y-78478470D01*
X215057545Y-78490393D01*
X215009009Y-78497592D01*
X214960000Y-78500000D01*
X213960000Y-78500000D01*
X213910991Y-78497592D01*
X213862455Y-78490393D01*
X213814858Y-78478470D01*
X213768658Y-78461940D01*
X213724302Y-78440961D01*
X213682215Y-78415735D01*
X213642803Y-78386505D01*
X213606447Y-78353553D01*
X213573495Y-78317197D01*
X213544265Y-78277785D01*
X213519039Y-78235698D01*
X213498060Y-78191342D01*
X213481530Y-78145142D01*
X213469607Y-78097545D01*
X213462408Y-78049009D01*
X213460000Y-78000000D01*
X213460000Y-75000000D01*
X213462408Y-74950991D01*
X213469607Y-74902455D01*
X213481530Y-74854858D01*
X213498060Y-74808658D01*
X213519039Y-74764302D01*
X213544265Y-74722215D01*
X213573495Y-74682803D01*
X213606447Y-74646447D01*
X213642803Y-74613495D01*
X213682215Y-74584265D01*
X213724302Y-74559039D01*
X213768658Y-74538060D01*
X213814858Y-74521530D01*
X213862455Y-74509607D01*
X213910991Y-74502408D01*
X213960000Y-74500000D01*
X214960000Y-74500000D01*
X215009009Y-74502408D01*
X215009009Y-74502408D01*
G37*
D14*
G04 #@! TD*
G04 #@! TO.P,VT3,1*
G04 #@! TO.N,Net-(R2-Pad2)*
X214460000Y-76500000D03*
D13*
G04 #@! TO.N,Net-(VT1-Pad5)*
G04 #@! TO.C,VT3*
G36*
X217549009Y-74502408D02*
X217597545Y-74509607D01*
X217645142Y-74521530D01*
X217691342Y-74538060D01*
X217735698Y-74559039D01*
X217777785Y-74584265D01*
X217817197Y-74613495D01*
X217853553Y-74646447D01*
X217886505Y-74682803D01*
X217915735Y-74722215D01*
X217940961Y-74764302D01*
X217961940Y-74808658D01*
X217978470Y-74854858D01*
X217990393Y-74902455D01*
X217997592Y-74950991D01*
X218000000Y-75000000D01*
X218000000Y-78000000D01*
X217997592Y-78049009D01*
X217990393Y-78097545D01*
X217978470Y-78145142D01*
X217961940Y-78191342D01*
X217940961Y-78235698D01*
X217915735Y-78277785D01*
X217886505Y-78317197D01*
X217853553Y-78353553D01*
X217817197Y-78386505D01*
X217777785Y-78415735D01*
X217735698Y-78440961D01*
X217691342Y-78461940D01*
X217645142Y-78478470D01*
X217597545Y-78490393D01*
X217549009Y-78497592D01*
X217500000Y-78500000D01*
X216500000Y-78500000D01*
X216450991Y-78497592D01*
X216402455Y-78490393D01*
X216354858Y-78478470D01*
X216308658Y-78461940D01*
X216264302Y-78440961D01*
X216222215Y-78415735D01*
X216182803Y-78386505D01*
X216146447Y-78353553D01*
X216113495Y-78317197D01*
X216084265Y-78277785D01*
X216059039Y-78235698D01*
X216038060Y-78191342D01*
X216021530Y-78145142D01*
X216009607Y-78097545D01*
X216002408Y-78049009D01*
X216000000Y-78000000D01*
X216000000Y-75000000D01*
X216002408Y-74950991D01*
X216009607Y-74902455D01*
X216021530Y-74854858D01*
X216038060Y-74808658D01*
X216059039Y-74764302D01*
X216084265Y-74722215D01*
X216113495Y-74682803D01*
X216146447Y-74646447D01*
X216182803Y-74613495D01*
X216222215Y-74584265D01*
X216264302Y-74559039D01*
X216308658Y-74538060D01*
X216354858Y-74521530D01*
X216402455Y-74509607D01*
X216450991Y-74502408D01*
X216500000Y-74500000D01*
X217500000Y-74500000D01*
X217549009Y-74502408D01*
X217549009Y-74502408D01*
G37*
D14*
G04 #@! TD*
G04 #@! TO.P,VT3,2*
G04 #@! TO.N,Net-(VT1-Pad5)*
X217000000Y-76500000D03*
D13*
G04 #@! TO.N,Net-(C3-Pad1)*
G04 #@! TO.C,VT3*
G36*
X220089009Y-74502408D02*
X220137545Y-74509607D01*
X220185142Y-74521530D01*
X220231342Y-74538060D01*
X220275698Y-74559039D01*
X220317785Y-74584265D01*
X220357197Y-74613495D01*
X220393553Y-74646447D01*
X220426505Y-74682803D01*
X220455735Y-74722215D01*
X220480961Y-74764302D01*
X220501940Y-74808658D01*
X220518470Y-74854858D01*
X220530393Y-74902455D01*
X220537592Y-74950991D01*
X220540000Y-75000000D01*
X220540000Y-78000000D01*
X220537592Y-78049009D01*
X220530393Y-78097545D01*
X220518470Y-78145142D01*
X220501940Y-78191342D01*
X220480961Y-78235698D01*
X220455735Y-78277785D01*
X220426505Y-78317197D01*
X220393553Y-78353553D01*
X220357197Y-78386505D01*
X220317785Y-78415735D01*
X220275698Y-78440961D01*
X220231342Y-78461940D01*
X220185142Y-78478470D01*
X220137545Y-78490393D01*
X220089009Y-78497592D01*
X220040000Y-78500000D01*
X219040000Y-78500000D01*
X218990991Y-78497592D01*
X218942455Y-78490393D01*
X218894858Y-78478470D01*
X218848658Y-78461940D01*
X218804302Y-78440961D01*
X218762215Y-78415735D01*
X218722803Y-78386505D01*
X218686447Y-78353553D01*
X218653495Y-78317197D01*
X218624265Y-78277785D01*
X218599039Y-78235698D01*
X218578060Y-78191342D01*
X218561530Y-78145142D01*
X218549607Y-78097545D01*
X218542408Y-78049009D01*
X218540000Y-78000000D01*
X218540000Y-75000000D01*
X218542408Y-74950991D01*
X218549607Y-74902455D01*
X218561530Y-74854858D01*
X218578060Y-74808658D01*
X218599039Y-74764302D01*
X218624265Y-74722215D01*
X218653495Y-74682803D01*
X218686447Y-74646447D01*
X218722803Y-74613495D01*
X218762215Y-74584265D01*
X218804302Y-74559039D01*
X218848658Y-74538060D01*
X218894858Y-74521530D01*
X218942455Y-74509607D01*
X218990991Y-74502408D01*
X219040000Y-74500000D01*
X220040000Y-74500000D01*
X220089009Y-74502408D01*
X220089009Y-74502408D01*
G37*
D14*
G04 #@! TD*
G04 #@! TO.P,VT3,3*
G04 #@! TO.N,Net-(C3-Pad1)*
X219540000Y-76500000D03*
D13*
G04 #@! TO.N,Net-(R1-Pad2)*
G04 #@! TO.C,VT4*
G36*
X220549009Y-81202408D02*
X220597545Y-81209607D01*
X220645142Y-81221530D01*
X220691342Y-81238060D01*
X220735698Y-81259039D01*
X220777785Y-81284265D01*
X220817197Y-81313495D01*
X220853553Y-81346447D01*
X220886505Y-81382803D01*
X220915735Y-81422215D01*
X220940961Y-81464302D01*
X220961940Y-81508658D01*
X220978470Y-81554858D01*
X220990393Y-81602455D01*
X220997592Y-81650991D01*
X221000000Y-81700000D01*
X221000000Y-82700000D01*
X220997592Y-82749009D01*
X220990393Y-82797545D01*
X220978470Y-82845142D01*
X220961940Y-82891342D01*
X220940961Y-82935698D01*
X220915735Y-82977785D01*
X220886505Y-83017197D01*
X220853553Y-83053553D01*
X220817197Y-83086505D01*
X220777785Y-83115735D01*
X220735698Y-83140961D01*
X220691342Y-83161940D01*
X220645142Y-83178470D01*
X220597545Y-83190393D01*
X220549009Y-83197592D01*
X220500000Y-83200000D01*
X217500000Y-83200000D01*
X217450991Y-83197592D01*
X217402455Y-83190393D01*
X217354858Y-83178470D01*
X217308658Y-83161940D01*
X217264302Y-83140961D01*
X217222215Y-83115735D01*
X217182803Y-83086505D01*
X217146447Y-83053553D01*
X217113495Y-83017197D01*
X217084265Y-82977785D01*
X217059039Y-82935698D01*
X217038060Y-82891342D01*
X217021530Y-82845142D01*
X217009607Y-82797545D01*
X217002408Y-82749009D01*
X217000000Y-82700000D01*
X217000000Y-81700000D01*
X217002408Y-81650991D01*
X217009607Y-81602455D01*
X217021530Y-81554858D01*
X217038060Y-81508658D01*
X217059039Y-81464302D01*
X217084265Y-81422215D01*
X217113495Y-81382803D01*
X217146447Y-81346447D01*
X217182803Y-81313495D01*
X217222215Y-81284265D01*
X217264302Y-81259039D01*
X217308658Y-81238060D01*
X217354858Y-81221530D01*
X217402455Y-81209607D01*
X217450991Y-81202408D01*
X217500000Y-81200000D01*
X220500000Y-81200000D01*
X220549009Y-81202408D01*
X220549009Y-81202408D01*
G37*
D14*
G04 #@! TD*
G04 #@! TO.P,VT4,1*
G04 #@! TO.N,Net-(R1-Pad2)*
X219000000Y-82200000D03*
D15*
G04 #@! TO.P,VT4,2*
G04 #@! TO.N,Net-(VT1-Pad5)*
X219000000Y-84600000D03*
G04 #@! TO.P,VT4,3*
G04 #@! TO.N,Net-(C3-Pad2)*
X219000000Y-87000000D03*
G04 #@! TD*
D16*
G04 #@! TO.N,Net-(C3-Pad1)*
X232500000Y-88500000D03*
X231000000Y-88500000D03*
X210500000Y-90500000D03*
G04 #@! TO.N,Net-(R1-Pad2)*
X209500000Y-94000000D03*
X207000000Y-87000000D03*
G04 #@! TO.N,Net-(R2-Pad2)*
X206500000Y-80000000D03*
X227000000Y-92000000D03*
G04 #@! TD*
D17*
G04 #@! TO.N,Net-(R1-Pad2)*
X207000000Y-91500000D02*
X209500000Y-94000000D01*
X207000000Y-87000000D02*
X207000000Y-91500000D01*
G04 #@! TO.N,Net-(R2-Pad2)*
X227000000Y-92000000D02*
X216500000Y-92000000D01*
X216500000Y-92000000D02*
X206500000Y-82000000D01*
X206500000Y-82000000D02*
X206500000Y-80000000D01*
G04 #@! TD*
D18*
G04 #@! TO.N,Net-(FU1-Pad1)*
G36*
X207850000Y-82289341D02*
X207250000Y-81689341D01*
X207250000Y-80593503D01*
X207305371Y-80538132D01*
X207450000Y-80188967D01*
X207450000Y-79811033D01*
X207305371Y-79461868D01*
X207038132Y-79194629D01*
X206688967Y-79050000D01*
X206311033Y-79050000D01*
X205961868Y-79194629D01*
X205694629Y-79461868D01*
X205550000Y-79811033D01*
X205550000Y-80188967D01*
X205694629Y-80538132D01*
X205750001Y-80593504D01*
X205750000Y-81926135D01*
X205735307Y-82000000D01*
X205750000Y-82073865D01*
X205793516Y-82292634D01*
X205959280Y-82540720D01*
X206021906Y-82582565D01*
X207850000Y-84410659D01*
X207850000Y-86569612D01*
X207805371Y-86461868D01*
X207538132Y-86194629D01*
X207188967Y-86050000D01*
X206811033Y-86050000D01*
X206461868Y-86194629D01*
X206194629Y-86461868D01*
X206050000Y-86811033D01*
X206050000Y-87188967D01*
X206194629Y-87538132D01*
X206250000Y-87593503D01*
X206250001Y-91426130D01*
X206235307Y-91500000D01*
X206276555Y-91707364D01*
X206293517Y-91792635D01*
X206459281Y-92040720D01*
X206521904Y-92082563D01*
X207850000Y-93410660D01*
X207850000Y-98850000D01*
X198150000Y-98850000D01*
X198150000Y-94871671D01*
X198253472Y-95026528D01*
X198435401Y-95148089D01*
X198650000Y-95190775D01*
X200350000Y-95190775D01*
X200564599Y-95148089D01*
X200746528Y-95026528D01*
X200868089Y-94844599D01*
X200910775Y-94630000D01*
X200910775Y-92930000D01*
X200868089Y-92715401D01*
X200746528Y-92533472D01*
X200711400Y-92510000D01*
X200746528Y-92486528D01*
X200868089Y-92304599D01*
X200910775Y-92090000D01*
X200910775Y-90390000D01*
X200868089Y-90175401D01*
X200746528Y-89993472D01*
X200711400Y-89970000D01*
X200746528Y-89946528D01*
X200868089Y-89764599D01*
X200910775Y-89550000D01*
X200910775Y-87850000D01*
X200868089Y-87635401D01*
X200746528Y-87453472D01*
X200711400Y-87430000D01*
X200746528Y-87406528D01*
X200868089Y-87224599D01*
X200910775Y-87010000D01*
X200910775Y-85310000D01*
X200868089Y-85095401D01*
X200746528Y-84913472D01*
X200711400Y-84890000D01*
X200746528Y-84866528D01*
X200868089Y-84684599D01*
X200910775Y-84470000D01*
X200910775Y-82770000D01*
X200868089Y-82555401D01*
X200746528Y-82373472D01*
X200624476Y-82291920D01*
X200731491Y-82184905D01*
X200800000Y-82019511D01*
X200800000Y-81242500D01*
X200687500Y-81130000D01*
X199550000Y-81130000D01*
X199550000Y-81150000D01*
X199450000Y-81150000D01*
X199450000Y-81130000D01*
X198312500Y-81130000D01*
X198200000Y-81242500D01*
X198200000Y-82019511D01*
X198268509Y-82184905D01*
X198375524Y-82291920D01*
X198253472Y-82373472D01*
X198150000Y-82528329D01*
X198150000Y-78702500D01*
X198200000Y-78702500D01*
X198200000Y-79479511D01*
X198268509Y-79644905D01*
X198395096Y-79771492D01*
X198488063Y-79810000D01*
X198395096Y-79848508D01*
X198268509Y-79975095D01*
X198200000Y-80140489D01*
X198200000Y-80917500D01*
X198312500Y-81030000D01*
X199450000Y-81030000D01*
X199450000Y-79892500D01*
X199367500Y-79810000D01*
X199450000Y-79727500D01*
X199450000Y-78590000D01*
X199550000Y-78590000D01*
X199550000Y-79727500D01*
X199632500Y-79810000D01*
X199550000Y-79892500D01*
X199550000Y-81030000D01*
X200687500Y-81030000D01*
X200800000Y-80917500D01*
X200800000Y-80140489D01*
X200731491Y-79975095D01*
X200604904Y-79848508D01*
X200511937Y-79810000D01*
X200604904Y-79771492D01*
X200731491Y-79644905D01*
X200800000Y-79479511D01*
X200800000Y-78702500D01*
X200687500Y-78590000D01*
X199550000Y-78590000D01*
X199450000Y-78590000D01*
X198312500Y-78590000D01*
X198200000Y-78702500D01*
X198150000Y-78702500D01*
X198150000Y-77600489D01*
X198200000Y-77600489D01*
X198200000Y-78377500D01*
X198312500Y-78490000D01*
X199450000Y-78490000D01*
X199450000Y-78470000D01*
X199550000Y-78470000D01*
X199550000Y-78490000D01*
X200687500Y-78490000D01*
X200800000Y-78377500D01*
X200800000Y-77600489D01*
X200731491Y-77435095D01*
X200604904Y-77308508D01*
X200439510Y-77240000D01*
X199903034Y-77240000D01*
X200234695Y-77103219D01*
X200238086Y-77100953D01*
X200321614Y-76892325D01*
X199500000Y-76070711D01*
X198678386Y-76892325D01*
X198761914Y-77100953D01*
X199096148Y-77240000D01*
X198560490Y-77240000D01*
X198395096Y-77308508D01*
X198268509Y-77435095D01*
X198200000Y-77600489D01*
X198150000Y-77600489D01*
X198150000Y-76256586D01*
X198199603Y-76256586D01*
X198396781Y-76734695D01*
X198399047Y-76738086D01*
X198607675Y-76821614D01*
X199429289Y-76000000D01*
X199570711Y-76000000D01*
X200392325Y-76821614D01*
X200600953Y-76738086D01*
X200799601Y-76260586D01*
X200800397Y-75743414D01*
X200603219Y-75265305D01*
X200600953Y-75261914D01*
X200392325Y-75178386D01*
X199570711Y-76000000D01*
X199429289Y-76000000D01*
X198607675Y-75178386D01*
X198399047Y-75261914D01*
X198200399Y-75739414D01*
X198199603Y-76256586D01*
X198150000Y-76256586D01*
X198150000Y-75107675D01*
X198678386Y-75107675D01*
X199500000Y-75929289D01*
X200321614Y-75107675D01*
X200238086Y-74899047D01*
X199760586Y-74700399D01*
X199243414Y-74699603D01*
X198765305Y-74896781D01*
X198761914Y-74899047D01*
X198678386Y-75107675D01*
X198150000Y-75107675D01*
X198150000Y-72662500D01*
X203700000Y-72662500D01*
X203700000Y-73439510D01*
X203768508Y-73604904D01*
X203895095Y-73731491D01*
X204060489Y-73800000D01*
X204837500Y-73800000D01*
X204950000Y-73687500D01*
X204950000Y-72550000D01*
X205050000Y-72550000D01*
X205050000Y-73687500D01*
X205162500Y-73800000D01*
X205939511Y-73800000D01*
X206104905Y-73731491D01*
X206231492Y-73604904D01*
X206300000Y-73439510D01*
X206300000Y-72662500D01*
X206187500Y-72550000D01*
X205050000Y-72550000D01*
X204950000Y-72550000D01*
X203812500Y-72550000D01*
X203700000Y-72662500D01*
X198150000Y-72662500D01*
X198150000Y-71560490D01*
X203700000Y-71560490D01*
X203700000Y-72337500D01*
X203812500Y-72450000D01*
X204950000Y-72450000D01*
X204950000Y-71312500D01*
X205050000Y-71312500D01*
X205050000Y-72450000D01*
X206187500Y-72450000D01*
X206300000Y-72337500D01*
X206300000Y-71560490D01*
X206231492Y-71395096D01*
X206104905Y-71268509D01*
X205939511Y-71200000D01*
X205162500Y-71200000D01*
X205050000Y-71312500D01*
X204950000Y-71312500D01*
X204837500Y-71200000D01*
X204060489Y-71200000D01*
X203895095Y-71268509D01*
X203768508Y-71395096D01*
X203700000Y-71560490D01*
X198150000Y-71560490D01*
X198150000Y-71150000D01*
X207850000Y-71150000D01*
X207850000Y-82289341D01*
X207850000Y-82289341D01*
G37*
X207850000Y-82289341D02*
X207250000Y-81689341D01*
X207250000Y-80593503D01*
X207305371Y-80538132D01*
X207450000Y-80188967D01*
X207450000Y-79811033D01*
X207305371Y-79461868D01*
X207038132Y-79194629D01*
X206688967Y-79050000D01*
X206311033Y-79050000D01*
X205961868Y-79194629D01*
X205694629Y-79461868D01*
X205550000Y-79811033D01*
X205550000Y-80188967D01*
X205694629Y-80538132D01*
X205750001Y-80593504D01*
X205750000Y-81926135D01*
X205735307Y-82000000D01*
X205750000Y-82073865D01*
X205793516Y-82292634D01*
X205959280Y-82540720D01*
X206021906Y-82582565D01*
X207850000Y-84410659D01*
X207850000Y-86569612D01*
X207805371Y-86461868D01*
X207538132Y-86194629D01*
X207188967Y-86050000D01*
X206811033Y-86050000D01*
X206461868Y-86194629D01*
X206194629Y-86461868D01*
X206050000Y-86811033D01*
X206050000Y-87188967D01*
X206194629Y-87538132D01*
X206250000Y-87593503D01*
X206250001Y-91426130D01*
X206235307Y-91500000D01*
X206276555Y-91707364D01*
X206293517Y-91792635D01*
X206459281Y-92040720D01*
X206521904Y-92082563D01*
X207850000Y-93410660D01*
X207850000Y-98850000D01*
X198150000Y-98850000D01*
X198150000Y-94871671D01*
X198253472Y-95026528D01*
X198435401Y-95148089D01*
X198650000Y-95190775D01*
X200350000Y-95190775D01*
X200564599Y-95148089D01*
X200746528Y-95026528D01*
X200868089Y-94844599D01*
X200910775Y-94630000D01*
X200910775Y-92930000D01*
X200868089Y-92715401D01*
X200746528Y-92533472D01*
X200711400Y-92510000D01*
X200746528Y-92486528D01*
X200868089Y-92304599D01*
X200910775Y-92090000D01*
X200910775Y-90390000D01*
X200868089Y-90175401D01*
X200746528Y-89993472D01*
X200711400Y-89970000D01*
X200746528Y-89946528D01*
X200868089Y-89764599D01*
X200910775Y-89550000D01*
X200910775Y-87850000D01*
X200868089Y-87635401D01*
X200746528Y-87453472D01*
X200711400Y-87430000D01*
X200746528Y-87406528D01*
X200868089Y-87224599D01*
X200910775Y-87010000D01*
X200910775Y-85310000D01*
X200868089Y-85095401D01*
X200746528Y-84913472D01*
X200711400Y-84890000D01*
X200746528Y-84866528D01*
X200868089Y-84684599D01*
X200910775Y-84470000D01*
X200910775Y-82770000D01*
X200868089Y-82555401D01*
X200746528Y-82373472D01*
X200624476Y-82291920D01*
X200731491Y-82184905D01*
X200800000Y-82019511D01*
X200800000Y-81242500D01*
X200687500Y-81130000D01*
X199550000Y-81130000D01*
X199550000Y-81150000D01*
X199450000Y-81150000D01*
X199450000Y-81130000D01*
X198312500Y-81130000D01*
X198200000Y-81242500D01*
X198200000Y-82019511D01*
X198268509Y-82184905D01*
X198375524Y-82291920D01*
X198253472Y-82373472D01*
X198150000Y-82528329D01*
X198150000Y-78702500D01*
X198200000Y-78702500D01*
X198200000Y-79479511D01*
X198268509Y-79644905D01*
X198395096Y-79771492D01*
X198488063Y-79810000D01*
X198395096Y-79848508D01*
X198268509Y-79975095D01*
X198200000Y-80140489D01*
X198200000Y-80917500D01*
X198312500Y-81030000D01*
X199450000Y-81030000D01*
X199450000Y-79892500D01*
X199367500Y-79810000D01*
X199450000Y-79727500D01*
X199450000Y-78590000D01*
X199550000Y-78590000D01*
X199550000Y-79727500D01*
X199632500Y-79810000D01*
X199550000Y-79892500D01*
X199550000Y-81030000D01*
X200687500Y-81030000D01*
X200800000Y-80917500D01*
X200800000Y-80140489D01*
X200731491Y-79975095D01*
X200604904Y-79848508D01*
X200511937Y-79810000D01*
X200604904Y-79771492D01*
X200731491Y-79644905D01*
X200800000Y-79479511D01*
X200800000Y-78702500D01*
X200687500Y-78590000D01*
X199550000Y-78590000D01*
X199450000Y-78590000D01*
X198312500Y-78590000D01*
X198200000Y-78702500D01*
X198150000Y-78702500D01*
X198150000Y-77600489D01*
X198200000Y-77600489D01*
X198200000Y-78377500D01*
X198312500Y-78490000D01*
X199450000Y-78490000D01*
X199450000Y-78470000D01*
X199550000Y-78470000D01*
X199550000Y-78490000D01*
X200687500Y-78490000D01*
X200800000Y-78377500D01*
X200800000Y-77600489D01*
X200731491Y-77435095D01*
X200604904Y-77308508D01*
X200439510Y-77240000D01*
X199903034Y-77240000D01*
X200234695Y-77103219D01*
X200238086Y-77100953D01*
X200321614Y-76892325D01*
X199500000Y-76070711D01*
X198678386Y-76892325D01*
X198761914Y-77100953D01*
X199096148Y-77240000D01*
X198560490Y-77240000D01*
X198395096Y-77308508D01*
X198268509Y-77435095D01*
X198200000Y-77600489D01*
X198150000Y-77600489D01*
X198150000Y-76256586D01*
X198199603Y-76256586D01*
X198396781Y-76734695D01*
X198399047Y-76738086D01*
X198607675Y-76821614D01*
X199429289Y-76000000D01*
X199570711Y-76000000D01*
X200392325Y-76821614D01*
X200600953Y-76738086D01*
X200799601Y-76260586D01*
X200800397Y-75743414D01*
X200603219Y-75265305D01*
X200600953Y-75261914D01*
X200392325Y-75178386D01*
X199570711Y-76000000D01*
X199429289Y-76000000D01*
X198607675Y-75178386D01*
X198399047Y-75261914D01*
X198200399Y-75739414D01*
X198199603Y-76256586D01*
X198150000Y-76256586D01*
X198150000Y-75107675D01*
X198678386Y-75107675D01*
X199500000Y-75929289D01*
X200321614Y-75107675D01*
X200238086Y-74899047D01*
X199760586Y-74700399D01*
X199243414Y-74699603D01*
X198765305Y-74896781D01*
X198761914Y-74899047D01*
X198678386Y-75107675D01*
X198150000Y-75107675D01*
X198150000Y-72662500D01*
X203700000Y-72662500D01*
X203700000Y-73439510D01*
X203768508Y-73604904D01*
X203895095Y-73731491D01*
X204060489Y-73800000D01*
X204837500Y-73800000D01*
X204950000Y-73687500D01*
X204950000Y-72550000D01*
X205050000Y-72550000D01*
X205050000Y-73687500D01*
X205162500Y-73800000D01*
X205939511Y-73800000D01*
X206104905Y-73731491D01*
X206231492Y-73604904D01*
X206300000Y-73439510D01*
X206300000Y-72662500D01*
X206187500Y-72550000D01*
X205050000Y-72550000D01*
X204950000Y-72550000D01*
X203812500Y-72550000D01*
X203700000Y-72662500D01*
X198150000Y-72662500D01*
X198150000Y-71560490D01*
X203700000Y-71560490D01*
X203700000Y-72337500D01*
X203812500Y-72450000D01*
X204950000Y-72450000D01*
X204950000Y-71312500D01*
X205050000Y-71312500D01*
X205050000Y-72450000D01*
X206187500Y-72450000D01*
X206300000Y-72337500D01*
X206300000Y-71560490D01*
X206231492Y-71395096D01*
X206104905Y-71268509D01*
X205939511Y-71200000D01*
X205162500Y-71200000D01*
X205050000Y-71312500D01*
X204950000Y-71312500D01*
X204837500Y-71200000D01*
X204060489Y-71200000D01*
X203895095Y-71268509D01*
X203768508Y-71395096D01*
X203700000Y-71560490D01*
X198150000Y-71560490D01*
X198150000Y-71150000D01*
X207850000Y-71150000D01*
X207850000Y-82289341D01*
G04 #@! TO.N,Net-(C3-Pad1)*
G36*
X235850000Y-73100812D02*
X235686863Y-72706963D01*
X235293037Y-72313137D01*
X234778477Y-72100000D01*
X234221523Y-72100000D01*
X233706963Y-72313137D01*
X233313137Y-72706963D01*
X233100000Y-73221523D01*
X233100000Y-73778477D01*
X233313137Y-74293037D01*
X233649437Y-74629337D01*
X233435401Y-74671911D01*
X233253472Y-74793472D01*
X233131911Y-74975401D01*
X233089225Y-75190000D01*
X233089225Y-76890000D01*
X233131911Y-77104599D01*
X233253472Y-77286528D01*
X233288600Y-77310000D01*
X233253472Y-77333472D01*
X233131911Y-77515401D01*
X233089225Y-77730000D01*
X233089225Y-79430000D01*
X233131911Y-79644599D01*
X233253472Y-79826528D01*
X233288600Y-79850000D01*
X233253472Y-79873472D01*
X233131911Y-80055401D01*
X233089225Y-80270000D01*
X233089225Y-81970000D01*
X233131911Y-82184599D01*
X233253472Y-82366528D01*
X233288600Y-82390000D01*
X233253472Y-82413472D01*
X233131911Y-82595401D01*
X233089225Y-82810000D01*
X233089225Y-84510000D01*
X233131911Y-84724599D01*
X233253472Y-84906528D01*
X233288600Y-84930000D01*
X233253472Y-84953472D01*
X233131911Y-85135401D01*
X233089225Y-85350000D01*
X233089225Y-87050000D01*
X233131911Y-87264599D01*
X233253472Y-87446528D01*
X233435401Y-87568089D01*
X233650000Y-87610775D01*
X235350000Y-87610775D01*
X235564599Y-87568089D01*
X235746528Y-87446528D01*
X235850000Y-87291671D01*
X235850000Y-93711562D01*
X235433424Y-92705859D01*
X234294141Y-91566576D01*
X232805595Y-90950000D01*
X231194405Y-90950000D01*
X229705859Y-91566576D01*
X228566576Y-92705859D01*
X227950000Y-94194405D01*
X227950000Y-95805595D01*
X228566576Y-97294141D01*
X229705859Y-98433424D01*
X230711562Y-98850000D01*
X208650000Y-98850000D01*
X208650000Y-94430388D01*
X208694629Y-94538132D01*
X208961868Y-94805371D01*
X209311033Y-94950000D01*
X209688967Y-94950000D01*
X210038132Y-94805371D01*
X210305371Y-94538132D01*
X210450000Y-94188967D01*
X210450000Y-93811033D01*
X210305371Y-93461868D01*
X210038132Y-93194629D01*
X209688967Y-93050000D01*
X209610660Y-93050000D01*
X208650000Y-92089340D01*
X208650000Y-85210659D01*
X215917437Y-92478097D01*
X215959280Y-92540720D01*
X216119205Y-92647578D01*
X216207364Y-92706484D01*
X216500000Y-92764693D01*
X216573866Y-92750000D01*
X226406497Y-92750000D01*
X226461868Y-92805371D01*
X226811033Y-92950000D01*
X227188967Y-92950000D01*
X227538132Y-92805371D01*
X227805371Y-92538132D01*
X227950000Y-92188967D01*
X227950000Y-91811033D01*
X227805371Y-91461868D01*
X227538132Y-91194629D01*
X227188967Y-91050000D01*
X226811033Y-91050000D01*
X226461868Y-91194629D01*
X226406497Y-91250000D01*
X216810660Y-91250000D01*
X208650000Y-83089341D01*
X208650000Y-81700000D01*
X216439225Y-81700000D01*
X216439225Y-82700000D01*
X216519972Y-83105941D01*
X216594306Y-83217190D01*
X216481911Y-83385401D01*
X216439225Y-83600000D01*
X216439225Y-85600000D01*
X216479007Y-85800000D01*
X216439225Y-86000000D01*
X216439225Y-88000000D01*
X216481911Y-88214599D01*
X216603472Y-88396528D01*
X216785401Y-88518089D01*
X217000000Y-88560775D01*
X221000000Y-88560775D01*
X221214599Y-88518089D01*
X221396528Y-88396528D01*
X221518089Y-88214599D01*
X221560775Y-88000000D01*
X221560775Y-86000000D01*
X221520993Y-85800000D01*
X221560775Y-85600000D01*
X221560775Y-83600000D01*
X221518089Y-83385401D01*
X221405694Y-83217190D01*
X221480028Y-83105941D01*
X221560775Y-82700000D01*
X221560775Y-81700000D01*
X221480028Y-81294059D01*
X221250081Y-80949919D01*
X220905941Y-80719972D01*
X220500000Y-80639225D01*
X217500000Y-80639225D01*
X217094059Y-80719972D01*
X216749919Y-80949919D01*
X216519972Y-81294059D01*
X216439225Y-81700000D01*
X208650000Y-81700000D01*
X208650000Y-75000000D01*
X212899225Y-75000000D01*
X212899225Y-78000000D01*
X212979972Y-78405941D01*
X213209919Y-78750081D01*
X213554059Y-78980028D01*
X213960000Y-79060775D01*
X214960000Y-79060775D01*
X215365941Y-78980028D01*
X215710081Y-78750081D01*
X215730000Y-78720270D01*
X215749919Y-78750081D01*
X216094059Y-78980028D01*
X216500000Y-79060775D01*
X217500000Y-79060775D01*
X217905941Y-78980028D01*
X218192296Y-78788692D01*
X218285095Y-78881491D01*
X218450489Y-78950000D01*
X219377500Y-78950000D01*
X219490000Y-78837500D01*
X219490000Y-76550000D01*
X219590000Y-76550000D01*
X219590000Y-78837500D01*
X219702500Y-78950000D01*
X220629511Y-78950000D01*
X220794905Y-78881491D01*
X220921492Y-78754904D01*
X220990000Y-78589510D01*
X220990000Y-76662500D01*
X220877500Y-76550000D01*
X219590000Y-76550000D01*
X219490000Y-76550000D01*
X219470000Y-76550000D01*
X219470000Y-76450000D01*
X219490000Y-76450000D01*
X219490000Y-74162500D01*
X219590000Y-74162500D01*
X219590000Y-76450000D01*
X220877500Y-76450000D01*
X220990000Y-76337500D01*
X220990000Y-74410490D01*
X220921492Y-74245096D01*
X220794905Y-74118509D01*
X220629511Y-74050000D01*
X219702500Y-74050000D01*
X219590000Y-74162500D01*
X219490000Y-74162500D01*
X219377500Y-74050000D01*
X218450489Y-74050000D01*
X218285095Y-74118509D01*
X218192296Y-74211308D01*
X217905941Y-74019972D01*
X217500000Y-73939225D01*
X216500000Y-73939225D01*
X216094059Y-74019972D01*
X215749919Y-74249919D01*
X215730000Y-74279730D01*
X215710081Y-74249919D01*
X215365941Y-74019972D01*
X214960000Y-73939225D01*
X213960000Y-73939225D01*
X213554059Y-74019972D01*
X213209919Y-74249919D01*
X212979972Y-74594059D01*
X212899225Y-75000000D01*
X208650000Y-75000000D01*
X208650000Y-72662500D01*
X209200000Y-72662500D01*
X209200000Y-73439511D01*
X209268509Y-73604905D01*
X209395096Y-73731492D01*
X209560490Y-73800000D01*
X210337500Y-73800000D01*
X210450000Y-73687500D01*
X210450000Y-72550000D01*
X210550000Y-72550000D01*
X210550000Y-73687500D01*
X210662500Y-73800000D01*
X211439510Y-73800000D01*
X211604904Y-73731492D01*
X211731491Y-73604905D01*
X211800000Y-73439511D01*
X211800000Y-72662500D01*
X211687500Y-72550000D01*
X210550000Y-72550000D01*
X210450000Y-72550000D01*
X209312500Y-72550000D01*
X209200000Y-72662500D01*
X208650000Y-72662500D01*
X208650000Y-71560489D01*
X209200000Y-71560489D01*
X209200000Y-72337500D01*
X209312500Y-72450000D01*
X210450000Y-72450000D01*
X210450000Y-71312500D01*
X210550000Y-71312500D01*
X210550000Y-72450000D01*
X211687500Y-72450000D01*
X211800000Y-72337500D01*
X211800000Y-71560489D01*
X211731491Y-71395095D01*
X211604904Y-71268508D01*
X211439510Y-71200000D01*
X210662500Y-71200000D01*
X210550000Y-71312500D01*
X210450000Y-71312500D01*
X210337500Y-71200000D01*
X209560490Y-71200000D01*
X209395096Y-71268508D01*
X209268509Y-71395095D01*
X209200000Y-71560489D01*
X208650000Y-71560489D01*
X208650000Y-71150000D01*
X235850000Y-71150000D01*
X235850000Y-73100812D01*
X235850000Y-73100812D01*
G37*
X235850000Y-73100812D02*
X235686863Y-72706963D01*
X235293037Y-72313137D01*
X234778477Y-72100000D01*
X234221523Y-72100000D01*
X233706963Y-72313137D01*
X233313137Y-72706963D01*
X233100000Y-73221523D01*
X233100000Y-73778477D01*
X233313137Y-74293037D01*
X233649437Y-74629337D01*
X233435401Y-74671911D01*
X233253472Y-74793472D01*
X233131911Y-74975401D01*
X233089225Y-75190000D01*
X233089225Y-76890000D01*
X233131911Y-77104599D01*
X233253472Y-77286528D01*
X233288600Y-77310000D01*
X233253472Y-77333472D01*
X233131911Y-77515401D01*
X233089225Y-77730000D01*
X233089225Y-79430000D01*
X233131911Y-79644599D01*
X233253472Y-79826528D01*
X233288600Y-79850000D01*
X233253472Y-79873472D01*
X233131911Y-80055401D01*
X233089225Y-80270000D01*
X233089225Y-81970000D01*
X233131911Y-82184599D01*
X233253472Y-82366528D01*
X233288600Y-82390000D01*
X233253472Y-82413472D01*
X233131911Y-82595401D01*
X233089225Y-82810000D01*
X233089225Y-84510000D01*
X233131911Y-84724599D01*
X233253472Y-84906528D01*
X233288600Y-84930000D01*
X233253472Y-84953472D01*
X233131911Y-85135401D01*
X233089225Y-85350000D01*
X233089225Y-87050000D01*
X233131911Y-87264599D01*
X233253472Y-87446528D01*
X233435401Y-87568089D01*
X233650000Y-87610775D01*
X235350000Y-87610775D01*
X235564599Y-87568089D01*
X235746528Y-87446528D01*
X235850000Y-87291671D01*
X235850000Y-93711562D01*
X235433424Y-92705859D01*
X234294141Y-91566576D01*
X232805595Y-90950000D01*
X231194405Y-90950000D01*
X229705859Y-91566576D01*
X228566576Y-92705859D01*
X227950000Y-94194405D01*
X227950000Y-95805595D01*
X228566576Y-97294141D01*
X229705859Y-98433424D01*
X230711562Y-98850000D01*
X208650000Y-98850000D01*
X208650000Y-94430388D01*
X208694629Y-94538132D01*
X208961868Y-94805371D01*
X209311033Y-94950000D01*
X209688967Y-94950000D01*
X210038132Y-94805371D01*
X210305371Y-94538132D01*
X210450000Y-94188967D01*
X210450000Y-93811033D01*
X210305371Y-93461868D01*
X210038132Y-93194629D01*
X209688967Y-93050000D01*
X209610660Y-93050000D01*
X208650000Y-92089340D01*
X208650000Y-85210659D01*
X215917437Y-92478097D01*
X215959280Y-92540720D01*
X216119205Y-92647578D01*
X216207364Y-92706484D01*
X216500000Y-92764693D01*
X216573866Y-92750000D01*
X226406497Y-92750000D01*
X226461868Y-92805371D01*
X226811033Y-92950000D01*
X227188967Y-92950000D01*
X227538132Y-92805371D01*
X227805371Y-92538132D01*
X227950000Y-92188967D01*
X227950000Y-91811033D01*
X227805371Y-91461868D01*
X227538132Y-91194629D01*
X227188967Y-91050000D01*
X226811033Y-91050000D01*
X226461868Y-91194629D01*
X226406497Y-91250000D01*
X216810660Y-91250000D01*
X208650000Y-83089341D01*
X208650000Y-81700000D01*
X216439225Y-81700000D01*
X216439225Y-82700000D01*
X216519972Y-83105941D01*
X216594306Y-83217190D01*
X216481911Y-83385401D01*
X216439225Y-83600000D01*
X216439225Y-85600000D01*
X216479007Y-85800000D01*
X216439225Y-86000000D01*
X216439225Y-88000000D01*
X216481911Y-88214599D01*
X216603472Y-88396528D01*
X216785401Y-88518089D01*
X217000000Y-88560775D01*
X221000000Y-88560775D01*
X221214599Y-88518089D01*
X221396528Y-88396528D01*
X221518089Y-88214599D01*
X221560775Y-88000000D01*
X221560775Y-86000000D01*
X221520993Y-85800000D01*
X221560775Y-85600000D01*
X221560775Y-83600000D01*
X221518089Y-83385401D01*
X221405694Y-83217190D01*
X221480028Y-83105941D01*
X221560775Y-82700000D01*
X221560775Y-81700000D01*
X221480028Y-81294059D01*
X221250081Y-80949919D01*
X220905941Y-80719972D01*
X220500000Y-80639225D01*
X217500000Y-80639225D01*
X217094059Y-80719972D01*
X216749919Y-80949919D01*
X216519972Y-81294059D01*
X216439225Y-81700000D01*
X208650000Y-81700000D01*
X208650000Y-75000000D01*
X212899225Y-75000000D01*
X212899225Y-78000000D01*
X212979972Y-78405941D01*
X213209919Y-78750081D01*
X213554059Y-78980028D01*
X213960000Y-79060775D01*
X214960000Y-79060775D01*
X215365941Y-78980028D01*
X215710081Y-78750081D01*
X215730000Y-78720270D01*
X215749919Y-78750081D01*
X216094059Y-78980028D01*
X216500000Y-79060775D01*
X217500000Y-79060775D01*
X217905941Y-78980028D01*
X218192296Y-78788692D01*
X218285095Y-78881491D01*
X218450489Y-78950000D01*
X219377500Y-78950000D01*
X219490000Y-78837500D01*
X219490000Y-76550000D01*
X219590000Y-76550000D01*
X219590000Y-78837500D01*
X219702500Y-78950000D01*
X220629511Y-78950000D01*
X220794905Y-78881491D01*
X220921492Y-78754904D01*
X220990000Y-78589510D01*
X220990000Y-76662500D01*
X220877500Y-76550000D01*
X219590000Y-76550000D01*
X219490000Y-76550000D01*
X219470000Y-76550000D01*
X219470000Y-76450000D01*
X219490000Y-76450000D01*
X219490000Y-74162500D01*
X219590000Y-74162500D01*
X219590000Y-76450000D01*
X220877500Y-76450000D01*
X220990000Y-76337500D01*
X220990000Y-74410490D01*
X220921492Y-74245096D01*
X220794905Y-74118509D01*
X220629511Y-74050000D01*
X219702500Y-74050000D01*
X219590000Y-74162500D01*
X219490000Y-74162500D01*
X219377500Y-74050000D01*
X218450489Y-74050000D01*
X218285095Y-74118509D01*
X218192296Y-74211308D01*
X217905941Y-74019972D01*
X217500000Y-73939225D01*
X216500000Y-73939225D01*
X216094059Y-74019972D01*
X215749919Y-74249919D01*
X215730000Y-74279730D01*
X215710081Y-74249919D01*
X215365941Y-74019972D01*
X214960000Y-73939225D01*
X213960000Y-73939225D01*
X213554059Y-74019972D01*
X213209919Y-74249919D01*
X212979972Y-74594059D01*
X212899225Y-75000000D01*
X208650000Y-75000000D01*
X208650000Y-72662500D01*
X209200000Y-72662500D01*
X209200000Y-73439511D01*
X209268509Y-73604905D01*
X209395096Y-73731492D01*
X209560490Y-73800000D01*
X210337500Y-73800000D01*
X210450000Y-73687500D01*
X210450000Y-72550000D01*
X210550000Y-72550000D01*
X210550000Y-73687500D01*
X210662500Y-73800000D01*
X211439510Y-73800000D01*
X211604904Y-73731492D01*
X211731491Y-73604905D01*
X211800000Y-73439511D01*
X211800000Y-72662500D01*
X211687500Y-72550000D01*
X210550000Y-72550000D01*
X210450000Y-72550000D01*
X209312500Y-72550000D01*
X209200000Y-72662500D01*
X208650000Y-72662500D01*
X208650000Y-71560489D01*
X209200000Y-71560489D01*
X209200000Y-72337500D01*
X209312500Y-72450000D01*
X210450000Y-72450000D01*
X210450000Y-71312500D01*
X210550000Y-71312500D01*
X210550000Y-72450000D01*
X211687500Y-72450000D01*
X211800000Y-72337500D01*
X211800000Y-71560489D01*
X211731491Y-71395095D01*
X211604904Y-71268508D01*
X211439510Y-71200000D01*
X210662500Y-71200000D01*
X210550000Y-71312500D01*
X210450000Y-71312500D01*
X210337500Y-71200000D01*
X209560490Y-71200000D01*
X209395096Y-71268508D01*
X209268509Y-71395095D01*
X209200000Y-71560489D01*
X208650000Y-71560489D01*
X208650000Y-71150000D01*
X235850000Y-71150000D01*
X235850000Y-73100812D01*
G04 #@! TD*
M02*
