G04 #@! TF.GenerationSoftware,KiCad,Pcbnew,(5.0.0)*
G04 #@! TF.CreationDate,2019-01-30T09:07:07+03:00*
G04 #@! TF.ProjectId,module,6D6F64756C652E6B696361645F706362,rev?*
G04 #@! TF.SameCoordinates,Original*
G04 #@! TF.FileFunction,Soldermask,Bot*
G04 #@! TF.FilePolarity,Negative*
%FSLAX46Y46*%
G04 Gerber Fmt 4.6, Leading zero omitted, Abs format (unit mm)*
G04 Created by KiCad (PCBNEW (5.0.0)) date 01/30/19 09:07:07*
%MOMM*%
%LPD*%
G01*
G04 APERTURE LIST*
%ADD10C,2.100000*%
%ADD11R,2.100000X2.100000*%
%ADD12C,7.400000*%
%ADD13C,0.100000*%
%ADD14C,2.400000*%
%ADD15R,4.400000X2.400000*%
G04 APERTURE END LIST*
D10*
G04 #@! TO.C,XP1*
X199500000Y-76000000D03*
D11*
X199500000Y-78540000D03*
X199500000Y-81080000D03*
X199500000Y-83620000D03*
X199500000Y-86160000D03*
X199500000Y-88700000D03*
X199500000Y-91240000D03*
X199500000Y-93780000D03*
G04 #@! TD*
D10*
G04 #@! TO.C,XP2*
X234500000Y-73500000D03*
D11*
X234500000Y-76040000D03*
X234500000Y-78580000D03*
X234500000Y-81120000D03*
X234500000Y-83660000D03*
X234500000Y-86200000D03*
G04 #@! TD*
G04 #@! TO.C,FU1*
X210500000Y-72500000D03*
X205000000Y-72500000D03*
G04 #@! TD*
D12*
G04 #@! TO.C,rM3*
X232000000Y-95000000D03*
G04 #@! TD*
D13*
G04 #@! TO.C,VT3*
G36*
X215118810Y-74302889D02*
X215177054Y-74311529D01*
X215234171Y-74325836D01*
X215289610Y-74345672D01*
X215342838Y-74370847D01*
X215393342Y-74401118D01*
X215440636Y-74436194D01*
X215484264Y-74475736D01*
X215523806Y-74519364D01*
X215558882Y-74566658D01*
X215589153Y-74617162D01*
X215614328Y-74670390D01*
X215634164Y-74725829D01*
X215648471Y-74782946D01*
X215657111Y-74841190D01*
X215660000Y-74900000D01*
X215660000Y-78100000D01*
X215657111Y-78158810D01*
X215648471Y-78217054D01*
X215634164Y-78274171D01*
X215614328Y-78329610D01*
X215589153Y-78382838D01*
X215558882Y-78433342D01*
X215523806Y-78480636D01*
X215484264Y-78524264D01*
X215440636Y-78563806D01*
X215393342Y-78598882D01*
X215342838Y-78629153D01*
X215289610Y-78654328D01*
X215234171Y-78674164D01*
X215177054Y-78688471D01*
X215118810Y-78697111D01*
X215060000Y-78700000D01*
X213860000Y-78700000D01*
X213801190Y-78697111D01*
X213742946Y-78688471D01*
X213685829Y-78674164D01*
X213630390Y-78654328D01*
X213577162Y-78629153D01*
X213526658Y-78598882D01*
X213479364Y-78563806D01*
X213435736Y-78524264D01*
X213396194Y-78480636D01*
X213361118Y-78433342D01*
X213330847Y-78382838D01*
X213305672Y-78329610D01*
X213285836Y-78274171D01*
X213271529Y-78217054D01*
X213262889Y-78158810D01*
X213260000Y-78100000D01*
X213260000Y-74900000D01*
X213262889Y-74841190D01*
X213271529Y-74782946D01*
X213285836Y-74725829D01*
X213305672Y-74670390D01*
X213330847Y-74617162D01*
X213361118Y-74566658D01*
X213396194Y-74519364D01*
X213435736Y-74475736D01*
X213479364Y-74436194D01*
X213526658Y-74401118D01*
X213577162Y-74370847D01*
X213630390Y-74345672D01*
X213685829Y-74325836D01*
X213742946Y-74311529D01*
X213801190Y-74302889D01*
X213860000Y-74300000D01*
X215060000Y-74300000D01*
X215118810Y-74302889D01*
X215118810Y-74302889D01*
G37*
D14*
X214460000Y-76500000D03*
D13*
G36*
X217658810Y-74302889D02*
X217717054Y-74311529D01*
X217774171Y-74325836D01*
X217829610Y-74345672D01*
X217882838Y-74370847D01*
X217933342Y-74401118D01*
X217980636Y-74436194D01*
X218024264Y-74475736D01*
X218063806Y-74519364D01*
X218098882Y-74566658D01*
X218129153Y-74617162D01*
X218154328Y-74670390D01*
X218174164Y-74725829D01*
X218188471Y-74782946D01*
X218197111Y-74841190D01*
X218200000Y-74900000D01*
X218200000Y-78100000D01*
X218197111Y-78158810D01*
X218188471Y-78217054D01*
X218174164Y-78274171D01*
X218154328Y-78329610D01*
X218129153Y-78382838D01*
X218098882Y-78433342D01*
X218063806Y-78480636D01*
X218024264Y-78524264D01*
X217980636Y-78563806D01*
X217933342Y-78598882D01*
X217882838Y-78629153D01*
X217829610Y-78654328D01*
X217774171Y-78674164D01*
X217717054Y-78688471D01*
X217658810Y-78697111D01*
X217600000Y-78700000D01*
X216400000Y-78700000D01*
X216341190Y-78697111D01*
X216282946Y-78688471D01*
X216225829Y-78674164D01*
X216170390Y-78654328D01*
X216117162Y-78629153D01*
X216066658Y-78598882D01*
X216019364Y-78563806D01*
X215975736Y-78524264D01*
X215936194Y-78480636D01*
X215901118Y-78433342D01*
X215870847Y-78382838D01*
X215845672Y-78329610D01*
X215825836Y-78274171D01*
X215811529Y-78217054D01*
X215802889Y-78158810D01*
X215800000Y-78100000D01*
X215800000Y-74900000D01*
X215802889Y-74841190D01*
X215811529Y-74782946D01*
X215825836Y-74725829D01*
X215845672Y-74670390D01*
X215870847Y-74617162D01*
X215901118Y-74566658D01*
X215936194Y-74519364D01*
X215975736Y-74475736D01*
X216019364Y-74436194D01*
X216066658Y-74401118D01*
X216117162Y-74370847D01*
X216170390Y-74345672D01*
X216225829Y-74325836D01*
X216282946Y-74311529D01*
X216341190Y-74302889D01*
X216400000Y-74300000D01*
X217600000Y-74300000D01*
X217658810Y-74302889D01*
X217658810Y-74302889D01*
G37*
D14*
X217000000Y-76500000D03*
D13*
G36*
X220198810Y-74302889D02*
X220257054Y-74311529D01*
X220314171Y-74325836D01*
X220369610Y-74345672D01*
X220422838Y-74370847D01*
X220473342Y-74401118D01*
X220520636Y-74436194D01*
X220564264Y-74475736D01*
X220603806Y-74519364D01*
X220638882Y-74566658D01*
X220669153Y-74617162D01*
X220694328Y-74670390D01*
X220714164Y-74725829D01*
X220728471Y-74782946D01*
X220737111Y-74841190D01*
X220740000Y-74900000D01*
X220740000Y-78100000D01*
X220737111Y-78158810D01*
X220728471Y-78217054D01*
X220714164Y-78274171D01*
X220694328Y-78329610D01*
X220669153Y-78382838D01*
X220638882Y-78433342D01*
X220603806Y-78480636D01*
X220564264Y-78524264D01*
X220520636Y-78563806D01*
X220473342Y-78598882D01*
X220422838Y-78629153D01*
X220369610Y-78654328D01*
X220314171Y-78674164D01*
X220257054Y-78688471D01*
X220198810Y-78697111D01*
X220140000Y-78700000D01*
X218940000Y-78700000D01*
X218881190Y-78697111D01*
X218822946Y-78688471D01*
X218765829Y-78674164D01*
X218710390Y-78654328D01*
X218657162Y-78629153D01*
X218606658Y-78598882D01*
X218559364Y-78563806D01*
X218515736Y-78524264D01*
X218476194Y-78480636D01*
X218441118Y-78433342D01*
X218410847Y-78382838D01*
X218385672Y-78329610D01*
X218365836Y-78274171D01*
X218351529Y-78217054D01*
X218342889Y-78158810D01*
X218340000Y-78100000D01*
X218340000Y-74900000D01*
X218342889Y-74841190D01*
X218351529Y-74782946D01*
X218365836Y-74725829D01*
X218385672Y-74670390D01*
X218410847Y-74617162D01*
X218441118Y-74566658D01*
X218476194Y-74519364D01*
X218515736Y-74475736D01*
X218559364Y-74436194D01*
X218606658Y-74401118D01*
X218657162Y-74370847D01*
X218710390Y-74345672D01*
X218765829Y-74325836D01*
X218822946Y-74311529D01*
X218881190Y-74302889D01*
X218940000Y-74300000D01*
X220140000Y-74300000D01*
X220198810Y-74302889D01*
X220198810Y-74302889D01*
G37*
D14*
X219540000Y-76500000D03*
G04 #@! TD*
D13*
G04 #@! TO.C,VT4*
G36*
X220658810Y-81002889D02*
X220717054Y-81011529D01*
X220774171Y-81025836D01*
X220829610Y-81045672D01*
X220882838Y-81070847D01*
X220933342Y-81101118D01*
X220980636Y-81136194D01*
X221024264Y-81175736D01*
X221063806Y-81219364D01*
X221098882Y-81266658D01*
X221129153Y-81317162D01*
X221154328Y-81370390D01*
X221174164Y-81425829D01*
X221188471Y-81482946D01*
X221197111Y-81541190D01*
X221200000Y-81600000D01*
X221200000Y-82800000D01*
X221197111Y-82858810D01*
X221188471Y-82917054D01*
X221174164Y-82974171D01*
X221154328Y-83029610D01*
X221129153Y-83082838D01*
X221098882Y-83133342D01*
X221063806Y-83180636D01*
X221024264Y-83224264D01*
X220980636Y-83263806D01*
X220933342Y-83298882D01*
X220882838Y-83329153D01*
X220829610Y-83354328D01*
X220774171Y-83374164D01*
X220717054Y-83388471D01*
X220658810Y-83397111D01*
X220600000Y-83400000D01*
X217400000Y-83400000D01*
X217341190Y-83397111D01*
X217282946Y-83388471D01*
X217225829Y-83374164D01*
X217170390Y-83354328D01*
X217117162Y-83329153D01*
X217066658Y-83298882D01*
X217019364Y-83263806D01*
X216975736Y-83224264D01*
X216936194Y-83180636D01*
X216901118Y-83133342D01*
X216870847Y-83082838D01*
X216845672Y-83029610D01*
X216825836Y-82974171D01*
X216811529Y-82917054D01*
X216802889Y-82858810D01*
X216800000Y-82800000D01*
X216800000Y-81600000D01*
X216802889Y-81541190D01*
X216811529Y-81482946D01*
X216825836Y-81425829D01*
X216845672Y-81370390D01*
X216870847Y-81317162D01*
X216901118Y-81266658D01*
X216936194Y-81219364D01*
X216975736Y-81175736D01*
X217019364Y-81136194D01*
X217066658Y-81101118D01*
X217117162Y-81070847D01*
X217170390Y-81045672D01*
X217225829Y-81025836D01*
X217282946Y-81011529D01*
X217341190Y-81002889D01*
X217400000Y-81000000D01*
X220600000Y-81000000D01*
X220658810Y-81002889D01*
X220658810Y-81002889D01*
G37*
D14*
X219000000Y-82200000D03*
D15*
X219000000Y-84600000D03*
X219000000Y-87000000D03*
G04 #@! TD*
M02*
