G04 #@! TF.GenerationSoftware,KiCad,Pcbnew,(5.0.0)*
G04 #@! TF.CreationDate,2019-01-30T09:11:06+03:00*
G04 #@! TF.ProjectId,plata_avr,706C6174615F6176722E6B696361645F,rev?*
G04 #@! TF.SameCoordinates,Original*
G04 #@! TF.FileFunction,Copper,L1,Top,Signal*
G04 #@! TF.FilePolarity,Positive*
%FSLAX46Y46*%
G04 Gerber Fmt 4.6, Leading zero omitted, Abs format (unit mm)*
G04 Created by KiCad (PCBNEW (5.0.0)) date 01/30/19 09:11:06*
%MOMM*%
%LPD*%
G01*
G04 APERTURE LIST*
G04 #@! TA.AperFunction,NonConductor*
%ADD10C,0.300000*%
G04 #@! TD*
G04 #@! TA.AperFunction,SMDPad,CuDef*
%ADD11R,0.550000X1.500000*%
G04 #@! TD*
G04 #@! TA.AperFunction,SMDPad,CuDef*
%ADD12R,1.500000X0.550000*%
G04 #@! TD*
G04 #@! TA.AperFunction,SMDPad,CuDef*
%ADD13R,1.000000X1.000000*%
G04 #@! TD*
G04 #@! TA.AperFunction,ComponentPad*
%ADD14C,1.700000*%
G04 #@! TD*
G04 #@! TA.AperFunction,ComponentPad*
%ADD15R,1.700000X1.700000*%
G04 #@! TD*
G04 #@! TA.AperFunction,ViaPad*
%ADD16C,0.800000*%
G04 #@! TD*
G04 #@! TA.AperFunction,Conductor*
%ADD17C,0.250000*%
G04 #@! TD*
G04 #@! TA.AperFunction,Conductor*
%ADD18C,0.254000*%
G04 #@! TD*
G04 APERTURE END LIST*
D10*
X98714285Y-111678571D02*
X98714285Y-110892857D01*
X98642857Y-110750000D01*
X98500000Y-110678571D01*
X98214285Y-110678571D01*
X98071428Y-110750000D01*
X98714285Y-111607142D02*
X98571428Y-111678571D01*
X98214285Y-111678571D01*
X98071428Y-111607142D01*
X98000000Y-111464285D01*
X98000000Y-111321428D01*
X98071428Y-111178571D01*
X98214285Y-111107142D01*
X98571428Y-111107142D01*
X98714285Y-111035714D01*
X99285714Y-110678571D02*
X99642857Y-111678571D01*
X100000000Y-110678571D01*
X100571428Y-111678571D02*
X100571428Y-110678571D01*
X100571428Y-110964285D02*
X100642857Y-110821428D01*
X100714285Y-110750000D01*
X100857142Y-110678571D01*
X101000000Y-110678571D01*
X101500000Y-111535714D02*
X101571428Y-111607142D01*
X101500000Y-111678571D01*
X101428571Y-111607142D01*
X101500000Y-111535714D01*
X101500000Y-111678571D01*
X102500000Y-110178571D02*
X102642857Y-110178571D01*
X102785714Y-110250000D01*
X102857142Y-110321428D01*
X102928571Y-110464285D01*
X103000000Y-110750000D01*
X103000000Y-111107142D01*
X102928571Y-111392857D01*
X102857142Y-111535714D01*
X102785714Y-111607142D01*
X102642857Y-111678571D01*
X102500000Y-111678571D01*
X102357142Y-111607142D01*
X102285714Y-111535714D01*
X102214285Y-111392857D01*
X102142857Y-111107142D01*
X102142857Y-110750000D01*
X102214285Y-110464285D01*
X102285714Y-110321428D01*
X102357142Y-110250000D01*
X102500000Y-110178571D01*
D11*
G04 #@! TO.P,DD1,1*
G04 #@! TO.N,pd3*
X109200000Y-93750000D03*
G04 #@! TO.P,DD1,2*
G04 #@! TO.N,pd4*
X108400000Y-93750000D03*
G04 #@! TO.P,DD1,3*
G04 #@! TO.N,gnd*
X107600000Y-93750000D03*
G04 #@! TO.P,DD1,4*
G04 #@! TO.N,vcc*
X106800000Y-93750000D03*
G04 #@! TO.P,DD1,5*
G04 #@! TO.N,gnd*
X106000000Y-93750000D03*
G04 #@! TO.P,DD1,6*
G04 #@! TO.N,vcc*
X105200000Y-93750000D03*
G04 #@! TO.P,DD1,7*
G04 #@! TO.N,pb6*
X104400000Y-93750000D03*
G04 #@! TO.P,DD1,8*
G04 #@! TO.N,pb7*
X103600000Y-93750000D03*
D12*
G04 #@! TO.P,DD1,9*
G04 #@! TO.N,pd5*
X101900000Y-95450000D03*
G04 #@! TO.P,DD1,10*
G04 #@! TO.N,pd6*
X101900000Y-96250000D03*
G04 #@! TO.P,DD1,11*
G04 #@! TO.N,pd7*
X101900000Y-97050000D03*
G04 #@! TO.P,DD1,12*
G04 #@! TO.N,pb0*
X101900000Y-97850000D03*
G04 #@! TO.P,DD1,13*
G04 #@! TO.N,pb1*
X101900000Y-98650000D03*
G04 #@! TO.P,DD1,14*
G04 #@! TO.N,pb2*
X101900000Y-99450000D03*
G04 #@! TO.P,DD1,15*
G04 #@! TO.N,mosi*
X101900000Y-100250000D03*
G04 #@! TO.P,DD1,16*
G04 #@! TO.N,miso*
X101900000Y-101050000D03*
D11*
G04 #@! TO.P,DD1,17*
G04 #@! TO.N,sck*
X103600000Y-102750000D03*
G04 #@! TO.P,DD1,18*
G04 #@! TO.N,avcc*
X104400000Y-102750000D03*
G04 #@! TO.P,DD1,19*
G04 #@! TO.N,adc6*
X105200000Y-102750000D03*
G04 #@! TO.P,DD1,20*
G04 #@! TO.N,aref*
X106000000Y-102750000D03*
G04 #@! TO.P,DD1,21*
G04 #@! TO.N,gnd*
X106800000Y-102750000D03*
G04 #@! TO.P,DD1,22*
G04 #@! TO.N,adc7*
X107600000Y-102750000D03*
G04 #@! TO.P,DD1,23*
G04 #@! TO.N,pc0*
X108400000Y-102750000D03*
G04 #@! TO.P,DD1,24*
G04 #@! TO.N,pc1*
X109200000Y-102750000D03*
D12*
G04 #@! TO.P,DD1,25*
G04 #@! TO.N,pc2*
X110950000Y-101050000D03*
G04 #@! TO.P,DD1,26*
G04 #@! TO.N,pc3*
X110950000Y-100250000D03*
G04 #@! TO.P,DD1,27*
G04 #@! TO.N,pc4*
X110950000Y-99450000D03*
G04 #@! TO.P,DD1,28*
G04 #@! TO.N,Net-(DD1-Pad28)*
X110950000Y-98650000D03*
G04 #@! TO.P,DD1,29*
G04 #@! TO.N,res*
X110950000Y-97850000D03*
G04 #@! TO.P,DD1,30*
G04 #@! TO.N,rx*
X110950000Y-97050000D03*
G04 #@! TO.P,DD1,31*
G04 #@! TO.N,tx*
X110950000Y-96250000D03*
G04 #@! TO.P,DD1,32*
G04 #@! TO.N,Net-(DD1-Pad32)*
X110950000Y-95450000D03*
G04 #@! TD*
D13*
G04 #@! TO.P,HL1,1*
G04 #@! TO.N,Net-(HL1-Pad1)*
X100000000Y-106500000D03*
G04 #@! TO.P,HL1,2*
G04 #@! TO.N,gnd*
X98500000Y-106500000D03*
G04 #@! TD*
D14*
G04 #@! TO.P,XP1,1*
G04 #@! TO.N,pd3*
X94000000Y-88500000D03*
D15*
G04 #@! TO.P,XP1,2*
G04 #@! TO.N,pd4*
X94000000Y-91040000D03*
G04 #@! TO.P,XP1,3*
G04 #@! TO.N,pb6*
X94000000Y-93580000D03*
G04 #@! TO.P,XP1,4*
G04 #@! TO.N,pb7*
X94000000Y-96120000D03*
G04 #@! TO.P,XP1,5*
G04 #@! TO.N,pd5*
X94000000Y-98660000D03*
G04 #@! TO.P,XP1,6*
G04 #@! TO.N,pd6*
X94000000Y-101200000D03*
G04 #@! TO.P,XP1,7*
G04 #@! TO.N,pb0*
X94000000Y-103740000D03*
G04 #@! TO.P,XP1,8*
G04 #@! TO.N,pb2*
X94000000Y-106280000D03*
G04 #@! TO.P,XP1,9*
G04 #@! TO.N,Ucc*
X94000000Y-108820000D03*
G04 #@! TO.P,XP1,10*
G04 #@! TO.N,gnd*
X94000000Y-111360000D03*
G04 #@! TD*
D14*
G04 #@! TO.P,XP2,1*
G04 #@! TO.N,miso*
X105000000Y-111000000D03*
D15*
G04 #@! TO.P,XP2,3*
G04 #@! TO.N,sck*
X107540000Y-111000000D03*
G04 #@! TO.P,XP2,5*
G04 #@! TO.N,res*
X110080000Y-111000000D03*
G04 #@! TO.P,XP2,2*
G04 #@! TO.N,Net-(VD2-Pad1)*
X105000000Y-108460000D03*
G04 #@! TO.P,XP2,4*
G04 #@! TO.N,mosi*
X107540000Y-108460000D03*
G04 #@! TO.P,XP2,6*
G04 #@! TO.N,gnd*
X110080000Y-108460000D03*
G04 #@! TD*
G04 #@! TO.P,XP3,10*
G04 #@! TO.N,tx*
X115000000Y-88640000D03*
G04 #@! TO.P,XP3,9*
G04 #@! TO.N,rx*
X115000000Y-91180000D03*
G04 #@! TO.P,XP3,8*
G04 #@! TO.N,gnd*
X115000000Y-93720000D03*
G04 #@! TO.P,XP3,7*
G04 #@! TO.N,Ucc*
X115000000Y-96260000D03*
G04 #@! TO.P,XP3,6*
G04 #@! TO.N,pc2*
X115000000Y-98800000D03*
G04 #@! TO.P,XP3,5*
G04 #@! TO.N,pc1*
X115000000Y-101340000D03*
G04 #@! TO.P,XP3,4*
G04 #@! TO.N,pc0*
X115000000Y-103880000D03*
G04 #@! TO.P,XP3,3*
G04 #@! TO.N,gnd*
X115000000Y-106420000D03*
G04 #@! TO.P,XP3,2*
G04 #@! TO.N,aref*
X115000000Y-108960000D03*
D14*
G04 #@! TO.P,XP3,1*
G04 #@! TO.N,avcc*
X115000000Y-111500000D03*
G04 #@! TD*
D16*
G04 #@! TO.N,vcc*
X96500000Y-94500000D03*
X96000000Y-90000000D03*
X104500000Y-90000000D03*
X102500000Y-107500000D03*
X106000000Y-98500000D03*
G04 #@! TO.N,gnd*
X107500000Y-98500000D03*
X104500000Y-92000000D03*
X97000000Y-106500000D03*
X113000000Y-98500000D03*
X112500000Y-105000000D03*
G04 #@! TO.N,pb1*
X98000000Y-103500000D03*
G04 #@! TO.N,miso*
X102000000Y-102500000D03*
G04 #@! TO.N,res*
X108500000Y-101000000D03*
G04 #@! TO.N,Net-(HL1-Pad1)*
X99987340Y-104512660D03*
G04 #@! TO.N,Ucc*
X107000000Y-100000000D03*
X104500000Y-100000000D03*
G04 #@! TD*
D17*
G04 #@! TO.N,vcc*
X105200000Y-97700000D02*
X105200000Y-93750000D01*
X106000000Y-98500000D02*
X105200000Y-97700000D01*
X106000000Y-98500000D02*
X106800000Y-97700000D01*
X106800000Y-97700000D02*
X106800000Y-93750000D01*
G04 #@! TO.N,gnd*
X107600000Y-93750000D02*
X107600000Y-98400000D01*
X107600000Y-98400000D02*
X107500000Y-98500000D01*
X105250000Y-92000000D02*
X104500000Y-92000000D01*
X106000000Y-92750000D02*
X105250000Y-92000000D01*
X106000000Y-93750000D02*
X106000000Y-92750000D01*
X107899999Y-100173003D02*
X106800000Y-101273002D01*
X106800000Y-101273002D02*
X106800000Y-101750000D01*
X107899999Y-98899999D02*
X107899999Y-100173003D01*
X107500000Y-98500000D02*
X107899999Y-98899999D01*
X106800000Y-101750000D02*
X106800000Y-102750000D01*
X96792908Y-106500000D02*
X98500000Y-106500000D01*
X97000000Y-106500000D02*
X96792908Y-106500000D01*
X94000000Y-111360000D02*
X96140000Y-111360000D01*
X97000000Y-110500000D02*
X97000000Y-108000000D01*
X96140000Y-111360000D02*
X97000000Y-110500000D01*
X97000000Y-106500000D02*
X97000000Y-108000000D01*
X113000000Y-94620000D02*
X113000000Y-98500000D01*
X115000000Y-93720000D02*
X113900000Y-93720000D01*
X113900000Y-93720000D02*
X113000000Y-94620000D01*
X112500000Y-105020000D02*
X112500000Y-105000000D01*
X113900000Y-106420000D02*
X112500000Y-105020000D01*
X115000000Y-106420000D02*
X113900000Y-106420000D01*
G04 #@! TO.N,pd3*
X95202081Y-88500000D02*
X94000000Y-88500000D01*
X107500000Y-88500000D02*
X95202081Y-88500000D01*
X109200000Y-90200000D02*
X107500000Y-88500000D01*
X109200000Y-93750000D02*
X109200000Y-90200000D01*
G04 #@! TO.N,pd4*
X95100000Y-91040000D02*
X94000000Y-91040000D01*
X106690000Y-91040000D02*
X95100000Y-91040000D01*
X108400000Y-92750000D02*
X106690000Y-91040000D01*
X108400000Y-93750000D02*
X108400000Y-92750000D01*
G04 #@! TO.N,pb6*
X96420000Y-93580000D02*
X95100000Y-93580000D01*
X95100000Y-93580000D02*
X94000000Y-93580000D01*
X103460002Y-92000000D02*
X98000000Y-92000000D01*
X104400000Y-92939998D02*
X103460002Y-92000000D01*
X104400000Y-93750000D02*
X104400000Y-92939998D01*
X98000000Y-92000000D02*
X96420000Y-93580000D01*
G04 #@! TO.N,pb7*
X103600000Y-93750000D02*
X98750000Y-93750000D01*
X96380000Y-96120000D02*
X94000000Y-96120000D01*
X98750000Y-93750000D02*
X96380000Y-96120000D01*
G04 #@! TO.N,pd5*
X100900000Y-95450000D02*
X101900000Y-95450000D01*
X98310000Y-95450000D02*
X100900000Y-95450000D01*
X95100000Y-98660000D02*
X98310000Y-95450000D01*
X94000000Y-98660000D02*
X95100000Y-98660000D01*
G04 #@! TO.N,pd6*
X100900000Y-96250000D02*
X101900000Y-96250000D01*
X100050000Y-96250000D02*
X100900000Y-96250000D01*
X95100000Y-101200000D02*
X100050000Y-96250000D01*
X94000000Y-101200000D02*
X95100000Y-101200000D01*
G04 #@! TO.N,pb0*
X98549989Y-100950011D02*
X95760000Y-103740000D01*
X95760000Y-103740000D02*
X95100000Y-103740000D01*
X95100000Y-103740000D02*
X94000000Y-103740000D01*
X98549989Y-100200011D02*
X98549989Y-100950011D01*
X101900000Y-97850000D02*
X100900000Y-97850000D01*
X100900000Y-97850000D02*
X98549989Y-100200011D01*
G04 #@! TO.N,pb1*
X100900000Y-98650000D02*
X99000000Y-100550000D01*
X101900000Y-98650000D02*
X100900000Y-98650000D01*
X99000000Y-102500000D02*
X98000000Y-103500000D01*
X99000000Y-100550000D02*
X99000000Y-102500000D01*
G04 #@! TO.N,pb2*
X99500000Y-103073004D02*
X99500000Y-100850000D01*
X98348002Y-104225002D02*
X99500000Y-103073004D01*
X99500000Y-100850000D02*
X100900000Y-99450000D01*
X97651998Y-104225002D02*
X98348002Y-104225002D01*
X100900000Y-99450000D02*
X101900000Y-99450000D01*
X95597000Y-106280000D02*
X97651998Y-104225002D01*
X94000000Y-106280000D02*
X95597000Y-106280000D01*
G04 #@! TO.N,mosi*
X100000000Y-101150000D02*
X100900000Y-100250000D01*
X100000000Y-102000000D02*
X100000000Y-101150000D01*
X107540000Y-107360000D02*
X107130011Y-106950011D01*
X104950011Y-106950011D02*
X100000000Y-102000000D01*
X107130011Y-106950011D02*
X104950011Y-106950011D01*
X107540000Y-108460000D02*
X107540000Y-107360000D01*
X100900000Y-100250000D02*
X101900000Y-100250000D01*
G04 #@! TO.N,miso*
X101900000Y-101050000D02*
X101900000Y-102400000D01*
X101900000Y-102400000D02*
X102000000Y-102500000D01*
G04 #@! TO.N,sck*
X103600000Y-104600000D02*
X103600000Y-102750000D01*
X105000000Y-106000000D02*
X103600000Y-104600000D01*
X110500000Y-106000000D02*
X105000000Y-106000000D01*
X107540000Y-112100000D02*
X107940000Y-112500000D01*
X107540000Y-111000000D02*
X107540000Y-112100000D01*
X111000000Y-112500000D02*
X111500000Y-112000000D01*
X111500000Y-112000000D02*
X111500000Y-107000000D01*
X107940000Y-112500000D02*
X111000000Y-112500000D01*
X111500000Y-107000000D02*
X110500000Y-106000000D01*
G04 #@! TO.N,avcc*
X113000000Y-111500000D02*
X115000000Y-111500000D01*
X111000000Y-105500000D02*
X112000000Y-106500000D01*
X112000000Y-106500000D02*
X112000000Y-110000000D01*
X112000000Y-110000000D02*
X112000000Y-110500000D01*
X106150000Y-105500000D02*
X111000000Y-105500000D01*
X104400000Y-103750000D02*
X106150000Y-105500000D01*
X104400000Y-102750000D02*
X104400000Y-103750000D01*
X112000000Y-110500000D02*
X113000000Y-111500000D01*
G04 #@! TO.N,aref*
X112450011Y-106313600D02*
X112450011Y-107500000D01*
X112960000Y-108960000D02*
X112450011Y-108450011D01*
X112450011Y-108450011D02*
X112450011Y-107500000D01*
X115000000Y-108960000D02*
X112960000Y-108960000D01*
X111136410Y-105000000D02*
X112450011Y-106313600D01*
X106000000Y-102750000D02*
X106000000Y-103750000D01*
X107250000Y-105000000D02*
X111136410Y-105000000D01*
X106000000Y-103750000D02*
X107250000Y-105000000D01*
G04 #@! TO.N,pc0*
X108400000Y-103750000D02*
X109150000Y-104500000D01*
X108400000Y-102750000D02*
X108400000Y-103750000D01*
X109150000Y-104500000D02*
X110380000Y-104500000D01*
X111000000Y-103880000D02*
X110380000Y-104500000D01*
X115000000Y-103880000D02*
X111000000Y-103880000D01*
G04 #@! TO.N,pc1*
X109200000Y-102750000D02*
X110990000Y-102750000D01*
X112400000Y-101340000D02*
X111000000Y-102740000D01*
X115000000Y-101340000D02*
X112400000Y-101340000D01*
X110990000Y-102750000D02*
X111000000Y-102740000D01*
G04 #@! TO.N,pc2*
X111950000Y-101050000D02*
X112500000Y-100500000D01*
X110950000Y-101050000D02*
X111950000Y-101050000D01*
X112500000Y-100200000D02*
X112500000Y-100500000D01*
X113900000Y-98800000D02*
X112500000Y-100200000D01*
X115000000Y-98800000D02*
X113900000Y-98800000D01*
G04 #@! TO.N,res*
X110950000Y-97850000D02*
X109950000Y-97850000D01*
X108500000Y-100434315D02*
X108500000Y-101000000D01*
X108500000Y-99300000D02*
X108500000Y-100434315D01*
X109950000Y-97850000D02*
X108500000Y-99300000D01*
G04 #@! TO.N,rx*
X110950000Y-97050000D02*
X111950000Y-97050000D01*
X111950000Y-97050000D02*
X112500000Y-96500000D01*
X112500000Y-92580000D02*
X112500000Y-93000000D01*
X113900000Y-91180000D02*
X112500000Y-92580000D01*
X115000000Y-91180000D02*
X113900000Y-91180000D01*
X112500000Y-96500000D02*
X112500000Y-93000000D01*
G04 #@! TO.N,tx*
X112025001Y-96174999D02*
X112025001Y-92025001D01*
X110950000Y-96250000D02*
X111950000Y-96250000D01*
X111950000Y-96250000D02*
X112025001Y-96174999D01*
X112025001Y-92025001D02*
X112000000Y-92000000D01*
X112040000Y-90500000D02*
X112000000Y-90500000D01*
X113900000Y-88640000D02*
X112040000Y-90500000D01*
X115000000Y-88640000D02*
X113900000Y-88640000D01*
X112000000Y-92000000D02*
X112000000Y-90500000D01*
G04 #@! TO.N,Net-(HL1-Pad1)*
X100000000Y-106500000D02*
X100000000Y-104525320D01*
X100000000Y-104525320D02*
X99987340Y-104512660D01*
G04 #@! TO.N,Ucc*
X107000000Y-100000000D02*
X104500000Y-100000000D01*
G04 #@! TD*
D18*
G04 #@! TO.N,vcc*
G36*
X103931266Y-107006068D02*
X103902235Y-107011843D01*
X103692191Y-107152191D01*
X103551843Y-107362235D01*
X103502560Y-107610000D01*
X103502560Y-109210000D01*
X97760000Y-109210000D01*
X97760000Y-107599702D01*
X98000000Y-107647440D01*
X99000000Y-107647440D01*
X99247765Y-107598157D01*
X99250000Y-107596664D01*
X99252235Y-107598157D01*
X99500000Y-107647440D01*
X100500000Y-107647440D01*
X100747765Y-107598157D01*
X100957809Y-107457809D01*
X101098157Y-107247765D01*
X101147440Y-107000000D01*
X101147440Y-106000000D01*
X101098157Y-105752235D01*
X100957809Y-105542191D01*
X100760000Y-105410018D01*
X100760000Y-105203711D01*
X100864771Y-105098940D01*
X101022340Y-104718534D01*
X101022340Y-104306786D01*
X100874099Y-103948901D01*
X103931266Y-107006068D01*
X103931266Y-107006068D01*
G37*
X103931266Y-107006068D02*
X103902235Y-107011843D01*
X103692191Y-107152191D01*
X103551843Y-107362235D01*
X103502560Y-107610000D01*
X103502560Y-109210000D01*
X97760000Y-109210000D01*
X97760000Y-107599702D01*
X98000000Y-107647440D01*
X99000000Y-107647440D01*
X99247765Y-107598157D01*
X99250000Y-107596664D01*
X99252235Y-107598157D01*
X99500000Y-107647440D01*
X100500000Y-107647440D01*
X100747765Y-107598157D01*
X100957809Y-107457809D01*
X101098157Y-107247765D01*
X101147440Y-107000000D01*
X101147440Y-106000000D01*
X101098157Y-105752235D01*
X100957809Y-105542191D01*
X100760000Y-105410018D01*
X100760000Y-105203711D01*
X100864771Y-105098940D01*
X101022340Y-104718534D01*
X101022340Y-104306786D01*
X100874099Y-103948901D01*
X103931266Y-107006068D01*
G36*
X106840000Y-94917115D02*
X106840001Y-97696288D01*
X106622569Y-97913720D01*
X106465000Y-98294126D01*
X106465000Y-98705874D01*
X106604814Y-99043415D01*
X106413720Y-99122569D01*
X106296289Y-99240000D01*
X105203711Y-99240000D01*
X105086280Y-99122569D01*
X104705874Y-98965000D01*
X104294126Y-98965000D01*
X103913720Y-99122569D01*
X103622569Y-99413720D01*
X103465000Y-99794126D01*
X103465000Y-100205874D01*
X103622569Y-100586280D01*
X103913720Y-100877431D01*
X104294126Y-101035000D01*
X104705874Y-101035000D01*
X105086280Y-100877431D01*
X105203711Y-100760000D01*
X106228734Y-100760000D01*
X106084096Y-100976466D01*
X106040000Y-101198151D01*
X106040000Y-101198155D01*
X106025112Y-101273002D01*
X106040000Y-101347849D01*
X106040000Y-101352560D01*
X105725000Y-101352560D01*
X105600000Y-101377424D01*
X105475000Y-101352560D01*
X104925000Y-101352560D01*
X104800000Y-101377424D01*
X104675000Y-101352560D01*
X104125000Y-101352560D01*
X104000000Y-101377424D01*
X103875000Y-101352560D01*
X103325000Y-101352560D01*
X103290597Y-101359403D01*
X103297440Y-101325000D01*
X103297440Y-100775000D01*
X103272576Y-100650000D01*
X103297440Y-100525000D01*
X103297440Y-99975000D01*
X103272576Y-99850000D01*
X103297440Y-99725000D01*
X103297440Y-99175000D01*
X103272576Y-99050000D01*
X103297440Y-98925000D01*
X103297440Y-98375000D01*
X103272576Y-98250000D01*
X103297440Y-98125000D01*
X103297440Y-97575000D01*
X103272576Y-97450000D01*
X103297440Y-97325000D01*
X103297440Y-96775000D01*
X103272576Y-96650000D01*
X103297440Y-96525000D01*
X103297440Y-95975000D01*
X103272576Y-95850000D01*
X103297440Y-95725000D01*
X103297440Y-95175000D01*
X103290597Y-95140597D01*
X103325000Y-95147440D01*
X103875000Y-95147440D01*
X104000000Y-95122576D01*
X104125000Y-95147440D01*
X104675000Y-95147440D01*
X104778852Y-95126783D01*
X104798690Y-95135000D01*
X104914250Y-95135000D01*
X105008138Y-95041112D01*
X105132809Y-94957809D01*
X105200000Y-94857251D01*
X105267191Y-94957809D01*
X105391862Y-95041112D01*
X105485750Y-95135000D01*
X105601310Y-95135000D01*
X105621148Y-95126783D01*
X105725000Y-95147440D01*
X106275000Y-95147440D01*
X106378852Y-95126783D01*
X106398690Y-95135000D01*
X106514250Y-95135000D01*
X106608138Y-95041112D01*
X106732809Y-94957809D01*
X106800000Y-94857251D01*
X106840000Y-94917115D01*
X106840000Y-94917115D01*
G37*
X106840000Y-94917115D02*
X106840001Y-97696288D01*
X106622569Y-97913720D01*
X106465000Y-98294126D01*
X106465000Y-98705874D01*
X106604814Y-99043415D01*
X106413720Y-99122569D01*
X106296289Y-99240000D01*
X105203711Y-99240000D01*
X105086280Y-99122569D01*
X104705874Y-98965000D01*
X104294126Y-98965000D01*
X103913720Y-99122569D01*
X103622569Y-99413720D01*
X103465000Y-99794126D01*
X103465000Y-100205874D01*
X103622569Y-100586280D01*
X103913720Y-100877431D01*
X104294126Y-101035000D01*
X104705874Y-101035000D01*
X105086280Y-100877431D01*
X105203711Y-100760000D01*
X106228734Y-100760000D01*
X106084096Y-100976466D01*
X106040000Y-101198151D01*
X106040000Y-101198155D01*
X106025112Y-101273002D01*
X106040000Y-101347849D01*
X106040000Y-101352560D01*
X105725000Y-101352560D01*
X105600000Y-101377424D01*
X105475000Y-101352560D01*
X104925000Y-101352560D01*
X104800000Y-101377424D01*
X104675000Y-101352560D01*
X104125000Y-101352560D01*
X104000000Y-101377424D01*
X103875000Y-101352560D01*
X103325000Y-101352560D01*
X103290597Y-101359403D01*
X103297440Y-101325000D01*
X103297440Y-100775000D01*
X103272576Y-100650000D01*
X103297440Y-100525000D01*
X103297440Y-99975000D01*
X103272576Y-99850000D01*
X103297440Y-99725000D01*
X103297440Y-99175000D01*
X103272576Y-99050000D01*
X103297440Y-98925000D01*
X103297440Y-98375000D01*
X103272576Y-98250000D01*
X103297440Y-98125000D01*
X103297440Y-97575000D01*
X103272576Y-97450000D01*
X103297440Y-97325000D01*
X103297440Y-96775000D01*
X103272576Y-96650000D01*
X103297440Y-96525000D01*
X103297440Y-95975000D01*
X103272576Y-95850000D01*
X103297440Y-95725000D01*
X103297440Y-95175000D01*
X103290597Y-95140597D01*
X103325000Y-95147440D01*
X103875000Y-95147440D01*
X104000000Y-95122576D01*
X104125000Y-95147440D01*
X104675000Y-95147440D01*
X104778852Y-95126783D01*
X104798690Y-95135000D01*
X104914250Y-95135000D01*
X105008138Y-95041112D01*
X105132809Y-94957809D01*
X105200000Y-94857251D01*
X105267191Y-94957809D01*
X105391862Y-95041112D01*
X105485750Y-95135000D01*
X105601310Y-95135000D01*
X105621148Y-95126783D01*
X105725000Y-95147440D01*
X106275000Y-95147440D01*
X106378852Y-95126783D01*
X106398690Y-95135000D01*
X106514250Y-95135000D01*
X106608138Y-95041112D01*
X106732809Y-94957809D01*
X106800000Y-94857251D01*
X106840000Y-94917115D01*
G36*
X102679549Y-92990000D02*
X98824846Y-92990000D01*
X98749999Y-92975112D01*
X98675152Y-92990000D01*
X98675148Y-92990000D01*
X98453463Y-93034096D01*
X98202071Y-93202071D01*
X98159671Y-93265527D01*
X96065199Y-95360000D01*
X95497440Y-95360000D01*
X95497440Y-95270000D01*
X95448157Y-95022235D01*
X95333072Y-94850000D01*
X95448157Y-94677765D01*
X95497440Y-94430000D01*
X95497440Y-94340000D01*
X96345153Y-94340000D01*
X96420000Y-94354888D01*
X96494847Y-94340000D01*
X96494852Y-94340000D01*
X96716537Y-94295904D01*
X96967929Y-94127929D01*
X97010331Y-94064470D01*
X98314803Y-92760000D01*
X102725298Y-92760000D01*
X102679549Y-92990000D01*
X102679549Y-92990000D01*
G37*
X102679549Y-92990000D02*
X98824846Y-92990000D01*
X98749999Y-92975112D01*
X98675152Y-92990000D01*
X98675148Y-92990000D01*
X98453463Y-93034096D01*
X98202071Y-93202071D01*
X98159671Y-93265527D01*
X96065199Y-95360000D01*
X95497440Y-95360000D01*
X95497440Y-95270000D01*
X95448157Y-95022235D01*
X95333072Y-94850000D01*
X95448157Y-94677765D01*
X95497440Y-94430000D01*
X95497440Y-94340000D01*
X96345153Y-94340000D01*
X96420000Y-94354888D01*
X96494847Y-94340000D01*
X96494852Y-94340000D01*
X96716537Y-94295904D01*
X96967929Y-94127929D01*
X97010331Y-94064470D01*
X98314803Y-92760000D01*
X102725298Y-92760000D01*
X102679549Y-92990000D01*
G36*
X108440001Y-90514803D02*
X108440001Y-91715199D01*
X107280331Y-90555530D01*
X107237929Y-90492071D01*
X106986537Y-90324096D01*
X106764852Y-90280000D01*
X106764847Y-90280000D01*
X106690000Y-90265112D01*
X106615153Y-90280000D01*
X95497440Y-90280000D01*
X95497440Y-90190000D01*
X95448157Y-89942235D01*
X95307809Y-89732191D01*
X95097765Y-89591843D01*
X95023113Y-89576994D01*
X95258922Y-89341185D01*
X95292550Y-89260000D01*
X107185199Y-89260000D01*
X108440001Y-90514803D01*
X108440001Y-90514803D01*
G37*
X108440001Y-90514803D02*
X108440001Y-91715199D01*
X107280331Y-90555530D01*
X107237929Y-90492071D01*
X106986537Y-90324096D01*
X106764852Y-90280000D01*
X106764847Y-90280000D01*
X106690000Y-90265112D01*
X106615153Y-90280000D01*
X95497440Y-90280000D01*
X95497440Y-90190000D01*
X95448157Y-89942235D01*
X95307809Y-89732191D01*
X95097765Y-89591843D01*
X95023113Y-89576994D01*
X95258922Y-89341185D01*
X95292550Y-89260000D01*
X107185199Y-89260000D01*
X108440001Y-90514803D01*
G04 #@! TD*
M02*
