M48
;DRILL file {KiCad (5.0.0)} date 01/30/19 09:10:36
;FORMAT={3:3/ absolute / metric / keep zeros}
FMAT,2
METRIC,TZ
T1C0.400
T2C1.000
%
G90
G05
M71
T1
X096000Y-090000
X096500Y-094500
X097000Y-106500
X098000Y-103500
X099987Y-104513
X102000Y-102500
X102500Y-107500
X104500Y-090000
X104500Y-092000
X104500Y-100000
X106000Y-098500
X107000Y-100000
X107500Y-098500
X108500Y-101000
X112500Y-105000
X113000Y-098500
T2
X115000Y-088640
X115000Y-091180
X115000Y-093720
X115000Y-096260
X115000Y-098800
X115000Y-101340
X115000Y-103880
X115000Y-106420
X115000Y-108960
X115000Y-111500
X105000Y-108460
X105000Y-111000
X107540Y-108460
X107540Y-111000
X110080Y-108460
X110080Y-111000
X094000Y-088500
X094000Y-091040
X094000Y-093580
X094000Y-096120
X094000Y-098660
X094000Y-101200
X094000Y-103740
X094000Y-106280
X094000Y-108820
X094000Y-111360
T0
M30
