G04 #@! TF.GenerationSoftware,KiCad,Pcbnew,(5.0.0)*
G04 #@! TF.CreationDate,2019-03-01T10:22:15+03:00*
G04 #@! TF.ProjectId,module,6D6F64756C652E6B696361645F706362,rev?*
G04 #@! TF.SameCoordinates,Original*
G04 #@! TF.FileFunction,Copper,L1,Top,Signal*
G04 #@! TF.FilePolarity,Positive*
%FSLAX46Y46*%
G04 Gerber Fmt 4.6, Leading zero omitted, Abs format (unit mm)*
G04 Created by KiCad (PCBNEW (5.0.0)) date 03/01/19 10:22:15*
%MOMM*%
%LPD*%
G01*
G04 APERTURE LIST*
G04 #@! TA.AperFunction,NonConductor*
%ADD10C,0.250000*%
G04 #@! TD*
G04 #@! TA.AperFunction,SMDPad,CuDef*
%ADD11R,0.609600X1.473200*%
G04 #@! TD*
G04 #@! TA.AperFunction,SMDPad,CuDef*
%ADD12R,1.500000X4.000000*%
G04 #@! TD*
G04 #@! TA.AperFunction,SMDPad,CuDef*
%ADD13R,1.000000X1.500000*%
G04 #@! TD*
G04 #@! TA.AperFunction,ComponentPad*
%ADD14C,1.700000*%
G04 #@! TD*
G04 #@! TA.AperFunction,ComponentPad*
%ADD15R,1.700000X1.700000*%
G04 #@! TD*
G04 #@! TA.AperFunction,ComponentPad*
%ADD16C,7.000000*%
G04 #@! TD*
G04 #@! TA.AperFunction,Conductor*
%ADD17C,0.100000*%
G04 #@! TD*
G04 #@! TA.AperFunction,ComponentPad*
%ADD18C,2.000000*%
G04 #@! TD*
G04 #@! TA.AperFunction,ComponentPad*
%ADD19R,4.000000X2.000000*%
G04 #@! TD*
G04 #@! TA.AperFunction,SMDPad,CuDef*
%ADD20R,1.000000X1.000000*%
G04 #@! TD*
G04 #@! TA.AperFunction,ViaPad*
%ADD21C,0.800000*%
G04 #@! TD*
G04 #@! TA.AperFunction,Conductor*
%ADD22C,1.000000*%
G04 #@! TD*
G04 #@! TA.AperFunction,Conductor*
%ADD23C,0.400000*%
G04 #@! TD*
G04 #@! TA.AperFunction,Conductor*
%ADD24C,0.500000*%
G04 #@! TD*
G04 #@! TA.AperFunction,Conductor*
%ADD25C,0.600000*%
G04 #@! TD*
G04 APERTURE END LIST*
D10*
X226119047Y-74452380D02*
X226119047Y-73452380D01*
X226547619Y-74452380D02*
X226547619Y-73928571D01*
X226500000Y-73833333D01*
X226404761Y-73785714D01*
X226261904Y-73785714D01*
X226166666Y-73833333D01*
X226119047Y-73880952D01*
X227023809Y-74452380D02*
X227023809Y-73452380D01*
X227023809Y-73833333D02*
X227119047Y-73785714D01*
X227309523Y-73785714D01*
X227404761Y-73833333D01*
X227452380Y-73880952D01*
X227500000Y-73976190D01*
X227500000Y-74261904D01*
X227452380Y-74357142D01*
X227404761Y-74404761D01*
X227309523Y-74452380D01*
X227119047Y-74452380D01*
X227023809Y-74404761D01*
X227928571Y-74357142D02*
X227976190Y-74404761D01*
X227928571Y-74452380D01*
X227880952Y-74404761D01*
X227928571Y-74357142D01*
X227928571Y-74452380D01*
X228595238Y-73452380D02*
X228690476Y-73452380D01*
X228785714Y-73500000D01*
X228833333Y-73547619D01*
X228880952Y-73642857D01*
X228928571Y-73833333D01*
X228928571Y-74071428D01*
X228880952Y-74261904D01*
X228833333Y-74357142D01*
X228785714Y-74404761D01*
X228690476Y-74452380D01*
X228595238Y-74452380D01*
X228500000Y-74404761D01*
X228452380Y-74357142D01*
X228404761Y-74261904D01*
X228357142Y-74071428D01*
X228357142Y-73833333D01*
X228404761Y-73642857D01*
X228452380Y-73547619D01*
X228500000Y-73500000D01*
X228595238Y-73452380D01*
D11*
G04 #@! TO.P,VT2,1*
G04 #@! TO.N,Net-(C3-Pad2)*
X211095000Y-87794000D03*
G04 #@! TO.P,VT2,2*
X212365000Y-87794000D03*
G04 #@! TO.P,VT2,3*
X213635000Y-87794000D03*
G04 #@! TO.P,VT2,4*
G04 #@! TO.N,Net-(R1-Pad2)*
X214905000Y-87794000D03*
G04 #@! TO.P,VT2,5*
G04 #@! TO.N,Net-(VT1-Pad5)*
X214905000Y-82206000D03*
G04 #@! TO.P,VT2,6*
X213635000Y-82206000D03*
G04 #@! TO.P,VT2,7*
X212365000Y-82206000D03*
G04 #@! TO.P,VT2,8*
X211095000Y-82206000D03*
G04 #@! TD*
D12*
G04 #@! TO.P,C3,1*
G04 #@! TO.N,Net-(C3-Pad1)*
X224000000Y-94000000D03*
G04 #@! TO.P,C3,2*
G04 #@! TO.N,Net-(C3-Pad2)*
X219500000Y-94000000D03*
G04 #@! TD*
D13*
G04 #@! TO.P,R1,2*
G04 #@! TO.N,Net-(R1-Pad2)*
X204500000Y-86000000D03*
G04 #@! TO.P,R1,1*
G04 #@! TO.N,Net-(R1-Pad1)*
X202500000Y-86000000D03*
G04 #@! TD*
G04 #@! TO.P,R2,1*
G04 #@! TO.N,Net-(R2-Pad1)*
X202500000Y-83000000D03*
G04 #@! TO.P,R2,2*
G04 #@! TO.N,Net-(R2-Pad2)*
X204500000Y-83000000D03*
G04 #@! TD*
D11*
G04 #@! TO.P,VT1,8*
G04 #@! TO.N,Net-(VT1-Pad5)*
X225095000Y-83706000D03*
G04 #@! TO.P,VT1,7*
X226365000Y-83706000D03*
G04 #@! TO.P,VT1,6*
X227635000Y-83706000D03*
G04 #@! TO.P,VT1,5*
X228905000Y-83706000D03*
G04 #@! TO.P,VT1,4*
G04 #@! TO.N,Net-(R2-Pad2)*
X228905000Y-89294000D03*
G04 #@! TO.P,VT1,3*
G04 #@! TO.N,Net-(C3-Pad1)*
X227635000Y-89294000D03*
G04 #@! TO.P,VT1,2*
X226365000Y-89294000D03*
G04 #@! TO.P,VT1,1*
X225095000Y-89294000D03*
G04 #@! TD*
D14*
G04 #@! TO.P,XP1,1*
G04 #@! TO.N,Net-(FU1-Pad1)*
X199500000Y-76000000D03*
D15*
G04 #@! TO.P,XP1,2*
X199500000Y-78540000D03*
G04 #@! TO.P,XP1,3*
X199500000Y-81080000D03*
G04 #@! TO.P,XP1,4*
G04 #@! TO.N,Net-(R2-Pad1)*
X199500000Y-83620000D03*
G04 #@! TO.P,XP1,5*
G04 #@! TO.N,Net-(R1-Pad1)*
X199500000Y-86160000D03*
G04 #@! TO.P,XP1,6*
G04 #@! TO.N,Net-(C3-Pad2)*
X199500000Y-88700000D03*
G04 #@! TO.P,XP1,7*
X199500000Y-91240000D03*
G04 #@! TO.P,XP1,8*
X199500000Y-93780000D03*
G04 #@! TD*
D14*
G04 #@! TO.P,XP2,1*
G04 #@! TO.N,Net-(VT1-Pad5)*
X234500000Y-73500000D03*
D15*
G04 #@! TO.P,XP2,2*
X234500000Y-76040000D03*
G04 #@! TO.P,XP2,3*
X234500000Y-78580000D03*
G04 #@! TO.P,XP2,4*
X234500000Y-81120000D03*
G04 #@! TO.P,XP2,5*
X234500000Y-83660000D03*
G04 #@! TO.P,XP2,6*
X234500000Y-86200000D03*
G04 #@! TD*
G04 #@! TO.P,FU1,2*
G04 #@! TO.N,Net-(C3-Pad1)*
X210500000Y-72500000D03*
G04 #@! TO.P,FU1,1*
G04 #@! TO.N,Net-(FU1-Pad1)*
X205000000Y-72500000D03*
G04 #@! TD*
D13*
G04 #@! TO.P,R3,2*
G04 #@! TO.N,Net-(R2-Pad2)*
X204500000Y-80000000D03*
G04 #@! TO.P,R3,1*
G04 #@! TO.N,Net-(C3-Pad1)*
X202500000Y-80000000D03*
G04 #@! TD*
G04 #@! TO.P,R4,1*
G04 #@! TO.N,Net-(R1-Pad2)*
X212000000Y-94000000D03*
G04 #@! TO.P,R4,2*
G04 #@! TO.N,Net-(C3-Pad2)*
X214000000Y-94000000D03*
G04 #@! TD*
D16*
G04 #@! TO.P,rM3,*
G04 #@! TO.N,*
X232000000Y-95000000D03*
G04 #@! TD*
D17*
G04 #@! TO.N,Net-(R2-Pad2)*
G04 #@! TO.C,VT3*
G36*
X215009009Y-74502408D02*
X215057545Y-74509607D01*
X215105142Y-74521530D01*
X215151342Y-74538060D01*
X215195698Y-74559039D01*
X215237785Y-74584265D01*
X215277197Y-74613495D01*
X215313553Y-74646447D01*
X215346505Y-74682803D01*
X215375735Y-74722215D01*
X215400961Y-74764302D01*
X215421940Y-74808658D01*
X215438470Y-74854858D01*
X215450393Y-74902455D01*
X215457592Y-74950991D01*
X215460000Y-75000000D01*
X215460000Y-78000000D01*
X215457592Y-78049009D01*
X215450393Y-78097545D01*
X215438470Y-78145142D01*
X215421940Y-78191342D01*
X215400961Y-78235698D01*
X215375735Y-78277785D01*
X215346505Y-78317197D01*
X215313553Y-78353553D01*
X215277197Y-78386505D01*
X215237785Y-78415735D01*
X215195698Y-78440961D01*
X215151342Y-78461940D01*
X215105142Y-78478470D01*
X215057545Y-78490393D01*
X215009009Y-78497592D01*
X214960000Y-78500000D01*
X213960000Y-78500000D01*
X213910991Y-78497592D01*
X213862455Y-78490393D01*
X213814858Y-78478470D01*
X213768658Y-78461940D01*
X213724302Y-78440961D01*
X213682215Y-78415735D01*
X213642803Y-78386505D01*
X213606447Y-78353553D01*
X213573495Y-78317197D01*
X213544265Y-78277785D01*
X213519039Y-78235698D01*
X213498060Y-78191342D01*
X213481530Y-78145142D01*
X213469607Y-78097545D01*
X213462408Y-78049009D01*
X213460000Y-78000000D01*
X213460000Y-75000000D01*
X213462408Y-74950991D01*
X213469607Y-74902455D01*
X213481530Y-74854858D01*
X213498060Y-74808658D01*
X213519039Y-74764302D01*
X213544265Y-74722215D01*
X213573495Y-74682803D01*
X213606447Y-74646447D01*
X213642803Y-74613495D01*
X213682215Y-74584265D01*
X213724302Y-74559039D01*
X213768658Y-74538060D01*
X213814858Y-74521530D01*
X213862455Y-74509607D01*
X213910991Y-74502408D01*
X213960000Y-74500000D01*
X214960000Y-74500000D01*
X215009009Y-74502408D01*
X215009009Y-74502408D01*
G37*
D18*
G04 #@! TD*
G04 #@! TO.P,VT3,1*
G04 #@! TO.N,Net-(R2-Pad2)*
X214460000Y-76500000D03*
D17*
G04 #@! TO.N,Net-(VT1-Pad5)*
G04 #@! TO.C,VT3*
G36*
X217549009Y-74502408D02*
X217597545Y-74509607D01*
X217645142Y-74521530D01*
X217691342Y-74538060D01*
X217735698Y-74559039D01*
X217777785Y-74584265D01*
X217817197Y-74613495D01*
X217853553Y-74646447D01*
X217886505Y-74682803D01*
X217915735Y-74722215D01*
X217940961Y-74764302D01*
X217961940Y-74808658D01*
X217978470Y-74854858D01*
X217990393Y-74902455D01*
X217997592Y-74950991D01*
X218000000Y-75000000D01*
X218000000Y-78000000D01*
X217997592Y-78049009D01*
X217990393Y-78097545D01*
X217978470Y-78145142D01*
X217961940Y-78191342D01*
X217940961Y-78235698D01*
X217915735Y-78277785D01*
X217886505Y-78317197D01*
X217853553Y-78353553D01*
X217817197Y-78386505D01*
X217777785Y-78415735D01*
X217735698Y-78440961D01*
X217691342Y-78461940D01*
X217645142Y-78478470D01*
X217597545Y-78490393D01*
X217549009Y-78497592D01*
X217500000Y-78500000D01*
X216500000Y-78500000D01*
X216450991Y-78497592D01*
X216402455Y-78490393D01*
X216354858Y-78478470D01*
X216308658Y-78461940D01*
X216264302Y-78440961D01*
X216222215Y-78415735D01*
X216182803Y-78386505D01*
X216146447Y-78353553D01*
X216113495Y-78317197D01*
X216084265Y-78277785D01*
X216059039Y-78235698D01*
X216038060Y-78191342D01*
X216021530Y-78145142D01*
X216009607Y-78097545D01*
X216002408Y-78049009D01*
X216000000Y-78000000D01*
X216000000Y-75000000D01*
X216002408Y-74950991D01*
X216009607Y-74902455D01*
X216021530Y-74854858D01*
X216038060Y-74808658D01*
X216059039Y-74764302D01*
X216084265Y-74722215D01*
X216113495Y-74682803D01*
X216146447Y-74646447D01*
X216182803Y-74613495D01*
X216222215Y-74584265D01*
X216264302Y-74559039D01*
X216308658Y-74538060D01*
X216354858Y-74521530D01*
X216402455Y-74509607D01*
X216450991Y-74502408D01*
X216500000Y-74500000D01*
X217500000Y-74500000D01*
X217549009Y-74502408D01*
X217549009Y-74502408D01*
G37*
D18*
G04 #@! TD*
G04 #@! TO.P,VT3,2*
G04 #@! TO.N,Net-(VT1-Pad5)*
X217000000Y-76500000D03*
D17*
G04 #@! TO.N,Net-(C3-Pad1)*
G04 #@! TO.C,VT3*
G36*
X220089009Y-74502408D02*
X220137545Y-74509607D01*
X220185142Y-74521530D01*
X220231342Y-74538060D01*
X220275698Y-74559039D01*
X220317785Y-74584265D01*
X220357197Y-74613495D01*
X220393553Y-74646447D01*
X220426505Y-74682803D01*
X220455735Y-74722215D01*
X220480961Y-74764302D01*
X220501940Y-74808658D01*
X220518470Y-74854858D01*
X220530393Y-74902455D01*
X220537592Y-74950991D01*
X220540000Y-75000000D01*
X220540000Y-78000000D01*
X220537592Y-78049009D01*
X220530393Y-78097545D01*
X220518470Y-78145142D01*
X220501940Y-78191342D01*
X220480961Y-78235698D01*
X220455735Y-78277785D01*
X220426505Y-78317197D01*
X220393553Y-78353553D01*
X220357197Y-78386505D01*
X220317785Y-78415735D01*
X220275698Y-78440961D01*
X220231342Y-78461940D01*
X220185142Y-78478470D01*
X220137545Y-78490393D01*
X220089009Y-78497592D01*
X220040000Y-78500000D01*
X219040000Y-78500000D01*
X218990991Y-78497592D01*
X218942455Y-78490393D01*
X218894858Y-78478470D01*
X218848658Y-78461940D01*
X218804302Y-78440961D01*
X218762215Y-78415735D01*
X218722803Y-78386505D01*
X218686447Y-78353553D01*
X218653495Y-78317197D01*
X218624265Y-78277785D01*
X218599039Y-78235698D01*
X218578060Y-78191342D01*
X218561530Y-78145142D01*
X218549607Y-78097545D01*
X218542408Y-78049009D01*
X218540000Y-78000000D01*
X218540000Y-75000000D01*
X218542408Y-74950991D01*
X218549607Y-74902455D01*
X218561530Y-74854858D01*
X218578060Y-74808658D01*
X218599039Y-74764302D01*
X218624265Y-74722215D01*
X218653495Y-74682803D01*
X218686447Y-74646447D01*
X218722803Y-74613495D01*
X218762215Y-74584265D01*
X218804302Y-74559039D01*
X218848658Y-74538060D01*
X218894858Y-74521530D01*
X218942455Y-74509607D01*
X218990991Y-74502408D01*
X219040000Y-74500000D01*
X220040000Y-74500000D01*
X220089009Y-74502408D01*
X220089009Y-74502408D01*
G37*
D18*
G04 #@! TD*
G04 #@! TO.P,VT3,3*
G04 #@! TO.N,Net-(C3-Pad1)*
X219540000Y-76500000D03*
D17*
G04 #@! TO.N,Net-(R1-Pad2)*
G04 #@! TO.C,VT4*
G36*
X220549009Y-81202408D02*
X220597545Y-81209607D01*
X220645142Y-81221530D01*
X220691342Y-81238060D01*
X220735698Y-81259039D01*
X220777785Y-81284265D01*
X220817197Y-81313495D01*
X220853553Y-81346447D01*
X220886505Y-81382803D01*
X220915735Y-81422215D01*
X220940961Y-81464302D01*
X220961940Y-81508658D01*
X220978470Y-81554858D01*
X220990393Y-81602455D01*
X220997592Y-81650991D01*
X221000000Y-81700000D01*
X221000000Y-82700000D01*
X220997592Y-82749009D01*
X220990393Y-82797545D01*
X220978470Y-82845142D01*
X220961940Y-82891342D01*
X220940961Y-82935698D01*
X220915735Y-82977785D01*
X220886505Y-83017197D01*
X220853553Y-83053553D01*
X220817197Y-83086505D01*
X220777785Y-83115735D01*
X220735698Y-83140961D01*
X220691342Y-83161940D01*
X220645142Y-83178470D01*
X220597545Y-83190393D01*
X220549009Y-83197592D01*
X220500000Y-83200000D01*
X217500000Y-83200000D01*
X217450991Y-83197592D01*
X217402455Y-83190393D01*
X217354858Y-83178470D01*
X217308658Y-83161940D01*
X217264302Y-83140961D01*
X217222215Y-83115735D01*
X217182803Y-83086505D01*
X217146447Y-83053553D01*
X217113495Y-83017197D01*
X217084265Y-82977785D01*
X217059039Y-82935698D01*
X217038060Y-82891342D01*
X217021530Y-82845142D01*
X217009607Y-82797545D01*
X217002408Y-82749009D01*
X217000000Y-82700000D01*
X217000000Y-81700000D01*
X217002408Y-81650991D01*
X217009607Y-81602455D01*
X217021530Y-81554858D01*
X217038060Y-81508658D01*
X217059039Y-81464302D01*
X217084265Y-81422215D01*
X217113495Y-81382803D01*
X217146447Y-81346447D01*
X217182803Y-81313495D01*
X217222215Y-81284265D01*
X217264302Y-81259039D01*
X217308658Y-81238060D01*
X217354858Y-81221530D01*
X217402455Y-81209607D01*
X217450991Y-81202408D01*
X217500000Y-81200000D01*
X220500000Y-81200000D01*
X220549009Y-81202408D01*
X220549009Y-81202408D01*
G37*
D18*
G04 #@! TD*
G04 #@! TO.P,VT4,1*
G04 #@! TO.N,Net-(R1-Pad2)*
X219000000Y-82200000D03*
D19*
G04 #@! TO.P,VT4,2*
G04 #@! TO.N,Net-(VT1-Pad5)*
X219000000Y-84600000D03*
G04 #@! TO.P,VT4,3*
G04 #@! TO.N,Net-(C3-Pad2)*
X219000000Y-87000000D03*
G04 #@! TD*
D20*
G04 #@! TO.P,HL1,1*
G04 #@! TO.N,Net-(HL1-Pad1)*
X205500000Y-97500000D03*
G04 #@! TO.P,HL1,2*
G04 #@! TO.N,Net-(C3-Pad2)*
X204000000Y-97500000D03*
G04 #@! TD*
D13*
G04 #@! TO.P,R5,2*
G04 #@! TO.N,Net-(HL1-Pad1)*
X205500000Y-92500000D03*
G04 #@! TO.P,R5,1*
G04 #@! TO.N,Net-(C3-Pad1)*
X203500000Y-92500000D03*
G04 #@! TD*
D21*
G04 #@! TO.N,Net-(C3-Pad1)*
X232500000Y-88500000D03*
X231000000Y-88500000D03*
X210500000Y-90500000D03*
G04 #@! TO.N,Net-(R1-Pad2)*
X209500000Y-94000000D03*
X207000000Y-87000000D03*
G04 #@! TO.N,Net-(R2-Pad2)*
X206500000Y-80000000D03*
X227000000Y-92000000D03*
G04 #@! TD*
D22*
G04 #@! TO.N,Net-(C3-Pad1)*
X208250000Y-72500000D02*
X208650000Y-72500000D01*
X208650000Y-72500000D02*
X210500000Y-72500000D01*
X202500000Y-78250000D02*
X208250000Y-72500000D01*
X202500000Y-80000000D02*
X202500000Y-78250000D01*
X203500000Y-90750000D02*
X204250000Y-90000000D01*
X203500000Y-92500000D02*
X203500000Y-90750000D01*
X204250000Y-90000000D02*
X210000000Y-90000000D01*
X210000000Y-90000000D02*
X210500000Y-90500000D01*
D23*
G04 #@! TO.N,Net-(R1-Pad1)*
X199500000Y-86160000D02*
X202340000Y-86160000D01*
X202340000Y-86160000D02*
X202500000Y-86000000D01*
G04 #@! TO.N,Net-(R2-Pad1)*
X199500000Y-83620000D02*
X200880000Y-83620000D01*
X201500000Y-83000000D02*
X202500000Y-83000000D01*
X200880000Y-83620000D02*
X201500000Y-83000000D01*
D22*
G04 #@! TO.N,Net-(C3-Pad2)*
X199500000Y-91240000D02*
X199500000Y-88700000D01*
X199500000Y-93780000D02*
X199500000Y-91240000D01*
X214000000Y-94000000D02*
X219500000Y-94000000D01*
D23*
G04 #@! TO.N,Net-(R1-Pad2)*
X212000000Y-92250000D02*
X212000000Y-94000000D01*
X212750000Y-91500000D02*
X212000000Y-92250000D01*
X214000000Y-91500000D02*
X212750000Y-91500000D01*
X214905000Y-90595000D02*
X214000000Y-91500000D01*
X211000000Y-94000000D02*
X212000000Y-94000000D01*
X209500000Y-94000000D02*
X211000000Y-94000000D01*
X214905000Y-90595000D02*
X221405000Y-90595000D01*
X221405000Y-90595000D02*
X223000000Y-89000000D01*
X223000000Y-89000000D02*
X223000000Y-83000000D01*
X222200000Y-82200000D02*
X219000000Y-82200000D01*
X223000000Y-83000000D02*
X222200000Y-82200000D01*
X214905000Y-90595000D02*
X214905000Y-87794000D01*
X206000000Y-86000000D02*
X207000000Y-87000000D01*
X204500000Y-86000000D02*
X206000000Y-86000000D01*
G04 #@! TO.N,Net-(R2-Pad2)*
X204500000Y-83000000D02*
X204500000Y-80000000D01*
X213360000Y-76500000D02*
X214460000Y-76500000D01*
X206850000Y-76500000D02*
X213360000Y-76500000D01*
X204500000Y-80000000D02*
X204500000Y-78850000D01*
X204500000Y-78850000D02*
X206850000Y-76500000D01*
X228905000Y-91095000D02*
X228905000Y-89294000D01*
X227000000Y-92000000D02*
X228000000Y-92000000D01*
X206500000Y-80000000D02*
X205400000Y-80000000D01*
X205400000Y-80000000D02*
X204500000Y-80000000D01*
X228000000Y-92000000D02*
X228905000Y-91095000D01*
D22*
G04 #@! TO.N,Net-(VT1-Pad5)*
X234500000Y-86200000D02*
X234500000Y-83660000D01*
G04 #@! TO.N,Net-(HL1-Pad1)*
X205500000Y-97500000D02*
X205500000Y-92500000D01*
G04 #@! TD*
D24*
G04 #@! TO.N,Net-(VT1-Pad5)*
G36*
X235750000Y-72692258D02*
X235682309Y-72671244D01*
X234853553Y-73500000D01*
X234867696Y-73514143D01*
X234514143Y-73867696D01*
X234500000Y-73853553D01*
X234485858Y-73867696D01*
X234132305Y-73514143D01*
X234146447Y-73500000D01*
X233317691Y-72671244D01*
X233048857Y-72754700D01*
X232874105Y-73366761D01*
X232946880Y-73999106D01*
X233048857Y-74245300D01*
X233317688Y-74328755D01*
X233173149Y-74473294D01*
X233245578Y-74545723D01*
X233225159Y-74554181D01*
X233014181Y-74765159D01*
X232900000Y-75040816D01*
X232900000Y-75602500D01*
X233087500Y-75790000D01*
X234250000Y-75790000D01*
X234250000Y-75770000D01*
X234750000Y-75770000D01*
X234750000Y-75790000D01*
X234770000Y-75790000D01*
X234770000Y-76290000D01*
X234750000Y-76290000D01*
X234750000Y-78330000D01*
X234770000Y-78330000D01*
X234770000Y-78830000D01*
X234750000Y-78830000D01*
X234750000Y-80870000D01*
X234770000Y-80870000D01*
X234770000Y-81370000D01*
X234750000Y-81370000D01*
X234750000Y-83410000D01*
X234770000Y-83410000D01*
X234770000Y-83910000D01*
X234750000Y-83910000D01*
X234750000Y-83930000D01*
X234250000Y-83930000D01*
X234250000Y-83910000D01*
X233087500Y-83910000D01*
X232900000Y-84097500D01*
X232900000Y-84659184D01*
X232937617Y-84750000D01*
X229894265Y-84750000D01*
X229959800Y-84591785D01*
X229959800Y-84143500D01*
X229772300Y-83956000D01*
X229057400Y-83956000D01*
X229057400Y-83976000D01*
X228752600Y-83976000D01*
X228752600Y-83956000D01*
X227787400Y-83956000D01*
X227787400Y-83976000D01*
X227482600Y-83976000D01*
X227482600Y-83956000D01*
X226517400Y-83956000D01*
X226517400Y-83976000D01*
X226212600Y-83976000D01*
X226212600Y-83956000D01*
X225247400Y-83956000D01*
X225247400Y-83976000D01*
X224942600Y-83976000D01*
X224942600Y-83956000D01*
X224227700Y-83956000D01*
X224040200Y-84143500D01*
X224040200Y-84591785D01*
X224105735Y-84750000D01*
X223950000Y-84750000D01*
X223950000Y-83093559D01*
X223968610Y-83000000D01*
X223950000Y-82906441D01*
X223950000Y-82906436D01*
X223932850Y-82820215D01*
X224040200Y-82820215D01*
X224040200Y-83268500D01*
X224227700Y-83456000D01*
X224942600Y-83456000D01*
X224942600Y-82406900D01*
X225247400Y-82406900D01*
X225247400Y-83456000D01*
X226212600Y-83456000D01*
X226212600Y-82406900D01*
X226517400Y-82406900D01*
X226517400Y-83456000D01*
X227482600Y-83456000D01*
X227482600Y-82406900D01*
X227787400Y-82406900D01*
X227787400Y-83456000D01*
X228752600Y-83456000D01*
X228752600Y-82406900D01*
X229057400Y-82406900D01*
X229057400Y-83456000D01*
X229772300Y-83456000D01*
X229959800Y-83268500D01*
X229959800Y-82820215D01*
X229845619Y-82544559D01*
X229634641Y-82333581D01*
X229358984Y-82219400D01*
X229244900Y-82219400D01*
X229057400Y-82406900D01*
X228752600Y-82406900D01*
X228565100Y-82219400D01*
X228451016Y-82219400D01*
X228270000Y-82294379D01*
X228088984Y-82219400D01*
X227974900Y-82219400D01*
X227787400Y-82406900D01*
X227482600Y-82406900D01*
X227295100Y-82219400D01*
X227181016Y-82219400D01*
X227000000Y-82294379D01*
X226818984Y-82219400D01*
X226704900Y-82219400D01*
X226517400Y-82406900D01*
X226212600Y-82406900D01*
X226025100Y-82219400D01*
X225911016Y-82219400D01*
X225730000Y-82294379D01*
X225548984Y-82219400D01*
X225434900Y-82219400D01*
X225247400Y-82406900D01*
X224942600Y-82406900D01*
X224755100Y-82219400D01*
X224641016Y-82219400D01*
X224365359Y-82333581D01*
X224154381Y-82544559D01*
X224040200Y-82820215D01*
X223932850Y-82820215D01*
X223894880Y-82629329D01*
X223779065Y-82456000D01*
X223737911Y-82394408D01*
X223737909Y-82394406D01*
X223684911Y-82315089D01*
X223605593Y-82262090D01*
X222937911Y-81594409D01*
X222913250Y-81557500D01*
X232900000Y-81557500D01*
X232900000Y-82119184D01*
X233012176Y-82390000D01*
X232900000Y-82660816D01*
X232900000Y-83222500D01*
X233087500Y-83410000D01*
X234250000Y-83410000D01*
X234250000Y-81370000D01*
X233087500Y-81370000D01*
X232900000Y-81557500D01*
X222913250Y-81557500D01*
X222884911Y-81515089D01*
X222570671Y-81305120D01*
X222293564Y-81250000D01*
X222293559Y-81250000D01*
X222200000Y-81231390D01*
X222106441Y-81250000D01*
X221675182Y-81250000D01*
X221668424Y-81216023D01*
X221394273Y-80805727D01*
X220983977Y-80531576D01*
X220500000Y-80435307D01*
X217500000Y-80435307D01*
X217016023Y-80531576D01*
X216605727Y-80805727D01*
X216331576Y-81216023D01*
X216235307Y-81700000D01*
X216235307Y-82700000D01*
X216331576Y-83183977D01*
X216349449Y-83210726D01*
X216250000Y-83450816D01*
X216250000Y-84162500D01*
X216437500Y-84350000D01*
X218750000Y-84350000D01*
X218750000Y-84330000D01*
X219250000Y-84330000D01*
X219250000Y-84350000D01*
X221562500Y-84350000D01*
X221750000Y-84162500D01*
X221750000Y-83450816D01*
X221650551Y-83210726D01*
X221668424Y-83183977D01*
X221675182Y-83150000D01*
X221806498Y-83150000D01*
X222050001Y-83393504D01*
X222050001Y-84750000D01*
X205567928Y-84750000D01*
X205540720Y-84709280D01*
X205292635Y-84543516D01*
X205073866Y-84500000D01*
X205292635Y-84456484D01*
X205540720Y-84290720D01*
X205706484Y-84042635D01*
X205764693Y-83750000D01*
X205764693Y-82643500D01*
X210040200Y-82643500D01*
X210040200Y-83091785D01*
X210154381Y-83367441D01*
X210365359Y-83578419D01*
X210641016Y-83692600D01*
X210755100Y-83692600D01*
X210942600Y-83505100D01*
X210942600Y-82456000D01*
X211247400Y-82456000D01*
X211247400Y-83505100D01*
X211434900Y-83692600D01*
X211548984Y-83692600D01*
X211730000Y-83617621D01*
X211911016Y-83692600D01*
X212025100Y-83692600D01*
X212212600Y-83505100D01*
X212212600Y-82456000D01*
X212517400Y-82456000D01*
X212517400Y-83505100D01*
X212704900Y-83692600D01*
X212818984Y-83692600D01*
X213000000Y-83617621D01*
X213181016Y-83692600D01*
X213295100Y-83692600D01*
X213482600Y-83505100D01*
X213482600Y-82456000D01*
X213787400Y-82456000D01*
X213787400Y-83505100D01*
X213974900Y-83692600D01*
X214088984Y-83692600D01*
X214270000Y-83617621D01*
X214451016Y-83692600D01*
X214565100Y-83692600D01*
X214752600Y-83505100D01*
X214752600Y-82456000D01*
X215057400Y-82456000D01*
X215057400Y-83505100D01*
X215244900Y-83692600D01*
X215358984Y-83692600D01*
X215634641Y-83578419D01*
X215845619Y-83367441D01*
X215959800Y-83091785D01*
X215959800Y-82643500D01*
X215772300Y-82456000D01*
X215057400Y-82456000D01*
X214752600Y-82456000D01*
X213787400Y-82456000D01*
X213482600Y-82456000D01*
X212517400Y-82456000D01*
X212212600Y-82456000D01*
X211247400Y-82456000D01*
X210942600Y-82456000D01*
X210227700Y-82456000D01*
X210040200Y-82643500D01*
X205764693Y-82643500D01*
X205764693Y-82250000D01*
X205706484Y-81957365D01*
X205540720Y-81709280D01*
X205450000Y-81648663D01*
X205450000Y-81351337D01*
X205496577Y-81320215D01*
X210040200Y-81320215D01*
X210040200Y-81768500D01*
X210227700Y-81956000D01*
X210942600Y-81956000D01*
X210942600Y-80906900D01*
X211247400Y-80906900D01*
X211247400Y-81956000D01*
X212212600Y-81956000D01*
X212212600Y-80906900D01*
X212517400Y-80906900D01*
X212517400Y-81956000D01*
X213482600Y-81956000D01*
X213482600Y-80906900D01*
X213787400Y-80906900D01*
X213787400Y-81956000D01*
X214752600Y-81956000D01*
X214752600Y-80906900D01*
X215057400Y-80906900D01*
X215057400Y-81956000D01*
X215772300Y-81956000D01*
X215959800Y-81768500D01*
X215959800Y-81320215D01*
X215845619Y-81044559D01*
X215634641Y-80833581D01*
X215358984Y-80719400D01*
X215244900Y-80719400D01*
X215057400Y-80906900D01*
X214752600Y-80906900D01*
X214565100Y-80719400D01*
X214451016Y-80719400D01*
X214270000Y-80794379D01*
X214088984Y-80719400D01*
X213974900Y-80719400D01*
X213787400Y-80906900D01*
X213482600Y-80906900D01*
X213295100Y-80719400D01*
X213181016Y-80719400D01*
X213000000Y-80794379D01*
X212818984Y-80719400D01*
X212704900Y-80719400D01*
X212517400Y-80906900D01*
X212212600Y-80906900D01*
X212025100Y-80719400D01*
X211911016Y-80719400D01*
X211730000Y-80794379D01*
X211548984Y-80719400D01*
X211434900Y-80719400D01*
X211247400Y-80906900D01*
X210942600Y-80906900D01*
X210755100Y-80719400D01*
X210641016Y-80719400D01*
X210365359Y-80833581D01*
X210154381Y-81044559D01*
X210040200Y-81320215D01*
X205496577Y-81320215D01*
X205540720Y-81290720D01*
X205706484Y-81042635D01*
X205724910Y-80950000D01*
X205823654Y-80950000D01*
X205848577Y-80974923D01*
X206271251Y-81150000D01*
X206728749Y-81150000D01*
X207151423Y-80974923D01*
X207474923Y-80651423D01*
X207650000Y-80228749D01*
X207650000Y-79771251D01*
X207474923Y-79348577D01*
X207151423Y-79025077D01*
X206728749Y-78850000D01*
X206271251Y-78850000D01*
X205848577Y-79025077D01*
X205823654Y-79050000D01*
X205724910Y-79050000D01*
X205711404Y-78982098D01*
X207243503Y-77450000D01*
X212695307Y-77450000D01*
X212695307Y-78000000D01*
X212791576Y-78483977D01*
X213065727Y-78894273D01*
X213476023Y-79168424D01*
X213960000Y-79264693D01*
X214960000Y-79264693D01*
X215443977Y-79168424D01*
X215542160Y-79102820D01*
X215575159Y-79135819D01*
X215850816Y-79250000D01*
X216562500Y-79250000D01*
X216750000Y-79062500D01*
X216750000Y-76750000D01*
X216730000Y-76750000D01*
X216730000Y-76250000D01*
X216750000Y-76250000D01*
X216750000Y-73937500D01*
X217250000Y-73937500D01*
X217250000Y-76250000D01*
X217270000Y-76250000D01*
X217270000Y-76750000D01*
X217250000Y-76750000D01*
X217250000Y-79062500D01*
X217437500Y-79250000D01*
X218149184Y-79250000D01*
X218424841Y-79135819D01*
X218457840Y-79102820D01*
X218556023Y-79168424D01*
X219040000Y-79264693D01*
X220040000Y-79264693D01*
X220523977Y-79168424D01*
X220749850Y-79017500D01*
X232900000Y-79017500D01*
X232900000Y-79579184D01*
X233012176Y-79850000D01*
X232900000Y-80120816D01*
X232900000Y-80682500D01*
X233087500Y-80870000D01*
X234250000Y-80870000D01*
X234250000Y-78830000D01*
X233087500Y-78830000D01*
X232900000Y-79017500D01*
X220749850Y-79017500D01*
X220934273Y-78894273D01*
X221208424Y-78483977D01*
X221304693Y-78000000D01*
X221304693Y-76477500D01*
X232900000Y-76477500D01*
X232900000Y-77039184D01*
X233012176Y-77310000D01*
X232900000Y-77580816D01*
X232900000Y-78142500D01*
X233087500Y-78330000D01*
X234250000Y-78330000D01*
X234250000Y-76290000D01*
X233087500Y-76290000D01*
X232900000Y-76477500D01*
X221304693Y-76477500D01*
X221304693Y-75000000D01*
X221208424Y-74516023D01*
X220934273Y-74105727D01*
X220523977Y-73831576D01*
X220040000Y-73735307D01*
X219040000Y-73735307D01*
X218556023Y-73831576D01*
X218457840Y-73897180D01*
X218424841Y-73864181D01*
X218149184Y-73750000D01*
X217437500Y-73750000D01*
X217250000Y-73937500D01*
X216750000Y-73937500D01*
X216562500Y-73750000D01*
X215850816Y-73750000D01*
X215575159Y-73864181D01*
X215542160Y-73897180D01*
X215443977Y-73831576D01*
X214960000Y-73735307D01*
X213960000Y-73735307D01*
X213476023Y-73831576D01*
X213065727Y-74105727D01*
X212791576Y-74516023D01*
X212695307Y-75000000D01*
X212695307Y-75550000D01*
X206967767Y-75550000D01*
X208767767Y-73750000D01*
X209015255Y-73750000D01*
X209109280Y-73890720D01*
X209357365Y-74056484D01*
X209650000Y-74114693D01*
X211350000Y-74114693D01*
X211642635Y-74056484D01*
X211890720Y-73890720D01*
X212056484Y-73642635D01*
X212114693Y-73350000D01*
X212114693Y-72467500D01*
X225005953Y-72467500D01*
X225005953Y-75717500D01*
X229994048Y-75717500D01*
X229994048Y-72467500D01*
X225005953Y-72467500D01*
X212114693Y-72467500D01*
X212114693Y-72317691D01*
X233671244Y-72317691D01*
X234500000Y-73146447D01*
X235328756Y-72317691D01*
X235245300Y-72048857D01*
X234633239Y-71874105D01*
X234000894Y-71946880D01*
X233754700Y-72048857D01*
X233671244Y-72317691D01*
X212114693Y-72317691D01*
X212114693Y-71650000D01*
X212056484Y-71357365D01*
X211984745Y-71250000D01*
X235750000Y-71250000D01*
X235750000Y-72692258D01*
X235750000Y-72692258D01*
G37*
X235750000Y-72692258D02*
X235682309Y-72671244D01*
X234853553Y-73500000D01*
X234867696Y-73514143D01*
X234514143Y-73867696D01*
X234500000Y-73853553D01*
X234485858Y-73867696D01*
X234132305Y-73514143D01*
X234146447Y-73500000D01*
X233317691Y-72671244D01*
X233048857Y-72754700D01*
X232874105Y-73366761D01*
X232946880Y-73999106D01*
X233048857Y-74245300D01*
X233317688Y-74328755D01*
X233173149Y-74473294D01*
X233245578Y-74545723D01*
X233225159Y-74554181D01*
X233014181Y-74765159D01*
X232900000Y-75040816D01*
X232900000Y-75602500D01*
X233087500Y-75790000D01*
X234250000Y-75790000D01*
X234250000Y-75770000D01*
X234750000Y-75770000D01*
X234750000Y-75790000D01*
X234770000Y-75790000D01*
X234770000Y-76290000D01*
X234750000Y-76290000D01*
X234750000Y-78330000D01*
X234770000Y-78330000D01*
X234770000Y-78830000D01*
X234750000Y-78830000D01*
X234750000Y-80870000D01*
X234770000Y-80870000D01*
X234770000Y-81370000D01*
X234750000Y-81370000D01*
X234750000Y-83410000D01*
X234770000Y-83410000D01*
X234770000Y-83910000D01*
X234750000Y-83910000D01*
X234750000Y-83930000D01*
X234250000Y-83930000D01*
X234250000Y-83910000D01*
X233087500Y-83910000D01*
X232900000Y-84097500D01*
X232900000Y-84659184D01*
X232937617Y-84750000D01*
X229894265Y-84750000D01*
X229959800Y-84591785D01*
X229959800Y-84143500D01*
X229772300Y-83956000D01*
X229057400Y-83956000D01*
X229057400Y-83976000D01*
X228752600Y-83976000D01*
X228752600Y-83956000D01*
X227787400Y-83956000D01*
X227787400Y-83976000D01*
X227482600Y-83976000D01*
X227482600Y-83956000D01*
X226517400Y-83956000D01*
X226517400Y-83976000D01*
X226212600Y-83976000D01*
X226212600Y-83956000D01*
X225247400Y-83956000D01*
X225247400Y-83976000D01*
X224942600Y-83976000D01*
X224942600Y-83956000D01*
X224227700Y-83956000D01*
X224040200Y-84143500D01*
X224040200Y-84591785D01*
X224105735Y-84750000D01*
X223950000Y-84750000D01*
X223950000Y-83093559D01*
X223968610Y-83000000D01*
X223950000Y-82906441D01*
X223950000Y-82906436D01*
X223932850Y-82820215D01*
X224040200Y-82820215D01*
X224040200Y-83268500D01*
X224227700Y-83456000D01*
X224942600Y-83456000D01*
X224942600Y-82406900D01*
X225247400Y-82406900D01*
X225247400Y-83456000D01*
X226212600Y-83456000D01*
X226212600Y-82406900D01*
X226517400Y-82406900D01*
X226517400Y-83456000D01*
X227482600Y-83456000D01*
X227482600Y-82406900D01*
X227787400Y-82406900D01*
X227787400Y-83456000D01*
X228752600Y-83456000D01*
X228752600Y-82406900D01*
X229057400Y-82406900D01*
X229057400Y-83456000D01*
X229772300Y-83456000D01*
X229959800Y-83268500D01*
X229959800Y-82820215D01*
X229845619Y-82544559D01*
X229634641Y-82333581D01*
X229358984Y-82219400D01*
X229244900Y-82219400D01*
X229057400Y-82406900D01*
X228752600Y-82406900D01*
X228565100Y-82219400D01*
X228451016Y-82219400D01*
X228270000Y-82294379D01*
X228088984Y-82219400D01*
X227974900Y-82219400D01*
X227787400Y-82406900D01*
X227482600Y-82406900D01*
X227295100Y-82219400D01*
X227181016Y-82219400D01*
X227000000Y-82294379D01*
X226818984Y-82219400D01*
X226704900Y-82219400D01*
X226517400Y-82406900D01*
X226212600Y-82406900D01*
X226025100Y-82219400D01*
X225911016Y-82219400D01*
X225730000Y-82294379D01*
X225548984Y-82219400D01*
X225434900Y-82219400D01*
X225247400Y-82406900D01*
X224942600Y-82406900D01*
X224755100Y-82219400D01*
X224641016Y-82219400D01*
X224365359Y-82333581D01*
X224154381Y-82544559D01*
X224040200Y-82820215D01*
X223932850Y-82820215D01*
X223894880Y-82629329D01*
X223779065Y-82456000D01*
X223737911Y-82394408D01*
X223737909Y-82394406D01*
X223684911Y-82315089D01*
X223605593Y-82262090D01*
X222937911Y-81594409D01*
X222913250Y-81557500D01*
X232900000Y-81557500D01*
X232900000Y-82119184D01*
X233012176Y-82390000D01*
X232900000Y-82660816D01*
X232900000Y-83222500D01*
X233087500Y-83410000D01*
X234250000Y-83410000D01*
X234250000Y-81370000D01*
X233087500Y-81370000D01*
X232900000Y-81557500D01*
X222913250Y-81557500D01*
X222884911Y-81515089D01*
X222570671Y-81305120D01*
X222293564Y-81250000D01*
X222293559Y-81250000D01*
X222200000Y-81231390D01*
X222106441Y-81250000D01*
X221675182Y-81250000D01*
X221668424Y-81216023D01*
X221394273Y-80805727D01*
X220983977Y-80531576D01*
X220500000Y-80435307D01*
X217500000Y-80435307D01*
X217016023Y-80531576D01*
X216605727Y-80805727D01*
X216331576Y-81216023D01*
X216235307Y-81700000D01*
X216235307Y-82700000D01*
X216331576Y-83183977D01*
X216349449Y-83210726D01*
X216250000Y-83450816D01*
X216250000Y-84162500D01*
X216437500Y-84350000D01*
X218750000Y-84350000D01*
X218750000Y-84330000D01*
X219250000Y-84330000D01*
X219250000Y-84350000D01*
X221562500Y-84350000D01*
X221750000Y-84162500D01*
X221750000Y-83450816D01*
X221650551Y-83210726D01*
X221668424Y-83183977D01*
X221675182Y-83150000D01*
X221806498Y-83150000D01*
X222050001Y-83393504D01*
X222050001Y-84750000D01*
X205567928Y-84750000D01*
X205540720Y-84709280D01*
X205292635Y-84543516D01*
X205073866Y-84500000D01*
X205292635Y-84456484D01*
X205540720Y-84290720D01*
X205706484Y-84042635D01*
X205764693Y-83750000D01*
X205764693Y-82643500D01*
X210040200Y-82643500D01*
X210040200Y-83091785D01*
X210154381Y-83367441D01*
X210365359Y-83578419D01*
X210641016Y-83692600D01*
X210755100Y-83692600D01*
X210942600Y-83505100D01*
X210942600Y-82456000D01*
X211247400Y-82456000D01*
X211247400Y-83505100D01*
X211434900Y-83692600D01*
X211548984Y-83692600D01*
X211730000Y-83617621D01*
X211911016Y-83692600D01*
X212025100Y-83692600D01*
X212212600Y-83505100D01*
X212212600Y-82456000D01*
X212517400Y-82456000D01*
X212517400Y-83505100D01*
X212704900Y-83692600D01*
X212818984Y-83692600D01*
X213000000Y-83617621D01*
X213181016Y-83692600D01*
X213295100Y-83692600D01*
X213482600Y-83505100D01*
X213482600Y-82456000D01*
X213787400Y-82456000D01*
X213787400Y-83505100D01*
X213974900Y-83692600D01*
X214088984Y-83692600D01*
X214270000Y-83617621D01*
X214451016Y-83692600D01*
X214565100Y-83692600D01*
X214752600Y-83505100D01*
X214752600Y-82456000D01*
X215057400Y-82456000D01*
X215057400Y-83505100D01*
X215244900Y-83692600D01*
X215358984Y-83692600D01*
X215634641Y-83578419D01*
X215845619Y-83367441D01*
X215959800Y-83091785D01*
X215959800Y-82643500D01*
X215772300Y-82456000D01*
X215057400Y-82456000D01*
X214752600Y-82456000D01*
X213787400Y-82456000D01*
X213482600Y-82456000D01*
X212517400Y-82456000D01*
X212212600Y-82456000D01*
X211247400Y-82456000D01*
X210942600Y-82456000D01*
X210227700Y-82456000D01*
X210040200Y-82643500D01*
X205764693Y-82643500D01*
X205764693Y-82250000D01*
X205706484Y-81957365D01*
X205540720Y-81709280D01*
X205450000Y-81648663D01*
X205450000Y-81351337D01*
X205496577Y-81320215D01*
X210040200Y-81320215D01*
X210040200Y-81768500D01*
X210227700Y-81956000D01*
X210942600Y-81956000D01*
X210942600Y-80906900D01*
X211247400Y-80906900D01*
X211247400Y-81956000D01*
X212212600Y-81956000D01*
X212212600Y-80906900D01*
X212517400Y-80906900D01*
X212517400Y-81956000D01*
X213482600Y-81956000D01*
X213482600Y-80906900D01*
X213787400Y-80906900D01*
X213787400Y-81956000D01*
X214752600Y-81956000D01*
X214752600Y-80906900D01*
X215057400Y-80906900D01*
X215057400Y-81956000D01*
X215772300Y-81956000D01*
X215959800Y-81768500D01*
X215959800Y-81320215D01*
X215845619Y-81044559D01*
X215634641Y-80833581D01*
X215358984Y-80719400D01*
X215244900Y-80719400D01*
X215057400Y-80906900D01*
X214752600Y-80906900D01*
X214565100Y-80719400D01*
X214451016Y-80719400D01*
X214270000Y-80794379D01*
X214088984Y-80719400D01*
X213974900Y-80719400D01*
X213787400Y-80906900D01*
X213482600Y-80906900D01*
X213295100Y-80719400D01*
X213181016Y-80719400D01*
X213000000Y-80794379D01*
X212818984Y-80719400D01*
X212704900Y-80719400D01*
X212517400Y-80906900D01*
X212212600Y-80906900D01*
X212025100Y-80719400D01*
X211911016Y-80719400D01*
X211730000Y-80794379D01*
X211548984Y-80719400D01*
X211434900Y-80719400D01*
X211247400Y-80906900D01*
X210942600Y-80906900D01*
X210755100Y-80719400D01*
X210641016Y-80719400D01*
X210365359Y-80833581D01*
X210154381Y-81044559D01*
X210040200Y-81320215D01*
X205496577Y-81320215D01*
X205540720Y-81290720D01*
X205706484Y-81042635D01*
X205724910Y-80950000D01*
X205823654Y-80950000D01*
X205848577Y-80974923D01*
X206271251Y-81150000D01*
X206728749Y-81150000D01*
X207151423Y-80974923D01*
X207474923Y-80651423D01*
X207650000Y-80228749D01*
X207650000Y-79771251D01*
X207474923Y-79348577D01*
X207151423Y-79025077D01*
X206728749Y-78850000D01*
X206271251Y-78850000D01*
X205848577Y-79025077D01*
X205823654Y-79050000D01*
X205724910Y-79050000D01*
X205711404Y-78982098D01*
X207243503Y-77450000D01*
X212695307Y-77450000D01*
X212695307Y-78000000D01*
X212791576Y-78483977D01*
X213065727Y-78894273D01*
X213476023Y-79168424D01*
X213960000Y-79264693D01*
X214960000Y-79264693D01*
X215443977Y-79168424D01*
X215542160Y-79102820D01*
X215575159Y-79135819D01*
X215850816Y-79250000D01*
X216562500Y-79250000D01*
X216750000Y-79062500D01*
X216750000Y-76750000D01*
X216730000Y-76750000D01*
X216730000Y-76250000D01*
X216750000Y-76250000D01*
X216750000Y-73937500D01*
X217250000Y-73937500D01*
X217250000Y-76250000D01*
X217270000Y-76250000D01*
X217270000Y-76750000D01*
X217250000Y-76750000D01*
X217250000Y-79062500D01*
X217437500Y-79250000D01*
X218149184Y-79250000D01*
X218424841Y-79135819D01*
X218457840Y-79102820D01*
X218556023Y-79168424D01*
X219040000Y-79264693D01*
X220040000Y-79264693D01*
X220523977Y-79168424D01*
X220749850Y-79017500D01*
X232900000Y-79017500D01*
X232900000Y-79579184D01*
X233012176Y-79850000D01*
X232900000Y-80120816D01*
X232900000Y-80682500D01*
X233087500Y-80870000D01*
X234250000Y-80870000D01*
X234250000Y-78830000D01*
X233087500Y-78830000D01*
X232900000Y-79017500D01*
X220749850Y-79017500D01*
X220934273Y-78894273D01*
X221208424Y-78483977D01*
X221304693Y-78000000D01*
X221304693Y-76477500D01*
X232900000Y-76477500D01*
X232900000Y-77039184D01*
X233012176Y-77310000D01*
X232900000Y-77580816D01*
X232900000Y-78142500D01*
X233087500Y-78330000D01*
X234250000Y-78330000D01*
X234250000Y-76290000D01*
X233087500Y-76290000D01*
X232900000Y-76477500D01*
X221304693Y-76477500D01*
X221304693Y-75000000D01*
X221208424Y-74516023D01*
X220934273Y-74105727D01*
X220523977Y-73831576D01*
X220040000Y-73735307D01*
X219040000Y-73735307D01*
X218556023Y-73831576D01*
X218457840Y-73897180D01*
X218424841Y-73864181D01*
X218149184Y-73750000D01*
X217437500Y-73750000D01*
X217250000Y-73937500D01*
X216750000Y-73937500D01*
X216562500Y-73750000D01*
X215850816Y-73750000D01*
X215575159Y-73864181D01*
X215542160Y-73897180D01*
X215443977Y-73831576D01*
X214960000Y-73735307D01*
X213960000Y-73735307D01*
X213476023Y-73831576D01*
X213065727Y-74105727D01*
X212791576Y-74516023D01*
X212695307Y-75000000D01*
X212695307Y-75550000D01*
X206967767Y-75550000D01*
X208767767Y-73750000D01*
X209015255Y-73750000D01*
X209109280Y-73890720D01*
X209357365Y-74056484D01*
X209650000Y-74114693D01*
X211350000Y-74114693D01*
X211642635Y-74056484D01*
X211890720Y-73890720D01*
X212056484Y-73642635D01*
X212114693Y-73350000D01*
X212114693Y-72467500D01*
X225005953Y-72467500D01*
X225005953Y-75717500D01*
X229994048Y-75717500D01*
X229994048Y-72467500D01*
X225005953Y-72467500D01*
X212114693Y-72467500D01*
X212114693Y-72317691D01*
X233671244Y-72317691D01*
X234500000Y-73146447D01*
X235328756Y-72317691D01*
X235245300Y-72048857D01*
X234633239Y-71874105D01*
X234000894Y-71946880D01*
X233754700Y-72048857D01*
X233671244Y-72317691D01*
X212114693Y-72317691D01*
X212114693Y-71650000D01*
X212056484Y-71357365D01*
X211984745Y-71250000D01*
X235750000Y-71250000D01*
X235750000Y-72692258D01*
G04 #@! TO.N,Net-(C3-Pad2)*
G36*
X216250000Y-86562500D02*
X216437500Y-86750000D01*
X218750000Y-86750000D01*
X218750000Y-86730000D01*
X219250000Y-86730000D01*
X219250000Y-86750000D01*
X219270000Y-86750000D01*
X219270000Y-87250000D01*
X219250000Y-87250000D01*
X219250000Y-88562500D01*
X219437500Y-88750000D01*
X220750000Y-88750000D01*
X220750000Y-89645000D01*
X215855000Y-89645000D01*
X215855000Y-88914954D01*
X215916284Y-88823235D01*
X215974493Y-88530600D01*
X215974493Y-87437500D01*
X216250000Y-87437500D01*
X216250000Y-88149184D01*
X216364181Y-88424841D01*
X216575159Y-88635819D01*
X216850815Y-88750000D01*
X218562500Y-88750000D01*
X218750000Y-88562500D01*
X218750000Y-87250000D01*
X216437500Y-87250000D01*
X216250000Y-87437500D01*
X215974493Y-87437500D01*
X215974493Y-87057400D01*
X215916284Y-86764765D01*
X215750520Y-86516680D01*
X215502435Y-86350916D01*
X215209800Y-86292707D01*
X214600200Y-86292707D01*
X214307565Y-86350916D01*
X214264121Y-86379944D01*
X214088984Y-86307400D01*
X213974900Y-86307400D01*
X213787400Y-86494900D01*
X213787400Y-87544000D01*
X213835507Y-87544000D01*
X213835507Y-88044000D01*
X213787400Y-88044000D01*
X213787400Y-89093100D01*
X213955000Y-89260700D01*
X213955000Y-90201498D01*
X213606498Y-90550000D01*
X212843558Y-90550000D01*
X212749999Y-90531390D01*
X212656440Y-90550000D01*
X212656436Y-90550000D01*
X212379329Y-90605120D01*
X212295772Y-90660951D01*
X212144408Y-90762089D01*
X212144406Y-90762091D01*
X212065089Y-90815089D01*
X212012091Y-90894407D01*
X211394409Y-91512089D01*
X211315089Y-91565089D01*
X211105120Y-91879330D01*
X211050000Y-92156437D01*
X211050000Y-92156441D01*
X211031390Y-92250000D01*
X211050000Y-92343559D01*
X211050000Y-92648663D01*
X210959280Y-92709280D01*
X210793516Y-92957365D01*
X210775090Y-93050000D01*
X210176346Y-93050000D01*
X210151423Y-93025077D01*
X209728749Y-92850000D01*
X209271251Y-92850000D01*
X208848577Y-93025077D01*
X208525077Y-93348577D01*
X208350000Y-93771251D01*
X208350000Y-94228749D01*
X208525077Y-94651423D01*
X208848577Y-94974923D01*
X209271251Y-95150000D01*
X209728749Y-95150000D01*
X210151423Y-94974923D01*
X210176346Y-94950000D01*
X210775090Y-94950000D01*
X210793516Y-95042635D01*
X210959280Y-95290720D01*
X211207365Y-95456484D01*
X211500000Y-95514693D01*
X212500000Y-95514693D01*
X212792635Y-95456484D01*
X213004357Y-95315017D01*
X213075159Y-95385819D01*
X213350816Y-95500000D01*
X213562500Y-95500000D01*
X213750000Y-95312500D01*
X213750000Y-94250000D01*
X214250000Y-94250000D01*
X214250000Y-95312500D01*
X214437500Y-95500000D01*
X214649184Y-95500000D01*
X214924841Y-95385819D01*
X215135819Y-95174841D01*
X215250000Y-94899185D01*
X215250000Y-94437500D01*
X218000000Y-94437500D01*
X218000000Y-96149185D01*
X218114181Y-96424841D01*
X218325159Y-96635819D01*
X218600816Y-96750000D01*
X219062500Y-96750000D01*
X219250000Y-96562500D01*
X219250000Y-94250000D01*
X218187500Y-94250000D01*
X218000000Y-94437500D01*
X215250000Y-94437500D01*
X215062500Y-94250000D01*
X214250000Y-94250000D01*
X213750000Y-94250000D01*
X213730000Y-94250000D01*
X213730000Y-93750000D01*
X213750000Y-93750000D01*
X213750000Y-92687500D01*
X214250000Y-92687500D01*
X214250000Y-93750000D01*
X215062500Y-93750000D01*
X215250000Y-93562500D01*
X215250000Y-93100815D01*
X215135819Y-92825159D01*
X214924841Y-92614181D01*
X214649184Y-92500000D01*
X214437500Y-92500000D01*
X214250000Y-92687500D01*
X213750000Y-92687500D01*
X213562500Y-92500000D01*
X213350816Y-92500000D01*
X213075159Y-92614181D01*
X213004357Y-92684983D01*
X212950000Y-92648663D01*
X212950000Y-92643502D01*
X213143503Y-92450000D01*
X213906441Y-92450000D01*
X214000000Y-92468610D01*
X214093559Y-92450000D01*
X214093564Y-92450000D01*
X214370671Y-92394880D01*
X214684911Y-92184911D01*
X214737911Y-92105591D01*
X215298502Y-91545000D01*
X218144340Y-91545000D01*
X218114181Y-91575159D01*
X218000000Y-91850815D01*
X218000000Y-93562500D01*
X218187500Y-93750000D01*
X219250000Y-93750000D01*
X219250000Y-93730000D01*
X219750000Y-93730000D01*
X219750000Y-93750000D01*
X219770000Y-93750000D01*
X219770000Y-94250000D01*
X219750000Y-94250000D01*
X219750000Y-96562500D01*
X219937500Y-96750000D01*
X220399184Y-96750000D01*
X220674841Y-96635819D01*
X220750000Y-96560660D01*
X220750000Y-98750000D01*
X206073866Y-98750000D01*
X206292635Y-98706484D01*
X206540720Y-98540720D01*
X206706484Y-98292635D01*
X206764693Y-98000000D01*
X206764693Y-97000000D01*
X206750000Y-96926134D01*
X206750000Y-93323866D01*
X206764693Y-93250000D01*
X206764693Y-91750000D01*
X206706484Y-91457365D01*
X206567928Y-91250000D01*
X209482234Y-91250000D01*
X209703168Y-91470934D01*
X210012274Y-91677472D01*
X210500000Y-91774488D01*
X210987725Y-91677472D01*
X211401199Y-91401199D01*
X211677472Y-90987725D01*
X211774488Y-90500000D01*
X211677472Y-90012274D01*
X211470934Y-89703168D01*
X210970936Y-89203170D01*
X210915498Y-89120202D01*
X210942600Y-89093100D01*
X210942600Y-88044000D01*
X211247400Y-88044000D01*
X211247400Y-89093100D01*
X211434900Y-89280600D01*
X211548984Y-89280600D01*
X211730000Y-89205621D01*
X211911016Y-89280600D01*
X212025100Y-89280600D01*
X212212600Y-89093100D01*
X212212600Y-88044000D01*
X212517400Y-88044000D01*
X212517400Y-89093100D01*
X212704900Y-89280600D01*
X212818984Y-89280600D01*
X213000000Y-89205621D01*
X213181016Y-89280600D01*
X213295100Y-89280600D01*
X213482600Y-89093100D01*
X213482600Y-88044000D01*
X212517400Y-88044000D01*
X212212600Y-88044000D01*
X211247400Y-88044000D01*
X210942600Y-88044000D01*
X210227700Y-88044000D01*
X210040200Y-88231500D01*
X210040200Y-88679785D01*
X210064452Y-88738333D01*
X210000000Y-88725513D01*
X209876896Y-88750000D01*
X204373103Y-88750000D01*
X204249999Y-88725513D01*
X204126895Y-88750000D01*
X204126891Y-88750000D01*
X203762275Y-88822527D01*
X203348801Y-89098801D01*
X203279064Y-89203170D01*
X202703168Y-89779066D01*
X202598802Y-89848801D01*
X202529067Y-89953167D01*
X202529066Y-89953168D01*
X202489573Y-90012274D01*
X202322528Y-90262275D01*
X202250000Y-90626891D01*
X202250000Y-90626896D01*
X202225513Y-90750000D01*
X202250000Y-90873104D01*
X202250000Y-91676134D01*
X202235307Y-91750000D01*
X202235307Y-93250000D01*
X202293516Y-93542635D01*
X202459280Y-93790720D01*
X202707365Y-93956484D01*
X203000000Y-94014693D01*
X204000000Y-94014693D01*
X204250001Y-93964965D01*
X204250000Y-96926133D01*
X204235307Y-97000000D01*
X204235307Y-97770000D01*
X203750000Y-97770000D01*
X203750000Y-97750000D01*
X202937500Y-97750000D01*
X202750000Y-97937500D01*
X202750000Y-98149185D01*
X202864181Y-98424841D01*
X203075159Y-98635819D01*
X203350816Y-98750000D01*
X198250000Y-98750000D01*
X198250000Y-96850815D01*
X202750000Y-96850815D01*
X202750000Y-97062500D01*
X202937500Y-97250000D01*
X203750000Y-97250000D01*
X203750000Y-96437500D01*
X203562500Y-96250000D01*
X203350816Y-96250000D01*
X203075159Y-96364181D01*
X202864181Y-96575159D01*
X202750000Y-96850815D01*
X198250000Y-96850815D01*
X198250000Y-95276109D01*
X198500815Y-95380000D01*
X199062500Y-95380000D01*
X199250000Y-95192500D01*
X199250000Y-94030000D01*
X199750000Y-94030000D01*
X199750000Y-95192500D01*
X199937500Y-95380000D01*
X200499185Y-95380000D01*
X200774841Y-95265819D01*
X200985819Y-95054841D01*
X201100000Y-94779184D01*
X201100000Y-94217500D01*
X200912500Y-94030000D01*
X199750000Y-94030000D01*
X199250000Y-94030000D01*
X199230000Y-94030000D01*
X199230000Y-93530000D01*
X199250000Y-93530000D01*
X199250000Y-91490000D01*
X199750000Y-91490000D01*
X199750000Y-93530000D01*
X200912500Y-93530000D01*
X201100000Y-93342500D01*
X201100000Y-92780816D01*
X200987824Y-92510000D01*
X201100000Y-92239184D01*
X201100000Y-91677500D01*
X200912500Y-91490000D01*
X199750000Y-91490000D01*
X199250000Y-91490000D01*
X199230000Y-91490000D01*
X199230000Y-90990000D01*
X199250000Y-90990000D01*
X199250000Y-88950000D01*
X199750000Y-88950000D01*
X199750000Y-90990000D01*
X200912500Y-90990000D01*
X201100000Y-90802500D01*
X201100000Y-90240816D01*
X200987824Y-89970000D01*
X201100000Y-89699184D01*
X201100000Y-89137500D01*
X200912500Y-88950000D01*
X199750000Y-88950000D01*
X199250000Y-88950000D01*
X199230000Y-88950000D01*
X199230000Y-88450000D01*
X199250000Y-88450000D01*
X199250000Y-88430000D01*
X199750000Y-88430000D01*
X199750000Y-88450000D01*
X200912500Y-88450000D01*
X201100000Y-88262500D01*
X201100000Y-87700816D01*
X200985819Y-87425159D01*
X200979104Y-87418444D01*
X201056484Y-87302635D01*
X201094802Y-87110000D01*
X201338528Y-87110000D01*
X201459280Y-87290720D01*
X201707365Y-87456484D01*
X202000000Y-87514693D01*
X203000000Y-87514693D01*
X203292635Y-87456484D01*
X203500000Y-87317928D01*
X203707365Y-87456484D01*
X204000000Y-87514693D01*
X205000000Y-87514693D01*
X205292635Y-87456484D01*
X205540720Y-87290720D01*
X205703539Y-87047042D01*
X205850000Y-87193503D01*
X205850000Y-87228749D01*
X206025077Y-87651423D01*
X206348577Y-87974923D01*
X206771251Y-88150000D01*
X207228749Y-88150000D01*
X207651423Y-87974923D01*
X207974923Y-87651423D01*
X208150000Y-87228749D01*
X208150000Y-86908215D01*
X210040200Y-86908215D01*
X210040200Y-87356500D01*
X210227700Y-87544000D01*
X210942600Y-87544000D01*
X210942600Y-86494900D01*
X211247400Y-86494900D01*
X211247400Y-87544000D01*
X212212600Y-87544000D01*
X212212600Y-86494900D01*
X212517400Y-86494900D01*
X212517400Y-87544000D01*
X213482600Y-87544000D01*
X213482600Y-86494900D01*
X213295100Y-86307400D01*
X213181016Y-86307400D01*
X213000000Y-86382379D01*
X212818984Y-86307400D01*
X212704900Y-86307400D01*
X212517400Y-86494900D01*
X212212600Y-86494900D01*
X212025100Y-86307400D01*
X211911016Y-86307400D01*
X211730000Y-86382379D01*
X211548984Y-86307400D01*
X211434900Y-86307400D01*
X211247400Y-86494900D01*
X210942600Y-86494900D01*
X210755100Y-86307400D01*
X210641016Y-86307400D01*
X210365359Y-86421581D01*
X210154381Y-86632559D01*
X210040200Y-86908215D01*
X208150000Y-86908215D01*
X208150000Y-86771251D01*
X207974923Y-86348577D01*
X207876346Y-86250000D01*
X216250000Y-86250000D01*
X216250000Y-86562500D01*
X216250000Y-86562500D01*
G37*
X216250000Y-86562500D02*
X216437500Y-86750000D01*
X218750000Y-86750000D01*
X218750000Y-86730000D01*
X219250000Y-86730000D01*
X219250000Y-86750000D01*
X219270000Y-86750000D01*
X219270000Y-87250000D01*
X219250000Y-87250000D01*
X219250000Y-88562500D01*
X219437500Y-88750000D01*
X220750000Y-88750000D01*
X220750000Y-89645000D01*
X215855000Y-89645000D01*
X215855000Y-88914954D01*
X215916284Y-88823235D01*
X215974493Y-88530600D01*
X215974493Y-87437500D01*
X216250000Y-87437500D01*
X216250000Y-88149184D01*
X216364181Y-88424841D01*
X216575159Y-88635819D01*
X216850815Y-88750000D01*
X218562500Y-88750000D01*
X218750000Y-88562500D01*
X218750000Y-87250000D01*
X216437500Y-87250000D01*
X216250000Y-87437500D01*
X215974493Y-87437500D01*
X215974493Y-87057400D01*
X215916284Y-86764765D01*
X215750520Y-86516680D01*
X215502435Y-86350916D01*
X215209800Y-86292707D01*
X214600200Y-86292707D01*
X214307565Y-86350916D01*
X214264121Y-86379944D01*
X214088984Y-86307400D01*
X213974900Y-86307400D01*
X213787400Y-86494900D01*
X213787400Y-87544000D01*
X213835507Y-87544000D01*
X213835507Y-88044000D01*
X213787400Y-88044000D01*
X213787400Y-89093100D01*
X213955000Y-89260700D01*
X213955000Y-90201498D01*
X213606498Y-90550000D01*
X212843558Y-90550000D01*
X212749999Y-90531390D01*
X212656440Y-90550000D01*
X212656436Y-90550000D01*
X212379329Y-90605120D01*
X212295772Y-90660951D01*
X212144408Y-90762089D01*
X212144406Y-90762091D01*
X212065089Y-90815089D01*
X212012091Y-90894407D01*
X211394409Y-91512089D01*
X211315089Y-91565089D01*
X211105120Y-91879330D01*
X211050000Y-92156437D01*
X211050000Y-92156441D01*
X211031390Y-92250000D01*
X211050000Y-92343559D01*
X211050000Y-92648663D01*
X210959280Y-92709280D01*
X210793516Y-92957365D01*
X210775090Y-93050000D01*
X210176346Y-93050000D01*
X210151423Y-93025077D01*
X209728749Y-92850000D01*
X209271251Y-92850000D01*
X208848577Y-93025077D01*
X208525077Y-93348577D01*
X208350000Y-93771251D01*
X208350000Y-94228749D01*
X208525077Y-94651423D01*
X208848577Y-94974923D01*
X209271251Y-95150000D01*
X209728749Y-95150000D01*
X210151423Y-94974923D01*
X210176346Y-94950000D01*
X210775090Y-94950000D01*
X210793516Y-95042635D01*
X210959280Y-95290720D01*
X211207365Y-95456484D01*
X211500000Y-95514693D01*
X212500000Y-95514693D01*
X212792635Y-95456484D01*
X213004357Y-95315017D01*
X213075159Y-95385819D01*
X213350816Y-95500000D01*
X213562500Y-95500000D01*
X213750000Y-95312500D01*
X213750000Y-94250000D01*
X214250000Y-94250000D01*
X214250000Y-95312500D01*
X214437500Y-95500000D01*
X214649184Y-95500000D01*
X214924841Y-95385819D01*
X215135819Y-95174841D01*
X215250000Y-94899185D01*
X215250000Y-94437500D01*
X218000000Y-94437500D01*
X218000000Y-96149185D01*
X218114181Y-96424841D01*
X218325159Y-96635819D01*
X218600816Y-96750000D01*
X219062500Y-96750000D01*
X219250000Y-96562500D01*
X219250000Y-94250000D01*
X218187500Y-94250000D01*
X218000000Y-94437500D01*
X215250000Y-94437500D01*
X215062500Y-94250000D01*
X214250000Y-94250000D01*
X213750000Y-94250000D01*
X213730000Y-94250000D01*
X213730000Y-93750000D01*
X213750000Y-93750000D01*
X213750000Y-92687500D01*
X214250000Y-92687500D01*
X214250000Y-93750000D01*
X215062500Y-93750000D01*
X215250000Y-93562500D01*
X215250000Y-93100815D01*
X215135819Y-92825159D01*
X214924841Y-92614181D01*
X214649184Y-92500000D01*
X214437500Y-92500000D01*
X214250000Y-92687500D01*
X213750000Y-92687500D01*
X213562500Y-92500000D01*
X213350816Y-92500000D01*
X213075159Y-92614181D01*
X213004357Y-92684983D01*
X212950000Y-92648663D01*
X212950000Y-92643502D01*
X213143503Y-92450000D01*
X213906441Y-92450000D01*
X214000000Y-92468610D01*
X214093559Y-92450000D01*
X214093564Y-92450000D01*
X214370671Y-92394880D01*
X214684911Y-92184911D01*
X214737911Y-92105591D01*
X215298502Y-91545000D01*
X218144340Y-91545000D01*
X218114181Y-91575159D01*
X218000000Y-91850815D01*
X218000000Y-93562500D01*
X218187500Y-93750000D01*
X219250000Y-93750000D01*
X219250000Y-93730000D01*
X219750000Y-93730000D01*
X219750000Y-93750000D01*
X219770000Y-93750000D01*
X219770000Y-94250000D01*
X219750000Y-94250000D01*
X219750000Y-96562500D01*
X219937500Y-96750000D01*
X220399184Y-96750000D01*
X220674841Y-96635819D01*
X220750000Y-96560660D01*
X220750000Y-98750000D01*
X206073866Y-98750000D01*
X206292635Y-98706484D01*
X206540720Y-98540720D01*
X206706484Y-98292635D01*
X206764693Y-98000000D01*
X206764693Y-97000000D01*
X206750000Y-96926134D01*
X206750000Y-93323866D01*
X206764693Y-93250000D01*
X206764693Y-91750000D01*
X206706484Y-91457365D01*
X206567928Y-91250000D01*
X209482234Y-91250000D01*
X209703168Y-91470934D01*
X210012274Y-91677472D01*
X210500000Y-91774488D01*
X210987725Y-91677472D01*
X211401199Y-91401199D01*
X211677472Y-90987725D01*
X211774488Y-90500000D01*
X211677472Y-90012274D01*
X211470934Y-89703168D01*
X210970936Y-89203170D01*
X210915498Y-89120202D01*
X210942600Y-89093100D01*
X210942600Y-88044000D01*
X211247400Y-88044000D01*
X211247400Y-89093100D01*
X211434900Y-89280600D01*
X211548984Y-89280600D01*
X211730000Y-89205621D01*
X211911016Y-89280600D01*
X212025100Y-89280600D01*
X212212600Y-89093100D01*
X212212600Y-88044000D01*
X212517400Y-88044000D01*
X212517400Y-89093100D01*
X212704900Y-89280600D01*
X212818984Y-89280600D01*
X213000000Y-89205621D01*
X213181016Y-89280600D01*
X213295100Y-89280600D01*
X213482600Y-89093100D01*
X213482600Y-88044000D01*
X212517400Y-88044000D01*
X212212600Y-88044000D01*
X211247400Y-88044000D01*
X210942600Y-88044000D01*
X210227700Y-88044000D01*
X210040200Y-88231500D01*
X210040200Y-88679785D01*
X210064452Y-88738333D01*
X210000000Y-88725513D01*
X209876896Y-88750000D01*
X204373103Y-88750000D01*
X204249999Y-88725513D01*
X204126895Y-88750000D01*
X204126891Y-88750000D01*
X203762275Y-88822527D01*
X203348801Y-89098801D01*
X203279064Y-89203170D01*
X202703168Y-89779066D01*
X202598802Y-89848801D01*
X202529067Y-89953167D01*
X202529066Y-89953168D01*
X202489573Y-90012274D01*
X202322528Y-90262275D01*
X202250000Y-90626891D01*
X202250000Y-90626896D01*
X202225513Y-90750000D01*
X202250000Y-90873104D01*
X202250000Y-91676134D01*
X202235307Y-91750000D01*
X202235307Y-93250000D01*
X202293516Y-93542635D01*
X202459280Y-93790720D01*
X202707365Y-93956484D01*
X203000000Y-94014693D01*
X204000000Y-94014693D01*
X204250001Y-93964965D01*
X204250000Y-96926133D01*
X204235307Y-97000000D01*
X204235307Y-97770000D01*
X203750000Y-97770000D01*
X203750000Y-97750000D01*
X202937500Y-97750000D01*
X202750000Y-97937500D01*
X202750000Y-98149185D01*
X202864181Y-98424841D01*
X203075159Y-98635819D01*
X203350816Y-98750000D01*
X198250000Y-98750000D01*
X198250000Y-96850815D01*
X202750000Y-96850815D01*
X202750000Y-97062500D01*
X202937500Y-97250000D01*
X203750000Y-97250000D01*
X203750000Y-96437500D01*
X203562500Y-96250000D01*
X203350816Y-96250000D01*
X203075159Y-96364181D01*
X202864181Y-96575159D01*
X202750000Y-96850815D01*
X198250000Y-96850815D01*
X198250000Y-95276109D01*
X198500815Y-95380000D01*
X199062500Y-95380000D01*
X199250000Y-95192500D01*
X199250000Y-94030000D01*
X199750000Y-94030000D01*
X199750000Y-95192500D01*
X199937500Y-95380000D01*
X200499185Y-95380000D01*
X200774841Y-95265819D01*
X200985819Y-95054841D01*
X201100000Y-94779184D01*
X201100000Y-94217500D01*
X200912500Y-94030000D01*
X199750000Y-94030000D01*
X199250000Y-94030000D01*
X199230000Y-94030000D01*
X199230000Y-93530000D01*
X199250000Y-93530000D01*
X199250000Y-91490000D01*
X199750000Y-91490000D01*
X199750000Y-93530000D01*
X200912500Y-93530000D01*
X201100000Y-93342500D01*
X201100000Y-92780816D01*
X200987824Y-92510000D01*
X201100000Y-92239184D01*
X201100000Y-91677500D01*
X200912500Y-91490000D01*
X199750000Y-91490000D01*
X199250000Y-91490000D01*
X199230000Y-91490000D01*
X199230000Y-90990000D01*
X199250000Y-90990000D01*
X199250000Y-88950000D01*
X199750000Y-88950000D01*
X199750000Y-90990000D01*
X200912500Y-90990000D01*
X201100000Y-90802500D01*
X201100000Y-90240816D01*
X200987824Y-89970000D01*
X201100000Y-89699184D01*
X201100000Y-89137500D01*
X200912500Y-88950000D01*
X199750000Y-88950000D01*
X199250000Y-88950000D01*
X199230000Y-88950000D01*
X199230000Y-88450000D01*
X199250000Y-88450000D01*
X199250000Y-88430000D01*
X199750000Y-88430000D01*
X199750000Y-88450000D01*
X200912500Y-88450000D01*
X201100000Y-88262500D01*
X201100000Y-87700816D01*
X200985819Y-87425159D01*
X200979104Y-87418444D01*
X201056484Y-87302635D01*
X201094802Y-87110000D01*
X201338528Y-87110000D01*
X201459280Y-87290720D01*
X201707365Y-87456484D01*
X202000000Y-87514693D01*
X203000000Y-87514693D01*
X203292635Y-87456484D01*
X203500000Y-87317928D01*
X203707365Y-87456484D01*
X204000000Y-87514693D01*
X205000000Y-87514693D01*
X205292635Y-87456484D01*
X205540720Y-87290720D01*
X205703539Y-87047042D01*
X205850000Y-87193503D01*
X205850000Y-87228749D01*
X206025077Y-87651423D01*
X206348577Y-87974923D01*
X206771251Y-88150000D01*
X207228749Y-88150000D01*
X207651423Y-87974923D01*
X207974923Y-87651423D01*
X208150000Y-87228749D01*
X208150000Y-86908215D01*
X210040200Y-86908215D01*
X210040200Y-87356500D01*
X210227700Y-87544000D01*
X210942600Y-87544000D01*
X210942600Y-86494900D01*
X211247400Y-86494900D01*
X211247400Y-87544000D01*
X212212600Y-87544000D01*
X212212600Y-86494900D01*
X212517400Y-86494900D01*
X212517400Y-87544000D01*
X213482600Y-87544000D01*
X213482600Y-86494900D01*
X213295100Y-86307400D01*
X213181016Y-86307400D01*
X213000000Y-86382379D01*
X212818984Y-86307400D01*
X212704900Y-86307400D01*
X212517400Y-86494900D01*
X212212600Y-86494900D01*
X212025100Y-86307400D01*
X211911016Y-86307400D01*
X211730000Y-86382379D01*
X211548984Y-86307400D01*
X211434900Y-86307400D01*
X211247400Y-86494900D01*
X210942600Y-86494900D01*
X210755100Y-86307400D01*
X210641016Y-86307400D01*
X210365359Y-86421581D01*
X210154381Y-86632559D01*
X210040200Y-86908215D01*
X208150000Y-86908215D01*
X208150000Y-86771251D01*
X207974923Y-86348577D01*
X207876346Y-86250000D01*
X216250000Y-86250000D01*
X216250000Y-86562500D01*
D25*
G04 #@! TO.N,Net-(C3-Pad1)*
G36*
X232732368Y-87050000D02*
X232802219Y-87401163D01*
X233001136Y-87698864D01*
X233298837Y-87897781D01*
X233650000Y-87967632D01*
X235350000Y-87967632D01*
X235700000Y-87898012D01*
X235700000Y-92477460D01*
X234492400Y-91269860D01*
X232875214Y-90600000D01*
X231124786Y-90600000D01*
X230019181Y-91057956D01*
X230005000Y-90986662D01*
X230005000Y-90460456D01*
X230057581Y-90381763D01*
X230127432Y-90030600D01*
X230127432Y-88557400D01*
X230057581Y-88206237D01*
X229858664Y-87908536D01*
X229560963Y-87709619D01*
X229209800Y-87639768D01*
X228600200Y-87639768D01*
X228249037Y-87709619D01*
X228247450Y-87710680D01*
X228118821Y-87657400D01*
X228012400Y-87657400D01*
X227787400Y-87882400D01*
X227787400Y-88153884D01*
X227752419Y-88206237D01*
X227682568Y-88557400D01*
X227682568Y-89514000D01*
X227482600Y-89514000D01*
X227482600Y-89494000D01*
X226517400Y-89494000D01*
X226517400Y-89514000D01*
X226212600Y-89514000D01*
X226212600Y-89494000D01*
X225247400Y-89494000D01*
X225247400Y-89631800D01*
X225160200Y-89719000D01*
X225160200Y-90209621D01*
X225247400Y-90420140D01*
X225247400Y-90705600D01*
X225472400Y-90930600D01*
X225578821Y-90930600D01*
X225730000Y-90867980D01*
X225881179Y-90930600D01*
X225987600Y-90930600D01*
X226164998Y-90753202D01*
X226164998Y-90930600D01*
X226230922Y-90930600D01*
X225897913Y-91263609D01*
X225700000Y-91741414D01*
X225700000Y-92258586D01*
X225897913Y-92736391D01*
X226263609Y-93102087D01*
X226741414Y-93300000D01*
X227258586Y-93300000D01*
X227736391Y-93102087D01*
X227738478Y-93100000D01*
X227891661Y-93100000D01*
X228000000Y-93121550D01*
X228016950Y-93118178D01*
X227600000Y-94124786D01*
X227600000Y-95875214D01*
X228269860Y-97492400D01*
X229477460Y-98700000D01*
X222300000Y-98700000D01*
X222300000Y-94425000D01*
X222350000Y-94425000D01*
X222350000Y-96179021D01*
X222487017Y-96509809D01*
X222740191Y-96762983D01*
X223070979Y-96900000D01*
X223575000Y-96900000D01*
X223800000Y-96675000D01*
X223800000Y-94200000D01*
X224200000Y-94200000D01*
X224200000Y-96675000D01*
X224425000Y-96900000D01*
X224929021Y-96900000D01*
X225259809Y-96762983D01*
X225512983Y-96509809D01*
X225650000Y-96179021D01*
X225650000Y-94425000D01*
X225425000Y-94200000D01*
X224200000Y-94200000D01*
X223800000Y-94200000D01*
X222575000Y-94200000D01*
X222350000Y-94425000D01*
X222300000Y-94425000D01*
X222300000Y-91820979D01*
X222350000Y-91820979D01*
X222350000Y-93575000D01*
X222575000Y-93800000D01*
X223800000Y-93800000D01*
X223800000Y-91325000D01*
X224200000Y-91325000D01*
X224200000Y-93800000D01*
X225425000Y-93800000D01*
X225650000Y-93575000D01*
X225650000Y-91820979D01*
X225512983Y-91490191D01*
X225259809Y-91237017D01*
X224929021Y-91100000D01*
X224425000Y-91100000D01*
X224200000Y-91325000D01*
X223800000Y-91325000D01*
X223575000Y-91100000D01*
X223070979Y-91100000D01*
X222740191Y-91237017D01*
X222487017Y-91490191D01*
X222350000Y-91820979D01*
X222300000Y-91820979D01*
X222300000Y-91255634D01*
X223701206Y-89854428D01*
X223793056Y-89793056D01*
X223992877Y-89494002D01*
X224115198Y-89494002D01*
X223890200Y-89719000D01*
X223890200Y-90209621D01*
X224027217Y-90540409D01*
X224280391Y-90793583D01*
X224611179Y-90930600D01*
X224717600Y-90930600D01*
X224942600Y-90705600D01*
X224942600Y-89494000D01*
X224875000Y-89494000D01*
X224875000Y-89094000D01*
X224942600Y-89094000D01*
X224942600Y-88378379D01*
X225160200Y-88378379D01*
X225160200Y-88869000D01*
X225247400Y-88956200D01*
X225247400Y-89094000D01*
X226212600Y-89094000D01*
X226212600Y-88956200D01*
X226299800Y-88869000D01*
X226299800Y-88378379D01*
X226430200Y-88378379D01*
X226430200Y-88869000D01*
X226517400Y-88956200D01*
X226517400Y-89094000D01*
X227482600Y-89094000D01*
X227482600Y-88956200D01*
X227569800Y-88869000D01*
X227569800Y-88378379D01*
X227482600Y-88167860D01*
X227482600Y-87882400D01*
X227257600Y-87657400D01*
X227151179Y-87657400D01*
X227000000Y-87720020D01*
X226848821Y-87657400D01*
X226742400Y-87657400D01*
X226517400Y-87882400D01*
X226517400Y-88167860D01*
X226430200Y-88378379D01*
X226299800Y-88378379D01*
X226212600Y-88167860D01*
X226212600Y-87882400D01*
X225987600Y-87657400D01*
X225881179Y-87657400D01*
X225730000Y-87720020D01*
X225578821Y-87657400D01*
X225472400Y-87657400D01*
X225247400Y-87882400D01*
X225247400Y-88167860D01*
X225160200Y-88378379D01*
X224942600Y-88378379D01*
X224942600Y-87882400D01*
X224717600Y-87657400D01*
X224611179Y-87657400D01*
X224280391Y-87794417D01*
X224100000Y-87974808D01*
X224100000Y-86300000D01*
X232732368Y-86300000D01*
X232732368Y-87050000D01*
X232732368Y-87050000D01*
G37*
X232732368Y-87050000D02*
X232802219Y-87401163D01*
X233001136Y-87698864D01*
X233298837Y-87897781D01*
X233650000Y-87967632D01*
X235350000Y-87967632D01*
X235700000Y-87898012D01*
X235700000Y-92477460D01*
X234492400Y-91269860D01*
X232875214Y-90600000D01*
X231124786Y-90600000D01*
X230019181Y-91057956D01*
X230005000Y-90986662D01*
X230005000Y-90460456D01*
X230057581Y-90381763D01*
X230127432Y-90030600D01*
X230127432Y-88557400D01*
X230057581Y-88206237D01*
X229858664Y-87908536D01*
X229560963Y-87709619D01*
X229209800Y-87639768D01*
X228600200Y-87639768D01*
X228249037Y-87709619D01*
X228247450Y-87710680D01*
X228118821Y-87657400D01*
X228012400Y-87657400D01*
X227787400Y-87882400D01*
X227787400Y-88153884D01*
X227752419Y-88206237D01*
X227682568Y-88557400D01*
X227682568Y-89514000D01*
X227482600Y-89514000D01*
X227482600Y-89494000D01*
X226517400Y-89494000D01*
X226517400Y-89514000D01*
X226212600Y-89514000D01*
X226212600Y-89494000D01*
X225247400Y-89494000D01*
X225247400Y-89631800D01*
X225160200Y-89719000D01*
X225160200Y-90209621D01*
X225247400Y-90420140D01*
X225247400Y-90705600D01*
X225472400Y-90930600D01*
X225578821Y-90930600D01*
X225730000Y-90867980D01*
X225881179Y-90930600D01*
X225987600Y-90930600D01*
X226164998Y-90753202D01*
X226164998Y-90930600D01*
X226230922Y-90930600D01*
X225897913Y-91263609D01*
X225700000Y-91741414D01*
X225700000Y-92258586D01*
X225897913Y-92736391D01*
X226263609Y-93102087D01*
X226741414Y-93300000D01*
X227258586Y-93300000D01*
X227736391Y-93102087D01*
X227738478Y-93100000D01*
X227891661Y-93100000D01*
X228000000Y-93121550D01*
X228016950Y-93118178D01*
X227600000Y-94124786D01*
X227600000Y-95875214D01*
X228269860Y-97492400D01*
X229477460Y-98700000D01*
X222300000Y-98700000D01*
X222300000Y-94425000D01*
X222350000Y-94425000D01*
X222350000Y-96179021D01*
X222487017Y-96509809D01*
X222740191Y-96762983D01*
X223070979Y-96900000D01*
X223575000Y-96900000D01*
X223800000Y-96675000D01*
X223800000Y-94200000D01*
X224200000Y-94200000D01*
X224200000Y-96675000D01*
X224425000Y-96900000D01*
X224929021Y-96900000D01*
X225259809Y-96762983D01*
X225512983Y-96509809D01*
X225650000Y-96179021D01*
X225650000Y-94425000D01*
X225425000Y-94200000D01*
X224200000Y-94200000D01*
X223800000Y-94200000D01*
X222575000Y-94200000D01*
X222350000Y-94425000D01*
X222300000Y-94425000D01*
X222300000Y-91820979D01*
X222350000Y-91820979D01*
X222350000Y-93575000D01*
X222575000Y-93800000D01*
X223800000Y-93800000D01*
X223800000Y-91325000D01*
X224200000Y-91325000D01*
X224200000Y-93800000D01*
X225425000Y-93800000D01*
X225650000Y-93575000D01*
X225650000Y-91820979D01*
X225512983Y-91490191D01*
X225259809Y-91237017D01*
X224929021Y-91100000D01*
X224425000Y-91100000D01*
X224200000Y-91325000D01*
X223800000Y-91325000D01*
X223575000Y-91100000D01*
X223070979Y-91100000D01*
X222740191Y-91237017D01*
X222487017Y-91490191D01*
X222350000Y-91820979D01*
X222300000Y-91820979D01*
X222300000Y-91255634D01*
X223701206Y-89854428D01*
X223793056Y-89793056D01*
X223992877Y-89494002D01*
X224115198Y-89494002D01*
X223890200Y-89719000D01*
X223890200Y-90209621D01*
X224027217Y-90540409D01*
X224280391Y-90793583D01*
X224611179Y-90930600D01*
X224717600Y-90930600D01*
X224942600Y-90705600D01*
X224942600Y-89494000D01*
X224875000Y-89494000D01*
X224875000Y-89094000D01*
X224942600Y-89094000D01*
X224942600Y-88378379D01*
X225160200Y-88378379D01*
X225160200Y-88869000D01*
X225247400Y-88956200D01*
X225247400Y-89094000D01*
X226212600Y-89094000D01*
X226212600Y-88956200D01*
X226299800Y-88869000D01*
X226299800Y-88378379D01*
X226430200Y-88378379D01*
X226430200Y-88869000D01*
X226517400Y-88956200D01*
X226517400Y-89094000D01*
X227482600Y-89094000D01*
X227482600Y-88956200D01*
X227569800Y-88869000D01*
X227569800Y-88378379D01*
X227482600Y-88167860D01*
X227482600Y-87882400D01*
X227257600Y-87657400D01*
X227151179Y-87657400D01*
X227000000Y-87720020D01*
X226848821Y-87657400D01*
X226742400Y-87657400D01*
X226517400Y-87882400D01*
X226517400Y-88167860D01*
X226430200Y-88378379D01*
X226299800Y-88378379D01*
X226212600Y-88167860D01*
X226212600Y-87882400D01*
X225987600Y-87657400D01*
X225881179Y-87657400D01*
X225730000Y-87720020D01*
X225578821Y-87657400D01*
X225472400Y-87657400D01*
X225247400Y-87882400D01*
X225247400Y-88167860D01*
X225160200Y-88378379D01*
X224942600Y-88378379D01*
X224942600Y-87882400D01*
X224717600Y-87657400D01*
X224611179Y-87657400D01*
X224280391Y-87794417D01*
X224100000Y-87974808D01*
X224100000Y-86300000D01*
X232732368Y-86300000D01*
X232732368Y-87050000D01*
G04 #@! TD*
M02*
