M48
;DRILL file {KiCad (5.0.0)} date 03/01/19 10:22:21
;FORMAT={3:3/ absolute / metric / keep zeros}
FMAT,2
METRIC,TZ
T1C0.400
T2C1.000
T3C1.200
T4C1.400
T5C3.400
%
G90
G05
M71
T1
X206500Y-080000
X207000Y-087000
X209500Y-094000
X210500Y-090500
X227000Y-092000
X231000Y-088500
X232500Y-088500
T2
X205000Y-072500
X210500Y-072500
X234500Y-073500
X234500Y-076040
X234500Y-078580
X234500Y-081120
X234500Y-083660
X234500Y-086200
X199500Y-076000
X199500Y-078540
X199500Y-081080
X199500Y-083620
X199500Y-086160
X199500Y-088700
X199500Y-091240
X199500Y-093780
T3
X214460Y-076500
X217000Y-076500
X219540Y-076500
T4
X219000Y-082200
X219000Y-084600
X219000Y-087000
T5
X232000Y-095000
T0
M30
