G04 #@! TF.GenerationSoftware,KiCad,Pcbnew,(5.0.0)*
G04 #@! TF.CreationDate,2019-01-30T09:12:48+03:00*
G04 #@! TF.ProjectId,invertor,696E766572746F722E6B696361645F70,rev?*
G04 #@! TF.SameCoordinates,Original*
G04 #@! TF.FileFunction,Copper,L1,Top,Signal*
G04 #@! TF.FilePolarity,Positive*
%FSLAX46Y46*%
G04 Gerber Fmt 4.6, Leading zero omitted, Abs format (unit mm)*
G04 Created by KiCad (PCBNEW (5.0.0)) date 01/30/19 09:12:48*
%MOMM*%
%LPD*%
G01*
G04 APERTURE LIST*
G04 #@! TA.AperFunction,NonConductor*
%ADD10C,0.300000*%
G04 #@! TD*
G04 #@! TA.AperFunction,ComponentPad*
%ADD11R,2.000000X2.000000*%
G04 #@! TD*
G04 #@! TA.AperFunction,ComponentPad*
%ADD12C,2.000000*%
G04 #@! TD*
G04 #@! TA.AperFunction,ComponentPad*
%ADD13C,7.000000*%
G04 #@! TD*
G04 #@! TA.AperFunction,SMDPad,CuDef*
%ADD14R,4.500000X0.500000*%
G04 #@! TD*
G04 #@! TA.AperFunction,SMDPad,CuDef*
%ADD15R,3.000000X0.500000*%
G04 #@! TD*
G04 #@! TA.AperFunction,ComponentPad*
%ADD16R,1.700000X1.700000*%
G04 #@! TD*
G04 #@! TA.AperFunction,ComponentPad*
%ADD17R,2.000000X4.000000*%
G04 #@! TD*
G04 #@! TA.AperFunction,ComponentPad*
%ADD18O,2.000000X4.000000*%
G04 #@! TD*
G04 #@! TA.AperFunction,SMDPad,CuDef*
%ADD19R,1.000000X1.000000*%
G04 #@! TD*
G04 #@! TA.AperFunction,ViaPad*
%ADD20C,0.800000*%
G04 #@! TD*
G04 #@! TA.AperFunction,Conductor*
%ADD21C,0.250000*%
G04 #@! TD*
G04 #@! TA.AperFunction,Conductor*
%ADD22C,0.254000*%
G04 #@! TD*
G04 APERTURE END LIST*
D10*
X-161321428Y4096428D02*
X-161321428Y5096428D01*
X-161321428Y5596428D02*
X-161392857Y5525000D01*
X-161321428Y5453571D01*
X-161250000Y5525000D01*
X-161321428Y5596428D01*
X-161321428Y5453571D01*
X-160607142Y5096428D02*
X-160607142Y4096428D01*
X-160607142Y4953571D02*
X-160535714Y5025000D01*
X-160392857Y5096428D01*
X-160178571Y5096428D01*
X-160035714Y5025000D01*
X-159964285Y4882142D01*
X-159964285Y4096428D01*
X-159392857Y5096428D02*
X-159035714Y4096428D01*
X-158678571Y5096428D01*
X-158107142Y4239285D02*
X-158035714Y4167857D01*
X-158107142Y4096428D01*
X-158178571Y4167857D01*
X-158107142Y4239285D01*
X-158107142Y4096428D01*
X-157107142Y5596428D02*
X-156964285Y5596428D01*
X-156821428Y5525000D01*
X-156750000Y5453571D01*
X-156678571Y5310714D01*
X-156607142Y5025000D01*
X-156607142Y4667857D01*
X-156678571Y4382142D01*
X-156750000Y4239285D01*
X-156821428Y4167857D01*
X-156964285Y4096428D01*
X-157107142Y4096428D01*
X-157250000Y4167857D01*
X-157321428Y4239285D01*
X-157392857Y4382142D01*
X-157464285Y4667857D01*
X-157464285Y5025000D01*
X-157392857Y5310714D01*
X-157321428Y5453571D01*
X-157250000Y5525000D01*
X-157107142Y5596428D01*
D11*
G04 #@! TO.P,A2,10*
G04 #@! TO.N,Net-(A2-Pad10)*
X-110000000Y460000D03*
G04 #@! TO.P,A2,12*
X-110000000Y-4620000D03*
G04 #@! TO.P,A2,14*
X-110000000Y-9700000D03*
G04 #@! TO.P,A2,13*
X-110000000Y-7160000D03*
G04 #@! TO.P,A2,11*
X-110000000Y-2080000D03*
D12*
G04 #@! TO.P,A2,9*
X-110000000Y3000000D03*
D13*
G04 #@! TO.P,A2,*
G04 #@! TO.N,*
X-112500000Y-19000000D03*
D11*
G04 #@! TO.P,A2,8*
G04 #@! TO.N,0dc*
X-145000000Y-17780000D03*
G04 #@! TO.P,A2,7*
X-145000000Y-15240000D03*
G04 #@! TO.P,A2,6*
X-145000000Y-12700000D03*
G04 #@! TO.P,A2,5*
G04 #@! TO.N,Net-(A2-Pad5)*
X-145000000Y-10160000D03*
G04 #@! TO.P,A2,4*
G04 #@! TO.N,Net-(A2-Pad4)*
X-145000000Y-7620000D03*
G04 #@! TO.P,A2,3*
G04 #@! TO.N,12dc*
X-145000000Y-5080000D03*
G04 #@! TO.P,A2,2*
X-145000000Y-2540000D03*
D12*
G04 #@! TO.P,A2,1*
X-145000000Y0D03*
G04 #@! TD*
D11*
G04 #@! TO.P,A3,10*
G04 #@! TO.N,Net-(A3-Pad10)*
X-110000000Y-31040000D03*
G04 #@! TO.P,A3,12*
X-110000000Y-36120000D03*
G04 #@! TO.P,A3,14*
X-110000000Y-41200000D03*
G04 #@! TO.P,A3,13*
X-110000000Y-38660000D03*
G04 #@! TO.P,A3,11*
X-110000000Y-33580000D03*
D12*
G04 #@! TO.P,A3,9*
X-110000000Y-28500000D03*
D13*
G04 #@! TO.P,A3,*
G04 #@! TO.N,*
X-112500000Y-50500000D03*
D11*
G04 #@! TO.P,A3,8*
G04 #@! TO.N,0dc*
X-145000000Y-49280000D03*
G04 #@! TO.P,A3,7*
X-145000000Y-46740000D03*
G04 #@! TO.P,A3,6*
X-145000000Y-44200000D03*
G04 #@! TO.P,A3,5*
G04 #@! TO.N,Net-(A3-Pad5)*
X-145000000Y-41660000D03*
G04 #@! TO.P,A3,4*
G04 #@! TO.N,Net-(A3-Pad4)*
X-145000000Y-39120000D03*
G04 #@! TO.P,A3,3*
G04 #@! TO.N,12dc*
X-145000000Y-36580000D03*
G04 #@! TO.P,A3,2*
X-145000000Y-34040000D03*
D12*
G04 #@! TO.P,A3,1*
X-145000000Y-31500000D03*
G04 #@! TD*
D11*
G04 #@! TO.P,A4,10*
G04 #@! TO.N,Net-(A4-Pad10)*
X-110000000Y-62540000D03*
G04 #@! TO.P,A4,12*
X-110000000Y-67620000D03*
G04 #@! TO.P,A4,14*
X-110000000Y-72700000D03*
G04 #@! TO.P,A4,13*
X-110000000Y-70160000D03*
G04 #@! TO.P,A4,11*
X-110000000Y-65080000D03*
D12*
G04 #@! TO.P,A4,9*
X-110000000Y-60000000D03*
D13*
G04 #@! TO.P,A4,*
G04 #@! TO.N,*
X-112500000Y-82000000D03*
D11*
G04 #@! TO.P,A4,8*
G04 #@! TO.N,0dc*
X-145000000Y-80780000D03*
G04 #@! TO.P,A4,7*
X-145000000Y-78240000D03*
G04 #@! TO.P,A4,6*
X-145000000Y-75700000D03*
G04 #@! TO.P,A4,5*
G04 #@! TO.N,Net-(A4-Pad5)*
X-145000000Y-73160000D03*
G04 #@! TO.P,A4,4*
G04 #@! TO.N,Net-(A4-Pad4)*
X-145000000Y-70620000D03*
G04 #@! TO.P,A4,3*
G04 #@! TO.N,12dc*
X-145000000Y-68080000D03*
G04 #@! TO.P,A4,2*
X-145000000Y-65540000D03*
D12*
G04 #@! TO.P,A4,1*
X-145000000Y-63000000D03*
G04 #@! TD*
G04 #@! TO.P,A1,1*
G04 #@! TO.N,K1*
X-170000000Y-35000000D03*
G04 #@! TO.P,A1,11*
G04 #@! TO.N,Net-(A1-Pad11)*
X-191000000Y-35000000D03*
D11*
G04 #@! TO.P,A1,2*
G04 #@! TO.N,K2*
X-170000000Y-32460000D03*
G04 #@! TO.P,A1,3*
G04 #@! TO.N,K3*
X-170000000Y-29920000D03*
G04 #@! TO.P,A1,4*
G04 #@! TO.N,K4*
X-170000000Y-27380000D03*
G04 #@! TO.P,A1,5*
G04 #@! TO.N,K5*
X-170000000Y-24840000D03*
G04 #@! TO.P,A1,6*
G04 #@! TO.N,K6*
X-170000000Y-22300000D03*
G04 #@! TO.P,A1,7*
G04 #@! TO.N,Net-(A1-Pad7)*
X-170000000Y-19760000D03*
G04 #@! TO.P,A1,8*
G04 #@! TO.N,Net-(A1-Pad8)*
X-170000000Y-17220000D03*
G04 #@! TO.P,A1,9*
G04 #@! TO.N,vcc*
X-170000000Y-14680000D03*
G04 #@! TO.P,A1,10*
G04 #@! TO.N,0dc*
X-170000000Y-12140000D03*
G04 #@! TO.P,A1,13*
X-191000000Y-29920000D03*
G04 #@! TO.P,A1,12*
G04 #@! TO.N,Net-(A1-Pad12)*
X-191000000Y-32460000D03*
G04 #@! TO.P,A1,16*
G04 #@! TO.N,en*
X-191000000Y-22300000D03*
G04 #@! TO.P,A1,18*
G04 #@! TO.N,0dc*
X-191000000Y-17220000D03*
G04 #@! TO.P,A1,17*
G04 #@! TO.N,vcc*
X-191000000Y-19760000D03*
G04 #@! TO.P,A1,15*
G04 #@! TO.N,Net-(A1-Pad15)*
X-191000000Y-24840000D03*
G04 #@! TO.P,A1,20*
G04 #@! TO.N,rx*
X-191000000Y-12140000D03*
G04 #@! TO.P,A1,14*
G04 #@! TO.N,Net-(A1-Pad14)*
X-191000000Y-27380000D03*
G04 #@! TO.P,A1,19*
G04 #@! TO.N,tx*
X-191000000Y-14680000D03*
G04 #@! TD*
D12*
G04 #@! TO.P,DA1,1*
G04 #@! TO.N,Net-(A1-Pad14)*
X-170000000Y-79500000D03*
D11*
G04 #@! TO.P,DA1,2*
G04 #@! TO.N,K5*
X-167500000Y-79500000D03*
G04 #@! TO.P,DA1,3*
G04 #@! TO.N,Net-(A4-Pad4)*
X-165000000Y-79500000D03*
G04 #@! TO.P,DA1,4*
G04 #@! TO.N,0dc*
X-162500000Y-79500000D03*
G04 #@! TO.P,DA1,5*
X-160000000Y-79500000D03*
G04 #@! TO.P,DA1,6*
G04 #@! TO.N,Net-(A4-Pad5)*
X-157500000Y-79500000D03*
G04 #@! TO.P,DA1,7*
G04 #@! TO.N,K6*
X-155000000Y-79500000D03*
G04 #@! TO.P,DA1,8*
G04 #@! TO.N,12dc*
X-152500000Y-79500000D03*
G04 #@! TO.P,DA1,16*
G04 #@! TO.N,vcc*
X-170000000Y-72000000D03*
G04 #@! TO.P,DA1,15*
G04 #@! TO.N,Net-(DA1-Pad15)*
X-167500000Y-72000000D03*
G04 #@! TO.P,DA1,14*
G04 #@! TO.N,Net-(DA1-Pad14)*
X-165000000Y-72000000D03*
G04 #@! TO.P,DA1,13*
G04 #@! TO.N,0dc*
X-162500000Y-72000000D03*
G04 #@! TO.P,DA1,12*
X-160000000Y-72000000D03*
G04 #@! TO.P,DA1,11*
G04 #@! TO.N,Net-(DA1-Pad11)*
X-157500000Y-72000000D03*
G04 #@! TO.P,DA1,10*
G04 #@! TO.N,Net-(DA1-Pad10)*
X-155000000Y-72000000D03*
G04 #@! TO.P,DA1,9*
G04 #@! TO.N,Net-(DA1-Pad9)*
X-152500000Y-72000000D03*
G04 #@! TD*
G04 #@! TO.P,DA2,9*
G04 #@! TO.N,Net-(A1-Pad7)*
X-152480344Y-53711173D03*
G04 #@! TO.P,DA2,10*
G04 #@! TO.N,K3*
X-154980344Y-53711173D03*
G04 #@! TO.P,DA2,11*
G04 #@! TO.N,Net-(A3-Pad4)*
X-157480344Y-53711173D03*
G04 #@! TO.P,DA2,12*
G04 #@! TO.N,0dc*
X-159980344Y-53711173D03*
G04 #@! TO.P,DA2,13*
X-162480344Y-53711173D03*
G04 #@! TO.P,DA2,14*
G04 #@! TO.N,Net-(A3-Pad5)*
X-164980344Y-53711173D03*
G04 #@! TO.P,DA2,15*
G04 #@! TO.N,K4*
X-167480344Y-53711173D03*
G04 #@! TO.P,DA2,16*
G04 #@! TO.N,vcc*
X-169980344Y-53711173D03*
G04 #@! TO.P,DA2,8*
G04 #@! TO.N,12dc*
X-152480344Y-61211173D03*
G04 #@! TO.P,DA2,7*
G04 #@! TO.N,K2*
X-154980344Y-61211173D03*
G04 #@! TO.P,DA2,6*
G04 #@! TO.N,Net-(A2-Pad5)*
X-157480344Y-61211173D03*
G04 #@! TO.P,DA2,5*
G04 #@! TO.N,0dc*
X-159980344Y-61211173D03*
G04 #@! TO.P,DA2,4*
X-162480344Y-61211173D03*
G04 #@! TO.P,DA2,3*
G04 #@! TO.N,Net-(A2-Pad4)*
X-164980344Y-61211173D03*
G04 #@! TO.P,DA2,2*
G04 #@! TO.N,K1*
X-167480344Y-61211173D03*
D12*
G04 #@! TO.P,DA2,1*
G04 #@! TO.N,Net-(A1-Pad8)*
X-169980344Y-61211173D03*
G04 #@! TD*
D14*
G04 #@! TO.P,DD1,1*
G04 #@! TO.N,Net-(DD1-Pad1)*
X-179000000Y-500000D03*
G04 #@! TO.P,DD1,2*
G04 #@! TO.N,en*
X-179000000Y500000D03*
D15*
G04 #@! TO.P,DD1,*
G04 #@! TO.N,*
X-178250000Y1500000D03*
D14*
G04 #@! TO.P,DD1,3*
G04 #@! TO.N,en*
X-179000000Y2500000D03*
G04 #@! TO.P,DD1,4*
G04 #@! TO.N,Net-(DD1-Pad4)*
X-179000000Y3500000D03*
G04 #@! TO.P,DD1,8*
G04 #@! TO.N,vcc*
X-187500000Y-500000D03*
G04 #@! TO.P,DD1,7*
G04 #@! TO.N,Net-(DD1-Pad7)*
X-187500000Y500000D03*
D15*
G04 #@! TO.P,DD1,*
G04 #@! TO.N,*
X-188250000Y1500000D03*
D14*
G04 #@! TO.P,DD1,6*
G04 #@! TO.N,Net-(DD1-Pad6)*
X-187500000Y2500000D03*
G04 #@! TO.P,DD1,5*
G04 #@! TO.N,0dc*
X-187500000Y3500000D03*
G04 #@! TD*
D16*
G04 #@! TO.P,FU1,2*
G04 #@! TO.N,12dc*
X-191000000Y-76000000D03*
G04 #@! TO.P,FU1,1*
G04 #@! TO.N,Net-(FU1-Pad1)*
X-191000000Y-81500000D03*
G04 #@! TD*
D17*
G04 #@! TO.P,G1,4*
G04 #@! TO.N,0dc*
X-180920000Y-68000000D03*
G04 #@! TO.P,G1,3*
G04 #@! TO.N,Vcc*
X-183460000Y-68000000D03*
G04 #@! TO.P,G1,2*
G04 #@! TO.N,Net-(C1-Pad2)*
X-186000000Y-68000000D03*
D18*
G04 #@! TO.P,G1,1*
G04 #@! TO.N,12dc*
X-188540000Y-68000000D03*
G04 #@! TD*
D12*
G04 #@! TO.P,X1,1*
G04 #@! TO.N,Net-(FU1-Pad1)*
X-195500000Y-48000000D03*
G04 #@! TD*
G04 #@! TO.P,X2,1*
G04 #@! TO.N,Net-(C1-Pad2)*
X-195500000Y-45000000D03*
G04 #@! TD*
G04 #@! TO.P,X3,1*
G04 #@! TO.N,Net-(A2-Pad10)*
X-103000000Y-9500000D03*
G04 #@! TD*
G04 #@! TO.P,X4,1*
G04 #@! TO.N,Net-(A3-Pad10)*
X-103000000Y-30500000D03*
G04 #@! TD*
G04 #@! TO.P,X5,1*
G04 #@! TO.N,Net-(A4-Pad10)*
X-103000000Y-73000000D03*
G04 #@! TD*
G04 #@! TO.P,X6,1*
G04 #@! TO.N,Net-(DD1-Pad6)*
X-196500000Y2000000D03*
G04 #@! TD*
G04 #@! TO.P,X7,1*
G04 #@! TO.N,Net-(DD1-Pad7)*
X-196500000Y-500000D03*
G04 #@! TD*
G04 #@! TO.P,X8,1*
G04 #@! TO.N,vcc*
X-196500000Y-3000000D03*
G04 #@! TD*
G04 #@! TO.P,X10,1*
G04 #@! TO.N,Net-(A1-Pad15)*
X-197000000Y-22000000D03*
G04 #@! TD*
G04 #@! TO.P,X9,1*
G04 #@! TO.N,gnd*
X-196500000Y-5500000D03*
G04 #@! TD*
D19*
G04 #@! TO.P,HL1,2*
G04 #@! TO.N,0dc*
X-171000000Y-69000000D03*
G04 #@! TO.P,HL1,1*
G04 #@! TO.N,Net-(HL1-Pad1)*
X-171000000Y-67500000D03*
G04 #@! TD*
G04 #@! TO.P,HL2,1*
G04 #@! TO.N,Net-(HL2-Pad1)*
X-160500000Y-67000000D03*
G04 #@! TO.P,HL2,2*
G04 #@! TO.N,0dc*
X-160500000Y-68500000D03*
G04 #@! TD*
G04 #@! TO.P,HL3,2*
G04 #@! TO.N,0dc*
X-179000000Y-84000000D03*
G04 #@! TO.P,HL3,1*
G04 #@! TO.N,Net-(HL3-Pad1)*
X-179000000Y-82500000D03*
G04 #@! TD*
G04 #@! TO.P,HL4,1*
G04 #@! TO.N,Net-(HL4-Pad1)*
X-173500000Y-82500000D03*
G04 #@! TO.P,HL4,2*
G04 #@! TO.N,0dc*
X-173500000Y-84000000D03*
G04 #@! TD*
G04 #@! TO.P,HL5,2*
G04 #@! TO.N,0dc*
X-159500000Y-50500000D03*
G04 #@! TO.P,HL5,1*
G04 #@! TO.N,Net-(HL5-Pad1)*
X-159500000Y-49000000D03*
G04 #@! TD*
G04 #@! TO.P,HL6,1*
G04 #@! TO.N,Net-(HL6-Pad1)*
X-163000000Y-49000000D03*
G04 #@! TO.P,HL6,2*
G04 #@! TO.N,0dc*
X-163000000Y-50500000D03*
G04 #@! TD*
D20*
G04 #@! TO.N,K1*
X-168000000Y-56500000D03*
G04 #@! TO.N,K3*
X-157000000Y-43000000D03*
G04 #@! TO.N,K5*
X-177000000Y-25000000D03*
G04 #@! TO.N,K6*
X-177000000Y-22500000D03*
X-176000000Y-65000000D03*
G04 #@! TO.N,0dc*
X-191500000Y4000000D03*
X-179000000Y-86000000D03*
X-173500000Y-86000000D03*
G04 #@! TO.N,Net-(A3-Pad4)*
X-157237340Y-46737340D03*
G04 #@! TO.N,Net-(A4-Pad5)*
X-158000000Y-88000000D03*
G04 #@! TO.N,Net-(DD1-Pad1)*
X-173725010Y-661148D03*
G04 #@! TO.N,Net-(DD1-Pad4)*
X-173000000Y3500000D03*
G04 #@! TO.N,Net-(HL1-Pad1)*
X-172500000Y-62000000D03*
G04 #@! TO.N,Net-(HL2-Pad1)*
X-163000000Y-67000000D03*
G04 #@! TO.N,Net-(HL3-Pad1)*
X-179000000Y-76500000D03*
G04 #@! TO.N,Net-(HL4-Pad1)*
X-176500000Y-76500000D03*
G04 #@! TO.N,Net-(HL5-Pad1)*
X-159500000Y-43000000D03*
G04 #@! TO.N,Net-(HL6-Pad1)*
X-163000000Y-43500000D03*
G04 #@! TD*
D21*
G04 #@! TO.N,K1*
X-167480344Y-57019656D02*
X-168000000Y-56500000D01*
X-167480344Y-61211173D02*
X-167480344Y-57019656D01*
G04 #@! TO.N,K2*
X-158000000Y-41500000D02*
X-167040000Y-32460000D01*
X-158000000Y-48500000D02*
X-158000000Y-41500000D01*
X-157500000Y-49000000D02*
X-158000000Y-48500000D01*
X-151500000Y-49000000D02*
X-157500000Y-49000000D01*
X-154980344Y-61211173D02*
X-154980344Y-59480344D01*
X-154980344Y-59480344D02*
X-153500000Y-58000000D01*
X-153500000Y-58000000D02*
X-149500000Y-58000000D01*
X-167040000Y-32460000D02*
X-170000000Y-32460000D01*
X-149500000Y-58000000D02*
X-148000000Y-56500000D01*
X-148000000Y-56500000D02*
X-148000000Y-52500000D01*
X-148000000Y-52500000D02*
X-151500000Y-49000000D01*
G04 #@! TO.N,K3*
X-164580000Y-29920000D02*
X-170000000Y-29920000D01*
X-157000000Y-37500000D02*
X-164580000Y-29920000D01*
X-157000000Y-43000000D02*
X-157000000Y-37500000D01*
G04 #@! TO.N,K4*
X-167480344Y-53711173D02*
X-167480344Y-41019656D01*
X-167480344Y-41019656D02*
X-173500000Y-35000000D01*
X-173500000Y-35000000D02*
X-173500000Y-28500000D01*
X-172380000Y-27380000D02*
X-170000000Y-27380000D01*
X-173500000Y-28500000D02*
X-172380000Y-27380000D01*
G04 #@! TO.N,K5*
X-170160000Y-25000000D02*
X-170000000Y-24840000D01*
X-177000000Y-25000000D02*
X-170160000Y-25000000D01*
G04 #@! TO.N,K6*
X-170000000Y-22300000D02*
X-176800000Y-22300000D01*
X-176800000Y-22300000D02*
X-177000000Y-22500000D01*
X-155000000Y-80750000D02*
X-157250000Y-83000000D01*
X-155000000Y-79500000D02*
X-155000000Y-80750000D01*
X-176000000Y-75461002D02*
X-176000000Y-65000000D01*
X-168461002Y-83000000D02*
X-176000000Y-75461002D01*
X-157250000Y-83000000D02*
X-168461002Y-83000000D01*
G04 #@! TO.N,vcc*
X-187500000Y-500000D02*
X-190500000Y-500000D01*
X-193000000Y-3000000D02*
X-196500000Y-3000000D01*
X-190500000Y-500000D02*
X-193000000Y-3000000D01*
X-169980344Y-53711173D02*
X-172211173Y-53711173D01*
X-172211173Y-53711173D02*
X-172288827Y-53711173D01*
X-172288827Y-53711173D02*
X-180000000Y-46000000D01*
X-180000000Y-46000000D02*
X-180000000Y-20000000D01*
X-174680000Y-14680000D02*
X-170000000Y-14680000D01*
X-180000000Y-20000000D02*
X-174680000Y-14680000D01*
X-173500000Y-55000000D02*
X-172211173Y-53711173D01*
X-173500000Y-69750000D02*
X-173500000Y-55000000D01*
X-171250000Y-72000000D02*
X-173500000Y-69750000D01*
X-170000000Y-72000000D02*
X-171250000Y-72000000D01*
G04 #@! TO.N,en*
X-177750000Y2500000D02*
X-174500000Y2500000D01*
X-174500000Y2500000D02*
X-173500000Y1500000D01*
X-174500000Y500000D02*
X-173500000Y1500000D01*
X-177750000Y500000D02*
X-174500000Y500000D01*
X-183300000Y-22300000D02*
X-191000000Y-22300000D01*
X-172500000Y-11500000D02*
X-183300000Y-22300000D01*
X-172500000Y1000000D02*
X-172500000Y-11500000D01*
X-173000000Y1500000D02*
X-172500000Y1000000D01*
X-173500000Y1500000D02*
X-173000000Y1500000D01*
G04 #@! TO.N,Net-(A1-Pad15)*
X-194160000Y-24840000D02*
X-197000000Y-22000000D01*
X-191000000Y-24840000D02*
X-194160000Y-24840000D01*
G04 #@! TO.N,0dc*
X-162480344Y-53711173D02*
X-162480344Y-61211173D01*
X-159980344Y-53711173D02*
X-159980344Y-61211173D01*
X-187500000Y3500000D02*
X-191000000Y3500000D01*
X-191000000Y3500000D02*
X-191500000Y4000000D01*
X-162500000Y-70500000D02*
X-162500000Y-72000000D01*
X-163500000Y-69500000D02*
X-162500000Y-70500000D01*
X-160500000Y-69500000D02*
X-160000000Y-70000000D01*
X-160500000Y-68500000D02*
X-160500000Y-69500000D01*
X-160000000Y-73000000D02*
X-160000000Y-70000000D01*
X-163000000Y-51941517D02*
X-163000000Y-51500000D01*
X-162480344Y-52461173D02*
X-163000000Y-51941517D01*
X-162480344Y-53711173D02*
X-162480344Y-52461173D01*
X-163000000Y-50500000D02*
X-163000000Y-51500000D01*
X-159519171Y-52000000D02*
X-159500000Y-52000000D01*
X-159980344Y-52461173D02*
X-159519171Y-52000000D01*
X-159980344Y-53711173D02*
X-159980344Y-52461173D01*
X-159500000Y-50500000D02*
X-159500000Y-52000000D01*
X-179000000Y-84000000D02*
X-179000000Y-86000000D01*
X-173500000Y-84000000D02*
X-173500000Y-86000000D01*
X-159980344Y-62461173D02*
X-157500000Y-64941517D01*
X-159980344Y-61211173D02*
X-159980344Y-62461173D01*
X-157500000Y-64941517D02*
X-157500000Y-66000000D01*
X-159000000Y-68500000D02*
X-160500000Y-68500000D01*
X-157500000Y-67000000D02*
X-159000000Y-68500000D01*
X-164000000Y-69000000D02*
X-163500000Y-69500000D01*
X-171000000Y-69000000D02*
X-164000000Y-69000000D01*
X-157500000Y-66000000D02*
X-157500000Y-67000000D01*
G04 #@! TO.N,Net-(A3-Pad4)*
X-149620000Y-39120000D02*
X-156837341Y-46337341D01*
X-145000000Y-39120000D02*
X-149620000Y-39120000D01*
X-156837341Y-46337341D02*
X-157237340Y-46737340D01*
G04 #@! TO.N,Net-(A4-Pad5)*
X-158000000Y-88000000D02*
X-149000000Y-88000000D01*
X-149000000Y-88000000D02*
X-142000000Y-81000000D01*
X-142000000Y-81000000D02*
X-142000000Y-74500000D01*
X-143340000Y-73160000D02*
X-145000000Y-73160000D01*
X-142000000Y-74500000D02*
X-143340000Y-73160000D01*
G04 #@! TO.N,Net-(DD1-Pad1)*
X-173886158Y-500000D02*
X-173725010Y-661148D01*
X-177750000Y-500000D02*
X-173886158Y-500000D01*
G04 #@! TO.N,Net-(DD1-Pad4)*
X-173000000Y3500000D02*
X-177750000Y3500000D01*
G04 #@! TO.N,Net-(DD1-Pad7)*
X-195500001Y499999D02*
X-196500000Y-500000D01*
X-187500000Y500000D02*
X-195500001Y499999D01*
G04 #@! TO.N,Net-(DD1-Pad6)*
X-196000000Y2500000D02*
X-196500000Y2000000D01*
X-187500000Y2500000D02*
X-196000000Y2500000D01*
G04 #@! TO.N,Net-(HL1-Pad1)*
X-172500000Y-62000000D02*
X-171000000Y-63500000D01*
X-171000000Y-63500000D02*
X-171000000Y-67500000D01*
G04 #@! TO.N,Net-(HL2-Pad1)*
X-160500000Y-67000000D02*
X-163000000Y-67000000D01*
G04 #@! TO.N,Net-(HL3-Pad1)*
X-179000000Y-79000000D02*
X-179000000Y-76500000D01*
X-179000000Y-82500000D02*
X-179000000Y-81750000D01*
X-179000000Y-81750000D02*
X-179000000Y-76500000D01*
G04 #@! TO.N,Net-(HL4-Pad1)*
X-173500000Y-79500000D02*
X-176500000Y-76500000D01*
X-173500000Y-82500000D02*
X-173500000Y-79500000D01*
G04 #@! TO.N,Net-(HL5-Pad1)*
X-159500000Y-43000000D02*
X-159500000Y-45500000D01*
X-159500000Y-48250000D02*
X-159500000Y-43000000D01*
X-159500000Y-49000000D02*
X-159500000Y-48250000D01*
G04 #@! TO.N,Net-(HL6-Pad1)*
X-163000000Y-43500000D02*
X-163000000Y-45500000D01*
X-163000000Y-49000000D02*
X-163000000Y-43500000D01*
G04 #@! TD*
D22*
G04 #@! TO.N,12dc*
G36*
X-115127000Y-15779228D02*
X-116005483Y-16657711D01*
X-116635000Y-18177497D01*
X-116635000Y-19822503D01*
X-116005483Y-21342289D01*
X-115127000Y-22220772D01*
X-115127000Y-47279228D01*
X-116005483Y-48157711D01*
X-116635000Y-49677497D01*
X-116635000Y-51322503D01*
X-116005483Y-52842289D01*
X-115127000Y-53720772D01*
X-115127000Y-78779228D01*
X-116005483Y-79657711D01*
X-116635000Y-81177497D01*
X-116635000Y-82822503D01*
X-116005483Y-84342289D01*
X-115127000Y-85220772D01*
X-115127000Y-88873000D01*
X-157409289Y-88873000D01*
X-157296289Y-88760000D01*
X-149074847Y-88760000D01*
X-149000000Y-88774888D01*
X-148925153Y-88760000D01*
X-148925148Y-88760000D01*
X-148703463Y-88715904D01*
X-148452071Y-88547929D01*
X-148409669Y-88484470D01*
X-141515527Y-81590329D01*
X-141452071Y-81547929D01*
X-141284096Y-81296537D01*
X-141240000Y-81074852D01*
X-141240000Y-81074847D01*
X-141225112Y-81000000D01*
X-141240000Y-80925153D01*
X-141240000Y-74574846D01*
X-141225112Y-74499999D01*
X-141240000Y-74425152D01*
X-141240000Y-74425148D01*
X-141284096Y-74203463D01*
X-141452071Y-73952071D01*
X-141515527Y-73909671D01*
X-142749669Y-72675530D01*
X-142792071Y-72612071D01*
X-143043463Y-72444096D01*
X-143265148Y-72400000D01*
X-143265153Y-72400000D01*
X-143340000Y-72385112D01*
X-143352560Y-72387610D01*
X-143352560Y-72160000D01*
X-143401843Y-71912235D01*
X-143416700Y-71890000D01*
X-143401843Y-71867765D01*
X-143352560Y-71620000D01*
X-143352560Y-69620000D01*
X-143401843Y-69372235D01*
X-143421526Y-69342777D01*
X-143365000Y-69206310D01*
X-143365000Y-68365750D01*
X-143523750Y-68207000D01*
X-144873000Y-68207000D01*
X-144873000Y-68227000D01*
X-145127000Y-68227000D01*
X-145127000Y-68207000D01*
X-146476250Y-68207000D01*
X-146635000Y-68365750D01*
X-146635000Y-69206310D01*
X-146578474Y-69342777D01*
X-146598157Y-69372235D01*
X-146647440Y-69620000D01*
X-146647440Y-71620000D01*
X-146598157Y-71867765D01*
X-146583300Y-71890000D01*
X-146598157Y-71912235D01*
X-146647440Y-72160000D01*
X-146647440Y-74160000D01*
X-146598157Y-74407765D01*
X-146583300Y-74430000D01*
X-146598157Y-74452235D01*
X-146647440Y-74700000D01*
X-146647440Y-76700000D01*
X-146598157Y-76947765D01*
X-146583300Y-76970000D01*
X-146598157Y-76992235D01*
X-146647440Y-77240000D01*
X-146647440Y-79240000D01*
X-146598157Y-79487765D01*
X-146583300Y-79510000D01*
X-146598157Y-79532235D01*
X-146647440Y-79780000D01*
X-146647440Y-81780000D01*
X-146598157Y-82027765D01*
X-146457809Y-82237809D01*
X-146247765Y-82378157D01*
X-146000000Y-82427440D01*
X-144502242Y-82427440D01*
X-149314801Y-87240000D01*
X-157296289Y-87240000D01*
X-157413720Y-87122569D01*
X-157794126Y-86965000D01*
X-158205874Y-86965000D01*
X-158586280Y-87122569D01*
X-158877431Y-87413720D01*
X-159035000Y-87794126D01*
X-159035000Y-88205874D01*
X-158877431Y-88586280D01*
X-158590711Y-88873000D01*
X-198873000Y-88873000D01*
X-198873000Y-80650000D01*
X-192497440Y-80650000D01*
X-192497440Y-82350000D01*
X-192448157Y-82597765D01*
X-192307809Y-82807809D01*
X-192097765Y-82948157D01*
X-191850000Y-82997440D01*
X-190150000Y-82997440D01*
X-189902235Y-82948157D01*
X-189692191Y-82807809D01*
X-189551843Y-82597765D01*
X-189502560Y-82350000D01*
X-189502560Y-82000000D01*
X-180147440Y-82000000D01*
X-180147440Y-83000000D01*
X-180098157Y-83247765D01*
X-180096664Y-83250000D01*
X-180098157Y-83252235D01*
X-180147440Y-83500000D01*
X-180147440Y-84500000D01*
X-180098157Y-84747765D01*
X-179957809Y-84957809D01*
X-179759999Y-85089982D01*
X-179759999Y-85296288D01*
X-179877431Y-85413720D01*
X-180035000Y-85794126D01*
X-180035000Y-86205874D01*
X-179877431Y-86586280D01*
X-179586280Y-86877431D01*
X-179205874Y-87035000D01*
X-178794126Y-87035000D01*
X-178413720Y-86877431D01*
X-178122569Y-86586280D01*
X-177965000Y-86205874D01*
X-177965000Y-85794126D01*
X-178122569Y-85413720D01*
X-178240000Y-85296289D01*
X-178240000Y-85089982D01*
X-178042191Y-84957809D01*
X-177901843Y-84747765D01*
X-177852560Y-84500000D01*
X-177852560Y-83500000D01*
X-177901843Y-83252235D01*
X-177903336Y-83250000D01*
X-177901843Y-83247765D01*
X-177852560Y-83000000D01*
X-177852560Y-82000000D01*
X-177901843Y-81752235D01*
X-178042191Y-81542191D01*
X-178240000Y-81410018D01*
X-178240000Y-77203711D01*
X-178122569Y-77086280D01*
X-177965000Y-76705874D01*
X-177965000Y-76294126D01*
X-177535000Y-76294126D01*
X-177535000Y-76705874D01*
X-177377431Y-77086280D01*
X-177086280Y-77377431D01*
X-176705874Y-77535000D01*
X-176539801Y-77535000D01*
X-174259999Y-79814803D01*
X-174260000Y-81410018D01*
X-174457809Y-81542191D01*
X-174598157Y-81752235D01*
X-174647440Y-82000000D01*
X-174647440Y-83000000D01*
X-174598157Y-83247765D01*
X-174596664Y-83250000D01*
X-174598157Y-83252235D01*
X-174647440Y-83500000D01*
X-174647440Y-84500000D01*
X-174598157Y-84747765D01*
X-174457809Y-84957809D01*
X-174259999Y-85089982D01*
X-174259999Y-85296288D01*
X-174377431Y-85413720D01*
X-174535000Y-85794126D01*
X-174535000Y-86205874D01*
X-174377431Y-86586280D01*
X-174086280Y-86877431D01*
X-173705874Y-87035000D01*
X-173294126Y-87035000D01*
X-172913720Y-86877431D01*
X-172622569Y-86586280D01*
X-172465000Y-86205874D01*
X-172465000Y-85794126D01*
X-172622569Y-85413720D01*
X-172740000Y-85296289D01*
X-172740000Y-85089982D01*
X-172542191Y-84957809D01*
X-172401843Y-84747765D01*
X-172352560Y-84500000D01*
X-172352560Y-83500000D01*
X-172401843Y-83252235D01*
X-172403336Y-83250000D01*
X-172401843Y-83247765D01*
X-172352560Y-83000000D01*
X-172352560Y-82000000D01*
X-172401843Y-81752235D01*
X-172542191Y-81542191D01*
X-172740000Y-81410018D01*
X-172740000Y-79795804D01*
X-169051331Y-83484473D01*
X-169008931Y-83547929D01*
X-168757539Y-83715904D01*
X-168535854Y-83760000D01*
X-168535850Y-83760000D01*
X-168461003Y-83774888D01*
X-168386156Y-83760000D01*
X-157324847Y-83760000D01*
X-157250000Y-83774888D01*
X-157175153Y-83760000D01*
X-157175148Y-83760000D01*
X-156953463Y-83715904D01*
X-156702071Y-83547929D01*
X-156659669Y-83484470D01*
X-154515527Y-81340329D01*
X-154452071Y-81297929D01*
X-154351517Y-81147440D01*
X-154000000Y-81147440D01*
X-153752235Y-81098157D01*
X-153738084Y-81088702D01*
X-153626310Y-81135000D01*
X-152785750Y-81135000D01*
X-152627000Y-80976250D01*
X-152627000Y-79627000D01*
X-152373000Y-79627000D01*
X-152373000Y-80976250D01*
X-152214250Y-81135000D01*
X-151373690Y-81135000D01*
X-151140301Y-81038327D01*
X-150961673Y-80859698D01*
X-150865000Y-80626309D01*
X-150865000Y-79785750D01*
X-151023750Y-79627000D01*
X-152373000Y-79627000D01*
X-152627000Y-79627000D01*
X-152647000Y-79627000D01*
X-152647000Y-79373000D01*
X-152627000Y-79373000D01*
X-152627000Y-78023750D01*
X-152373000Y-78023750D01*
X-152373000Y-79373000D01*
X-151023750Y-79373000D01*
X-150865000Y-79214250D01*
X-150865000Y-78373691D01*
X-150961673Y-78140302D01*
X-151140301Y-77961673D01*
X-151373690Y-77865000D01*
X-152214250Y-77865000D01*
X-152373000Y-78023750D01*
X-152627000Y-78023750D01*
X-152785750Y-77865000D01*
X-153626310Y-77865000D01*
X-153738084Y-77911298D01*
X-153752235Y-77901843D01*
X-154000000Y-77852560D01*
X-156000000Y-77852560D01*
X-156247765Y-77901843D01*
X-156250000Y-77903336D01*
X-156252235Y-77901843D01*
X-156500000Y-77852560D01*
X-158500000Y-77852560D01*
X-158747765Y-77901843D01*
X-158750000Y-77903336D01*
X-158752235Y-77901843D01*
X-159000000Y-77852560D01*
X-161000000Y-77852560D01*
X-161247765Y-77901843D01*
X-161250000Y-77903336D01*
X-161252235Y-77901843D01*
X-161500000Y-77852560D01*
X-163500000Y-77852560D01*
X-163747765Y-77901843D01*
X-163750000Y-77903336D01*
X-163752235Y-77901843D01*
X-164000000Y-77852560D01*
X-166000000Y-77852560D01*
X-166247765Y-77901843D01*
X-166250000Y-77903336D01*
X-166252235Y-77901843D01*
X-166500000Y-77852560D01*
X-168500000Y-77852560D01*
X-168747765Y-77901843D01*
X-168957809Y-78042191D01*
X-169033016Y-78154745D01*
X-169073847Y-78113914D01*
X-169674778Y-77865000D01*
X-170325222Y-77865000D01*
X-170926153Y-78113914D01*
X-171386086Y-78573847D01*
X-171510937Y-78875264D01*
X-175240000Y-75146201D01*
X-175240000Y-65703711D01*
X-175122569Y-65586280D01*
X-174965000Y-65205874D01*
X-174965000Y-64794126D01*
X-175122569Y-64413720D01*
X-175413720Y-64122569D01*
X-175794126Y-63965000D01*
X-176205874Y-63965000D01*
X-176586280Y-64122569D01*
X-176877431Y-64413720D01*
X-177035000Y-64794126D01*
X-177035000Y-65205874D01*
X-176877431Y-65586280D01*
X-176759999Y-65703712D01*
X-176760000Y-75386155D01*
X-176774888Y-75461002D01*
X-176768900Y-75491106D01*
X-177086280Y-75622569D01*
X-177377431Y-75913720D01*
X-177535000Y-76294126D01*
X-177965000Y-76294126D01*
X-178122569Y-75913720D01*
X-178413720Y-75622569D01*
X-178794126Y-75465000D01*
X-179205874Y-75465000D01*
X-179586280Y-75622569D01*
X-179877431Y-75913720D01*
X-180035000Y-76294126D01*
X-180035000Y-76705874D01*
X-179877431Y-77086280D01*
X-179759999Y-77203712D01*
X-179760000Y-79074851D01*
X-179759999Y-79074854D01*
X-179760000Y-81410018D01*
X-179957809Y-81542191D01*
X-180098157Y-81752235D01*
X-180147440Y-82000000D01*
X-189502560Y-82000000D01*
X-189502560Y-80650000D01*
X-189551843Y-80402235D01*
X-189692191Y-80192191D01*
X-189902235Y-80051843D01*
X-190150000Y-80002560D01*
X-191850000Y-80002560D01*
X-192097765Y-80051843D01*
X-192307809Y-80192191D01*
X-192448157Y-80402235D01*
X-192497440Y-80650000D01*
X-198873000Y-80650000D01*
X-198873000Y-76285750D01*
X-192485000Y-76285750D01*
X-192485000Y-76976310D01*
X-192388327Y-77209699D01*
X-192209698Y-77388327D01*
X-191976309Y-77485000D01*
X-191285750Y-77485000D01*
X-191127000Y-77326250D01*
X-191127000Y-76127000D01*
X-190873000Y-76127000D01*
X-190873000Y-77326250D01*
X-190714250Y-77485000D01*
X-190023691Y-77485000D01*
X-189790302Y-77388327D01*
X-189611673Y-77209699D01*
X-189515000Y-76976310D01*
X-189515000Y-76285750D01*
X-189673750Y-76127000D01*
X-190873000Y-76127000D01*
X-191127000Y-76127000D01*
X-192326250Y-76127000D01*
X-192485000Y-76285750D01*
X-198873000Y-76285750D01*
X-198873000Y-75023690D01*
X-192485000Y-75023690D01*
X-192485000Y-75714250D01*
X-192326250Y-75873000D01*
X-191127000Y-75873000D01*
X-191127000Y-74673750D01*
X-190873000Y-74673750D01*
X-190873000Y-75873000D01*
X-189673750Y-75873000D01*
X-189515000Y-75714250D01*
X-189515000Y-75023690D01*
X-189611673Y-74790301D01*
X-189790302Y-74611673D01*
X-190023691Y-74515000D01*
X-190714250Y-74515000D01*
X-190873000Y-74673750D01*
X-191127000Y-74673750D01*
X-191285750Y-74515000D01*
X-191976309Y-74515000D01*
X-192209698Y-74611673D01*
X-192388327Y-74790301D01*
X-192485000Y-75023690D01*
X-198873000Y-75023690D01*
X-198873000Y-68127000D01*
X-190175000Y-68127000D01*
X-190175000Y-69127000D01*
X-190001942Y-69743020D01*
X-189606317Y-70245922D01*
X-189048355Y-70559144D01*
X-188920434Y-70590124D01*
X-188667000Y-70470777D01*
X-188667000Y-68127000D01*
X-190175000Y-68127000D01*
X-198873000Y-68127000D01*
X-198873000Y-66873000D01*
X-190175000Y-66873000D01*
X-190175000Y-67873000D01*
X-188667000Y-67873000D01*
X-188667000Y-65529223D01*
X-188413000Y-65529223D01*
X-188413000Y-67873000D01*
X-188393000Y-67873000D01*
X-188393000Y-68127000D01*
X-188413000Y-68127000D01*
X-188413000Y-70470777D01*
X-188159566Y-70590124D01*
X-188031645Y-70559144D01*
X-187565099Y-70297240D01*
X-187457809Y-70457809D01*
X-187247765Y-70598157D01*
X-187000000Y-70647440D01*
X-185000000Y-70647440D01*
X-184752235Y-70598157D01*
X-184730000Y-70583300D01*
X-184707765Y-70598157D01*
X-184460000Y-70647440D01*
X-182460000Y-70647440D01*
X-182212235Y-70598157D01*
X-182190000Y-70583300D01*
X-182167765Y-70598157D01*
X-181920000Y-70647440D01*
X-179920000Y-70647440D01*
X-179672235Y-70598157D01*
X-179462191Y-70457809D01*
X-179321843Y-70247765D01*
X-179272560Y-70000000D01*
X-179272560Y-66000000D01*
X-179321843Y-65752235D01*
X-179462191Y-65542191D01*
X-179672235Y-65401843D01*
X-179920000Y-65352560D01*
X-181920000Y-65352560D01*
X-182167765Y-65401843D01*
X-182190000Y-65416700D01*
X-182212235Y-65401843D01*
X-182460000Y-65352560D01*
X-184460000Y-65352560D01*
X-184707765Y-65401843D01*
X-184730000Y-65416700D01*
X-184752235Y-65401843D01*
X-185000000Y-65352560D01*
X-187000000Y-65352560D01*
X-187247765Y-65401843D01*
X-187457809Y-65542191D01*
X-187565099Y-65702760D01*
X-188031645Y-65440856D01*
X-188159566Y-65409876D01*
X-188413000Y-65529223D01*
X-188667000Y-65529223D01*
X-188920434Y-65409876D01*
X-189048355Y-65440856D01*
X-189606317Y-65754078D01*
X-190001942Y-66256980D01*
X-190175000Y-66873000D01*
X-198873000Y-66873000D01*
X-198873000Y-44674778D01*
X-197135000Y-44674778D01*
X-197135000Y-45325222D01*
X-196886086Y-45926153D01*
X-196426153Y-46386086D01*
X-196151141Y-46500000D01*
X-196426153Y-46613914D01*
X-196886086Y-47073847D01*
X-197135000Y-47674778D01*
X-197135000Y-48325222D01*
X-196886086Y-48926153D01*
X-196426153Y-49386086D01*
X-195825222Y-49635000D01*
X-195174778Y-49635000D01*
X-194573847Y-49386086D01*
X-194113914Y-48926153D01*
X-193865000Y-48325222D01*
X-193865000Y-47674778D01*
X-194113914Y-47073847D01*
X-194573847Y-46613914D01*
X-194848859Y-46500000D01*
X-194573847Y-46386086D01*
X-194113914Y-45926153D01*
X-193865000Y-45325222D01*
X-193865000Y-44674778D01*
X-194113914Y-44073847D01*
X-194573847Y-43613914D01*
X-195174778Y-43365000D01*
X-195825222Y-43365000D01*
X-196426153Y-43613914D01*
X-196886086Y-44073847D01*
X-197135000Y-44674778D01*
X-198873000Y-44674778D01*
X-198873000Y-21674778D01*
X-198635000Y-21674778D01*
X-198635000Y-22325222D01*
X-198386086Y-22926153D01*
X-197926153Y-23386086D01*
X-197325222Y-23635000D01*
X-196674778Y-23635000D01*
X-196508624Y-23566177D01*
X-194750330Y-25324472D01*
X-194707929Y-25387929D01*
X-194456537Y-25555904D01*
X-194234852Y-25600000D01*
X-194234848Y-25600000D01*
X-194160000Y-25614888D01*
X-194085152Y-25600000D01*
X-192647440Y-25600000D01*
X-192647440Y-25840000D01*
X-192598157Y-26087765D01*
X-192583300Y-26110000D01*
X-192598157Y-26132235D01*
X-192647440Y-26380000D01*
X-192647440Y-28380000D01*
X-192598157Y-28627765D01*
X-192583300Y-28650000D01*
X-192598157Y-28672235D01*
X-192647440Y-28920000D01*
X-192647440Y-30920000D01*
X-192598157Y-31167765D01*
X-192583300Y-31190000D01*
X-192598157Y-31212235D01*
X-192647440Y-31460000D01*
X-192647440Y-33460000D01*
X-192598157Y-33707765D01*
X-192457809Y-33917809D01*
X-192321277Y-34009038D01*
X-192386086Y-34073847D01*
X-192635000Y-34674778D01*
X-192635000Y-35325222D01*
X-192386086Y-35926153D01*
X-191926153Y-36386086D01*
X-191325222Y-36635000D01*
X-190674778Y-36635000D01*
X-190073847Y-36386086D01*
X-189613914Y-35926153D01*
X-189365000Y-35325222D01*
X-189365000Y-34674778D01*
X-189613914Y-34073847D01*
X-189678723Y-34009038D01*
X-189542191Y-33917809D01*
X-189401843Y-33707765D01*
X-189352560Y-33460000D01*
X-189352560Y-31460000D01*
X-189401843Y-31212235D01*
X-189416700Y-31190000D01*
X-189401843Y-31167765D01*
X-189352560Y-30920000D01*
X-189352560Y-28920000D01*
X-189401843Y-28672235D01*
X-189416700Y-28650000D01*
X-189401843Y-28627765D01*
X-189352560Y-28380000D01*
X-189352560Y-26380000D01*
X-189401843Y-26132235D01*
X-189416700Y-26110000D01*
X-189401843Y-26087765D01*
X-189352560Y-25840000D01*
X-189352560Y-23840000D01*
X-189401843Y-23592235D01*
X-189416700Y-23570000D01*
X-189401843Y-23547765D01*
X-189352560Y-23300000D01*
X-189352560Y-23060000D01*
X-183374847Y-23060000D01*
X-183300000Y-23074888D01*
X-183225153Y-23060000D01*
X-183225148Y-23060000D01*
X-183003463Y-23015904D01*
X-182752071Y-22847929D01*
X-182709669Y-22784470D01*
X-180759999Y-20834800D01*
X-180760000Y-45925153D01*
X-180774888Y-46000000D01*
X-180760000Y-46074847D01*
X-180760000Y-46074851D01*
X-180715904Y-46296536D01*
X-180547929Y-46547929D01*
X-180484470Y-46590331D01*
X-173324802Y-53750001D01*
X-173984472Y-54409671D01*
X-174047928Y-54452071D01*
X-174090328Y-54515527D01*
X-174090329Y-54515528D01*
X-174215903Y-54703463D01*
X-174274888Y-55000000D01*
X-174259999Y-55074852D01*
X-174260000Y-69675153D01*
X-174274888Y-69750000D01*
X-174260000Y-69824847D01*
X-174260000Y-69824851D01*
X-174215904Y-70046536D01*
X-174047929Y-70297929D01*
X-173984470Y-70340331D01*
X-171840329Y-72484473D01*
X-171797929Y-72547929D01*
X-171647440Y-72648483D01*
X-171647440Y-73000000D01*
X-171598157Y-73247765D01*
X-171457809Y-73457809D01*
X-171247765Y-73598157D01*
X-171000000Y-73647440D01*
X-169000000Y-73647440D01*
X-168752235Y-73598157D01*
X-168750000Y-73596664D01*
X-168747765Y-73598157D01*
X-168500000Y-73647440D01*
X-166500000Y-73647440D01*
X-166252235Y-73598157D01*
X-166250000Y-73596664D01*
X-166247765Y-73598157D01*
X-166000000Y-73647440D01*
X-164000000Y-73647440D01*
X-163752235Y-73598157D01*
X-163750000Y-73596664D01*
X-163747765Y-73598157D01*
X-163500000Y-73647440D01*
X-161500000Y-73647440D01*
X-161252235Y-73598157D01*
X-161250000Y-73596664D01*
X-161247765Y-73598157D01*
X-161000000Y-73647440D01*
X-160399000Y-73647440D01*
X-160296537Y-73715904D01*
X-160000000Y-73774889D01*
X-159703464Y-73715904D01*
X-159601000Y-73647440D01*
X-159000000Y-73647440D01*
X-158752235Y-73598157D01*
X-158750000Y-73596664D01*
X-158747765Y-73598157D01*
X-158500000Y-73647440D01*
X-156500000Y-73647440D01*
X-156252235Y-73598157D01*
X-156250000Y-73596664D01*
X-156247765Y-73598157D01*
X-156000000Y-73647440D01*
X-154000000Y-73647440D01*
X-153752235Y-73598157D01*
X-153750000Y-73596664D01*
X-153747765Y-73598157D01*
X-153500000Y-73647440D01*
X-151500000Y-73647440D01*
X-151252235Y-73598157D01*
X-151042191Y-73457809D01*
X-150901843Y-73247765D01*
X-150852560Y-73000000D01*
X-150852560Y-71000000D01*
X-150901843Y-70752235D01*
X-151042191Y-70542191D01*
X-151252235Y-70401843D01*
X-151500000Y-70352560D01*
X-153500000Y-70352560D01*
X-153747765Y-70401843D01*
X-153750000Y-70403336D01*
X-153752235Y-70401843D01*
X-154000000Y-70352560D01*
X-156000000Y-70352560D01*
X-156247765Y-70401843D01*
X-156250000Y-70403336D01*
X-156252235Y-70401843D01*
X-156500000Y-70352560D01*
X-158500000Y-70352560D01*
X-158747765Y-70401843D01*
X-158750000Y-70403336D01*
X-158752235Y-70401843D01*
X-159000000Y-70352560D01*
X-159240000Y-70352560D01*
X-159240000Y-70074848D01*
X-159225112Y-70000000D01*
X-159240000Y-69925152D01*
X-159240000Y-69925148D01*
X-159284096Y-69703463D01*
X-159284096Y-69703462D01*
X-159409671Y-69515527D01*
X-159452071Y-69452071D01*
X-159511724Y-69412212D01*
X-159410018Y-69260000D01*
X-159074847Y-69260000D01*
X-159000000Y-69274888D01*
X-158925153Y-69260000D01*
X-158925148Y-69260000D01*
X-158703463Y-69215904D01*
X-158452071Y-69047929D01*
X-158409669Y-68984470D01*
X-157015524Y-67590327D01*
X-156952071Y-67547929D01*
X-156909673Y-67484476D01*
X-156909671Y-67484474D01*
X-156784097Y-67296538D01*
X-156784096Y-67296537D01*
X-156740000Y-67074852D01*
X-156740000Y-67074848D01*
X-156725112Y-67000001D01*
X-156740000Y-66925154D01*
X-156740000Y-65825750D01*
X-146635000Y-65825750D01*
X-146635000Y-66666310D01*
X-146575482Y-66810000D01*
X-146635000Y-66953690D01*
X-146635000Y-67794250D01*
X-146476250Y-67953000D01*
X-145127000Y-67953000D01*
X-145127000Y-65667000D01*
X-144873000Y-65667000D01*
X-144873000Y-67953000D01*
X-143523750Y-67953000D01*
X-143365000Y-67794250D01*
X-143365000Y-66953690D01*
X-143424518Y-66810000D01*
X-143365000Y-66666310D01*
X-143365000Y-65825750D01*
X-143523750Y-65667000D01*
X-144873000Y-65667000D01*
X-145127000Y-65667000D01*
X-146476250Y-65667000D01*
X-146635000Y-65825750D01*
X-156740000Y-65825750D01*
X-156740000Y-65016363D01*
X-156725112Y-64941516D01*
X-156740000Y-64866669D01*
X-156740000Y-64866665D01*
X-156784096Y-64644980D01*
X-156952071Y-64393588D01*
X-157015527Y-64351188D01*
X-158514995Y-62851721D01*
X-158480344Y-62858613D01*
X-156480344Y-62858613D01*
X-156232579Y-62809330D01*
X-156230344Y-62807837D01*
X-156228109Y-62809330D01*
X-155980344Y-62858613D01*
X-153980344Y-62858613D01*
X-153732579Y-62809330D01*
X-153718428Y-62799875D01*
X-153606654Y-62846173D01*
X-152766094Y-62846173D01*
X-152607344Y-62687423D01*
X-152607344Y-61338173D01*
X-152353344Y-61338173D01*
X-152353344Y-62687423D01*
X-152194594Y-62846173D01*
X-151354034Y-62846173D01*
X-151120645Y-62749500D01*
X-151106607Y-62735461D01*
X-146645908Y-62735461D01*
X-146621856Y-63385460D01*
X-146419387Y-63874264D01*
X-146225325Y-63946014D01*
X-146359698Y-64001673D01*
X-146538327Y-64180301D01*
X-146635000Y-64413690D01*
X-146635000Y-65254250D01*
X-146476250Y-65413000D01*
X-145127000Y-65413000D01*
X-145127000Y-65393000D01*
X-144873000Y-65393000D01*
X-144873000Y-65413000D01*
X-143523750Y-65413000D01*
X-143365000Y-65254250D01*
X-143365000Y-64413690D01*
X-143461673Y-64180301D01*
X-143640302Y-64001673D01*
X-143774675Y-63946014D01*
X-143580613Y-63874264D01*
X-143354092Y-63264539D01*
X-143378144Y-62614540D01*
X-143580613Y-62125736D01*
X-143847468Y-62027073D01*
X-144820395Y-63000000D01*
X-144806253Y-63014143D01*
X-144985858Y-63193748D01*
X-145000000Y-63179605D01*
X-145014143Y-63193748D01*
X-145193748Y-63014143D01*
X-145179605Y-63000000D01*
X-146152532Y-62027073D01*
X-146419387Y-62125736D01*
X-146645908Y-62735461D01*
X-151106607Y-62735461D01*
X-150942017Y-62570871D01*
X-150845344Y-62337482D01*
X-150845344Y-61847468D01*
X-145972927Y-61847468D01*
X-145000000Y-62820395D01*
X-144027073Y-61847468D01*
X-144125736Y-61580613D01*
X-144735461Y-61354092D01*
X-145385460Y-61378144D01*
X-145874264Y-61580613D01*
X-145972927Y-61847468D01*
X-150845344Y-61847468D01*
X-150845344Y-61496923D01*
X-151004094Y-61338173D01*
X-152353344Y-61338173D01*
X-152607344Y-61338173D01*
X-152627344Y-61338173D01*
X-152627344Y-61084173D01*
X-152607344Y-61084173D01*
X-152607344Y-59734923D01*
X-152353344Y-59734923D01*
X-152353344Y-61084173D01*
X-151004094Y-61084173D01*
X-150845344Y-60925423D01*
X-150845344Y-60084864D01*
X-150942017Y-59851475D01*
X-151120645Y-59672846D01*
X-151354034Y-59576173D01*
X-152194594Y-59576173D01*
X-152353344Y-59734923D01*
X-152607344Y-59734923D01*
X-152766094Y-59576173D01*
X-153606654Y-59576173D01*
X-153718428Y-59622471D01*
X-153732579Y-59613016D01*
X-153980344Y-59563733D01*
X-153988932Y-59563733D01*
X-153185198Y-58760000D01*
X-149574847Y-58760000D01*
X-149500000Y-58774888D01*
X-149425153Y-58760000D01*
X-149425148Y-58760000D01*
X-149203463Y-58715904D01*
X-148952071Y-58547929D01*
X-148909669Y-58484470D01*
X-147515524Y-57090327D01*
X-147452071Y-57047929D01*
X-147409673Y-56984476D01*
X-147409671Y-56984474D01*
X-147284097Y-56796538D01*
X-147284096Y-56796537D01*
X-147240000Y-56574852D01*
X-147240000Y-56574848D01*
X-147225112Y-56500001D01*
X-147240000Y-56425154D01*
X-147240000Y-52574846D01*
X-147225112Y-52499999D01*
X-147240000Y-52425152D01*
X-147240000Y-52425148D01*
X-147284096Y-52203463D01*
X-147370031Y-52074852D01*
X-147409671Y-52015526D01*
X-147409673Y-52015524D01*
X-147452071Y-51952071D01*
X-147515524Y-51909673D01*
X-150909669Y-48515530D01*
X-150952071Y-48452071D01*
X-151203463Y-48284096D01*
X-151425148Y-48240000D01*
X-151425153Y-48240000D01*
X-151500000Y-48225112D01*
X-151574847Y-48240000D01*
X-157185198Y-48240000D01*
X-157240000Y-48185199D01*
X-157240000Y-47772340D01*
X-157031466Y-47772340D01*
X-156651060Y-47614771D01*
X-156359909Y-47323620D01*
X-156202340Y-46943214D01*
X-156202340Y-46777141D01*
X-149305198Y-39880000D01*
X-146647440Y-39880000D01*
X-146647440Y-40120000D01*
X-146598157Y-40367765D01*
X-146583300Y-40390000D01*
X-146598157Y-40412235D01*
X-146647440Y-40660000D01*
X-146647440Y-42660000D01*
X-146598157Y-42907765D01*
X-146583300Y-42930000D01*
X-146598157Y-42952235D01*
X-146647440Y-43200000D01*
X-146647440Y-45200000D01*
X-146598157Y-45447765D01*
X-146583300Y-45470000D01*
X-146598157Y-45492235D01*
X-146647440Y-45740000D01*
X-146647440Y-47740000D01*
X-146598157Y-47987765D01*
X-146583300Y-48010000D01*
X-146598157Y-48032235D01*
X-146647440Y-48280000D01*
X-146647440Y-50280000D01*
X-146598157Y-50527765D01*
X-146457809Y-50737809D01*
X-146247765Y-50878157D01*
X-146000000Y-50927440D01*
X-144000000Y-50927440D01*
X-143752235Y-50878157D01*
X-143542191Y-50737809D01*
X-143401843Y-50527765D01*
X-143352560Y-50280000D01*
X-143352560Y-48280000D01*
X-143401843Y-48032235D01*
X-143416700Y-48010000D01*
X-143401843Y-47987765D01*
X-143352560Y-47740000D01*
X-143352560Y-45740000D01*
X-143401843Y-45492235D01*
X-143416700Y-45470000D01*
X-143401843Y-45447765D01*
X-143352560Y-45200000D01*
X-143352560Y-43200000D01*
X-143401843Y-42952235D01*
X-143416700Y-42930000D01*
X-143401843Y-42907765D01*
X-143352560Y-42660000D01*
X-143352560Y-40660000D01*
X-143401843Y-40412235D01*
X-143416700Y-40390000D01*
X-143401843Y-40367765D01*
X-143352560Y-40120000D01*
X-143352560Y-38120000D01*
X-143401843Y-37872235D01*
X-143421526Y-37842777D01*
X-143365000Y-37706310D01*
X-143365000Y-36865750D01*
X-143523750Y-36707000D01*
X-144873000Y-36707000D01*
X-144873000Y-36727000D01*
X-145127000Y-36727000D01*
X-145127000Y-36707000D01*
X-146476250Y-36707000D01*
X-146635000Y-36865750D01*
X-146635000Y-37706310D01*
X-146578474Y-37842777D01*
X-146598157Y-37872235D01*
X-146647440Y-38120000D01*
X-146647440Y-38360000D01*
X-149545152Y-38360000D01*
X-149620000Y-38345112D01*
X-149694848Y-38360000D01*
X-149694852Y-38360000D01*
X-149916537Y-38404096D01*
X-150167929Y-38572071D01*
X-150210329Y-38635527D01*
X-157240000Y-45665199D01*
X-157240000Y-44020865D01*
X-157205874Y-44035000D01*
X-156794126Y-44035000D01*
X-156413720Y-43877431D01*
X-156122569Y-43586280D01*
X-155965000Y-43205874D01*
X-155965000Y-42794126D01*
X-156122569Y-42413720D01*
X-156240000Y-42296289D01*
X-156240000Y-37574848D01*
X-156225112Y-37500000D01*
X-156240000Y-37425152D01*
X-156240000Y-37425148D01*
X-156284096Y-37203463D01*
X-156284096Y-37203462D01*
X-156409671Y-37015527D01*
X-156452071Y-36952071D01*
X-156515527Y-36909671D01*
X-159099448Y-34325750D01*
X-146635000Y-34325750D01*
X-146635000Y-35166310D01*
X-146575482Y-35310000D01*
X-146635000Y-35453690D01*
X-146635000Y-36294250D01*
X-146476250Y-36453000D01*
X-145127000Y-36453000D01*
X-145127000Y-34167000D01*
X-144873000Y-34167000D01*
X-144873000Y-36453000D01*
X-143523750Y-36453000D01*
X-143365000Y-36294250D01*
X-143365000Y-35453690D01*
X-143424518Y-35310000D01*
X-143365000Y-35166310D01*
X-143365000Y-34325750D01*
X-143523750Y-34167000D01*
X-144873000Y-34167000D01*
X-145127000Y-34167000D01*
X-146476250Y-34167000D01*
X-146635000Y-34325750D01*
X-159099448Y-34325750D01*
X-162189737Y-31235461D01*
X-146645908Y-31235461D01*
X-146621856Y-31885460D01*
X-146419387Y-32374264D01*
X-146225325Y-32446014D01*
X-146359698Y-32501673D01*
X-146538327Y-32680301D01*
X-146635000Y-32913690D01*
X-146635000Y-33754250D01*
X-146476250Y-33913000D01*
X-145127000Y-33913000D01*
X-145127000Y-33893000D01*
X-144873000Y-33893000D01*
X-144873000Y-33913000D01*
X-143523750Y-33913000D01*
X-143365000Y-33754250D01*
X-143365000Y-32913690D01*
X-143461673Y-32680301D01*
X-143640302Y-32501673D01*
X-143774675Y-32446014D01*
X-143580613Y-32374264D01*
X-143354092Y-31764539D01*
X-143378144Y-31114540D01*
X-143580613Y-30625736D01*
X-143847468Y-30527073D01*
X-144820395Y-31500000D01*
X-144806253Y-31514143D01*
X-144985858Y-31693748D01*
X-145000000Y-31679605D01*
X-145014143Y-31693748D01*
X-145193748Y-31514143D01*
X-145179605Y-31500000D01*
X-146152532Y-30527073D01*
X-146419387Y-30625736D01*
X-146645908Y-31235461D01*
X-162189737Y-31235461D01*
X-163077730Y-30347468D01*
X-145972927Y-30347468D01*
X-145000000Y-31320395D01*
X-144027073Y-30347468D01*
X-144125736Y-30080613D01*
X-144735461Y-29854092D01*
X-145385460Y-29878144D01*
X-145874264Y-30080613D01*
X-145972927Y-30347468D01*
X-163077730Y-30347468D01*
X-163989669Y-29435530D01*
X-164032071Y-29372071D01*
X-164283463Y-29204096D01*
X-164505148Y-29160000D01*
X-164505153Y-29160000D01*
X-164580000Y-29145112D01*
X-164654847Y-29160000D01*
X-168352560Y-29160000D01*
X-168352560Y-28920000D01*
X-168401843Y-28672235D01*
X-168416700Y-28650000D01*
X-168401843Y-28627765D01*
X-168352560Y-28380000D01*
X-168352560Y-26380000D01*
X-168401843Y-26132235D01*
X-168416700Y-26110000D01*
X-168401843Y-26087765D01*
X-168352560Y-25840000D01*
X-168352560Y-23840000D01*
X-168401843Y-23592235D01*
X-168416700Y-23570000D01*
X-168401843Y-23547765D01*
X-168352560Y-23300000D01*
X-168352560Y-21300000D01*
X-168401843Y-21052235D01*
X-168416700Y-21030000D01*
X-168401843Y-21007765D01*
X-168352560Y-20760000D01*
X-168352560Y-18760000D01*
X-168401843Y-18512235D01*
X-168416700Y-18490000D01*
X-168401843Y-18467765D01*
X-168352560Y-18220000D01*
X-168352560Y-16220000D01*
X-168401843Y-15972235D01*
X-168416700Y-15950000D01*
X-168401843Y-15927765D01*
X-168352560Y-15680000D01*
X-168352560Y-13680000D01*
X-168401843Y-13432235D01*
X-168416700Y-13410000D01*
X-168401843Y-13387765D01*
X-168352560Y-13140000D01*
X-168352560Y-11140000D01*
X-168401843Y-10892235D01*
X-168542191Y-10682191D01*
X-168752235Y-10541843D01*
X-169000000Y-10492560D01*
X-171000000Y-10492560D01*
X-171247765Y-10541843D01*
X-171457809Y-10682191D01*
X-171598157Y-10892235D01*
X-171647440Y-11140000D01*
X-171647440Y-13140000D01*
X-171598157Y-13387765D01*
X-171583300Y-13410000D01*
X-171598157Y-13432235D01*
X-171647440Y-13680000D01*
X-171647440Y-13920000D01*
X-173845197Y-13920000D01*
X-172015524Y-12090327D01*
X-171952071Y-12047929D01*
X-171909673Y-11984476D01*
X-171909671Y-11984474D01*
X-171784097Y-11796538D01*
X-171784096Y-11796537D01*
X-171740000Y-11574852D01*
X-171740000Y-11574848D01*
X-171725112Y-11500001D01*
X-171740000Y-11425154D01*
X-171740000Y-6620000D01*
X-146647440Y-6620000D01*
X-146647440Y-8620000D01*
X-146598157Y-8867765D01*
X-146583300Y-8890000D01*
X-146598157Y-8912235D01*
X-146647440Y-9160000D01*
X-146647440Y-11160000D01*
X-146598157Y-11407765D01*
X-146583300Y-11430000D01*
X-146598157Y-11452235D01*
X-146647440Y-11700000D01*
X-146647440Y-13700000D01*
X-146598157Y-13947765D01*
X-146583300Y-13970000D01*
X-146598157Y-13992235D01*
X-146647440Y-14240000D01*
X-146647440Y-16240000D01*
X-146598157Y-16487765D01*
X-146583300Y-16510000D01*
X-146598157Y-16532235D01*
X-146647440Y-16780000D01*
X-146647440Y-18780000D01*
X-146598157Y-19027765D01*
X-146457809Y-19237809D01*
X-146247765Y-19378157D01*
X-146000000Y-19427440D01*
X-144000000Y-19427440D01*
X-143752235Y-19378157D01*
X-143542191Y-19237809D01*
X-143401843Y-19027765D01*
X-143352560Y-18780000D01*
X-143352560Y-16780000D01*
X-143401843Y-16532235D01*
X-143416700Y-16510000D01*
X-143401843Y-16487765D01*
X-143352560Y-16240000D01*
X-143352560Y-14240000D01*
X-143401843Y-13992235D01*
X-143416700Y-13970000D01*
X-143401843Y-13947765D01*
X-143352560Y-13700000D01*
X-143352560Y-11700000D01*
X-143401843Y-11452235D01*
X-143416700Y-11430000D01*
X-143401843Y-11407765D01*
X-143352560Y-11160000D01*
X-143352560Y-9160000D01*
X-143401843Y-8912235D01*
X-143416700Y-8890000D01*
X-143401843Y-8867765D01*
X-143352560Y-8620000D01*
X-143352560Y-6620000D01*
X-143401843Y-6372235D01*
X-143421526Y-6342777D01*
X-143365000Y-6206310D01*
X-143365000Y-5365750D01*
X-143523750Y-5207000D01*
X-144873000Y-5207000D01*
X-144873000Y-5227000D01*
X-145127000Y-5227000D01*
X-145127000Y-5207000D01*
X-146476250Y-5207000D01*
X-146635000Y-5365750D01*
X-146635000Y-6206310D01*
X-146578474Y-6342777D01*
X-146598157Y-6372235D01*
X-146647440Y-6620000D01*
X-171740000Y-6620000D01*
X-171740000Y-2825750D01*
X-146635000Y-2825750D01*
X-146635000Y-3666310D01*
X-146575482Y-3810000D01*
X-146635000Y-3953690D01*
X-146635000Y-4794250D01*
X-146476250Y-4953000D01*
X-145127000Y-4953000D01*
X-145127000Y-2667000D01*
X-144873000Y-2667000D01*
X-144873000Y-4953000D01*
X-143523750Y-4953000D01*
X-143365000Y-4794250D01*
X-143365000Y-3953690D01*
X-143424518Y-3810000D01*
X-143365000Y-3666310D01*
X-143365000Y-2825750D01*
X-143523750Y-2667000D01*
X-144873000Y-2667000D01*
X-145127000Y-2667000D01*
X-146476250Y-2667000D01*
X-146635000Y-2825750D01*
X-171740000Y-2825750D01*
X-171740000Y925152D01*
X-171725112Y1000000D01*
X-171740000Y1074848D01*
X-171740000Y1074852D01*
X-171776828Y1260000D01*
X-171784096Y1296538D01*
X-171909671Y1484473D01*
X-171952071Y1547929D01*
X-172015527Y1590329D01*
X-172409669Y1984471D01*
X-172452071Y2047929D01*
X-172703463Y2215904D01*
X-172925148Y2260000D01*
X-172925153Y2260000D01*
X-173000000Y2274888D01*
X-173074847Y2260000D01*
X-173185198Y2260000D01*
X-173520535Y2595337D01*
X-173205874Y2465000D01*
X-172794126Y2465000D01*
X-172413720Y2622569D01*
X-172122569Y2913720D01*
X-171965000Y3294126D01*
X-171965000Y3705874D01*
X-172122569Y4086280D01*
X-172413720Y4377431D01*
X-172794126Y4535000D01*
X-173205874Y4535000D01*
X-173586280Y4377431D01*
X-173703711Y4260000D01*
X-176370300Y4260000D01*
X-176502235Y4348157D01*
X-176750000Y4397440D01*
X-181250000Y4397440D01*
X-181497765Y4348157D01*
X-181707809Y4207809D01*
X-181848157Y3997765D01*
X-181897440Y3750000D01*
X-181897440Y3250000D01*
X-181848157Y3002235D01*
X-181846664Y3000000D01*
X-181848157Y2997765D01*
X-181897440Y2750000D01*
X-181897440Y2250000D01*
X-181848157Y2002235D01*
X-181707809Y1792191D01*
X-181497765Y1651843D01*
X-181250000Y1602560D01*
X-180397440Y1602560D01*
X-180397440Y1397440D01*
X-181250000Y1397440D01*
X-181497765Y1348157D01*
X-181707809Y1207809D01*
X-181848157Y997765D01*
X-181897440Y750000D01*
X-181897440Y250000D01*
X-181848157Y2235D01*
X-181846664Y0D01*
X-181848157Y-2235D01*
X-181897440Y-250000D01*
X-181897440Y-750000D01*
X-181848157Y-997765D01*
X-181707809Y-1207809D01*
X-181497765Y-1348157D01*
X-181250000Y-1397440D01*
X-176750000Y-1397440D01*
X-176502235Y-1348157D01*
X-176370300Y-1260000D01*
X-174589869Y-1260000D01*
X-174311290Y-1538579D01*
X-173930884Y-1696148D01*
X-173519136Y-1696148D01*
X-173260000Y-1588810D01*
X-173259999Y-11185196D01*
X-183614801Y-21540000D01*
X-189352560Y-21540000D01*
X-189352560Y-21300000D01*
X-189401843Y-21052235D01*
X-189416700Y-21030000D01*
X-189401843Y-21007765D01*
X-189352560Y-20760000D01*
X-189352560Y-18760000D01*
X-189401843Y-18512235D01*
X-189416700Y-18490000D01*
X-189401843Y-18467765D01*
X-189352560Y-18220000D01*
X-189352560Y-16220000D01*
X-189401843Y-15972235D01*
X-189416700Y-15950000D01*
X-189401843Y-15927765D01*
X-189352560Y-15680000D01*
X-189352560Y-13680000D01*
X-189401843Y-13432235D01*
X-189416700Y-13410000D01*
X-189401843Y-13387765D01*
X-189352560Y-13140000D01*
X-189352560Y-11140000D01*
X-189401843Y-10892235D01*
X-189542191Y-10682191D01*
X-189752235Y-10541843D01*
X-190000000Y-10492560D01*
X-192000000Y-10492560D01*
X-192247765Y-10541843D01*
X-192457809Y-10682191D01*
X-192598157Y-10892235D01*
X-192647440Y-11140000D01*
X-192647440Y-13140000D01*
X-192598157Y-13387765D01*
X-192583300Y-13410000D01*
X-192598157Y-13432235D01*
X-192647440Y-13680000D01*
X-192647440Y-15680000D01*
X-192598157Y-15927765D01*
X-192583300Y-15950000D01*
X-192598157Y-15972235D01*
X-192647440Y-16220000D01*
X-192647440Y-18220000D01*
X-192598157Y-18467765D01*
X-192583300Y-18490000D01*
X-192598157Y-18512235D01*
X-192647440Y-18760000D01*
X-192647440Y-20760000D01*
X-192598157Y-21007765D01*
X-192583300Y-21030000D01*
X-192598157Y-21052235D01*
X-192647440Y-21300000D01*
X-192647440Y-23300000D01*
X-192598157Y-23547765D01*
X-192583300Y-23570000D01*
X-192598157Y-23592235D01*
X-192647440Y-23840000D01*
X-192647440Y-24080000D01*
X-193845198Y-24080000D01*
X-195433823Y-22491376D01*
X-195365000Y-22325222D01*
X-195365000Y-21674778D01*
X-195613914Y-21073847D01*
X-196073847Y-20613914D01*
X-196674778Y-20365000D01*
X-197325222Y-20365000D01*
X-197926153Y-20613914D01*
X-198386086Y-21073847D01*
X-198635000Y-21674778D01*
X-198873000Y-21674778D01*
X-198873000Y2325222D01*
X-198135000Y2325222D01*
X-198135000Y1674778D01*
X-197886086Y1073847D01*
X-197562239Y750000D01*
X-197886086Y426153D01*
X-198135000Y-174778D01*
X-198135000Y-825222D01*
X-197886086Y-1426153D01*
X-197562239Y-1750000D01*
X-197886086Y-2073847D01*
X-198135000Y-2674778D01*
X-198135000Y-3325222D01*
X-197886086Y-3926153D01*
X-197562239Y-4250000D01*
X-197886086Y-4573847D01*
X-198135000Y-5174778D01*
X-198135000Y-5825222D01*
X-197886086Y-6426153D01*
X-197426153Y-6886086D01*
X-196825222Y-7135000D01*
X-196174778Y-7135000D01*
X-195573847Y-6886086D01*
X-195113914Y-6426153D01*
X-194865000Y-5825222D01*
X-194865000Y-5174778D01*
X-195113914Y-4573847D01*
X-195437761Y-4250000D01*
X-195113914Y-3926153D01*
X-195045091Y-3760000D01*
X-193074847Y-3760000D01*
X-193000000Y-3774888D01*
X-192925153Y-3760000D01*
X-192925148Y-3760000D01*
X-192703463Y-3715904D01*
X-192452071Y-3547929D01*
X-192409669Y-3484470D01*
X-190185198Y-1260000D01*
X-190129700Y-1260000D01*
X-189997765Y-1348157D01*
X-189750000Y-1397440D01*
X-185250000Y-1397440D01*
X-185002235Y-1348157D01*
X-184792191Y-1207809D01*
X-184651843Y-997765D01*
X-184602560Y-750000D01*
X-184602560Y-250000D01*
X-184651843Y-2235D01*
X-184653336Y0D01*
X-184651843Y2235D01*
X-184602560Y250000D01*
X-184602560Y750000D01*
X-184651843Y997765D01*
X-184792191Y1207809D01*
X-185002235Y1348157D01*
X-185250000Y1397440D01*
X-186102560Y1397440D01*
X-186102560Y1602560D01*
X-185250000Y1602560D01*
X-185002235Y1651843D01*
X-184792191Y1792191D01*
X-184651843Y2002235D01*
X-184602560Y2250000D01*
X-184602560Y2750000D01*
X-184651843Y2997765D01*
X-184653336Y3000000D01*
X-184651843Y3002235D01*
X-184602560Y3250000D01*
X-184602560Y3750000D01*
X-184651843Y3997765D01*
X-184792191Y4207809D01*
X-185002235Y4348157D01*
X-185250000Y4397440D01*
X-189750000Y4397440D01*
X-189997765Y4348157D01*
X-190129700Y4260000D01*
X-190487420Y4260000D01*
X-190622569Y4586280D01*
X-190913720Y4877431D01*
X-191294126Y5035000D01*
X-191705874Y5035000D01*
X-192086280Y4877431D01*
X-192377431Y4586280D01*
X-192535000Y4205874D01*
X-192535000Y3794126D01*
X-192377431Y3413720D01*
X-192223711Y3260000D01*
X-195447761Y3260000D01*
X-195573847Y3386086D01*
X-196174778Y3635000D01*
X-196825222Y3635000D01*
X-197426153Y3386086D01*
X-197886086Y2926153D01*
X-198135000Y2325222D01*
X-198873000Y2325222D01*
X-198873000Y6565000D01*
X-162463571Y6565000D01*
X-162463571Y195000D01*
X-155536428Y195000D01*
X-155536428Y264539D01*
X-146645908Y264539D01*
X-146621856Y-385460D01*
X-146419387Y-874264D01*
X-146225325Y-946014D01*
X-146359698Y-1001673D01*
X-146538327Y-1180301D01*
X-146635000Y-1413690D01*
X-146635000Y-2254250D01*
X-146476250Y-2413000D01*
X-145127000Y-2413000D01*
X-145127000Y-2393000D01*
X-144873000Y-2393000D01*
X-144873000Y-2413000D01*
X-143523750Y-2413000D01*
X-143365000Y-2254250D01*
X-143365000Y-1413690D01*
X-143461673Y-1180301D01*
X-143640302Y-1001673D01*
X-143774675Y-946014D01*
X-143580613Y-874264D01*
X-143354092Y-264539D01*
X-143378144Y385460D01*
X-143580613Y874264D01*
X-143847468Y972927D01*
X-144820395Y0D01*
X-144806253Y-14143D01*
X-144985858Y-193748D01*
X-145000000Y-179605D01*
X-145014143Y-193748D01*
X-145193748Y-14143D01*
X-145179605Y0D01*
X-146152532Y972927D01*
X-146419387Y874264D01*
X-146645908Y264539D01*
X-155536428Y264539D01*
X-155536428Y1152532D01*
X-145972927Y1152532D01*
X-145000000Y179605D01*
X-144027073Y1152532D01*
X-144125736Y1419387D01*
X-144735461Y1645908D01*
X-145385460Y1621856D01*
X-145874264Y1419387D01*
X-145972927Y1152532D01*
X-155536428Y1152532D01*
X-155536428Y6565000D01*
X-162463571Y6565000D01*
X-198873000Y6565000D01*
X-198873000Y8873000D01*
X-115127000Y8873000D01*
X-115127000Y-15779228D01*
X-115127000Y-15779228D01*
G37*
X-115127000Y-15779228D02*
X-116005483Y-16657711D01*
X-116635000Y-18177497D01*
X-116635000Y-19822503D01*
X-116005483Y-21342289D01*
X-115127000Y-22220772D01*
X-115127000Y-47279228D01*
X-116005483Y-48157711D01*
X-116635000Y-49677497D01*
X-116635000Y-51322503D01*
X-116005483Y-52842289D01*
X-115127000Y-53720772D01*
X-115127000Y-78779228D01*
X-116005483Y-79657711D01*
X-116635000Y-81177497D01*
X-116635000Y-82822503D01*
X-116005483Y-84342289D01*
X-115127000Y-85220772D01*
X-115127000Y-88873000D01*
X-157409289Y-88873000D01*
X-157296289Y-88760000D01*
X-149074847Y-88760000D01*
X-149000000Y-88774888D01*
X-148925153Y-88760000D01*
X-148925148Y-88760000D01*
X-148703463Y-88715904D01*
X-148452071Y-88547929D01*
X-148409669Y-88484470D01*
X-141515527Y-81590329D01*
X-141452071Y-81547929D01*
X-141284096Y-81296537D01*
X-141240000Y-81074852D01*
X-141240000Y-81074847D01*
X-141225112Y-81000000D01*
X-141240000Y-80925153D01*
X-141240000Y-74574846D01*
X-141225112Y-74499999D01*
X-141240000Y-74425152D01*
X-141240000Y-74425148D01*
X-141284096Y-74203463D01*
X-141452071Y-73952071D01*
X-141515527Y-73909671D01*
X-142749669Y-72675530D01*
X-142792071Y-72612071D01*
X-143043463Y-72444096D01*
X-143265148Y-72400000D01*
X-143265153Y-72400000D01*
X-143340000Y-72385112D01*
X-143352560Y-72387610D01*
X-143352560Y-72160000D01*
X-143401843Y-71912235D01*
X-143416700Y-71890000D01*
X-143401843Y-71867765D01*
X-143352560Y-71620000D01*
X-143352560Y-69620000D01*
X-143401843Y-69372235D01*
X-143421526Y-69342777D01*
X-143365000Y-69206310D01*
X-143365000Y-68365750D01*
X-143523750Y-68207000D01*
X-144873000Y-68207000D01*
X-144873000Y-68227000D01*
X-145127000Y-68227000D01*
X-145127000Y-68207000D01*
X-146476250Y-68207000D01*
X-146635000Y-68365750D01*
X-146635000Y-69206310D01*
X-146578474Y-69342777D01*
X-146598157Y-69372235D01*
X-146647440Y-69620000D01*
X-146647440Y-71620000D01*
X-146598157Y-71867765D01*
X-146583300Y-71890000D01*
X-146598157Y-71912235D01*
X-146647440Y-72160000D01*
X-146647440Y-74160000D01*
X-146598157Y-74407765D01*
X-146583300Y-74430000D01*
X-146598157Y-74452235D01*
X-146647440Y-74700000D01*
X-146647440Y-76700000D01*
X-146598157Y-76947765D01*
X-146583300Y-76970000D01*
X-146598157Y-76992235D01*
X-146647440Y-77240000D01*
X-146647440Y-79240000D01*
X-146598157Y-79487765D01*
X-146583300Y-79510000D01*
X-146598157Y-79532235D01*
X-146647440Y-79780000D01*
X-146647440Y-81780000D01*
X-146598157Y-82027765D01*
X-146457809Y-82237809D01*
X-146247765Y-82378157D01*
X-146000000Y-82427440D01*
X-144502242Y-82427440D01*
X-149314801Y-87240000D01*
X-157296289Y-87240000D01*
X-157413720Y-87122569D01*
X-157794126Y-86965000D01*
X-158205874Y-86965000D01*
X-158586280Y-87122569D01*
X-158877431Y-87413720D01*
X-159035000Y-87794126D01*
X-159035000Y-88205874D01*
X-158877431Y-88586280D01*
X-158590711Y-88873000D01*
X-198873000Y-88873000D01*
X-198873000Y-80650000D01*
X-192497440Y-80650000D01*
X-192497440Y-82350000D01*
X-192448157Y-82597765D01*
X-192307809Y-82807809D01*
X-192097765Y-82948157D01*
X-191850000Y-82997440D01*
X-190150000Y-82997440D01*
X-189902235Y-82948157D01*
X-189692191Y-82807809D01*
X-189551843Y-82597765D01*
X-189502560Y-82350000D01*
X-189502560Y-82000000D01*
X-180147440Y-82000000D01*
X-180147440Y-83000000D01*
X-180098157Y-83247765D01*
X-180096664Y-83250000D01*
X-180098157Y-83252235D01*
X-180147440Y-83500000D01*
X-180147440Y-84500000D01*
X-180098157Y-84747765D01*
X-179957809Y-84957809D01*
X-179759999Y-85089982D01*
X-179759999Y-85296288D01*
X-179877431Y-85413720D01*
X-180035000Y-85794126D01*
X-180035000Y-86205874D01*
X-179877431Y-86586280D01*
X-179586280Y-86877431D01*
X-179205874Y-87035000D01*
X-178794126Y-87035000D01*
X-178413720Y-86877431D01*
X-178122569Y-86586280D01*
X-177965000Y-86205874D01*
X-177965000Y-85794126D01*
X-178122569Y-85413720D01*
X-178240000Y-85296289D01*
X-178240000Y-85089982D01*
X-178042191Y-84957809D01*
X-177901843Y-84747765D01*
X-177852560Y-84500000D01*
X-177852560Y-83500000D01*
X-177901843Y-83252235D01*
X-177903336Y-83250000D01*
X-177901843Y-83247765D01*
X-177852560Y-83000000D01*
X-177852560Y-82000000D01*
X-177901843Y-81752235D01*
X-178042191Y-81542191D01*
X-178240000Y-81410018D01*
X-178240000Y-77203711D01*
X-178122569Y-77086280D01*
X-177965000Y-76705874D01*
X-177965000Y-76294126D01*
X-177535000Y-76294126D01*
X-177535000Y-76705874D01*
X-177377431Y-77086280D01*
X-177086280Y-77377431D01*
X-176705874Y-77535000D01*
X-176539801Y-77535000D01*
X-174259999Y-79814803D01*
X-174260000Y-81410018D01*
X-174457809Y-81542191D01*
X-174598157Y-81752235D01*
X-174647440Y-82000000D01*
X-174647440Y-83000000D01*
X-174598157Y-83247765D01*
X-174596664Y-83250000D01*
X-174598157Y-83252235D01*
X-174647440Y-83500000D01*
X-174647440Y-84500000D01*
X-174598157Y-84747765D01*
X-174457809Y-84957809D01*
X-174259999Y-85089982D01*
X-174259999Y-85296288D01*
X-174377431Y-85413720D01*
X-174535000Y-85794126D01*
X-174535000Y-86205874D01*
X-174377431Y-86586280D01*
X-174086280Y-86877431D01*
X-173705874Y-87035000D01*
X-173294126Y-87035000D01*
X-172913720Y-86877431D01*
X-172622569Y-86586280D01*
X-172465000Y-86205874D01*
X-172465000Y-85794126D01*
X-172622569Y-85413720D01*
X-172740000Y-85296289D01*
X-172740000Y-85089982D01*
X-172542191Y-84957809D01*
X-172401843Y-84747765D01*
X-172352560Y-84500000D01*
X-172352560Y-83500000D01*
X-172401843Y-83252235D01*
X-172403336Y-83250000D01*
X-172401843Y-83247765D01*
X-172352560Y-83000000D01*
X-172352560Y-82000000D01*
X-172401843Y-81752235D01*
X-172542191Y-81542191D01*
X-172740000Y-81410018D01*
X-172740000Y-79795804D01*
X-169051331Y-83484473D01*
X-169008931Y-83547929D01*
X-168757539Y-83715904D01*
X-168535854Y-83760000D01*
X-168535850Y-83760000D01*
X-168461003Y-83774888D01*
X-168386156Y-83760000D01*
X-157324847Y-83760000D01*
X-157250000Y-83774888D01*
X-157175153Y-83760000D01*
X-157175148Y-83760000D01*
X-156953463Y-83715904D01*
X-156702071Y-83547929D01*
X-156659669Y-83484470D01*
X-154515527Y-81340329D01*
X-154452071Y-81297929D01*
X-154351517Y-81147440D01*
X-154000000Y-81147440D01*
X-153752235Y-81098157D01*
X-153738084Y-81088702D01*
X-153626310Y-81135000D01*
X-152785750Y-81135000D01*
X-152627000Y-80976250D01*
X-152627000Y-79627000D01*
X-152373000Y-79627000D01*
X-152373000Y-80976250D01*
X-152214250Y-81135000D01*
X-151373690Y-81135000D01*
X-151140301Y-81038327D01*
X-150961673Y-80859698D01*
X-150865000Y-80626309D01*
X-150865000Y-79785750D01*
X-151023750Y-79627000D01*
X-152373000Y-79627000D01*
X-152627000Y-79627000D01*
X-152647000Y-79627000D01*
X-152647000Y-79373000D01*
X-152627000Y-79373000D01*
X-152627000Y-78023750D01*
X-152373000Y-78023750D01*
X-152373000Y-79373000D01*
X-151023750Y-79373000D01*
X-150865000Y-79214250D01*
X-150865000Y-78373691D01*
X-150961673Y-78140302D01*
X-151140301Y-77961673D01*
X-151373690Y-77865000D01*
X-152214250Y-77865000D01*
X-152373000Y-78023750D01*
X-152627000Y-78023750D01*
X-152785750Y-77865000D01*
X-153626310Y-77865000D01*
X-153738084Y-77911298D01*
X-153752235Y-77901843D01*
X-154000000Y-77852560D01*
X-156000000Y-77852560D01*
X-156247765Y-77901843D01*
X-156250000Y-77903336D01*
X-156252235Y-77901843D01*
X-156500000Y-77852560D01*
X-158500000Y-77852560D01*
X-158747765Y-77901843D01*
X-158750000Y-77903336D01*
X-158752235Y-77901843D01*
X-159000000Y-77852560D01*
X-161000000Y-77852560D01*
X-161247765Y-77901843D01*
X-161250000Y-77903336D01*
X-161252235Y-77901843D01*
X-161500000Y-77852560D01*
X-163500000Y-77852560D01*
X-163747765Y-77901843D01*
X-163750000Y-77903336D01*
X-163752235Y-77901843D01*
X-164000000Y-77852560D01*
X-166000000Y-77852560D01*
X-166247765Y-77901843D01*
X-166250000Y-77903336D01*
X-166252235Y-77901843D01*
X-166500000Y-77852560D01*
X-168500000Y-77852560D01*
X-168747765Y-77901843D01*
X-168957809Y-78042191D01*
X-169033016Y-78154745D01*
X-169073847Y-78113914D01*
X-169674778Y-77865000D01*
X-170325222Y-77865000D01*
X-170926153Y-78113914D01*
X-171386086Y-78573847D01*
X-171510937Y-78875264D01*
X-175240000Y-75146201D01*
X-175240000Y-65703711D01*
X-175122569Y-65586280D01*
X-174965000Y-65205874D01*
X-174965000Y-64794126D01*
X-175122569Y-64413720D01*
X-175413720Y-64122569D01*
X-175794126Y-63965000D01*
X-176205874Y-63965000D01*
X-176586280Y-64122569D01*
X-176877431Y-64413720D01*
X-177035000Y-64794126D01*
X-177035000Y-65205874D01*
X-176877431Y-65586280D01*
X-176759999Y-65703712D01*
X-176760000Y-75386155D01*
X-176774888Y-75461002D01*
X-176768900Y-75491106D01*
X-177086280Y-75622569D01*
X-177377431Y-75913720D01*
X-177535000Y-76294126D01*
X-177965000Y-76294126D01*
X-178122569Y-75913720D01*
X-178413720Y-75622569D01*
X-178794126Y-75465000D01*
X-179205874Y-75465000D01*
X-179586280Y-75622569D01*
X-179877431Y-75913720D01*
X-180035000Y-76294126D01*
X-180035000Y-76705874D01*
X-179877431Y-77086280D01*
X-179759999Y-77203712D01*
X-179760000Y-79074851D01*
X-179759999Y-79074854D01*
X-179760000Y-81410018D01*
X-179957809Y-81542191D01*
X-180098157Y-81752235D01*
X-180147440Y-82000000D01*
X-189502560Y-82000000D01*
X-189502560Y-80650000D01*
X-189551843Y-80402235D01*
X-189692191Y-80192191D01*
X-189902235Y-80051843D01*
X-190150000Y-80002560D01*
X-191850000Y-80002560D01*
X-192097765Y-80051843D01*
X-192307809Y-80192191D01*
X-192448157Y-80402235D01*
X-192497440Y-80650000D01*
X-198873000Y-80650000D01*
X-198873000Y-76285750D01*
X-192485000Y-76285750D01*
X-192485000Y-76976310D01*
X-192388327Y-77209699D01*
X-192209698Y-77388327D01*
X-191976309Y-77485000D01*
X-191285750Y-77485000D01*
X-191127000Y-77326250D01*
X-191127000Y-76127000D01*
X-190873000Y-76127000D01*
X-190873000Y-77326250D01*
X-190714250Y-77485000D01*
X-190023691Y-77485000D01*
X-189790302Y-77388327D01*
X-189611673Y-77209699D01*
X-189515000Y-76976310D01*
X-189515000Y-76285750D01*
X-189673750Y-76127000D01*
X-190873000Y-76127000D01*
X-191127000Y-76127000D01*
X-192326250Y-76127000D01*
X-192485000Y-76285750D01*
X-198873000Y-76285750D01*
X-198873000Y-75023690D01*
X-192485000Y-75023690D01*
X-192485000Y-75714250D01*
X-192326250Y-75873000D01*
X-191127000Y-75873000D01*
X-191127000Y-74673750D01*
X-190873000Y-74673750D01*
X-190873000Y-75873000D01*
X-189673750Y-75873000D01*
X-189515000Y-75714250D01*
X-189515000Y-75023690D01*
X-189611673Y-74790301D01*
X-189790302Y-74611673D01*
X-190023691Y-74515000D01*
X-190714250Y-74515000D01*
X-190873000Y-74673750D01*
X-191127000Y-74673750D01*
X-191285750Y-74515000D01*
X-191976309Y-74515000D01*
X-192209698Y-74611673D01*
X-192388327Y-74790301D01*
X-192485000Y-75023690D01*
X-198873000Y-75023690D01*
X-198873000Y-68127000D01*
X-190175000Y-68127000D01*
X-190175000Y-69127000D01*
X-190001942Y-69743020D01*
X-189606317Y-70245922D01*
X-189048355Y-70559144D01*
X-188920434Y-70590124D01*
X-188667000Y-70470777D01*
X-188667000Y-68127000D01*
X-190175000Y-68127000D01*
X-198873000Y-68127000D01*
X-198873000Y-66873000D01*
X-190175000Y-66873000D01*
X-190175000Y-67873000D01*
X-188667000Y-67873000D01*
X-188667000Y-65529223D01*
X-188413000Y-65529223D01*
X-188413000Y-67873000D01*
X-188393000Y-67873000D01*
X-188393000Y-68127000D01*
X-188413000Y-68127000D01*
X-188413000Y-70470777D01*
X-188159566Y-70590124D01*
X-188031645Y-70559144D01*
X-187565099Y-70297240D01*
X-187457809Y-70457809D01*
X-187247765Y-70598157D01*
X-187000000Y-70647440D01*
X-185000000Y-70647440D01*
X-184752235Y-70598157D01*
X-184730000Y-70583300D01*
X-184707765Y-70598157D01*
X-184460000Y-70647440D01*
X-182460000Y-70647440D01*
X-182212235Y-70598157D01*
X-182190000Y-70583300D01*
X-182167765Y-70598157D01*
X-181920000Y-70647440D01*
X-179920000Y-70647440D01*
X-179672235Y-70598157D01*
X-179462191Y-70457809D01*
X-179321843Y-70247765D01*
X-179272560Y-70000000D01*
X-179272560Y-66000000D01*
X-179321843Y-65752235D01*
X-179462191Y-65542191D01*
X-179672235Y-65401843D01*
X-179920000Y-65352560D01*
X-181920000Y-65352560D01*
X-182167765Y-65401843D01*
X-182190000Y-65416700D01*
X-182212235Y-65401843D01*
X-182460000Y-65352560D01*
X-184460000Y-65352560D01*
X-184707765Y-65401843D01*
X-184730000Y-65416700D01*
X-184752235Y-65401843D01*
X-185000000Y-65352560D01*
X-187000000Y-65352560D01*
X-187247765Y-65401843D01*
X-187457809Y-65542191D01*
X-187565099Y-65702760D01*
X-188031645Y-65440856D01*
X-188159566Y-65409876D01*
X-188413000Y-65529223D01*
X-188667000Y-65529223D01*
X-188920434Y-65409876D01*
X-189048355Y-65440856D01*
X-189606317Y-65754078D01*
X-190001942Y-66256980D01*
X-190175000Y-66873000D01*
X-198873000Y-66873000D01*
X-198873000Y-44674778D01*
X-197135000Y-44674778D01*
X-197135000Y-45325222D01*
X-196886086Y-45926153D01*
X-196426153Y-46386086D01*
X-196151141Y-46500000D01*
X-196426153Y-46613914D01*
X-196886086Y-47073847D01*
X-197135000Y-47674778D01*
X-197135000Y-48325222D01*
X-196886086Y-48926153D01*
X-196426153Y-49386086D01*
X-195825222Y-49635000D01*
X-195174778Y-49635000D01*
X-194573847Y-49386086D01*
X-194113914Y-48926153D01*
X-193865000Y-48325222D01*
X-193865000Y-47674778D01*
X-194113914Y-47073847D01*
X-194573847Y-46613914D01*
X-194848859Y-46500000D01*
X-194573847Y-46386086D01*
X-194113914Y-45926153D01*
X-193865000Y-45325222D01*
X-193865000Y-44674778D01*
X-194113914Y-44073847D01*
X-194573847Y-43613914D01*
X-195174778Y-43365000D01*
X-195825222Y-43365000D01*
X-196426153Y-43613914D01*
X-196886086Y-44073847D01*
X-197135000Y-44674778D01*
X-198873000Y-44674778D01*
X-198873000Y-21674778D01*
X-198635000Y-21674778D01*
X-198635000Y-22325222D01*
X-198386086Y-22926153D01*
X-197926153Y-23386086D01*
X-197325222Y-23635000D01*
X-196674778Y-23635000D01*
X-196508624Y-23566177D01*
X-194750330Y-25324472D01*
X-194707929Y-25387929D01*
X-194456537Y-25555904D01*
X-194234852Y-25600000D01*
X-194234848Y-25600000D01*
X-194160000Y-25614888D01*
X-194085152Y-25600000D01*
X-192647440Y-25600000D01*
X-192647440Y-25840000D01*
X-192598157Y-26087765D01*
X-192583300Y-26110000D01*
X-192598157Y-26132235D01*
X-192647440Y-26380000D01*
X-192647440Y-28380000D01*
X-192598157Y-28627765D01*
X-192583300Y-28650000D01*
X-192598157Y-28672235D01*
X-192647440Y-28920000D01*
X-192647440Y-30920000D01*
X-192598157Y-31167765D01*
X-192583300Y-31190000D01*
X-192598157Y-31212235D01*
X-192647440Y-31460000D01*
X-192647440Y-33460000D01*
X-192598157Y-33707765D01*
X-192457809Y-33917809D01*
X-192321277Y-34009038D01*
X-192386086Y-34073847D01*
X-192635000Y-34674778D01*
X-192635000Y-35325222D01*
X-192386086Y-35926153D01*
X-191926153Y-36386086D01*
X-191325222Y-36635000D01*
X-190674778Y-36635000D01*
X-190073847Y-36386086D01*
X-189613914Y-35926153D01*
X-189365000Y-35325222D01*
X-189365000Y-34674778D01*
X-189613914Y-34073847D01*
X-189678723Y-34009038D01*
X-189542191Y-33917809D01*
X-189401843Y-33707765D01*
X-189352560Y-33460000D01*
X-189352560Y-31460000D01*
X-189401843Y-31212235D01*
X-189416700Y-31190000D01*
X-189401843Y-31167765D01*
X-189352560Y-30920000D01*
X-189352560Y-28920000D01*
X-189401843Y-28672235D01*
X-189416700Y-28650000D01*
X-189401843Y-28627765D01*
X-189352560Y-28380000D01*
X-189352560Y-26380000D01*
X-189401843Y-26132235D01*
X-189416700Y-26110000D01*
X-189401843Y-26087765D01*
X-189352560Y-25840000D01*
X-189352560Y-23840000D01*
X-189401843Y-23592235D01*
X-189416700Y-23570000D01*
X-189401843Y-23547765D01*
X-189352560Y-23300000D01*
X-189352560Y-23060000D01*
X-183374847Y-23060000D01*
X-183300000Y-23074888D01*
X-183225153Y-23060000D01*
X-183225148Y-23060000D01*
X-183003463Y-23015904D01*
X-182752071Y-22847929D01*
X-182709669Y-22784470D01*
X-180759999Y-20834800D01*
X-180760000Y-45925153D01*
X-180774888Y-46000000D01*
X-180760000Y-46074847D01*
X-180760000Y-46074851D01*
X-180715904Y-46296536D01*
X-180547929Y-46547929D01*
X-180484470Y-46590331D01*
X-173324802Y-53750001D01*
X-173984472Y-54409671D01*
X-174047928Y-54452071D01*
X-174090328Y-54515527D01*
X-174090329Y-54515528D01*
X-174215903Y-54703463D01*
X-174274888Y-55000000D01*
X-174259999Y-55074852D01*
X-174260000Y-69675153D01*
X-174274888Y-69750000D01*
X-174260000Y-69824847D01*
X-174260000Y-69824851D01*
X-174215904Y-70046536D01*
X-174047929Y-70297929D01*
X-173984470Y-70340331D01*
X-171840329Y-72484473D01*
X-171797929Y-72547929D01*
X-171647440Y-72648483D01*
X-171647440Y-73000000D01*
X-171598157Y-73247765D01*
X-171457809Y-73457809D01*
X-171247765Y-73598157D01*
X-171000000Y-73647440D01*
X-169000000Y-73647440D01*
X-168752235Y-73598157D01*
X-168750000Y-73596664D01*
X-168747765Y-73598157D01*
X-168500000Y-73647440D01*
X-166500000Y-73647440D01*
X-166252235Y-73598157D01*
X-166250000Y-73596664D01*
X-166247765Y-73598157D01*
X-166000000Y-73647440D01*
X-164000000Y-73647440D01*
X-163752235Y-73598157D01*
X-163750000Y-73596664D01*
X-163747765Y-73598157D01*
X-163500000Y-73647440D01*
X-161500000Y-73647440D01*
X-161252235Y-73598157D01*
X-161250000Y-73596664D01*
X-161247765Y-73598157D01*
X-161000000Y-73647440D01*
X-160399000Y-73647440D01*
X-160296537Y-73715904D01*
X-160000000Y-73774889D01*
X-159703464Y-73715904D01*
X-159601000Y-73647440D01*
X-159000000Y-73647440D01*
X-158752235Y-73598157D01*
X-158750000Y-73596664D01*
X-158747765Y-73598157D01*
X-158500000Y-73647440D01*
X-156500000Y-73647440D01*
X-156252235Y-73598157D01*
X-156250000Y-73596664D01*
X-156247765Y-73598157D01*
X-156000000Y-73647440D01*
X-154000000Y-73647440D01*
X-153752235Y-73598157D01*
X-153750000Y-73596664D01*
X-153747765Y-73598157D01*
X-153500000Y-73647440D01*
X-151500000Y-73647440D01*
X-151252235Y-73598157D01*
X-151042191Y-73457809D01*
X-150901843Y-73247765D01*
X-150852560Y-73000000D01*
X-150852560Y-71000000D01*
X-150901843Y-70752235D01*
X-151042191Y-70542191D01*
X-151252235Y-70401843D01*
X-151500000Y-70352560D01*
X-153500000Y-70352560D01*
X-153747765Y-70401843D01*
X-153750000Y-70403336D01*
X-153752235Y-70401843D01*
X-154000000Y-70352560D01*
X-156000000Y-70352560D01*
X-156247765Y-70401843D01*
X-156250000Y-70403336D01*
X-156252235Y-70401843D01*
X-156500000Y-70352560D01*
X-158500000Y-70352560D01*
X-158747765Y-70401843D01*
X-158750000Y-70403336D01*
X-158752235Y-70401843D01*
X-159000000Y-70352560D01*
X-159240000Y-70352560D01*
X-159240000Y-70074848D01*
X-159225112Y-70000000D01*
X-159240000Y-69925152D01*
X-159240000Y-69925148D01*
X-159284096Y-69703463D01*
X-159284096Y-69703462D01*
X-159409671Y-69515527D01*
X-159452071Y-69452071D01*
X-159511724Y-69412212D01*
X-159410018Y-69260000D01*
X-159074847Y-69260000D01*
X-159000000Y-69274888D01*
X-158925153Y-69260000D01*
X-158925148Y-69260000D01*
X-158703463Y-69215904D01*
X-158452071Y-69047929D01*
X-158409669Y-68984470D01*
X-157015524Y-67590327D01*
X-156952071Y-67547929D01*
X-156909673Y-67484476D01*
X-156909671Y-67484474D01*
X-156784097Y-67296538D01*
X-156784096Y-67296537D01*
X-156740000Y-67074852D01*
X-156740000Y-67074848D01*
X-156725112Y-67000001D01*
X-156740000Y-66925154D01*
X-156740000Y-65825750D01*
X-146635000Y-65825750D01*
X-146635000Y-66666310D01*
X-146575482Y-66810000D01*
X-146635000Y-66953690D01*
X-146635000Y-67794250D01*
X-146476250Y-67953000D01*
X-145127000Y-67953000D01*
X-145127000Y-65667000D01*
X-144873000Y-65667000D01*
X-144873000Y-67953000D01*
X-143523750Y-67953000D01*
X-143365000Y-67794250D01*
X-143365000Y-66953690D01*
X-143424518Y-66810000D01*
X-143365000Y-66666310D01*
X-143365000Y-65825750D01*
X-143523750Y-65667000D01*
X-144873000Y-65667000D01*
X-145127000Y-65667000D01*
X-146476250Y-65667000D01*
X-146635000Y-65825750D01*
X-156740000Y-65825750D01*
X-156740000Y-65016363D01*
X-156725112Y-64941516D01*
X-156740000Y-64866669D01*
X-156740000Y-64866665D01*
X-156784096Y-64644980D01*
X-156952071Y-64393588D01*
X-157015527Y-64351188D01*
X-158514995Y-62851721D01*
X-158480344Y-62858613D01*
X-156480344Y-62858613D01*
X-156232579Y-62809330D01*
X-156230344Y-62807837D01*
X-156228109Y-62809330D01*
X-155980344Y-62858613D01*
X-153980344Y-62858613D01*
X-153732579Y-62809330D01*
X-153718428Y-62799875D01*
X-153606654Y-62846173D01*
X-152766094Y-62846173D01*
X-152607344Y-62687423D01*
X-152607344Y-61338173D01*
X-152353344Y-61338173D01*
X-152353344Y-62687423D01*
X-152194594Y-62846173D01*
X-151354034Y-62846173D01*
X-151120645Y-62749500D01*
X-151106607Y-62735461D01*
X-146645908Y-62735461D01*
X-146621856Y-63385460D01*
X-146419387Y-63874264D01*
X-146225325Y-63946014D01*
X-146359698Y-64001673D01*
X-146538327Y-64180301D01*
X-146635000Y-64413690D01*
X-146635000Y-65254250D01*
X-146476250Y-65413000D01*
X-145127000Y-65413000D01*
X-145127000Y-65393000D01*
X-144873000Y-65393000D01*
X-144873000Y-65413000D01*
X-143523750Y-65413000D01*
X-143365000Y-65254250D01*
X-143365000Y-64413690D01*
X-143461673Y-64180301D01*
X-143640302Y-64001673D01*
X-143774675Y-63946014D01*
X-143580613Y-63874264D01*
X-143354092Y-63264539D01*
X-143378144Y-62614540D01*
X-143580613Y-62125736D01*
X-143847468Y-62027073D01*
X-144820395Y-63000000D01*
X-144806253Y-63014143D01*
X-144985858Y-63193748D01*
X-145000000Y-63179605D01*
X-145014143Y-63193748D01*
X-145193748Y-63014143D01*
X-145179605Y-63000000D01*
X-146152532Y-62027073D01*
X-146419387Y-62125736D01*
X-146645908Y-62735461D01*
X-151106607Y-62735461D01*
X-150942017Y-62570871D01*
X-150845344Y-62337482D01*
X-150845344Y-61847468D01*
X-145972927Y-61847468D01*
X-145000000Y-62820395D01*
X-144027073Y-61847468D01*
X-144125736Y-61580613D01*
X-144735461Y-61354092D01*
X-145385460Y-61378144D01*
X-145874264Y-61580613D01*
X-145972927Y-61847468D01*
X-150845344Y-61847468D01*
X-150845344Y-61496923D01*
X-151004094Y-61338173D01*
X-152353344Y-61338173D01*
X-152607344Y-61338173D01*
X-152627344Y-61338173D01*
X-152627344Y-61084173D01*
X-152607344Y-61084173D01*
X-152607344Y-59734923D01*
X-152353344Y-59734923D01*
X-152353344Y-61084173D01*
X-151004094Y-61084173D01*
X-150845344Y-60925423D01*
X-150845344Y-60084864D01*
X-150942017Y-59851475D01*
X-151120645Y-59672846D01*
X-151354034Y-59576173D01*
X-152194594Y-59576173D01*
X-152353344Y-59734923D01*
X-152607344Y-59734923D01*
X-152766094Y-59576173D01*
X-153606654Y-59576173D01*
X-153718428Y-59622471D01*
X-153732579Y-59613016D01*
X-153980344Y-59563733D01*
X-153988932Y-59563733D01*
X-153185198Y-58760000D01*
X-149574847Y-58760000D01*
X-149500000Y-58774888D01*
X-149425153Y-58760000D01*
X-149425148Y-58760000D01*
X-149203463Y-58715904D01*
X-148952071Y-58547929D01*
X-148909669Y-58484470D01*
X-147515524Y-57090327D01*
X-147452071Y-57047929D01*
X-147409673Y-56984476D01*
X-147409671Y-56984474D01*
X-147284097Y-56796538D01*
X-147284096Y-56796537D01*
X-147240000Y-56574852D01*
X-147240000Y-56574848D01*
X-147225112Y-56500001D01*
X-147240000Y-56425154D01*
X-147240000Y-52574846D01*
X-147225112Y-52499999D01*
X-147240000Y-52425152D01*
X-147240000Y-52425148D01*
X-147284096Y-52203463D01*
X-147370031Y-52074852D01*
X-147409671Y-52015526D01*
X-147409673Y-52015524D01*
X-147452071Y-51952071D01*
X-147515524Y-51909673D01*
X-150909669Y-48515530D01*
X-150952071Y-48452071D01*
X-151203463Y-48284096D01*
X-151425148Y-48240000D01*
X-151425153Y-48240000D01*
X-151500000Y-48225112D01*
X-151574847Y-48240000D01*
X-157185198Y-48240000D01*
X-157240000Y-48185199D01*
X-157240000Y-47772340D01*
X-157031466Y-47772340D01*
X-156651060Y-47614771D01*
X-156359909Y-47323620D01*
X-156202340Y-46943214D01*
X-156202340Y-46777141D01*
X-149305198Y-39880000D01*
X-146647440Y-39880000D01*
X-146647440Y-40120000D01*
X-146598157Y-40367765D01*
X-146583300Y-40390000D01*
X-146598157Y-40412235D01*
X-146647440Y-40660000D01*
X-146647440Y-42660000D01*
X-146598157Y-42907765D01*
X-146583300Y-42930000D01*
X-146598157Y-42952235D01*
X-146647440Y-43200000D01*
X-146647440Y-45200000D01*
X-146598157Y-45447765D01*
X-146583300Y-45470000D01*
X-146598157Y-45492235D01*
X-146647440Y-45740000D01*
X-146647440Y-47740000D01*
X-146598157Y-47987765D01*
X-146583300Y-48010000D01*
X-146598157Y-48032235D01*
X-146647440Y-48280000D01*
X-146647440Y-50280000D01*
X-146598157Y-50527765D01*
X-146457809Y-50737809D01*
X-146247765Y-50878157D01*
X-146000000Y-50927440D01*
X-144000000Y-50927440D01*
X-143752235Y-50878157D01*
X-143542191Y-50737809D01*
X-143401843Y-50527765D01*
X-143352560Y-50280000D01*
X-143352560Y-48280000D01*
X-143401843Y-48032235D01*
X-143416700Y-48010000D01*
X-143401843Y-47987765D01*
X-143352560Y-47740000D01*
X-143352560Y-45740000D01*
X-143401843Y-45492235D01*
X-143416700Y-45470000D01*
X-143401843Y-45447765D01*
X-143352560Y-45200000D01*
X-143352560Y-43200000D01*
X-143401843Y-42952235D01*
X-143416700Y-42930000D01*
X-143401843Y-42907765D01*
X-143352560Y-42660000D01*
X-143352560Y-40660000D01*
X-143401843Y-40412235D01*
X-143416700Y-40390000D01*
X-143401843Y-40367765D01*
X-143352560Y-40120000D01*
X-143352560Y-38120000D01*
X-143401843Y-37872235D01*
X-143421526Y-37842777D01*
X-143365000Y-37706310D01*
X-143365000Y-36865750D01*
X-143523750Y-36707000D01*
X-144873000Y-36707000D01*
X-144873000Y-36727000D01*
X-145127000Y-36727000D01*
X-145127000Y-36707000D01*
X-146476250Y-36707000D01*
X-146635000Y-36865750D01*
X-146635000Y-37706310D01*
X-146578474Y-37842777D01*
X-146598157Y-37872235D01*
X-146647440Y-38120000D01*
X-146647440Y-38360000D01*
X-149545152Y-38360000D01*
X-149620000Y-38345112D01*
X-149694848Y-38360000D01*
X-149694852Y-38360000D01*
X-149916537Y-38404096D01*
X-150167929Y-38572071D01*
X-150210329Y-38635527D01*
X-157240000Y-45665199D01*
X-157240000Y-44020865D01*
X-157205874Y-44035000D01*
X-156794126Y-44035000D01*
X-156413720Y-43877431D01*
X-156122569Y-43586280D01*
X-155965000Y-43205874D01*
X-155965000Y-42794126D01*
X-156122569Y-42413720D01*
X-156240000Y-42296289D01*
X-156240000Y-37574848D01*
X-156225112Y-37500000D01*
X-156240000Y-37425152D01*
X-156240000Y-37425148D01*
X-156284096Y-37203463D01*
X-156284096Y-37203462D01*
X-156409671Y-37015527D01*
X-156452071Y-36952071D01*
X-156515527Y-36909671D01*
X-159099448Y-34325750D01*
X-146635000Y-34325750D01*
X-146635000Y-35166310D01*
X-146575482Y-35310000D01*
X-146635000Y-35453690D01*
X-146635000Y-36294250D01*
X-146476250Y-36453000D01*
X-145127000Y-36453000D01*
X-145127000Y-34167000D01*
X-144873000Y-34167000D01*
X-144873000Y-36453000D01*
X-143523750Y-36453000D01*
X-143365000Y-36294250D01*
X-143365000Y-35453690D01*
X-143424518Y-35310000D01*
X-143365000Y-35166310D01*
X-143365000Y-34325750D01*
X-143523750Y-34167000D01*
X-144873000Y-34167000D01*
X-145127000Y-34167000D01*
X-146476250Y-34167000D01*
X-146635000Y-34325750D01*
X-159099448Y-34325750D01*
X-162189737Y-31235461D01*
X-146645908Y-31235461D01*
X-146621856Y-31885460D01*
X-146419387Y-32374264D01*
X-146225325Y-32446014D01*
X-146359698Y-32501673D01*
X-146538327Y-32680301D01*
X-146635000Y-32913690D01*
X-146635000Y-33754250D01*
X-146476250Y-33913000D01*
X-145127000Y-33913000D01*
X-145127000Y-33893000D01*
X-144873000Y-33893000D01*
X-144873000Y-33913000D01*
X-143523750Y-33913000D01*
X-143365000Y-33754250D01*
X-143365000Y-32913690D01*
X-143461673Y-32680301D01*
X-143640302Y-32501673D01*
X-143774675Y-32446014D01*
X-143580613Y-32374264D01*
X-143354092Y-31764539D01*
X-143378144Y-31114540D01*
X-143580613Y-30625736D01*
X-143847468Y-30527073D01*
X-144820395Y-31500000D01*
X-144806253Y-31514143D01*
X-144985858Y-31693748D01*
X-145000000Y-31679605D01*
X-145014143Y-31693748D01*
X-145193748Y-31514143D01*
X-145179605Y-31500000D01*
X-146152532Y-30527073D01*
X-146419387Y-30625736D01*
X-146645908Y-31235461D01*
X-162189737Y-31235461D01*
X-163077730Y-30347468D01*
X-145972927Y-30347468D01*
X-145000000Y-31320395D01*
X-144027073Y-30347468D01*
X-144125736Y-30080613D01*
X-144735461Y-29854092D01*
X-145385460Y-29878144D01*
X-145874264Y-30080613D01*
X-145972927Y-30347468D01*
X-163077730Y-30347468D01*
X-163989669Y-29435530D01*
X-164032071Y-29372071D01*
X-164283463Y-29204096D01*
X-164505148Y-29160000D01*
X-164505153Y-29160000D01*
X-164580000Y-29145112D01*
X-164654847Y-29160000D01*
X-168352560Y-29160000D01*
X-168352560Y-28920000D01*
X-168401843Y-28672235D01*
X-168416700Y-28650000D01*
X-168401843Y-28627765D01*
X-168352560Y-28380000D01*
X-168352560Y-26380000D01*
X-168401843Y-26132235D01*
X-168416700Y-26110000D01*
X-168401843Y-26087765D01*
X-168352560Y-25840000D01*
X-168352560Y-23840000D01*
X-168401843Y-23592235D01*
X-168416700Y-23570000D01*
X-168401843Y-23547765D01*
X-168352560Y-23300000D01*
X-168352560Y-21300000D01*
X-168401843Y-21052235D01*
X-168416700Y-21030000D01*
X-168401843Y-21007765D01*
X-168352560Y-20760000D01*
X-168352560Y-18760000D01*
X-168401843Y-18512235D01*
X-168416700Y-18490000D01*
X-168401843Y-18467765D01*
X-168352560Y-18220000D01*
X-168352560Y-16220000D01*
X-168401843Y-15972235D01*
X-168416700Y-15950000D01*
X-168401843Y-15927765D01*
X-168352560Y-15680000D01*
X-168352560Y-13680000D01*
X-168401843Y-13432235D01*
X-168416700Y-13410000D01*
X-168401843Y-13387765D01*
X-168352560Y-13140000D01*
X-168352560Y-11140000D01*
X-168401843Y-10892235D01*
X-168542191Y-10682191D01*
X-168752235Y-10541843D01*
X-169000000Y-10492560D01*
X-171000000Y-10492560D01*
X-171247765Y-10541843D01*
X-171457809Y-10682191D01*
X-171598157Y-10892235D01*
X-171647440Y-11140000D01*
X-171647440Y-13140000D01*
X-171598157Y-13387765D01*
X-171583300Y-13410000D01*
X-171598157Y-13432235D01*
X-171647440Y-13680000D01*
X-171647440Y-13920000D01*
X-173845197Y-13920000D01*
X-172015524Y-12090327D01*
X-171952071Y-12047929D01*
X-171909673Y-11984476D01*
X-171909671Y-11984474D01*
X-171784097Y-11796538D01*
X-171784096Y-11796537D01*
X-171740000Y-11574852D01*
X-171740000Y-11574848D01*
X-171725112Y-11500001D01*
X-171740000Y-11425154D01*
X-171740000Y-6620000D01*
X-146647440Y-6620000D01*
X-146647440Y-8620000D01*
X-146598157Y-8867765D01*
X-146583300Y-8890000D01*
X-146598157Y-8912235D01*
X-146647440Y-9160000D01*
X-146647440Y-11160000D01*
X-146598157Y-11407765D01*
X-146583300Y-11430000D01*
X-146598157Y-11452235D01*
X-146647440Y-11700000D01*
X-146647440Y-13700000D01*
X-146598157Y-13947765D01*
X-146583300Y-13970000D01*
X-146598157Y-13992235D01*
X-146647440Y-14240000D01*
X-146647440Y-16240000D01*
X-146598157Y-16487765D01*
X-146583300Y-16510000D01*
X-146598157Y-16532235D01*
X-146647440Y-16780000D01*
X-146647440Y-18780000D01*
X-146598157Y-19027765D01*
X-146457809Y-19237809D01*
X-146247765Y-19378157D01*
X-146000000Y-19427440D01*
X-144000000Y-19427440D01*
X-143752235Y-19378157D01*
X-143542191Y-19237809D01*
X-143401843Y-19027765D01*
X-143352560Y-18780000D01*
X-143352560Y-16780000D01*
X-143401843Y-16532235D01*
X-143416700Y-16510000D01*
X-143401843Y-16487765D01*
X-143352560Y-16240000D01*
X-143352560Y-14240000D01*
X-143401843Y-13992235D01*
X-143416700Y-13970000D01*
X-143401843Y-13947765D01*
X-143352560Y-13700000D01*
X-143352560Y-11700000D01*
X-143401843Y-11452235D01*
X-143416700Y-11430000D01*
X-143401843Y-11407765D01*
X-143352560Y-11160000D01*
X-143352560Y-9160000D01*
X-143401843Y-8912235D01*
X-143416700Y-8890000D01*
X-143401843Y-8867765D01*
X-143352560Y-8620000D01*
X-143352560Y-6620000D01*
X-143401843Y-6372235D01*
X-143421526Y-6342777D01*
X-143365000Y-6206310D01*
X-143365000Y-5365750D01*
X-143523750Y-5207000D01*
X-144873000Y-5207000D01*
X-144873000Y-5227000D01*
X-145127000Y-5227000D01*
X-145127000Y-5207000D01*
X-146476250Y-5207000D01*
X-146635000Y-5365750D01*
X-146635000Y-6206310D01*
X-146578474Y-6342777D01*
X-146598157Y-6372235D01*
X-146647440Y-6620000D01*
X-171740000Y-6620000D01*
X-171740000Y-2825750D01*
X-146635000Y-2825750D01*
X-146635000Y-3666310D01*
X-146575482Y-3810000D01*
X-146635000Y-3953690D01*
X-146635000Y-4794250D01*
X-146476250Y-4953000D01*
X-145127000Y-4953000D01*
X-145127000Y-2667000D01*
X-144873000Y-2667000D01*
X-144873000Y-4953000D01*
X-143523750Y-4953000D01*
X-143365000Y-4794250D01*
X-143365000Y-3953690D01*
X-143424518Y-3810000D01*
X-143365000Y-3666310D01*
X-143365000Y-2825750D01*
X-143523750Y-2667000D01*
X-144873000Y-2667000D01*
X-145127000Y-2667000D01*
X-146476250Y-2667000D01*
X-146635000Y-2825750D01*
X-171740000Y-2825750D01*
X-171740000Y925152D01*
X-171725112Y1000000D01*
X-171740000Y1074848D01*
X-171740000Y1074852D01*
X-171776828Y1260000D01*
X-171784096Y1296538D01*
X-171909671Y1484473D01*
X-171952071Y1547929D01*
X-172015527Y1590329D01*
X-172409669Y1984471D01*
X-172452071Y2047929D01*
X-172703463Y2215904D01*
X-172925148Y2260000D01*
X-172925153Y2260000D01*
X-173000000Y2274888D01*
X-173074847Y2260000D01*
X-173185198Y2260000D01*
X-173520535Y2595337D01*
X-173205874Y2465000D01*
X-172794126Y2465000D01*
X-172413720Y2622569D01*
X-172122569Y2913720D01*
X-171965000Y3294126D01*
X-171965000Y3705874D01*
X-172122569Y4086280D01*
X-172413720Y4377431D01*
X-172794126Y4535000D01*
X-173205874Y4535000D01*
X-173586280Y4377431D01*
X-173703711Y4260000D01*
X-176370300Y4260000D01*
X-176502235Y4348157D01*
X-176750000Y4397440D01*
X-181250000Y4397440D01*
X-181497765Y4348157D01*
X-181707809Y4207809D01*
X-181848157Y3997765D01*
X-181897440Y3750000D01*
X-181897440Y3250000D01*
X-181848157Y3002235D01*
X-181846664Y3000000D01*
X-181848157Y2997765D01*
X-181897440Y2750000D01*
X-181897440Y2250000D01*
X-181848157Y2002235D01*
X-181707809Y1792191D01*
X-181497765Y1651843D01*
X-181250000Y1602560D01*
X-180397440Y1602560D01*
X-180397440Y1397440D01*
X-181250000Y1397440D01*
X-181497765Y1348157D01*
X-181707809Y1207809D01*
X-181848157Y997765D01*
X-181897440Y750000D01*
X-181897440Y250000D01*
X-181848157Y2235D01*
X-181846664Y0D01*
X-181848157Y-2235D01*
X-181897440Y-250000D01*
X-181897440Y-750000D01*
X-181848157Y-997765D01*
X-181707809Y-1207809D01*
X-181497765Y-1348157D01*
X-181250000Y-1397440D01*
X-176750000Y-1397440D01*
X-176502235Y-1348157D01*
X-176370300Y-1260000D01*
X-174589869Y-1260000D01*
X-174311290Y-1538579D01*
X-173930884Y-1696148D01*
X-173519136Y-1696148D01*
X-173260000Y-1588810D01*
X-173259999Y-11185196D01*
X-183614801Y-21540000D01*
X-189352560Y-21540000D01*
X-189352560Y-21300000D01*
X-189401843Y-21052235D01*
X-189416700Y-21030000D01*
X-189401843Y-21007765D01*
X-189352560Y-20760000D01*
X-189352560Y-18760000D01*
X-189401843Y-18512235D01*
X-189416700Y-18490000D01*
X-189401843Y-18467765D01*
X-189352560Y-18220000D01*
X-189352560Y-16220000D01*
X-189401843Y-15972235D01*
X-189416700Y-15950000D01*
X-189401843Y-15927765D01*
X-189352560Y-15680000D01*
X-189352560Y-13680000D01*
X-189401843Y-13432235D01*
X-189416700Y-13410000D01*
X-189401843Y-13387765D01*
X-189352560Y-13140000D01*
X-189352560Y-11140000D01*
X-189401843Y-10892235D01*
X-189542191Y-10682191D01*
X-189752235Y-10541843D01*
X-190000000Y-10492560D01*
X-192000000Y-10492560D01*
X-192247765Y-10541843D01*
X-192457809Y-10682191D01*
X-192598157Y-10892235D01*
X-192647440Y-11140000D01*
X-192647440Y-13140000D01*
X-192598157Y-13387765D01*
X-192583300Y-13410000D01*
X-192598157Y-13432235D01*
X-192647440Y-13680000D01*
X-192647440Y-15680000D01*
X-192598157Y-15927765D01*
X-192583300Y-15950000D01*
X-192598157Y-15972235D01*
X-192647440Y-16220000D01*
X-192647440Y-18220000D01*
X-192598157Y-18467765D01*
X-192583300Y-18490000D01*
X-192598157Y-18512235D01*
X-192647440Y-18760000D01*
X-192647440Y-20760000D01*
X-192598157Y-21007765D01*
X-192583300Y-21030000D01*
X-192598157Y-21052235D01*
X-192647440Y-21300000D01*
X-192647440Y-23300000D01*
X-192598157Y-23547765D01*
X-192583300Y-23570000D01*
X-192598157Y-23592235D01*
X-192647440Y-23840000D01*
X-192647440Y-24080000D01*
X-193845198Y-24080000D01*
X-195433823Y-22491376D01*
X-195365000Y-22325222D01*
X-195365000Y-21674778D01*
X-195613914Y-21073847D01*
X-196073847Y-20613914D01*
X-196674778Y-20365000D01*
X-197325222Y-20365000D01*
X-197926153Y-20613914D01*
X-198386086Y-21073847D01*
X-198635000Y-21674778D01*
X-198873000Y-21674778D01*
X-198873000Y2325222D01*
X-198135000Y2325222D01*
X-198135000Y1674778D01*
X-197886086Y1073847D01*
X-197562239Y750000D01*
X-197886086Y426153D01*
X-198135000Y-174778D01*
X-198135000Y-825222D01*
X-197886086Y-1426153D01*
X-197562239Y-1750000D01*
X-197886086Y-2073847D01*
X-198135000Y-2674778D01*
X-198135000Y-3325222D01*
X-197886086Y-3926153D01*
X-197562239Y-4250000D01*
X-197886086Y-4573847D01*
X-198135000Y-5174778D01*
X-198135000Y-5825222D01*
X-197886086Y-6426153D01*
X-197426153Y-6886086D01*
X-196825222Y-7135000D01*
X-196174778Y-7135000D01*
X-195573847Y-6886086D01*
X-195113914Y-6426153D01*
X-194865000Y-5825222D01*
X-194865000Y-5174778D01*
X-195113914Y-4573847D01*
X-195437761Y-4250000D01*
X-195113914Y-3926153D01*
X-195045091Y-3760000D01*
X-193074847Y-3760000D01*
X-193000000Y-3774888D01*
X-192925153Y-3760000D01*
X-192925148Y-3760000D01*
X-192703463Y-3715904D01*
X-192452071Y-3547929D01*
X-192409669Y-3484470D01*
X-190185198Y-1260000D01*
X-190129700Y-1260000D01*
X-189997765Y-1348157D01*
X-189750000Y-1397440D01*
X-185250000Y-1397440D01*
X-185002235Y-1348157D01*
X-184792191Y-1207809D01*
X-184651843Y-997765D01*
X-184602560Y-750000D01*
X-184602560Y-250000D01*
X-184651843Y-2235D01*
X-184653336Y0D01*
X-184651843Y2235D01*
X-184602560Y250000D01*
X-184602560Y750000D01*
X-184651843Y997765D01*
X-184792191Y1207809D01*
X-185002235Y1348157D01*
X-185250000Y1397440D01*
X-186102560Y1397440D01*
X-186102560Y1602560D01*
X-185250000Y1602560D01*
X-185002235Y1651843D01*
X-184792191Y1792191D01*
X-184651843Y2002235D01*
X-184602560Y2250000D01*
X-184602560Y2750000D01*
X-184651843Y2997765D01*
X-184653336Y3000000D01*
X-184651843Y3002235D01*
X-184602560Y3250000D01*
X-184602560Y3750000D01*
X-184651843Y3997765D01*
X-184792191Y4207809D01*
X-185002235Y4348157D01*
X-185250000Y4397440D01*
X-189750000Y4397440D01*
X-189997765Y4348157D01*
X-190129700Y4260000D01*
X-190487420Y4260000D01*
X-190622569Y4586280D01*
X-190913720Y4877431D01*
X-191294126Y5035000D01*
X-191705874Y5035000D01*
X-192086280Y4877431D01*
X-192377431Y4586280D01*
X-192535000Y4205874D01*
X-192535000Y3794126D01*
X-192377431Y3413720D01*
X-192223711Y3260000D01*
X-195447761Y3260000D01*
X-195573847Y3386086D01*
X-196174778Y3635000D01*
X-196825222Y3635000D01*
X-197426153Y3386086D01*
X-197886086Y2926153D01*
X-198135000Y2325222D01*
X-198873000Y2325222D01*
X-198873000Y6565000D01*
X-162463571Y6565000D01*
X-162463571Y195000D01*
X-155536428Y195000D01*
X-155536428Y264539D01*
X-146645908Y264539D01*
X-146621856Y-385460D01*
X-146419387Y-874264D01*
X-146225325Y-946014D01*
X-146359698Y-1001673D01*
X-146538327Y-1180301D01*
X-146635000Y-1413690D01*
X-146635000Y-2254250D01*
X-146476250Y-2413000D01*
X-145127000Y-2413000D01*
X-145127000Y-2393000D01*
X-144873000Y-2393000D01*
X-144873000Y-2413000D01*
X-143523750Y-2413000D01*
X-143365000Y-2254250D01*
X-143365000Y-1413690D01*
X-143461673Y-1180301D01*
X-143640302Y-1001673D01*
X-143774675Y-946014D01*
X-143580613Y-874264D01*
X-143354092Y-264539D01*
X-143378144Y385460D01*
X-143580613Y874264D01*
X-143847468Y972927D01*
X-144820395Y0D01*
X-144806253Y-14143D01*
X-144985858Y-193748D01*
X-145000000Y-179605D01*
X-145014143Y-193748D01*
X-145193748Y-14143D01*
X-145179605Y0D01*
X-146152532Y972927D01*
X-146419387Y874264D01*
X-146645908Y264539D01*
X-155536428Y264539D01*
X-155536428Y1152532D01*
X-145972927Y1152532D01*
X-145000000Y179605D01*
X-144027073Y1152532D01*
X-144125736Y1419387D01*
X-144735461Y1645908D01*
X-145385460Y1621856D01*
X-145874264Y1419387D01*
X-145972927Y1152532D01*
X-155536428Y1152532D01*
X-155536428Y6565000D01*
X-162463571Y6565000D01*
X-198873000Y6565000D01*
X-198873000Y8873000D01*
X-115127000Y8873000D01*
X-115127000Y-15779228D01*
G04 #@! TO.N,Net-(A4-Pad10)*
G36*
X-101127000Y-88873000D02*
X-113873000Y-88873000D01*
X-113873000Y-85906976D01*
X-113322503Y-86135000D01*
X-111677497Y-86135000D01*
X-110157711Y-85505483D01*
X-108994517Y-84342289D01*
X-108365000Y-82822503D01*
X-108365000Y-81177497D01*
X-108994517Y-79657711D01*
X-110157711Y-78494517D01*
X-111677497Y-77865000D01*
X-113322503Y-77865000D01*
X-113873000Y-78093024D01*
X-113873000Y-72985750D01*
X-111635000Y-72985750D01*
X-111635000Y-73826310D01*
X-111538327Y-74059699D01*
X-111359698Y-74238327D01*
X-111126309Y-74335000D01*
X-110285750Y-74335000D01*
X-110127000Y-74176250D01*
X-110127000Y-72827000D01*
X-109873000Y-72827000D01*
X-109873000Y-74176250D01*
X-109714250Y-74335000D01*
X-108873691Y-74335000D01*
X-108640302Y-74238327D01*
X-108554507Y-74152532D01*
X-103972927Y-74152532D01*
X-103874264Y-74419387D01*
X-103264539Y-74645908D01*
X-102614540Y-74621856D01*
X-102125736Y-74419387D01*
X-102027073Y-74152532D01*
X-103000000Y-73179605D01*
X-103972927Y-74152532D01*
X-108554507Y-74152532D01*
X-108461673Y-74059699D01*
X-108365000Y-73826310D01*
X-108365000Y-72985750D01*
X-108523750Y-72827000D01*
X-109873000Y-72827000D01*
X-110127000Y-72827000D01*
X-111476250Y-72827000D01*
X-111635000Y-72985750D01*
X-113873000Y-72985750D01*
X-113873000Y-72735461D01*
X-104645908Y-72735461D01*
X-104621856Y-73385460D01*
X-104419387Y-73874264D01*
X-104152532Y-73972927D01*
X-103179605Y-73000000D01*
X-102820395Y-73000000D01*
X-101847468Y-73972927D01*
X-101580613Y-73874264D01*
X-101354092Y-73264539D01*
X-101378144Y-72614540D01*
X-101580613Y-72125736D01*
X-101847468Y-72027073D01*
X-102820395Y-73000000D01*
X-103179605Y-73000000D01*
X-104152532Y-72027073D01*
X-104419387Y-72125736D01*
X-104645908Y-72735461D01*
X-113873000Y-72735461D01*
X-113873000Y-70445750D01*
X-111635000Y-70445750D01*
X-111635000Y-71286310D01*
X-111575482Y-71430000D01*
X-111635000Y-71573690D01*
X-111635000Y-72414250D01*
X-111476250Y-72573000D01*
X-110127000Y-72573000D01*
X-110127000Y-70287000D01*
X-109873000Y-70287000D01*
X-109873000Y-72573000D01*
X-108523750Y-72573000D01*
X-108365000Y-72414250D01*
X-108365000Y-71847468D01*
X-103972927Y-71847468D01*
X-103000000Y-72820395D01*
X-102027073Y-71847468D01*
X-102125736Y-71580613D01*
X-102735461Y-71354092D01*
X-103385460Y-71378144D01*
X-103874264Y-71580613D01*
X-103972927Y-71847468D01*
X-108365000Y-71847468D01*
X-108365000Y-71573690D01*
X-108424518Y-71430000D01*
X-108365000Y-71286310D01*
X-108365000Y-70445750D01*
X-108523750Y-70287000D01*
X-109873000Y-70287000D01*
X-110127000Y-70287000D01*
X-111476250Y-70287000D01*
X-111635000Y-70445750D01*
X-113873000Y-70445750D01*
X-113873000Y-67905750D01*
X-111635000Y-67905750D01*
X-111635000Y-68746310D01*
X-111575482Y-68890000D01*
X-111635000Y-69033690D01*
X-111635000Y-69874250D01*
X-111476250Y-70033000D01*
X-110127000Y-70033000D01*
X-110127000Y-67747000D01*
X-109873000Y-67747000D01*
X-109873000Y-70033000D01*
X-108523750Y-70033000D01*
X-108365000Y-69874250D01*
X-108365000Y-69033690D01*
X-108424518Y-68890000D01*
X-108365000Y-68746310D01*
X-108365000Y-67905750D01*
X-108523750Y-67747000D01*
X-109873000Y-67747000D01*
X-110127000Y-67747000D01*
X-111476250Y-67747000D01*
X-111635000Y-67905750D01*
X-113873000Y-67905750D01*
X-113873000Y-65365750D01*
X-111635000Y-65365750D01*
X-111635000Y-66206310D01*
X-111575482Y-66350000D01*
X-111635000Y-66493690D01*
X-111635000Y-67334250D01*
X-111476250Y-67493000D01*
X-110127000Y-67493000D01*
X-110127000Y-65207000D01*
X-109873000Y-65207000D01*
X-109873000Y-67493000D01*
X-108523750Y-67493000D01*
X-108365000Y-67334250D01*
X-108365000Y-66493690D01*
X-108424518Y-66350000D01*
X-108365000Y-66206310D01*
X-108365000Y-65365750D01*
X-108523750Y-65207000D01*
X-109873000Y-65207000D01*
X-110127000Y-65207000D01*
X-111476250Y-65207000D01*
X-111635000Y-65365750D01*
X-113873000Y-65365750D01*
X-113873000Y-62825750D01*
X-111635000Y-62825750D01*
X-111635000Y-63666310D01*
X-111575482Y-63810000D01*
X-111635000Y-63953690D01*
X-111635000Y-64794250D01*
X-111476250Y-64953000D01*
X-110127000Y-64953000D01*
X-110127000Y-62667000D01*
X-109873000Y-62667000D01*
X-109873000Y-64953000D01*
X-108523750Y-64953000D01*
X-108365000Y-64794250D01*
X-108365000Y-63953690D01*
X-108424518Y-63810000D01*
X-108365000Y-63666310D01*
X-108365000Y-62825750D01*
X-108523750Y-62667000D01*
X-109873000Y-62667000D01*
X-110127000Y-62667000D01*
X-111476250Y-62667000D01*
X-111635000Y-62825750D01*
X-113873000Y-62825750D01*
X-113873000Y-59735461D01*
X-111645908Y-59735461D01*
X-111621856Y-60385460D01*
X-111419387Y-60874264D01*
X-111225325Y-60946014D01*
X-111359698Y-61001673D01*
X-111538327Y-61180301D01*
X-111635000Y-61413690D01*
X-111635000Y-62254250D01*
X-111476250Y-62413000D01*
X-110127000Y-62413000D01*
X-110127000Y-62393000D01*
X-109873000Y-62393000D01*
X-109873000Y-62413000D01*
X-108523750Y-62413000D01*
X-108365000Y-62254250D01*
X-108365000Y-61413690D01*
X-108461673Y-61180301D01*
X-108640302Y-61001673D01*
X-108774675Y-60946014D01*
X-108580613Y-60874264D01*
X-108354092Y-60264539D01*
X-108378144Y-59614540D01*
X-108580613Y-59125736D01*
X-108847468Y-59027073D01*
X-109820395Y-60000000D01*
X-109806253Y-60014143D01*
X-109985858Y-60193748D01*
X-110000000Y-60179605D01*
X-110014143Y-60193748D01*
X-110193748Y-60014143D01*
X-110179605Y-60000000D01*
X-111152532Y-59027073D01*
X-111419387Y-59125736D01*
X-111645908Y-59735461D01*
X-113873000Y-59735461D01*
X-113873000Y-58847468D01*
X-110972927Y-58847468D01*
X-110000000Y-59820395D01*
X-109027073Y-58847468D01*
X-109125736Y-58580613D01*
X-109735461Y-58354092D01*
X-110385460Y-58378144D01*
X-110874264Y-58580613D01*
X-110972927Y-58847468D01*
X-113873000Y-58847468D01*
X-113873000Y-57627000D01*
X-101127000Y-57627000D01*
X-101127000Y-88873000D01*
X-101127000Y-88873000D01*
G37*
X-101127000Y-88873000D02*
X-113873000Y-88873000D01*
X-113873000Y-85906976D01*
X-113322503Y-86135000D01*
X-111677497Y-86135000D01*
X-110157711Y-85505483D01*
X-108994517Y-84342289D01*
X-108365000Y-82822503D01*
X-108365000Y-81177497D01*
X-108994517Y-79657711D01*
X-110157711Y-78494517D01*
X-111677497Y-77865000D01*
X-113322503Y-77865000D01*
X-113873000Y-78093024D01*
X-113873000Y-72985750D01*
X-111635000Y-72985750D01*
X-111635000Y-73826310D01*
X-111538327Y-74059699D01*
X-111359698Y-74238327D01*
X-111126309Y-74335000D01*
X-110285750Y-74335000D01*
X-110127000Y-74176250D01*
X-110127000Y-72827000D01*
X-109873000Y-72827000D01*
X-109873000Y-74176250D01*
X-109714250Y-74335000D01*
X-108873691Y-74335000D01*
X-108640302Y-74238327D01*
X-108554507Y-74152532D01*
X-103972927Y-74152532D01*
X-103874264Y-74419387D01*
X-103264539Y-74645908D01*
X-102614540Y-74621856D01*
X-102125736Y-74419387D01*
X-102027073Y-74152532D01*
X-103000000Y-73179605D01*
X-103972927Y-74152532D01*
X-108554507Y-74152532D01*
X-108461673Y-74059699D01*
X-108365000Y-73826310D01*
X-108365000Y-72985750D01*
X-108523750Y-72827000D01*
X-109873000Y-72827000D01*
X-110127000Y-72827000D01*
X-111476250Y-72827000D01*
X-111635000Y-72985750D01*
X-113873000Y-72985750D01*
X-113873000Y-72735461D01*
X-104645908Y-72735461D01*
X-104621856Y-73385460D01*
X-104419387Y-73874264D01*
X-104152532Y-73972927D01*
X-103179605Y-73000000D01*
X-102820395Y-73000000D01*
X-101847468Y-73972927D01*
X-101580613Y-73874264D01*
X-101354092Y-73264539D01*
X-101378144Y-72614540D01*
X-101580613Y-72125736D01*
X-101847468Y-72027073D01*
X-102820395Y-73000000D01*
X-103179605Y-73000000D01*
X-104152532Y-72027073D01*
X-104419387Y-72125736D01*
X-104645908Y-72735461D01*
X-113873000Y-72735461D01*
X-113873000Y-70445750D01*
X-111635000Y-70445750D01*
X-111635000Y-71286310D01*
X-111575482Y-71430000D01*
X-111635000Y-71573690D01*
X-111635000Y-72414250D01*
X-111476250Y-72573000D01*
X-110127000Y-72573000D01*
X-110127000Y-70287000D01*
X-109873000Y-70287000D01*
X-109873000Y-72573000D01*
X-108523750Y-72573000D01*
X-108365000Y-72414250D01*
X-108365000Y-71847468D01*
X-103972927Y-71847468D01*
X-103000000Y-72820395D01*
X-102027073Y-71847468D01*
X-102125736Y-71580613D01*
X-102735461Y-71354092D01*
X-103385460Y-71378144D01*
X-103874264Y-71580613D01*
X-103972927Y-71847468D01*
X-108365000Y-71847468D01*
X-108365000Y-71573690D01*
X-108424518Y-71430000D01*
X-108365000Y-71286310D01*
X-108365000Y-70445750D01*
X-108523750Y-70287000D01*
X-109873000Y-70287000D01*
X-110127000Y-70287000D01*
X-111476250Y-70287000D01*
X-111635000Y-70445750D01*
X-113873000Y-70445750D01*
X-113873000Y-67905750D01*
X-111635000Y-67905750D01*
X-111635000Y-68746310D01*
X-111575482Y-68890000D01*
X-111635000Y-69033690D01*
X-111635000Y-69874250D01*
X-111476250Y-70033000D01*
X-110127000Y-70033000D01*
X-110127000Y-67747000D01*
X-109873000Y-67747000D01*
X-109873000Y-70033000D01*
X-108523750Y-70033000D01*
X-108365000Y-69874250D01*
X-108365000Y-69033690D01*
X-108424518Y-68890000D01*
X-108365000Y-68746310D01*
X-108365000Y-67905750D01*
X-108523750Y-67747000D01*
X-109873000Y-67747000D01*
X-110127000Y-67747000D01*
X-111476250Y-67747000D01*
X-111635000Y-67905750D01*
X-113873000Y-67905750D01*
X-113873000Y-65365750D01*
X-111635000Y-65365750D01*
X-111635000Y-66206310D01*
X-111575482Y-66350000D01*
X-111635000Y-66493690D01*
X-111635000Y-67334250D01*
X-111476250Y-67493000D01*
X-110127000Y-67493000D01*
X-110127000Y-65207000D01*
X-109873000Y-65207000D01*
X-109873000Y-67493000D01*
X-108523750Y-67493000D01*
X-108365000Y-67334250D01*
X-108365000Y-66493690D01*
X-108424518Y-66350000D01*
X-108365000Y-66206310D01*
X-108365000Y-65365750D01*
X-108523750Y-65207000D01*
X-109873000Y-65207000D01*
X-110127000Y-65207000D01*
X-111476250Y-65207000D01*
X-111635000Y-65365750D01*
X-113873000Y-65365750D01*
X-113873000Y-62825750D01*
X-111635000Y-62825750D01*
X-111635000Y-63666310D01*
X-111575482Y-63810000D01*
X-111635000Y-63953690D01*
X-111635000Y-64794250D01*
X-111476250Y-64953000D01*
X-110127000Y-64953000D01*
X-110127000Y-62667000D01*
X-109873000Y-62667000D01*
X-109873000Y-64953000D01*
X-108523750Y-64953000D01*
X-108365000Y-64794250D01*
X-108365000Y-63953690D01*
X-108424518Y-63810000D01*
X-108365000Y-63666310D01*
X-108365000Y-62825750D01*
X-108523750Y-62667000D01*
X-109873000Y-62667000D01*
X-110127000Y-62667000D01*
X-111476250Y-62667000D01*
X-111635000Y-62825750D01*
X-113873000Y-62825750D01*
X-113873000Y-59735461D01*
X-111645908Y-59735461D01*
X-111621856Y-60385460D01*
X-111419387Y-60874264D01*
X-111225325Y-60946014D01*
X-111359698Y-61001673D01*
X-111538327Y-61180301D01*
X-111635000Y-61413690D01*
X-111635000Y-62254250D01*
X-111476250Y-62413000D01*
X-110127000Y-62413000D01*
X-110127000Y-62393000D01*
X-109873000Y-62393000D01*
X-109873000Y-62413000D01*
X-108523750Y-62413000D01*
X-108365000Y-62254250D01*
X-108365000Y-61413690D01*
X-108461673Y-61180301D01*
X-108640302Y-61001673D01*
X-108774675Y-60946014D01*
X-108580613Y-60874264D01*
X-108354092Y-60264539D01*
X-108378144Y-59614540D01*
X-108580613Y-59125736D01*
X-108847468Y-59027073D01*
X-109820395Y-60000000D01*
X-109806253Y-60014143D01*
X-109985858Y-60193748D01*
X-110000000Y-60179605D01*
X-110014143Y-60193748D01*
X-110193748Y-60014143D01*
X-110179605Y-60000000D01*
X-111152532Y-59027073D01*
X-111419387Y-59125736D01*
X-111645908Y-59735461D01*
X-113873000Y-59735461D01*
X-113873000Y-58847468D01*
X-110972927Y-58847468D01*
X-110000000Y-59820395D01*
X-109027073Y-58847468D01*
X-109125736Y-58580613D01*
X-109735461Y-58354092D01*
X-110385460Y-58378144D01*
X-110874264Y-58580613D01*
X-110972927Y-58847468D01*
X-113873000Y-58847468D01*
X-113873000Y-57627000D01*
X-101127000Y-57627000D01*
X-101127000Y-88873000D01*
G04 #@! TO.N,Net-(A3-Pad10)*
G36*
X-101127000Y-56373000D02*
X-113873000Y-56373000D01*
X-113873000Y-54406976D01*
X-113322503Y-54635000D01*
X-111677497Y-54635000D01*
X-110157711Y-54005483D01*
X-108994517Y-52842289D01*
X-108365000Y-51322503D01*
X-108365000Y-49677497D01*
X-108994517Y-48157711D01*
X-110157711Y-46994517D01*
X-111677497Y-46365000D01*
X-113322503Y-46365000D01*
X-113873000Y-46593024D01*
X-113873000Y-41485750D01*
X-111635000Y-41485750D01*
X-111635000Y-42326310D01*
X-111538327Y-42559699D01*
X-111359698Y-42738327D01*
X-111126309Y-42835000D01*
X-110285750Y-42835000D01*
X-110127000Y-42676250D01*
X-110127000Y-41327000D01*
X-109873000Y-41327000D01*
X-109873000Y-42676250D01*
X-109714250Y-42835000D01*
X-108873691Y-42835000D01*
X-108640302Y-42738327D01*
X-108461673Y-42559699D01*
X-108365000Y-42326310D01*
X-108365000Y-41485750D01*
X-108523750Y-41327000D01*
X-109873000Y-41327000D01*
X-110127000Y-41327000D01*
X-111476250Y-41327000D01*
X-111635000Y-41485750D01*
X-113873000Y-41485750D01*
X-113873000Y-38945750D01*
X-111635000Y-38945750D01*
X-111635000Y-39786310D01*
X-111575482Y-39930000D01*
X-111635000Y-40073690D01*
X-111635000Y-40914250D01*
X-111476250Y-41073000D01*
X-110127000Y-41073000D01*
X-110127000Y-38787000D01*
X-109873000Y-38787000D01*
X-109873000Y-41073000D01*
X-108523750Y-41073000D01*
X-108365000Y-40914250D01*
X-108365000Y-40073690D01*
X-108424518Y-39930000D01*
X-108365000Y-39786310D01*
X-108365000Y-38945750D01*
X-108523750Y-38787000D01*
X-109873000Y-38787000D01*
X-110127000Y-38787000D01*
X-111476250Y-38787000D01*
X-111635000Y-38945750D01*
X-113873000Y-38945750D01*
X-113873000Y-36405750D01*
X-111635000Y-36405750D01*
X-111635000Y-37246310D01*
X-111575482Y-37390000D01*
X-111635000Y-37533690D01*
X-111635000Y-38374250D01*
X-111476250Y-38533000D01*
X-110127000Y-38533000D01*
X-110127000Y-36247000D01*
X-109873000Y-36247000D01*
X-109873000Y-38533000D01*
X-108523750Y-38533000D01*
X-108365000Y-38374250D01*
X-108365000Y-37533690D01*
X-108424518Y-37390000D01*
X-108365000Y-37246310D01*
X-108365000Y-36405750D01*
X-108523750Y-36247000D01*
X-109873000Y-36247000D01*
X-110127000Y-36247000D01*
X-111476250Y-36247000D01*
X-111635000Y-36405750D01*
X-113873000Y-36405750D01*
X-113873000Y-33865750D01*
X-111635000Y-33865750D01*
X-111635000Y-34706310D01*
X-111575482Y-34850000D01*
X-111635000Y-34993690D01*
X-111635000Y-35834250D01*
X-111476250Y-35993000D01*
X-110127000Y-35993000D01*
X-110127000Y-33707000D01*
X-109873000Y-33707000D01*
X-109873000Y-35993000D01*
X-108523750Y-35993000D01*
X-108365000Y-35834250D01*
X-108365000Y-34993690D01*
X-108424518Y-34850000D01*
X-108365000Y-34706310D01*
X-108365000Y-33865750D01*
X-108523750Y-33707000D01*
X-109873000Y-33707000D01*
X-110127000Y-33707000D01*
X-111476250Y-33707000D01*
X-111635000Y-33865750D01*
X-113873000Y-33865750D01*
X-113873000Y-31325750D01*
X-111635000Y-31325750D01*
X-111635000Y-32166310D01*
X-111575482Y-32310000D01*
X-111635000Y-32453690D01*
X-111635000Y-33294250D01*
X-111476250Y-33453000D01*
X-110127000Y-33453000D01*
X-110127000Y-31167000D01*
X-109873000Y-31167000D01*
X-109873000Y-33453000D01*
X-108523750Y-33453000D01*
X-108365000Y-33294250D01*
X-108365000Y-32453690D01*
X-108424518Y-32310000D01*
X-108365000Y-32166310D01*
X-108365000Y-31652532D01*
X-103972927Y-31652532D01*
X-103874264Y-31919387D01*
X-103264539Y-32145908D01*
X-102614540Y-32121856D01*
X-102125736Y-31919387D01*
X-102027073Y-31652532D01*
X-103000000Y-30679605D01*
X-103972927Y-31652532D01*
X-108365000Y-31652532D01*
X-108365000Y-31325750D01*
X-108523750Y-31167000D01*
X-109873000Y-31167000D01*
X-110127000Y-31167000D01*
X-111476250Y-31167000D01*
X-111635000Y-31325750D01*
X-113873000Y-31325750D01*
X-113873000Y-28235461D01*
X-111645908Y-28235461D01*
X-111621856Y-28885460D01*
X-111419387Y-29374264D01*
X-111225325Y-29446014D01*
X-111359698Y-29501673D01*
X-111538327Y-29680301D01*
X-111635000Y-29913690D01*
X-111635000Y-30754250D01*
X-111476250Y-30913000D01*
X-110127000Y-30913000D01*
X-110127000Y-30893000D01*
X-109873000Y-30893000D01*
X-109873000Y-30913000D01*
X-108523750Y-30913000D01*
X-108365000Y-30754250D01*
X-108365000Y-30235461D01*
X-104645908Y-30235461D01*
X-104621856Y-30885460D01*
X-104419387Y-31374264D01*
X-104152532Y-31472927D01*
X-103179605Y-30500000D01*
X-102820395Y-30500000D01*
X-101847468Y-31472927D01*
X-101580613Y-31374264D01*
X-101354092Y-30764539D01*
X-101378144Y-30114540D01*
X-101580613Y-29625736D01*
X-101847468Y-29527073D01*
X-102820395Y-30500000D01*
X-103179605Y-30500000D01*
X-104152532Y-29527073D01*
X-104419387Y-29625736D01*
X-104645908Y-30235461D01*
X-108365000Y-30235461D01*
X-108365000Y-29913690D01*
X-108461673Y-29680301D01*
X-108640302Y-29501673D01*
X-108774675Y-29446014D01*
X-108580613Y-29374264D01*
X-108570658Y-29347468D01*
X-103972927Y-29347468D01*
X-103000000Y-30320395D01*
X-102027073Y-29347468D01*
X-102125736Y-29080613D01*
X-102735461Y-28854092D01*
X-103385460Y-28878144D01*
X-103874264Y-29080613D01*
X-103972927Y-29347468D01*
X-108570658Y-29347468D01*
X-108354092Y-28764539D01*
X-108378144Y-28114540D01*
X-108580613Y-27625736D01*
X-108847468Y-27527073D01*
X-109820395Y-28500000D01*
X-109806253Y-28514143D01*
X-109985858Y-28693748D01*
X-110000000Y-28679605D01*
X-110014143Y-28693748D01*
X-110193748Y-28514143D01*
X-110179605Y-28500000D01*
X-111152532Y-27527073D01*
X-111419387Y-27625736D01*
X-111645908Y-28235461D01*
X-113873000Y-28235461D01*
X-113873000Y-27347468D01*
X-110972927Y-27347468D01*
X-110000000Y-28320395D01*
X-109027073Y-27347468D01*
X-109125736Y-27080613D01*
X-109735461Y-26854092D01*
X-110385460Y-26878144D01*
X-110874264Y-27080613D01*
X-110972927Y-27347468D01*
X-113873000Y-27347468D01*
X-113873000Y-25127000D01*
X-101127000Y-25127000D01*
X-101127000Y-56373000D01*
X-101127000Y-56373000D01*
G37*
X-101127000Y-56373000D02*
X-113873000Y-56373000D01*
X-113873000Y-54406976D01*
X-113322503Y-54635000D01*
X-111677497Y-54635000D01*
X-110157711Y-54005483D01*
X-108994517Y-52842289D01*
X-108365000Y-51322503D01*
X-108365000Y-49677497D01*
X-108994517Y-48157711D01*
X-110157711Y-46994517D01*
X-111677497Y-46365000D01*
X-113322503Y-46365000D01*
X-113873000Y-46593024D01*
X-113873000Y-41485750D01*
X-111635000Y-41485750D01*
X-111635000Y-42326310D01*
X-111538327Y-42559699D01*
X-111359698Y-42738327D01*
X-111126309Y-42835000D01*
X-110285750Y-42835000D01*
X-110127000Y-42676250D01*
X-110127000Y-41327000D01*
X-109873000Y-41327000D01*
X-109873000Y-42676250D01*
X-109714250Y-42835000D01*
X-108873691Y-42835000D01*
X-108640302Y-42738327D01*
X-108461673Y-42559699D01*
X-108365000Y-42326310D01*
X-108365000Y-41485750D01*
X-108523750Y-41327000D01*
X-109873000Y-41327000D01*
X-110127000Y-41327000D01*
X-111476250Y-41327000D01*
X-111635000Y-41485750D01*
X-113873000Y-41485750D01*
X-113873000Y-38945750D01*
X-111635000Y-38945750D01*
X-111635000Y-39786310D01*
X-111575482Y-39930000D01*
X-111635000Y-40073690D01*
X-111635000Y-40914250D01*
X-111476250Y-41073000D01*
X-110127000Y-41073000D01*
X-110127000Y-38787000D01*
X-109873000Y-38787000D01*
X-109873000Y-41073000D01*
X-108523750Y-41073000D01*
X-108365000Y-40914250D01*
X-108365000Y-40073690D01*
X-108424518Y-39930000D01*
X-108365000Y-39786310D01*
X-108365000Y-38945750D01*
X-108523750Y-38787000D01*
X-109873000Y-38787000D01*
X-110127000Y-38787000D01*
X-111476250Y-38787000D01*
X-111635000Y-38945750D01*
X-113873000Y-38945750D01*
X-113873000Y-36405750D01*
X-111635000Y-36405750D01*
X-111635000Y-37246310D01*
X-111575482Y-37390000D01*
X-111635000Y-37533690D01*
X-111635000Y-38374250D01*
X-111476250Y-38533000D01*
X-110127000Y-38533000D01*
X-110127000Y-36247000D01*
X-109873000Y-36247000D01*
X-109873000Y-38533000D01*
X-108523750Y-38533000D01*
X-108365000Y-38374250D01*
X-108365000Y-37533690D01*
X-108424518Y-37390000D01*
X-108365000Y-37246310D01*
X-108365000Y-36405750D01*
X-108523750Y-36247000D01*
X-109873000Y-36247000D01*
X-110127000Y-36247000D01*
X-111476250Y-36247000D01*
X-111635000Y-36405750D01*
X-113873000Y-36405750D01*
X-113873000Y-33865750D01*
X-111635000Y-33865750D01*
X-111635000Y-34706310D01*
X-111575482Y-34850000D01*
X-111635000Y-34993690D01*
X-111635000Y-35834250D01*
X-111476250Y-35993000D01*
X-110127000Y-35993000D01*
X-110127000Y-33707000D01*
X-109873000Y-33707000D01*
X-109873000Y-35993000D01*
X-108523750Y-35993000D01*
X-108365000Y-35834250D01*
X-108365000Y-34993690D01*
X-108424518Y-34850000D01*
X-108365000Y-34706310D01*
X-108365000Y-33865750D01*
X-108523750Y-33707000D01*
X-109873000Y-33707000D01*
X-110127000Y-33707000D01*
X-111476250Y-33707000D01*
X-111635000Y-33865750D01*
X-113873000Y-33865750D01*
X-113873000Y-31325750D01*
X-111635000Y-31325750D01*
X-111635000Y-32166310D01*
X-111575482Y-32310000D01*
X-111635000Y-32453690D01*
X-111635000Y-33294250D01*
X-111476250Y-33453000D01*
X-110127000Y-33453000D01*
X-110127000Y-31167000D01*
X-109873000Y-31167000D01*
X-109873000Y-33453000D01*
X-108523750Y-33453000D01*
X-108365000Y-33294250D01*
X-108365000Y-32453690D01*
X-108424518Y-32310000D01*
X-108365000Y-32166310D01*
X-108365000Y-31652532D01*
X-103972927Y-31652532D01*
X-103874264Y-31919387D01*
X-103264539Y-32145908D01*
X-102614540Y-32121856D01*
X-102125736Y-31919387D01*
X-102027073Y-31652532D01*
X-103000000Y-30679605D01*
X-103972927Y-31652532D01*
X-108365000Y-31652532D01*
X-108365000Y-31325750D01*
X-108523750Y-31167000D01*
X-109873000Y-31167000D01*
X-110127000Y-31167000D01*
X-111476250Y-31167000D01*
X-111635000Y-31325750D01*
X-113873000Y-31325750D01*
X-113873000Y-28235461D01*
X-111645908Y-28235461D01*
X-111621856Y-28885460D01*
X-111419387Y-29374264D01*
X-111225325Y-29446014D01*
X-111359698Y-29501673D01*
X-111538327Y-29680301D01*
X-111635000Y-29913690D01*
X-111635000Y-30754250D01*
X-111476250Y-30913000D01*
X-110127000Y-30913000D01*
X-110127000Y-30893000D01*
X-109873000Y-30893000D01*
X-109873000Y-30913000D01*
X-108523750Y-30913000D01*
X-108365000Y-30754250D01*
X-108365000Y-30235461D01*
X-104645908Y-30235461D01*
X-104621856Y-30885460D01*
X-104419387Y-31374264D01*
X-104152532Y-31472927D01*
X-103179605Y-30500000D01*
X-102820395Y-30500000D01*
X-101847468Y-31472927D01*
X-101580613Y-31374264D01*
X-101354092Y-30764539D01*
X-101378144Y-30114540D01*
X-101580613Y-29625736D01*
X-101847468Y-29527073D01*
X-102820395Y-30500000D01*
X-103179605Y-30500000D01*
X-104152532Y-29527073D01*
X-104419387Y-29625736D01*
X-104645908Y-30235461D01*
X-108365000Y-30235461D01*
X-108365000Y-29913690D01*
X-108461673Y-29680301D01*
X-108640302Y-29501673D01*
X-108774675Y-29446014D01*
X-108580613Y-29374264D01*
X-108570658Y-29347468D01*
X-103972927Y-29347468D01*
X-103000000Y-30320395D01*
X-102027073Y-29347468D01*
X-102125736Y-29080613D01*
X-102735461Y-28854092D01*
X-103385460Y-28878144D01*
X-103874264Y-29080613D01*
X-103972927Y-29347468D01*
X-108570658Y-29347468D01*
X-108354092Y-28764539D01*
X-108378144Y-28114540D01*
X-108580613Y-27625736D01*
X-108847468Y-27527073D01*
X-109820395Y-28500000D01*
X-109806253Y-28514143D01*
X-109985858Y-28693748D01*
X-110000000Y-28679605D01*
X-110014143Y-28693748D01*
X-110193748Y-28514143D01*
X-110179605Y-28500000D01*
X-111152532Y-27527073D01*
X-111419387Y-27625736D01*
X-111645908Y-28235461D01*
X-113873000Y-28235461D01*
X-113873000Y-27347468D01*
X-110972927Y-27347468D01*
X-110000000Y-28320395D01*
X-109027073Y-27347468D01*
X-109125736Y-27080613D01*
X-109735461Y-26854092D01*
X-110385460Y-26878144D01*
X-110874264Y-27080613D01*
X-110972927Y-27347468D01*
X-113873000Y-27347468D01*
X-113873000Y-25127000D01*
X-101127000Y-25127000D01*
X-101127000Y-56373000D01*
G04 #@! TO.N,Net-(A2-Pad10)*
G36*
X-101127000Y-23873000D02*
X-113873000Y-23873000D01*
X-113873000Y-22906976D01*
X-113322503Y-23135000D01*
X-111677497Y-23135000D01*
X-110157711Y-22505483D01*
X-108994517Y-21342289D01*
X-108365000Y-19822503D01*
X-108365000Y-18177497D01*
X-108994517Y-16657711D01*
X-110157711Y-15494517D01*
X-111677497Y-14865000D01*
X-113322503Y-14865000D01*
X-113873000Y-15093024D01*
X-113873000Y-9985750D01*
X-111635000Y-9985750D01*
X-111635000Y-10826310D01*
X-111538327Y-11059699D01*
X-111359698Y-11238327D01*
X-111126309Y-11335000D01*
X-110285750Y-11335000D01*
X-110127000Y-11176250D01*
X-110127000Y-9827000D01*
X-109873000Y-9827000D01*
X-109873000Y-11176250D01*
X-109714250Y-11335000D01*
X-108873691Y-11335000D01*
X-108640302Y-11238327D01*
X-108461673Y-11059699D01*
X-108365000Y-10826310D01*
X-108365000Y-10652532D01*
X-103972927Y-10652532D01*
X-103874264Y-10919387D01*
X-103264539Y-11145908D01*
X-102614540Y-11121856D01*
X-102125736Y-10919387D01*
X-102027073Y-10652532D01*
X-103000000Y-9679605D01*
X-103972927Y-10652532D01*
X-108365000Y-10652532D01*
X-108365000Y-9985750D01*
X-108523750Y-9827000D01*
X-109873000Y-9827000D01*
X-110127000Y-9827000D01*
X-111476250Y-9827000D01*
X-111635000Y-9985750D01*
X-113873000Y-9985750D01*
X-113873000Y-7445750D01*
X-111635000Y-7445750D01*
X-111635000Y-8286310D01*
X-111575482Y-8430000D01*
X-111635000Y-8573690D01*
X-111635000Y-9414250D01*
X-111476250Y-9573000D01*
X-110127000Y-9573000D01*
X-110127000Y-7287000D01*
X-109873000Y-7287000D01*
X-109873000Y-9573000D01*
X-108523750Y-9573000D01*
X-108365000Y-9414250D01*
X-108365000Y-9235461D01*
X-104645908Y-9235461D01*
X-104621856Y-9885460D01*
X-104419387Y-10374264D01*
X-104152532Y-10472927D01*
X-103179605Y-9500000D01*
X-102820395Y-9500000D01*
X-101847468Y-10472927D01*
X-101580613Y-10374264D01*
X-101354092Y-9764539D01*
X-101378144Y-9114540D01*
X-101580613Y-8625736D01*
X-101847468Y-8527073D01*
X-102820395Y-9500000D01*
X-103179605Y-9500000D01*
X-104152532Y-8527073D01*
X-104419387Y-8625736D01*
X-104645908Y-9235461D01*
X-108365000Y-9235461D01*
X-108365000Y-8573690D01*
X-108424518Y-8430000D01*
X-108390333Y-8347468D01*
X-103972927Y-8347468D01*
X-103000000Y-9320395D01*
X-102027073Y-8347468D01*
X-102125736Y-8080613D01*
X-102735461Y-7854092D01*
X-103385460Y-7878144D01*
X-103874264Y-8080613D01*
X-103972927Y-8347468D01*
X-108390333Y-8347468D01*
X-108365000Y-8286310D01*
X-108365000Y-7445750D01*
X-108523750Y-7287000D01*
X-109873000Y-7287000D01*
X-110127000Y-7287000D01*
X-111476250Y-7287000D01*
X-111635000Y-7445750D01*
X-113873000Y-7445750D01*
X-113873000Y-4905750D01*
X-111635000Y-4905750D01*
X-111635000Y-5746310D01*
X-111575482Y-5890000D01*
X-111635000Y-6033690D01*
X-111635000Y-6874250D01*
X-111476250Y-7033000D01*
X-110127000Y-7033000D01*
X-110127000Y-4747000D01*
X-109873000Y-4747000D01*
X-109873000Y-7033000D01*
X-108523750Y-7033000D01*
X-108365000Y-6874250D01*
X-108365000Y-6033690D01*
X-108424518Y-5890000D01*
X-108365000Y-5746310D01*
X-108365000Y-4905750D01*
X-108523750Y-4747000D01*
X-109873000Y-4747000D01*
X-110127000Y-4747000D01*
X-111476250Y-4747000D01*
X-111635000Y-4905750D01*
X-113873000Y-4905750D01*
X-113873000Y-2365750D01*
X-111635000Y-2365750D01*
X-111635000Y-3206310D01*
X-111575482Y-3350000D01*
X-111635000Y-3493690D01*
X-111635000Y-4334250D01*
X-111476250Y-4493000D01*
X-110127000Y-4493000D01*
X-110127000Y-2207000D01*
X-109873000Y-2207000D01*
X-109873000Y-4493000D01*
X-108523750Y-4493000D01*
X-108365000Y-4334250D01*
X-108365000Y-3493690D01*
X-108424518Y-3350000D01*
X-108365000Y-3206310D01*
X-108365000Y-2365750D01*
X-108523750Y-2207000D01*
X-109873000Y-2207000D01*
X-110127000Y-2207000D01*
X-111476250Y-2207000D01*
X-111635000Y-2365750D01*
X-113873000Y-2365750D01*
X-113873000Y174250D01*
X-111635000Y174250D01*
X-111635000Y-666310D01*
X-111575482Y-810000D01*
X-111635000Y-953690D01*
X-111635000Y-1794250D01*
X-111476250Y-1953000D01*
X-110127000Y-1953000D01*
X-110127000Y333000D01*
X-109873000Y333000D01*
X-109873000Y-1953000D01*
X-108523750Y-1953000D01*
X-108365000Y-1794250D01*
X-108365000Y-953690D01*
X-108424518Y-810000D01*
X-108365000Y-666310D01*
X-108365000Y174250D01*
X-108523750Y333000D01*
X-109873000Y333000D01*
X-110127000Y333000D01*
X-111476250Y333000D01*
X-111635000Y174250D01*
X-113873000Y174250D01*
X-113873000Y3264539D01*
X-111645908Y3264539D01*
X-111621856Y2614540D01*
X-111419387Y2125736D01*
X-111225325Y2053986D01*
X-111359698Y1998327D01*
X-111538327Y1819699D01*
X-111635000Y1586310D01*
X-111635000Y745750D01*
X-111476250Y587000D01*
X-110127000Y587000D01*
X-110127000Y607000D01*
X-109873000Y607000D01*
X-109873000Y587000D01*
X-108523750Y587000D01*
X-108365000Y745750D01*
X-108365000Y1586310D01*
X-108461673Y1819699D01*
X-108640302Y1998327D01*
X-108774675Y2053986D01*
X-108580613Y2125736D01*
X-108354092Y2735461D01*
X-108378144Y3385460D01*
X-108580613Y3874264D01*
X-108847468Y3972927D01*
X-109820395Y3000000D01*
X-109806253Y2985858D01*
X-109985858Y2806253D01*
X-110000000Y2820395D01*
X-110014143Y2806253D01*
X-110193748Y2985858D01*
X-110179605Y3000000D01*
X-111152532Y3972927D01*
X-111419387Y3874264D01*
X-111645908Y3264539D01*
X-113873000Y3264539D01*
X-113873000Y4152532D01*
X-110972927Y4152532D01*
X-110000000Y3179605D01*
X-109027073Y4152532D01*
X-109125736Y4419387D01*
X-109735461Y4645908D01*
X-110385460Y4621856D01*
X-110874264Y4419387D01*
X-110972927Y4152532D01*
X-113873000Y4152532D01*
X-113873000Y8873000D01*
X-101127000Y8873000D01*
X-101127000Y-23873000D01*
X-101127000Y-23873000D01*
G37*
X-101127000Y-23873000D02*
X-113873000Y-23873000D01*
X-113873000Y-22906976D01*
X-113322503Y-23135000D01*
X-111677497Y-23135000D01*
X-110157711Y-22505483D01*
X-108994517Y-21342289D01*
X-108365000Y-19822503D01*
X-108365000Y-18177497D01*
X-108994517Y-16657711D01*
X-110157711Y-15494517D01*
X-111677497Y-14865000D01*
X-113322503Y-14865000D01*
X-113873000Y-15093024D01*
X-113873000Y-9985750D01*
X-111635000Y-9985750D01*
X-111635000Y-10826310D01*
X-111538327Y-11059699D01*
X-111359698Y-11238327D01*
X-111126309Y-11335000D01*
X-110285750Y-11335000D01*
X-110127000Y-11176250D01*
X-110127000Y-9827000D01*
X-109873000Y-9827000D01*
X-109873000Y-11176250D01*
X-109714250Y-11335000D01*
X-108873691Y-11335000D01*
X-108640302Y-11238327D01*
X-108461673Y-11059699D01*
X-108365000Y-10826310D01*
X-108365000Y-10652532D01*
X-103972927Y-10652532D01*
X-103874264Y-10919387D01*
X-103264539Y-11145908D01*
X-102614540Y-11121856D01*
X-102125736Y-10919387D01*
X-102027073Y-10652532D01*
X-103000000Y-9679605D01*
X-103972927Y-10652532D01*
X-108365000Y-10652532D01*
X-108365000Y-9985750D01*
X-108523750Y-9827000D01*
X-109873000Y-9827000D01*
X-110127000Y-9827000D01*
X-111476250Y-9827000D01*
X-111635000Y-9985750D01*
X-113873000Y-9985750D01*
X-113873000Y-7445750D01*
X-111635000Y-7445750D01*
X-111635000Y-8286310D01*
X-111575482Y-8430000D01*
X-111635000Y-8573690D01*
X-111635000Y-9414250D01*
X-111476250Y-9573000D01*
X-110127000Y-9573000D01*
X-110127000Y-7287000D01*
X-109873000Y-7287000D01*
X-109873000Y-9573000D01*
X-108523750Y-9573000D01*
X-108365000Y-9414250D01*
X-108365000Y-9235461D01*
X-104645908Y-9235461D01*
X-104621856Y-9885460D01*
X-104419387Y-10374264D01*
X-104152532Y-10472927D01*
X-103179605Y-9500000D01*
X-102820395Y-9500000D01*
X-101847468Y-10472927D01*
X-101580613Y-10374264D01*
X-101354092Y-9764539D01*
X-101378144Y-9114540D01*
X-101580613Y-8625736D01*
X-101847468Y-8527073D01*
X-102820395Y-9500000D01*
X-103179605Y-9500000D01*
X-104152532Y-8527073D01*
X-104419387Y-8625736D01*
X-104645908Y-9235461D01*
X-108365000Y-9235461D01*
X-108365000Y-8573690D01*
X-108424518Y-8430000D01*
X-108390333Y-8347468D01*
X-103972927Y-8347468D01*
X-103000000Y-9320395D01*
X-102027073Y-8347468D01*
X-102125736Y-8080613D01*
X-102735461Y-7854092D01*
X-103385460Y-7878144D01*
X-103874264Y-8080613D01*
X-103972927Y-8347468D01*
X-108390333Y-8347468D01*
X-108365000Y-8286310D01*
X-108365000Y-7445750D01*
X-108523750Y-7287000D01*
X-109873000Y-7287000D01*
X-110127000Y-7287000D01*
X-111476250Y-7287000D01*
X-111635000Y-7445750D01*
X-113873000Y-7445750D01*
X-113873000Y-4905750D01*
X-111635000Y-4905750D01*
X-111635000Y-5746310D01*
X-111575482Y-5890000D01*
X-111635000Y-6033690D01*
X-111635000Y-6874250D01*
X-111476250Y-7033000D01*
X-110127000Y-7033000D01*
X-110127000Y-4747000D01*
X-109873000Y-4747000D01*
X-109873000Y-7033000D01*
X-108523750Y-7033000D01*
X-108365000Y-6874250D01*
X-108365000Y-6033690D01*
X-108424518Y-5890000D01*
X-108365000Y-5746310D01*
X-108365000Y-4905750D01*
X-108523750Y-4747000D01*
X-109873000Y-4747000D01*
X-110127000Y-4747000D01*
X-111476250Y-4747000D01*
X-111635000Y-4905750D01*
X-113873000Y-4905750D01*
X-113873000Y-2365750D01*
X-111635000Y-2365750D01*
X-111635000Y-3206310D01*
X-111575482Y-3350000D01*
X-111635000Y-3493690D01*
X-111635000Y-4334250D01*
X-111476250Y-4493000D01*
X-110127000Y-4493000D01*
X-110127000Y-2207000D01*
X-109873000Y-2207000D01*
X-109873000Y-4493000D01*
X-108523750Y-4493000D01*
X-108365000Y-4334250D01*
X-108365000Y-3493690D01*
X-108424518Y-3350000D01*
X-108365000Y-3206310D01*
X-108365000Y-2365750D01*
X-108523750Y-2207000D01*
X-109873000Y-2207000D01*
X-110127000Y-2207000D01*
X-111476250Y-2207000D01*
X-111635000Y-2365750D01*
X-113873000Y-2365750D01*
X-113873000Y174250D01*
X-111635000Y174250D01*
X-111635000Y-666310D01*
X-111575482Y-810000D01*
X-111635000Y-953690D01*
X-111635000Y-1794250D01*
X-111476250Y-1953000D01*
X-110127000Y-1953000D01*
X-110127000Y333000D01*
X-109873000Y333000D01*
X-109873000Y-1953000D01*
X-108523750Y-1953000D01*
X-108365000Y-1794250D01*
X-108365000Y-953690D01*
X-108424518Y-810000D01*
X-108365000Y-666310D01*
X-108365000Y174250D01*
X-108523750Y333000D01*
X-109873000Y333000D01*
X-110127000Y333000D01*
X-111476250Y333000D01*
X-111635000Y174250D01*
X-113873000Y174250D01*
X-113873000Y3264539D01*
X-111645908Y3264539D01*
X-111621856Y2614540D01*
X-111419387Y2125736D01*
X-111225325Y2053986D01*
X-111359698Y1998327D01*
X-111538327Y1819699D01*
X-111635000Y1586310D01*
X-111635000Y745750D01*
X-111476250Y587000D01*
X-110127000Y587000D01*
X-110127000Y607000D01*
X-109873000Y607000D01*
X-109873000Y587000D01*
X-108523750Y587000D01*
X-108365000Y745750D01*
X-108365000Y1586310D01*
X-108461673Y1819699D01*
X-108640302Y1998327D01*
X-108774675Y2053986D01*
X-108580613Y2125736D01*
X-108354092Y2735461D01*
X-108378144Y3385460D01*
X-108580613Y3874264D01*
X-108847468Y3972927D01*
X-109820395Y3000000D01*
X-109806253Y2985858D01*
X-109985858Y2806253D01*
X-110000000Y2820395D01*
X-110014143Y2806253D01*
X-110193748Y2985858D01*
X-110179605Y3000000D01*
X-111152532Y3972927D01*
X-111419387Y3874264D01*
X-111645908Y3264539D01*
X-113873000Y3264539D01*
X-113873000Y4152532D01*
X-110972927Y4152532D01*
X-110000000Y3179605D01*
X-109027073Y4152532D01*
X-109125736Y4419387D01*
X-109735461Y4645908D01*
X-110385460Y4621856D01*
X-110874264Y4419387D01*
X-110972927Y4152532D01*
X-113873000Y4152532D01*
X-113873000Y8873000D01*
X-101127000Y8873000D01*
X-101127000Y-23873000D01*
G04 #@! TD*
M02*
