M48
;DRILL file {KiCad (5.0.0)} date 01/30/19 09:12:53
;FORMAT={3:3/ absolute / metric / keep zeros}
FMAT,2
METRIC,TZ
T1C0.400
T2C1.000
T3C1.200
T4C3.400
%
G90
G05
M71
T1
X-191500Y004000
X-179000Y-076500
X-179000Y-086000
X-177000Y-022500
X-177000Y-025000
X-176500Y-076500
X-176000Y-065000
X-173725Y-000661
X-173500Y-086000
X-173000Y003500
X-172500Y-062000
X-168000Y-056500
X-163000Y-043500
X-163000Y-067000
X-159500Y-043000
X-158000Y-088000
X-157237Y-046737
X-157000Y-043000
T2
X-191000Y-076000
X-191000Y-081500
X-188540Y-067500
X-186000Y-067500
X-183460Y-067500
X-180920Y-067500
T3
X-103000Y-030500
X-145000Y-063000
X-145000Y-065540
X-145000Y-068080
X-145000Y-070620
X-145000Y-073160
X-145000Y-075700
X-145000Y-078240
X-145000Y-080780
X-110000Y-060000
X-110000Y-062540
X-110000Y-065080
X-110000Y-067620
X-110000Y-070160
X-110000Y-072700
X-196500Y-000500
X-103000Y-009500
X-196500Y002000
X-145000Y000000
X-145000Y-002540
X-145000Y-005080
X-145000Y-007620
X-145000Y-010160
X-145000Y-012700
X-145000Y-015240
X-145000Y-017780
X-110000Y003000
X-110000Y000460
X-110000Y-002080
X-110000Y-004620
X-110000Y-007160
X-110000Y-009700
X-170000Y-072000
X-170000Y-079500
X-167500Y-072000
X-167500Y-079500
X-165000Y-072000
X-165000Y-079500
X-162500Y-072000
X-162500Y-079500
X-160000Y-072000
X-160000Y-079500
X-157500Y-072000
X-157500Y-079500
X-155000Y-072000
X-155000Y-079500
X-152500Y-072000
X-152500Y-079500
X-145000Y-031500
X-145000Y-034040
X-145000Y-036580
X-145000Y-039120
X-145000Y-041660
X-145000Y-044200
X-145000Y-046740
X-145000Y-049280
X-110000Y-028500
X-110000Y-031040
X-110000Y-033580
X-110000Y-036120
X-110000Y-038660
X-110000Y-041200
X-195500Y-048000
X-191000Y-012140
X-191000Y-014680
X-191000Y-017220
X-191000Y-019760
X-191000Y-022300
X-191000Y-024840
X-191000Y-027380
X-191000Y-029920
X-191000Y-032460
X-191000Y-035000
X-170000Y-012140
X-170000Y-014680
X-170000Y-017220
X-170000Y-019760
X-170000Y-022300
X-170000Y-024840
X-170000Y-027380
X-170000Y-029920
X-170000Y-032460
X-170000Y-035000
X-197000Y-022000
X-196500Y-003000
X-169980Y-053711
X-169980Y-061211
X-167480Y-053711
X-167480Y-061211
X-164980Y-053711
X-164980Y-061211
X-162480Y-053711
X-162480Y-061211
X-159980Y-053711
X-159980Y-061211
X-157480Y-053711
X-157480Y-061211
X-154980Y-053711
X-154980Y-061211
X-152480Y-053711
X-152480Y-061211
X-195500Y-045000
X-103000Y-073000
X-196500Y-005500
T4
X-112500Y-082000
X-112500Y-019000
X-112500Y-050500
T0
M30
