G04 #@! TF.GenerationSoftware,KiCad,Pcbnew,(5.0.0)*
G04 #@! TF.CreationDate,2019-01-30T09:12:48+03:00*
G04 #@! TF.ProjectId,invertor,696E766572746F722E6B696361645F70,rev?*
G04 #@! TF.SameCoordinates,Original*
G04 #@! TF.FileFunction,Copper,L2,Bot,Signal*
G04 #@! TF.FilePolarity,Positive*
%FSLAX46Y46*%
G04 Gerber Fmt 4.6, Leading zero omitted, Abs format (unit mm)*
G04 Created by KiCad (PCBNEW (5.0.0)) date 01/30/19 09:12:48*
%MOMM*%
%LPD*%
G01*
G04 APERTURE LIST*
G04 #@! TA.AperFunction,ComponentPad*
%ADD10R,2.000000X2.000000*%
G04 #@! TD*
G04 #@! TA.AperFunction,ComponentPad*
%ADD11C,2.000000*%
G04 #@! TD*
G04 #@! TA.AperFunction,ComponentPad*
%ADD12C,7.000000*%
G04 #@! TD*
G04 #@! TA.AperFunction,SMDPad,CuDef*
%ADD13R,1.500000X4.000000*%
G04 #@! TD*
G04 #@! TA.AperFunction,ComponentPad*
%ADD14R,1.700000X1.700000*%
G04 #@! TD*
G04 #@! TA.AperFunction,ComponentPad*
%ADD15R,2.000000X4.000000*%
G04 #@! TD*
G04 #@! TA.AperFunction,ComponentPad*
%ADD16O,2.000000X4.000000*%
G04 #@! TD*
G04 #@! TA.AperFunction,SMDPad,CuDef*
%ADD17R,1.000000X1.500000*%
G04 #@! TD*
G04 #@! TA.AperFunction,SMDPad,CuDef*
%ADD18R,3.000000X1.000000*%
G04 #@! TD*
G04 #@! TA.AperFunction,ViaPad*
%ADD19C,0.800000*%
G04 #@! TD*
G04 #@! TA.AperFunction,Conductor*
%ADD20C,0.250000*%
G04 #@! TD*
G04 #@! TA.AperFunction,Conductor*
%ADD21C,0.254000*%
G04 #@! TD*
G04 APERTURE END LIST*
D10*
G04 #@! TO.P,A2,10*
G04 #@! TO.N,Net-(A2-Pad10)*
X-110000000Y460000D03*
G04 #@! TO.P,A2,12*
X-110000000Y-4620000D03*
G04 #@! TO.P,A2,14*
X-110000000Y-9700000D03*
G04 #@! TO.P,A2,13*
X-110000000Y-7160000D03*
G04 #@! TO.P,A2,11*
X-110000000Y-2080000D03*
D11*
G04 #@! TO.P,A2,9*
X-110000000Y3000000D03*
D12*
G04 #@! TO.P,A2,*
G04 #@! TO.N,*
X-112500000Y-19000000D03*
D10*
G04 #@! TO.P,A2,8*
G04 #@! TO.N,0dc*
X-145000000Y-17780000D03*
G04 #@! TO.P,A2,7*
X-145000000Y-15240000D03*
G04 #@! TO.P,A2,6*
X-145000000Y-12700000D03*
G04 #@! TO.P,A2,5*
G04 #@! TO.N,Net-(A2-Pad5)*
X-145000000Y-10160000D03*
G04 #@! TO.P,A2,4*
G04 #@! TO.N,Net-(A2-Pad4)*
X-145000000Y-7620000D03*
G04 #@! TO.P,A2,3*
G04 #@! TO.N,12dc*
X-145000000Y-5080000D03*
G04 #@! TO.P,A2,2*
X-145000000Y-2540000D03*
D11*
G04 #@! TO.P,A2,1*
X-145000000Y0D03*
G04 #@! TD*
D10*
G04 #@! TO.P,A3,10*
G04 #@! TO.N,Net-(A3-Pad10)*
X-110000000Y-31040000D03*
G04 #@! TO.P,A3,12*
X-110000000Y-36120000D03*
G04 #@! TO.P,A3,14*
X-110000000Y-41200000D03*
G04 #@! TO.P,A3,13*
X-110000000Y-38660000D03*
G04 #@! TO.P,A3,11*
X-110000000Y-33580000D03*
D11*
G04 #@! TO.P,A3,9*
X-110000000Y-28500000D03*
D12*
G04 #@! TO.P,A3,*
G04 #@! TO.N,*
X-112500000Y-50500000D03*
D10*
G04 #@! TO.P,A3,8*
G04 #@! TO.N,0dc*
X-145000000Y-49280000D03*
G04 #@! TO.P,A3,7*
X-145000000Y-46740000D03*
G04 #@! TO.P,A3,6*
X-145000000Y-44200000D03*
G04 #@! TO.P,A3,5*
G04 #@! TO.N,Net-(A3-Pad5)*
X-145000000Y-41660000D03*
G04 #@! TO.P,A3,4*
G04 #@! TO.N,Net-(A3-Pad4)*
X-145000000Y-39120000D03*
G04 #@! TO.P,A3,3*
G04 #@! TO.N,12dc*
X-145000000Y-36580000D03*
G04 #@! TO.P,A3,2*
X-145000000Y-34040000D03*
D11*
G04 #@! TO.P,A3,1*
X-145000000Y-31500000D03*
G04 #@! TD*
D10*
G04 #@! TO.P,A4,10*
G04 #@! TO.N,Net-(A4-Pad10)*
X-110000000Y-62540000D03*
G04 #@! TO.P,A4,12*
X-110000000Y-67620000D03*
G04 #@! TO.P,A4,14*
X-110000000Y-72700000D03*
G04 #@! TO.P,A4,13*
X-110000000Y-70160000D03*
G04 #@! TO.P,A4,11*
X-110000000Y-65080000D03*
D11*
G04 #@! TO.P,A4,9*
X-110000000Y-60000000D03*
D12*
G04 #@! TO.P,A4,*
G04 #@! TO.N,*
X-112500000Y-82000000D03*
D10*
G04 #@! TO.P,A4,8*
G04 #@! TO.N,0dc*
X-145000000Y-80780000D03*
G04 #@! TO.P,A4,7*
X-145000000Y-78240000D03*
G04 #@! TO.P,A4,6*
X-145000000Y-75700000D03*
G04 #@! TO.P,A4,5*
G04 #@! TO.N,Net-(A4-Pad5)*
X-145000000Y-73160000D03*
G04 #@! TO.P,A4,4*
G04 #@! TO.N,Net-(A4-Pad4)*
X-145000000Y-70620000D03*
G04 #@! TO.P,A4,3*
G04 #@! TO.N,12dc*
X-145000000Y-68080000D03*
G04 #@! TO.P,A4,2*
X-145000000Y-65540000D03*
D11*
G04 #@! TO.P,A4,1*
X-145000000Y-63000000D03*
G04 #@! TD*
G04 #@! TO.P,A1,1*
G04 #@! TO.N,K1*
X-170000000Y-35000000D03*
G04 #@! TO.P,A1,11*
G04 #@! TO.N,Net-(A1-Pad11)*
X-191000000Y-35000000D03*
D10*
G04 #@! TO.P,A1,2*
G04 #@! TO.N,K2*
X-170000000Y-32460000D03*
G04 #@! TO.P,A1,3*
G04 #@! TO.N,K3*
X-170000000Y-29920000D03*
G04 #@! TO.P,A1,4*
G04 #@! TO.N,K4*
X-170000000Y-27380000D03*
G04 #@! TO.P,A1,5*
G04 #@! TO.N,K5*
X-170000000Y-24840000D03*
G04 #@! TO.P,A1,6*
G04 #@! TO.N,K6*
X-170000000Y-22300000D03*
G04 #@! TO.P,A1,7*
G04 #@! TO.N,Net-(A1-Pad7)*
X-170000000Y-19760000D03*
G04 #@! TO.P,A1,8*
G04 #@! TO.N,Net-(A1-Pad8)*
X-170000000Y-17220000D03*
G04 #@! TO.P,A1,9*
G04 #@! TO.N,vcc*
X-170000000Y-14680000D03*
G04 #@! TO.P,A1,10*
G04 #@! TO.N,0dc*
X-170000000Y-12140000D03*
G04 #@! TO.P,A1,13*
X-191000000Y-29920000D03*
G04 #@! TO.P,A1,12*
G04 #@! TO.N,Net-(A1-Pad12)*
X-191000000Y-32460000D03*
G04 #@! TO.P,A1,16*
G04 #@! TO.N,en*
X-191000000Y-22300000D03*
G04 #@! TO.P,A1,18*
G04 #@! TO.N,0dc*
X-191000000Y-17220000D03*
G04 #@! TO.P,A1,17*
G04 #@! TO.N,vcc*
X-191000000Y-19760000D03*
G04 #@! TO.P,A1,15*
G04 #@! TO.N,Net-(A1-Pad15)*
X-191000000Y-24840000D03*
G04 #@! TO.P,A1,20*
G04 #@! TO.N,rx*
X-191000000Y-12140000D03*
G04 #@! TO.P,A1,14*
G04 #@! TO.N,Net-(A1-Pad14)*
X-191000000Y-27380000D03*
G04 #@! TO.P,A1,19*
G04 #@! TO.N,tx*
X-191000000Y-14680000D03*
G04 #@! TD*
D13*
G04 #@! TO.P,C1,1*
G04 #@! TO.N,12dc*
X-189000000Y-62500000D03*
G04 #@! TO.P,C1,2*
G04 #@! TO.N,Net-(C1-Pad2)*
X-184500000Y-62500000D03*
G04 #@! TD*
D11*
G04 #@! TO.P,DA1,1*
G04 #@! TO.N,Net-(A1-Pad14)*
X-170000000Y-79500000D03*
D10*
G04 #@! TO.P,DA1,2*
G04 #@! TO.N,K5*
X-167500000Y-79500000D03*
G04 #@! TO.P,DA1,3*
G04 #@! TO.N,Net-(A4-Pad4)*
X-165000000Y-79500000D03*
G04 #@! TO.P,DA1,4*
G04 #@! TO.N,0dc*
X-162500000Y-79500000D03*
G04 #@! TO.P,DA1,5*
X-160000000Y-79500000D03*
G04 #@! TO.P,DA1,6*
G04 #@! TO.N,Net-(A4-Pad5)*
X-157500000Y-79500000D03*
G04 #@! TO.P,DA1,7*
G04 #@! TO.N,K6*
X-155000000Y-79500000D03*
G04 #@! TO.P,DA1,8*
G04 #@! TO.N,12dc*
X-152500000Y-79500000D03*
G04 #@! TO.P,DA1,16*
G04 #@! TO.N,vcc*
X-170000000Y-72000000D03*
G04 #@! TO.P,DA1,15*
G04 #@! TO.N,Net-(DA1-Pad15)*
X-167500000Y-72000000D03*
G04 #@! TO.P,DA1,14*
G04 #@! TO.N,Net-(DA1-Pad14)*
X-165000000Y-72000000D03*
G04 #@! TO.P,DA1,13*
G04 #@! TO.N,0dc*
X-162500000Y-72000000D03*
G04 #@! TO.P,DA1,12*
X-160000000Y-72000000D03*
G04 #@! TO.P,DA1,11*
G04 #@! TO.N,Net-(DA1-Pad11)*
X-157500000Y-72000000D03*
G04 #@! TO.P,DA1,10*
G04 #@! TO.N,Net-(DA1-Pad10)*
X-155000000Y-72000000D03*
G04 #@! TO.P,DA1,9*
G04 #@! TO.N,Net-(DA1-Pad9)*
X-152500000Y-72000000D03*
G04 #@! TD*
G04 #@! TO.P,DA2,9*
G04 #@! TO.N,Net-(A1-Pad7)*
X-152480344Y-53711173D03*
G04 #@! TO.P,DA2,10*
G04 #@! TO.N,K3*
X-154980344Y-53711173D03*
G04 #@! TO.P,DA2,11*
G04 #@! TO.N,Net-(A3-Pad4)*
X-157480344Y-53711173D03*
G04 #@! TO.P,DA2,12*
G04 #@! TO.N,0dc*
X-159980344Y-53711173D03*
G04 #@! TO.P,DA2,13*
X-162480344Y-53711173D03*
G04 #@! TO.P,DA2,14*
G04 #@! TO.N,Net-(A3-Pad5)*
X-164980344Y-53711173D03*
G04 #@! TO.P,DA2,15*
G04 #@! TO.N,K4*
X-167480344Y-53711173D03*
G04 #@! TO.P,DA2,16*
G04 #@! TO.N,vcc*
X-169980344Y-53711173D03*
G04 #@! TO.P,DA2,8*
G04 #@! TO.N,12dc*
X-152480344Y-61211173D03*
G04 #@! TO.P,DA2,7*
G04 #@! TO.N,K2*
X-154980344Y-61211173D03*
G04 #@! TO.P,DA2,6*
G04 #@! TO.N,Net-(A2-Pad5)*
X-157480344Y-61211173D03*
G04 #@! TO.P,DA2,5*
G04 #@! TO.N,0dc*
X-159980344Y-61211173D03*
G04 #@! TO.P,DA2,4*
X-162480344Y-61211173D03*
G04 #@! TO.P,DA2,3*
G04 #@! TO.N,Net-(A2-Pad4)*
X-164980344Y-61211173D03*
G04 #@! TO.P,DA2,2*
G04 #@! TO.N,K1*
X-167480344Y-61211173D03*
D11*
G04 #@! TO.P,DA2,1*
G04 #@! TO.N,Net-(A1-Pad8)*
X-169980344Y-61211173D03*
G04 #@! TD*
D14*
G04 #@! TO.P,FU1,2*
G04 #@! TO.N,12dc*
X-191000000Y-76000000D03*
G04 #@! TO.P,FU1,1*
G04 #@! TO.N,Net-(FU1-Pad1)*
X-191000000Y-81500000D03*
G04 #@! TD*
D15*
G04 #@! TO.P,G1,4*
G04 #@! TO.N,0dc*
X-180920000Y-68000000D03*
G04 #@! TO.P,G1,3*
G04 #@! TO.N,Vcc*
X-183460000Y-68000000D03*
G04 #@! TO.P,G1,2*
G04 #@! TO.N,Net-(C1-Pad2)*
X-186000000Y-68000000D03*
D16*
G04 #@! TO.P,G1,1*
G04 #@! TO.N,12dc*
X-188540000Y-68000000D03*
G04 #@! TD*
D17*
G04 #@! TO.P,R7,2*
G04 #@! TO.N,Net-(DD1-Pad4)*
X-186000000Y-15000000D03*
G04 #@! TO.P,R7,1*
G04 #@! TO.N,tx*
X-188000000Y-15000000D03*
G04 #@! TD*
G04 #@! TO.P,R8,1*
G04 #@! TO.N,Net-(DD1-Pad1)*
X-186000000Y-12000000D03*
G04 #@! TO.P,R8,2*
G04 #@! TO.N,rx*
X-188000000Y-12000000D03*
G04 #@! TD*
D11*
G04 #@! TO.P,X1,1*
G04 #@! TO.N,Net-(FU1-Pad1)*
X-195500000Y-48000000D03*
G04 #@! TD*
G04 #@! TO.P,X2,1*
G04 #@! TO.N,Net-(C1-Pad2)*
X-195500000Y-45000000D03*
G04 #@! TD*
G04 #@! TO.P,X3,1*
G04 #@! TO.N,Net-(A2-Pad10)*
X-103000000Y-9500000D03*
G04 #@! TD*
G04 #@! TO.P,X4,1*
G04 #@! TO.N,Net-(A3-Pad10)*
X-103000000Y-30500000D03*
G04 #@! TD*
G04 #@! TO.P,X5,1*
G04 #@! TO.N,Net-(A4-Pad10)*
X-103000000Y-73000000D03*
G04 #@! TD*
G04 #@! TO.P,X6,1*
G04 #@! TO.N,Net-(DD1-Pad6)*
X-196500000Y2000000D03*
G04 #@! TD*
G04 #@! TO.P,X7,1*
G04 #@! TO.N,Net-(DD1-Pad7)*
X-196500000Y-500000D03*
G04 #@! TD*
G04 #@! TO.P,X8,1*
G04 #@! TO.N,vcc*
X-196500000Y-3000000D03*
G04 #@! TD*
G04 #@! TO.P,X10,1*
G04 #@! TO.N,Net-(A1-Pad15)*
X-197000000Y-22000000D03*
G04 #@! TD*
G04 #@! TO.P,X9,1*
G04 #@! TO.N,gnd*
X-196500000Y-5500000D03*
G04 #@! TD*
D18*
G04 #@! TO.P,R1,1*
G04 #@! TO.N,Net-(A2-Pad4)*
X-171000000Y-69000000D03*
G04 #@! TO.P,R1,2*
G04 #@! TO.N,Net-(HL1-Pad1)*
X-171000000Y-64000000D03*
G04 #@! TD*
G04 #@! TO.P,R2,2*
G04 #@! TO.N,Net-(HL2-Pad1)*
X-160500000Y-63500000D03*
G04 #@! TO.P,R2,1*
G04 #@! TO.N,Net-(A2-Pad5)*
X-160500000Y-68500000D03*
G04 #@! TD*
G04 #@! TO.P,R3,1*
G04 #@! TO.N,Net-(A4-Pad5)*
X-179000000Y-84000000D03*
G04 #@! TO.P,R3,2*
G04 #@! TO.N,Net-(HL3-Pad1)*
X-179000000Y-79000000D03*
G04 #@! TD*
G04 #@! TO.P,R4,2*
G04 #@! TO.N,Net-(HL4-Pad1)*
X-173500000Y-79000000D03*
G04 #@! TO.P,R4,1*
G04 #@! TO.N,Net-(A4-Pad4)*
X-173500000Y-84000000D03*
G04 #@! TD*
G04 #@! TO.P,R5,2*
G04 #@! TO.N,Net-(HL5-Pad1)*
X-159500000Y-45500000D03*
G04 #@! TO.P,R5,1*
G04 #@! TO.N,Net-(A3-Pad4)*
X-159500000Y-50500000D03*
G04 #@! TD*
G04 #@! TO.P,R6,1*
G04 #@! TO.N,Net-(A3-Pad5)*
X-163000000Y-50500000D03*
G04 #@! TO.P,R6,2*
G04 #@! TO.N,Net-(HL6-Pad1)*
X-163000000Y-45500000D03*
G04 #@! TD*
D19*
G04 #@! TO.N,K1*
X-168000000Y-56500000D03*
G04 #@! TO.N,K3*
X-157000000Y-43000000D03*
G04 #@! TO.N,K5*
X-177000000Y-25000000D03*
G04 #@! TO.N,K6*
X-177000000Y-22500000D03*
X-176000000Y-65000000D03*
G04 #@! TO.N,0dc*
X-191500000Y4000000D03*
X-179000000Y-86000000D03*
X-173500000Y-86000000D03*
G04 #@! TO.N,Net-(A3-Pad4)*
X-157237340Y-46737340D03*
G04 #@! TO.N,Net-(A4-Pad5)*
X-158000000Y-88000000D03*
G04 #@! TO.N,Net-(DD1-Pad1)*
X-173725010Y-661148D03*
G04 #@! TO.N,Net-(DD1-Pad4)*
X-173000000Y3500000D03*
G04 #@! TO.N,Net-(HL1-Pad1)*
X-172500000Y-62000000D03*
G04 #@! TO.N,Net-(HL2-Pad1)*
X-163000000Y-67000000D03*
G04 #@! TO.N,Net-(HL3-Pad1)*
X-179000000Y-76500000D03*
G04 #@! TO.N,Net-(HL4-Pad1)*
X-176500000Y-76500000D03*
G04 #@! TO.N,Net-(HL5-Pad1)*
X-159500000Y-43000000D03*
G04 #@! TO.N,Net-(HL6-Pad1)*
X-163000000Y-43500000D03*
G04 #@! TD*
D20*
G04 #@! TO.N,K1*
X-173000000Y-38000000D02*
X-173000000Y-53912930D01*
X-168565685Y-56500000D02*
X-168000000Y-56500000D01*
X-170000000Y-35000000D02*
X-173000000Y-38000000D01*
X-170412930Y-56500000D02*
X-168565685Y-56500000D01*
X-173000000Y-53912930D02*
X-170412930Y-56500000D01*
G04 #@! TO.N,K3*
X-154980344Y-45019656D02*
X-154980344Y-53711173D01*
X-157000000Y-43000000D02*
X-154980344Y-45019656D01*
G04 #@! TO.N,K5*
X-167500000Y-79500000D02*
X-167500000Y-77721413D01*
X-167500000Y-77721413D02*
X-177000000Y-68221413D01*
X-177000000Y-25565685D02*
X-177000000Y-25000000D01*
X-177000000Y-68221413D02*
X-177000000Y-25565685D01*
G04 #@! TO.N,K6*
X-176000000Y-23500000D02*
X-177000000Y-22500000D01*
X-176000000Y-68585002D02*
X-176000000Y-65000000D01*
X-176000000Y-65000000D02*
X-176000000Y-23500000D01*
G04 #@! TO.N,Net-(A1-Pad7)*
X-152480344Y-54961173D02*
X-153019171Y-55500000D01*
X-152480344Y-53711173D02*
X-152480344Y-54961173D01*
X-171305345Y-54971174D02*
X-171305345Y-39805345D01*
X-170776519Y-55500000D02*
X-171305345Y-54971174D01*
X-153019171Y-55500000D02*
X-170776519Y-55500000D01*
X-171305345Y-39805345D02*
X-166500000Y-35000000D01*
X-166500000Y-35000000D02*
X-166500000Y-20500000D01*
X-167240000Y-19760000D02*
X-170000000Y-19760000D01*
X-166500000Y-20500000D02*
X-167240000Y-19760000D01*
G04 #@! TO.N,Net-(A1-Pad8)*
X-171250000Y-17220000D02*
X-175000000Y-20970000D01*
X-170000000Y-17220000D02*
X-171250000Y-17220000D01*
X-175000000Y-56191517D02*
X-169980344Y-61211173D01*
X-175000000Y-20970000D02*
X-175000000Y-56191517D01*
G04 #@! TO.N,vcc*
X-196500000Y-3000000D02*
X-194000000Y-3000000D01*
X-194000000Y-3000000D02*
X-193500000Y-3500000D01*
X-193500000Y-3500000D02*
X-193500000Y-19500000D01*
X-193240000Y-19760000D02*
X-191000000Y-19760000D01*
X-193500000Y-19500000D02*
X-193240000Y-19760000D01*
X-191000000Y-19760000D02*
X-181260000Y-19760000D01*
X-176180000Y-14680000D02*
X-170000000Y-14680000D01*
X-181260000Y-19760000D02*
X-176180000Y-14680000D01*
G04 #@! TO.N,Net-(A1-Pad15)*
X-194160000Y-24840000D02*
X-191000000Y-24840000D01*
X-196500000Y-22500000D02*
X-194160000Y-24840000D01*
G04 #@! TO.N,rx*
X-188140000Y-12140000D02*
X-188000000Y-12000000D01*
X-191000000Y-12140000D02*
X-188140000Y-12140000D01*
G04 #@! TO.N,Net-(A1-Pad14)*
X-184620000Y-27380000D02*
X-191000000Y-27380000D01*
X-178000000Y-34000000D02*
X-184620000Y-27380000D01*
X-170000000Y-79500000D02*
X-178000000Y-71500000D01*
X-178000000Y-71500000D02*
X-178000000Y-34000000D01*
G04 #@! TO.N,tx*
X-188320000Y-14680000D02*
X-188000000Y-15000000D01*
X-191000000Y-14680000D02*
X-188320000Y-14680000D01*
G04 #@! TO.N,12dc*
X-189000000Y-67040000D02*
X-188540000Y-67500000D01*
X-189000000Y-62500000D02*
X-189000000Y-67040000D01*
X-190000000Y-67500000D02*
X-188540000Y-67500000D01*
X-191000000Y-76000000D02*
X-191000000Y-68500000D01*
X-191000000Y-68500000D02*
X-190000000Y-67500000D01*
G04 #@! TO.N,Net-(A2-Pad4)*
X-164980344Y-64211173D02*
X-164980344Y-61211173D01*
X-164980344Y-68019656D02*
X-164980344Y-61211173D01*
X-165019656Y-68019656D02*
X-164980344Y-68019656D01*
X-166000000Y-69000000D02*
X-165019656Y-68019656D01*
X-171000000Y-69000000D02*
X-166000000Y-69000000D01*
X-141880000Y-7620000D02*
X-145000000Y-7620000D01*
X-139500000Y-10000000D02*
X-141880000Y-7620000D01*
X-142500000Y-61000000D02*
X-139500000Y-58000000D01*
X-164980344Y-68019656D02*
X-162500000Y-70500000D01*
X-162500000Y-70500000D02*
X-149000000Y-70500000D01*
X-149000000Y-70500000D02*
X-147500000Y-69000000D01*
X-147500000Y-69000000D02*
X-147500000Y-62000000D01*
X-147500000Y-62000000D02*
X-146500000Y-61000000D01*
X-139500000Y-58000000D02*
X-139500000Y-10000000D01*
X-146500000Y-61000000D02*
X-142500000Y-61000000D01*
G04 #@! TO.N,Net-(A2-Pad5)*
X-157480344Y-64000000D02*
X-157480344Y-61211173D01*
X-157480344Y-64730344D02*
X-157480344Y-62461173D01*
X-143750000Y-10160000D02*
X-145000000Y-10160000D01*
X-141000000Y-12910000D02*
X-143750000Y-10160000D01*
X-141000000Y-57500000D02*
X-141000000Y-12910000D01*
X-157480344Y-61211173D02*
X-157480344Y-65019656D01*
X-157480344Y-65019656D02*
X-156500000Y-66000000D01*
X-156500000Y-66000000D02*
X-152136410Y-66000000D01*
X-152136410Y-66000000D02*
X-146500000Y-60363590D01*
X-146500000Y-60363590D02*
X-143863590Y-60363590D01*
X-143863590Y-60363590D02*
X-141000000Y-57500000D01*
X-157480344Y-62461173D02*
X-157480344Y-61211173D01*
X-157480344Y-67230344D02*
X-157480344Y-62461173D01*
X-158750000Y-68500000D02*
X-157480344Y-67230344D01*
X-160500000Y-68500000D02*
X-158750000Y-68500000D01*
G04 #@! TO.N,Net-(A3-Pad4)*
X-157500000Y-47000000D02*
X-157237340Y-46737340D01*
X-157500000Y-49000000D02*
X-157500000Y-47000000D01*
X-157480344Y-51019656D02*
X-157500000Y-51000000D01*
X-157480344Y-53711173D02*
X-157480344Y-51019656D01*
X-157237340Y-46776652D02*
X-157237340Y-46737340D01*
X-157480344Y-47019656D02*
X-157237340Y-46776652D01*
X-157980344Y-50500000D02*
X-157480344Y-51000000D01*
X-159500000Y-50500000D02*
X-157980344Y-50500000D01*
X-157480344Y-53711173D02*
X-157480344Y-51000000D01*
X-157980344Y-50500000D02*
X-157480344Y-50000000D01*
X-157480344Y-50000000D02*
X-157480344Y-47019656D01*
G04 #@! TO.N,Net-(A3-Pad5)*
X-164980344Y-53711173D02*
X-164980344Y-52461173D01*
X-163000000Y-50500000D02*
X-164480344Y-50500000D01*
X-164980344Y-52461173D02*
X-166000000Y-51441517D01*
X-166000000Y-51441517D02*
X-166000000Y-51000000D01*
X-165500000Y-50500000D02*
X-163000000Y-50500000D01*
X-166000000Y-51000000D02*
X-165500000Y-50500000D01*
X-166000000Y-50000000D02*
X-165500000Y-50500000D01*
X-166000000Y-44000000D02*
X-166000000Y-50000000D01*
X-163660000Y-41660000D02*
X-166000000Y-44000000D01*
X-145000000Y-41660000D02*
X-163660000Y-41660000D01*
G04 #@! TO.N,Net-(A4-Pad4)*
X-165000000Y-85750000D02*
X-165000000Y-85000000D01*
X-164250000Y-86500000D02*
X-165000000Y-85750000D01*
X-146500000Y-86500000D02*
X-164250000Y-86500000D01*
X-165000000Y-83000000D02*
X-165000000Y-82500000D01*
X-145000000Y-70620000D02*
X-142380000Y-70620000D01*
X-165000000Y-82500000D02*
X-165000000Y-79500000D01*
X-142380000Y-70620000D02*
X-141500000Y-71500000D01*
X-141500000Y-71500000D02*
X-141500000Y-81500000D01*
X-141500000Y-81500000D02*
X-146500000Y-86500000D01*
X-173500000Y-84000000D02*
X-166000000Y-84000000D01*
X-165000000Y-83000000D02*
X-165000000Y-79500000D01*
X-166000000Y-84000000D02*
X-165000000Y-83000000D01*
X-166000000Y-84000000D02*
X-165000000Y-85000000D01*
G04 #@! TO.N,Net-(A4-Pad5)*
X-146000000Y-85000000D02*
X-142500000Y-81500000D01*
X-142500000Y-81500000D02*
X-142500000Y-73500000D01*
X-142840000Y-73160000D02*
X-145000000Y-73160000D01*
X-142500000Y-73500000D02*
X-142840000Y-73160000D01*
X-157500000Y-82500000D02*
X-157500000Y-84500000D01*
X-157500000Y-83000000D02*
X-157500000Y-82500000D01*
X-157500000Y-82500000D02*
X-157500000Y-79500000D01*
X-157500000Y-84500000D02*
X-157000000Y-85000000D01*
X-157000000Y-85000000D02*
X-156500000Y-85000000D01*
X-156500000Y-85000000D02*
X-146000000Y-85000000D01*
X-174000000Y-88000000D02*
X-158000000Y-88000000D01*
X-179000000Y-84000000D02*
X-178000000Y-84000000D01*
X-178000000Y-84000000D02*
X-174000000Y-88000000D01*
G04 #@! TO.N,Net-(DD1-Pad1)*
X-185063862Y-12000000D02*
X-174125009Y-1061147D01*
X-174125009Y-1061147D02*
X-173725010Y-661148D01*
X-186000000Y-12000000D02*
X-185063862Y-12000000D01*
G04 #@! TO.N,Net-(DD1-Pad4)*
X-186000000Y-15000000D02*
X-182000000Y-15000000D01*
X-182000000Y-15000000D02*
X-171500000Y-4500000D01*
X-171500000Y-4500000D02*
X-171500000Y2000000D01*
X-171500000Y2000000D02*
X-173000000Y3500000D01*
G04 #@! TO.N,Net-(FU1-Pad1)*
X-195500000Y-48000000D02*
X-195500000Y-79500000D01*
X-193500000Y-81500000D02*
X-191000000Y-81500000D01*
X-195500000Y-79500000D02*
X-193500000Y-81500000D01*
G04 #@! TO.N,Net-(C1-Pad2)*
X-194085787Y-45000000D02*
X-184500000Y-54585787D01*
X-195500000Y-45000000D02*
X-194085787Y-45000000D01*
X-184500000Y-54585787D02*
X-184500000Y-62500000D01*
X-184500000Y-63750000D02*
X-184500000Y-62500000D01*
X-186000000Y-65250000D02*
X-184500000Y-63750000D01*
X-186000000Y-67500000D02*
X-186000000Y-65250000D01*
G04 #@! TO.N,Net-(HL1-Pad1)*
X-172250000Y-62000000D02*
X-172500000Y-62000000D01*
X-171000000Y-64000000D02*
X-171000000Y-63250000D01*
X-171000000Y-63250000D02*
X-172250000Y-62000000D01*
G04 #@! TO.N,Net-(HL2-Pad1)*
X-163000000Y-67000000D02*
X-161000000Y-67000000D01*
X-162250000Y-63500000D02*
X-163000000Y-64250000D01*
X-160500000Y-63500000D02*
X-162250000Y-63500000D01*
X-163000000Y-64250000D02*
X-163000000Y-67000000D01*
G04 #@! TO.N,Net-(HL3-Pad1)*
X-179000000Y-76500000D02*
X-179000000Y-78500000D01*
G04 #@! TO.N,Net-(HL4-Pad1)*
X-175934315Y-76500000D02*
X-176500000Y-76500000D01*
X-175250000Y-76500000D02*
X-175934315Y-76500000D01*
X-173500000Y-78250000D02*
X-175250000Y-76500000D01*
X-173500000Y-79000000D02*
X-173500000Y-78250000D01*
G04 #@! TO.N,Net-(HL5-Pad1)*
X-159500000Y-45000000D02*
X-159500000Y-43000000D01*
G04 #@! TO.N,Net-(HL6-Pad1)*
X-163000000Y-45500000D02*
X-163000000Y-43500000D01*
G04 #@! TD*
D21*
G04 #@! TO.N,0dc*
G36*
X-115127000Y-15779228D02*
X-116005483Y-16657711D01*
X-116635000Y-18177497D01*
X-116635000Y-19822503D01*
X-116005483Y-21342289D01*
X-115127000Y-22220772D01*
X-115127000Y-47279228D01*
X-116005483Y-48157711D01*
X-116635000Y-49677497D01*
X-116635000Y-51322503D01*
X-116005483Y-52842289D01*
X-115127000Y-53720772D01*
X-115127000Y-78779228D01*
X-116005483Y-79657711D01*
X-116635000Y-81177497D01*
X-116635000Y-82822503D01*
X-116005483Y-84342289D01*
X-115127000Y-85220772D01*
X-115127000Y-88873000D01*
X-157409289Y-88873000D01*
X-157122569Y-88586280D01*
X-156965000Y-88205874D01*
X-156965000Y-87794126D01*
X-157122569Y-87413720D01*
X-157276289Y-87260000D01*
X-146574847Y-87260000D01*
X-146500000Y-87274888D01*
X-146425153Y-87260000D01*
X-146425148Y-87260000D01*
X-146203463Y-87215904D01*
X-145952071Y-87047929D01*
X-145909669Y-86984470D01*
X-141015527Y-82090329D01*
X-140952071Y-82047929D01*
X-140857444Y-81906310D01*
X-140784096Y-81796538D01*
X-140774520Y-81748395D01*
X-140740000Y-81574852D01*
X-140740000Y-81574848D01*
X-140725112Y-81500000D01*
X-140740000Y-81425152D01*
X-140740000Y-71574847D01*
X-140725112Y-71500000D01*
X-140740000Y-71425153D01*
X-140740000Y-71425148D01*
X-140784096Y-71203463D01*
X-140952071Y-70952071D01*
X-141015527Y-70909671D01*
X-141789669Y-70135530D01*
X-141832071Y-70072071D01*
X-142083463Y-69904096D01*
X-142305148Y-69860000D01*
X-142305153Y-69860000D01*
X-142380000Y-69845112D01*
X-142454847Y-69860000D01*
X-143352560Y-69860000D01*
X-143352560Y-69620000D01*
X-143401843Y-69372235D01*
X-143416700Y-69350000D01*
X-143401843Y-69327765D01*
X-143352560Y-69080000D01*
X-143352560Y-67080000D01*
X-143401843Y-66832235D01*
X-143416700Y-66810000D01*
X-143401843Y-66787765D01*
X-143352560Y-66540000D01*
X-143352560Y-64540000D01*
X-143401843Y-64292235D01*
X-143542191Y-64082191D01*
X-143678723Y-63990962D01*
X-143613914Y-63926153D01*
X-143365000Y-63325222D01*
X-143365000Y-62674778D01*
X-143613914Y-62073847D01*
X-143927761Y-61760000D01*
X-142574847Y-61760000D01*
X-142500000Y-61774888D01*
X-142425153Y-61760000D01*
X-142425148Y-61760000D01*
X-142203463Y-61715904D01*
X-141952071Y-61547929D01*
X-141909669Y-61484470D01*
X-139015527Y-58590329D01*
X-138952071Y-58547929D01*
X-138909076Y-58483582D01*
X-138784096Y-58296538D01*
X-138768057Y-58215904D01*
X-138740000Y-58074852D01*
X-138740000Y-58074848D01*
X-138725112Y-58000000D01*
X-138740000Y-57925152D01*
X-138740000Y-10074846D01*
X-138725112Y-9999999D01*
X-138740000Y-9925152D01*
X-138740000Y-9925148D01*
X-138784096Y-9703463D01*
X-138952071Y-9452071D01*
X-139015527Y-9409671D01*
X-141289669Y-7135530D01*
X-141332071Y-7072071D01*
X-141583463Y-6904096D01*
X-141805148Y-6860000D01*
X-141805153Y-6860000D01*
X-141880000Y-6845112D01*
X-141954847Y-6860000D01*
X-143352560Y-6860000D01*
X-143352560Y-6620000D01*
X-143401843Y-6372235D01*
X-143416700Y-6350000D01*
X-143401843Y-6327765D01*
X-143352560Y-6080000D01*
X-143352560Y-4080000D01*
X-143401843Y-3832235D01*
X-143416700Y-3810000D01*
X-143401843Y-3787765D01*
X-143352560Y-3540000D01*
X-143352560Y-1540000D01*
X-143401843Y-1292235D01*
X-143542191Y-1082191D01*
X-143678723Y-990962D01*
X-143613914Y-926153D01*
X-143365000Y-325222D01*
X-143365000Y325222D01*
X-143613914Y926153D01*
X-144073847Y1386086D01*
X-144674778Y1635000D01*
X-145325222Y1635000D01*
X-145926153Y1386086D01*
X-146386086Y926153D01*
X-146635000Y325222D01*
X-146635000Y-325222D01*
X-146386086Y-926153D01*
X-146321277Y-990962D01*
X-146457809Y-1082191D01*
X-146598157Y-1292235D01*
X-146647440Y-1540000D01*
X-146647440Y-3540000D01*
X-146598157Y-3787765D01*
X-146583300Y-3810000D01*
X-146598157Y-3832235D01*
X-146647440Y-4080000D01*
X-146647440Y-6080000D01*
X-146598157Y-6327765D01*
X-146583300Y-6350000D01*
X-146598157Y-6372235D01*
X-146647440Y-6620000D01*
X-146647440Y-8620000D01*
X-146598157Y-8867765D01*
X-146583300Y-8890000D01*
X-146598157Y-8912235D01*
X-146647440Y-9160000D01*
X-146647440Y-11160000D01*
X-146598157Y-11407765D01*
X-146578474Y-11437223D01*
X-146635000Y-11573690D01*
X-146635000Y-12414250D01*
X-146476250Y-12573000D01*
X-145127000Y-12573000D01*
X-145127000Y-12553000D01*
X-144873000Y-12553000D01*
X-144873000Y-12573000D01*
X-143523750Y-12573000D01*
X-143365000Y-12414250D01*
X-143365000Y-11619802D01*
X-141759999Y-13224804D01*
X-141760000Y-57185198D01*
X-144178391Y-59603590D01*
X-146425154Y-59603590D01*
X-146500001Y-59588702D01*
X-146574848Y-59603590D01*
X-146574852Y-59603590D01*
X-146796537Y-59647686D01*
X-146859098Y-59689488D01*
X-146984474Y-59773261D01*
X-146984476Y-59773263D01*
X-147047929Y-59815661D01*
X-147090327Y-59879114D01*
X-152451211Y-65240000D01*
X-156185198Y-65240000D01*
X-156720344Y-64704855D01*
X-156720344Y-62858613D01*
X-156480344Y-62858613D01*
X-156232579Y-62809330D01*
X-156230344Y-62807837D01*
X-156228109Y-62809330D01*
X-155980344Y-62858613D01*
X-153980344Y-62858613D01*
X-153732579Y-62809330D01*
X-153730344Y-62807837D01*
X-153728109Y-62809330D01*
X-153480344Y-62858613D01*
X-151480344Y-62858613D01*
X-151232579Y-62809330D01*
X-151022535Y-62668982D01*
X-150882187Y-62458938D01*
X-150832904Y-62211173D01*
X-150832904Y-60211173D01*
X-150882187Y-59963408D01*
X-151022535Y-59753364D01*
X-151232579Y-59613016D01*
X-151480344Y-59563733D01*
X-153480344Y-59563733D01*
X-153728109Y-59613016D01*
X-153730344Y-59614509D01*
X-153732579Y-59613016D01*
X-153980344Y-59563733D01*
X-155980344Y-59563733D01*
X-156228109Y-59613016D01*
X-156230344Y-59614509D01*
X-156232579Y-59613016D01*
X-156480344Y-59563733D01*
X-158480344Y-59563733D01*
X-158728109Y-59613016D01*
X-158742260Y-59622471D01*
X-158854034Y-59576173D01*
X-159694594Y-59576173D01*
X-159853344Y-59734923D01*
X-159853344Y-61084173D01*
X-159833344Y-61084173D01*
X-159833344Y-61338173D01*
X-159853344Y-61338173D01*
X-159853344Y-61358173D01*
X-160107344Y-61358173D01*
X-160107344Y-61338173D01*
X-162353344Y-61338173D01*
X-162353344Y-61358173D01*
X-162607344Y-61358173D01*
X-162607344Y-61338173D01*
X-162627344Y-61338173D01*
X-162627344Y-61084173D01*
X-162607344Y-61084173D01*
X-162607344Y-59734923D01*
X-162353344Y-59734923D01*
X-162353344Y-61084173D01*
X-160107344Y-61084173D01*
X-160107344Y-59734923D01*
X-160266094Y-59576173D01*
X-161106654Y-59576173D01*
X-161230344Y-59627407D01*
X-161354034Y-59576173D01*
X-162194594Y-59576173D01*
X-162353344Y-59734923D01*
X-162607344Y-59734923D01*
X-162766094Y-59576173D01*
X-163606654Y-59576173D01*
X-163718428Y-59622471D01*
X-163732579Y-59613016D01*
X-163980344Y-59563733D01*
X-165980344Y-59563733D01*
X-166228109Y-59613016D01*
X-166230344Y-59614509D01*
X-166232579Y-59613016D01*
X-166480344Y-59563733D01*
X-168480344Y-59563733D01*
X-168728109Y-59613016D01*
X-168938153Y-59753364D01*
X-169013360Y-59865918D01*
X-169054191Y-59825087D01*
X-169655122Y-59576173D01*
X-170305566Y-59576173D01*
X-170471719Y-59644996D01*
X-174240000Y-55876716D01*
X-174240000Y-21284801D01*
X-171630616Y-18675417D01*
X-171647440Y-18760000D01*
X-171647440Y-20760000D01*
X-171598157Y-21007765D01*
X-171583300Y-21030000D01*
X-171598157Y-21052235D01*
X-171647440Y-21300000D01*
X-171647440Y-23300000D01*
X-171598157Y-23547765D01*
X-171583300Y-23570000D01*
X-171598157Y-23592235D01*
X-171647440Y-23840000D01*
X-171647440Y-25840000D01*
X-171598157Y-26087765D01*
X-171583300Y-26110000D01*
X-171598157Y-26132235D01*
X-171647440Y-26380000D01*
X-171647440Y-28380000D01*
X-171598157Y-28627765D01*
X-171583300Y-28650000D01*
X-171598157Y-28672235D01*
X-171647440Y-28920000D01*
X-171647440Y-30920000D01*
X-171598157Y-31167765D01*
X-171583300Y-31190000D01*
X-171598157Y-31212235D01*
X-171647440Y-31460000D01*
X-171647440Y-33460000D01*
X-171598157Y-33707765D01*
X-171457809Y-33917809D01*
X-171321277Y-34009038D01*
X-171386086Y-34073847D01*
X-171635000Y-34674778D01*
X-171635000Y-35325222D01*
X-171566177Y-35491375D01*
X-173484470Y-37409669D01*
X-173547929Y-37452071D01*
X-173715904Y-37703464D01*
X-173760000Y-37925149D01*
X-173760000Y-37925153D01*
X-173774888Y-38000000D01*
X-173760000Y-38074847D01*
X-173759999Y-53838078D01*
X-173774888Y-53912930D01*
X-173759999Y-53987782D01*
X-173715903Y-54209467D01*
X-173547928Y-54460859D01*
X-173484472Y-54503259D01*
X-171003257Y-56984476D01*
X-170960859Y-57047929D01*
X-170897406Y-57090327D01*
X-170897404Y-57090329D01*
X-170772028Y-57174102D01*
X-170709467Y-57215904D01*
X-170487782Y-57260000D01*
X-170487778Y-57260000D01*
X-170412931Y-57274888D01*
X-170338084Y-57260000D01*
X-168703711Y-57260000D01*
X-168586280Y-57377431D01*
X-168205874Y-57535000D01*
X-167794126Y-57535000D01*
X-167413720Y-57377431D01*
X-167122569Y-57086280D01*
X-166965000Y-56705874D01*
X-166965000Y-56294126D01*
X-166979135Y-56260000D01*
X-153094018Y-56260000D01*
X-153019171Y-56274888D01*
X-152944324Y-56260000D01*
X-152944319Y-56260000D01*
X-152722634Y-56215904D01*
X-152471242Y-56047929D01*
X-152428841Y-55984471D01*
X-151995869Y-55551501D01*
X-151932415Y-55509102D01*
X-151890017Y-55445649D01*
X-151890015Y-55445647D01*
X-151831861Y-55358613D01*
X-151480344Y-55358613D01*
X-151232579Y-55309330D01*
X-151022535Y-55168982D01*
X-150882187Y-54958938D01*
X-150832904Y-54711173D01*
X-150832904Y-52711173D01*
X-150882187Y-52463408D01*
X-151022535Y-52253364D01*
X-151232579Y-52113016D01*
X-151480344Y-52063733D01*
X-153480344Y-52063733D01*
X-153728109Y-52113016D01*
X-153730344Y-52114509D01*
X-153732579Y-52113016D01*
X-153980344Y-52063733D01*
X-154220344Y-52063733D01*
X-154220344Y-49565750D01*
X-146635000Y-49565750D01*
X-146635000Y-50406310D01*
X-146538327Y-50639699D01*
X-146359698Y-50818327D01*
X-146126309Y-50915000D01*
X-145285750Y-50915000D01*
X-145127000Y-50756250D01*
X-145127000Y-49407000D01*
X-144873000Y-49407000D01*
X-144873000Y-50756250D01*
X-144714250Y-50915000D01*
X-143873691Y-50915000D01*
X-143640302Y-50818327D01*
X-143461673Y-50639699D01*
X-143365000Y-50406310D01*
X-143365000Y-49565750D01*
X-143523750Y-49407000D01*
X-144873000Y-49407000D01*
X-145127000Y-49407000D01*
X-146476250Y-49407000D01*
X-146635000Y-49565750D01*
X-154220344Y-49565750D01*
X-154220344Y-47025750D01*
X-146635000Y-47025750D01*
X-146635000Y-47866310D01*
X-146575482Y-48010000D01*
X-146635000Y-48153690D01*
X-146635000Y-48994250D01*
X-146476250Y-49153000D01*
X-145127000Y-49153000D01*
X-145127000Y-46867000D01*
X-144873000Y-46867000D01*
X-144873000Y-49153000D01*
X-143523750Y-49153000D01*
X-143365000Y-48994250D01*
X-143365000Y-48153690D01*
X-143424518Y-48010000D01*
X-143365000Y-47866310D01*
X-143365000Y-47025750D01*
X-143523750Y-46867000D01*
X-144873000Y-46867000D01*
X-145127000Y-46867000D01*
X-146476250Y-46867000D01*
X-146635000Y-47025750D01*
X-154220344Y-47025750D01*
X-154220344Y-45094503D01*
X-154205456Y-45019656D01*
X-154220344Y-44944809D01*
X-154220344Y-44944804D01*
X-154264440Y-44723119D01*
X-154423045Y-44485750D01*
X-146635000Y-44485750D01*
X-146635000Y-45326310D01*
X-146575482Y-45470000D01*
X-146635000Y-45613690D01*
X-146635000Y-46454250D01*
X-146476250Y-46613000D01*
X-145127000Y-46613000D01*
X-145127000Y-44327000D01*
X-144873000Y-44327000D01*
X-144873000Y-46613000D01*
X-143523750Y-46613000D01*
X-143365000Y-46454250D01*
X-143365000Y-45613690D01*
X-143424518Y-45470000D01*
X-143365000Y-45326310D01*
X-143365000Y-44485750D01*
X-143523750Y-44327000D01*
X-144873000Y-44327000D01*
X-145127000Y-44327000D01*
X-146476250Y-44327000D01*
X-146635000Y-44485750D01*
X-154423045Y-44485750D01*
X-154432415Y-44471727D01*
X-154495871Y-44429327D01*
X-155965000Y-42960199D01*
X-155965000Y-42794126D01*
X-156119968Y-42420000D01*
X-146647440Y-42420000D01*
X-146647440Y-42660000D01*
X-146598157Y-42907765D01*
X-146578474Y-42937223D01*
X-146635000Y-43073690D01*
X-146635000Y-43914250D01*
X-146476250Y-44073000D01*
X-145127000Y-44073000D01*
X-145127000Y-44053000D01*
X-144873000Y-44053000D01*
X-144873000Y-44073000D01*
X-143523750Y-44073000D01*
X-143365000Y-43914250D01*
X-143365000Y-43073690D01*
X-143421526Y-42937223D01*
X-143401843Y-42907765D01*
X-143352560Y-42660000D01*
X-143352560Y-40660000D01*
X-143401843Y-40412235D01*
X-143416700Y-40390000D01*
X-143401843Y-40367765D01*
X-143352560Y-40120000D01*
X-143352560Y-38120000D01*
X-143401843Y-37872235D01*
X-143416700Y-37850000D01*
X-143401843Y-37827765D01*
X-143352560Y-37580000D01*
X-143352560Y-35580000D01*
X-143401843Y-35332235D01*
X-143416700Y-35310000D01*
X-143401843Y-35287765D01*
X-143352560Y-35040000D01*
X-143352560Y-33040000D01*
X-143401843Y-32792235D01*
X-143542191Y-32582191D01*
X-143678723Y-32490962D01*
X-143613914Y-32426153D01*
X-143365000Y-31825222D01*
X-143365000Y-31174778D01*
X-143613914Y-30573847D01*
X-144073847Y-30113914D01*
X-144674778Y-29865000D01*
X-145325222Y-29865000D01*
X-145926153Y-30113914D01*
X-146386086Y-30573847D01*
X-146635000Y-31174778D01*
X-146635000Y-31825222D01*
X-146386086Y-32426153D01*
X-146321277Y-32490962D01*
X-146457809Y-32582191D01*
X-146598157Y-32792235D01*
X-146647440Y-33040000D01*
X-146647440Y-35040000D01*
X-146598157Y-35287765D01*
X-146583300Y-35310000D01*
X-146598157Y-35332235D01*
X-146647440Y-35580000D01*
X-146647440Y-37580000D01*
X-146598157Y-37827765D01*
X-146583300Y-37850000D01*
X-146598157Y-37872235D01*
X-146647440Y-38120000D01*
X-146647440Y-40120000D01*
X-146598157Y-40367765D01*
X-146583300Y-40390000D01*
X-146598157Y-40412235D01*
X-146647440Y-40660000D01*
X-146647440Y-40900000D01*
X-163585152Y-40900000D01*
X-163660000Y-40885112D01*
X-163734848Y-40900000D01*
X-163734852Y-40900000D01*
X-163908395Y-40934520D01*
X-163956538Y-40944096D01*
X-164143582Y-41069076D01*
X-164207929Y-41112071D01*
X-164250329Y-41175527D01*
X-166484470Y-43409669D01*
X-166547929Y-43452071D01*
X-166715904Y-43703464D01*
X-166760000Y-43925149D01*
X-166760000Y-43925153D01*
X-166774888Y-44000000D01*
X-166760000Y-44074847D01*
X-166759999Y-49925148D01*
X-166774888Y-50000000D01*
X-166715903Y-50296537D01*
X-166611978Y-50452071D01*
X-166579953Y-50500000D01*
X-166715904Y-50703463D01*
X-166760000Y-50925148D01*
X-166760000Y-50925153D01*
X-166774888Y-51000000D01*
X-166760000Y-51074847D01*
X-166760000Y-51366670D01*
X-166774888Y-51441517D01*
X-166760000Y-51516364D01*
X-166760000Y-51516368D01*
X-166715904Y-51738053D01*
X-166547929Y-51989446D01*
X-166484471Y-52031848D01*
X-166445693Y-52070625D01*
X-166480344Y-52063733D01*
X-168480344Y-52063733D01*
X-168728109Y-52113016D01*
X-168730344Y-52114509D01*
X-168732579Y-52113016D01*
X-168980344Y-52063733D01*
X-170545345Y-52063733D01*
X-170545345Y-40120146D01*
X-166015527Y-35590329D01*
X-165952071Y-35547929D01*
X-165784096Y-35296537D01*
X-165740000Y-35074852D01*
X-165740000Y-35074848D01*
X-165725112Y-35000001D01*
X-165740000Y-34925154D01*
X-165740000Y-20574846D01*
X-165725112Y-20499999D01*
X-165740000Y-20425152D01*
X-165740000Y-20425148D01*
X-165784096Y-20203463D01*
X-165952071Y-19952071D01*
X-166015527Y-19909671D01*
X-166649669Y-19275530D01*
X-166692071Y-19212071D01*
X-166943463Y-19044096D01*
X-167165148Y-19000000D01*
X-167165153Y-19000000D01*
X-167240000Y-18985112D01*
X-167314847Y-19000000D01*
X-168352560Y-19000000D01*
X-168352560Y-18760000D01*
X-168401843Y-18512235D01*
X-168416700Y-18490000D01*
X-168401843Y-18467765D01*
X-168352560Y-18220000D01*
X-168352560Y-18065750D01*
X-146635000Y-18065750D01*
X-146635000Y-18906310D01*
X-146538327Y-19139699D01*
X-146359698Y-19318327D01*
X-146126309Y-19415000D01*
X-145285750Y-19415000D01*
X-145127000Y-19256250D01*
X-145127000Y-17907000D01*
X-144873000Y-17907000D01*
X-144873000Y-19256250D01*
X-144714250Y-19415000D01*
X-143873691Y-19415000D01*
X-143640302Y-19318327D01*
X-143461673Y-19139699D01*
X-143365000Y-18906310D01*
X-143365000Y-18065750D01*
X-143523750Y-17907000D01*
X-144873000Y-17907000D01*
X-145127000Y-17907000D01*
X-146476250Y-17907000D01*
X-146635000Y-18065750D01*
X-168352560Y-18065750D01*
X-168352560Y-16220000D01*
X-168401843Y-15972235D01*
X-168416700Y-15950000D01*
X-168401843Y-15927765D01*
X-168352560Y-15680000D01*
X-168352560Y-15525750D01*
X-146635000Y-15525750D01*
X-146635000Y-16366310D01*
X-146575482Y-16510000D01*
X-146635000Y-16653690D01*
X-146635000Y-17494250D01*
X-146476250Y-17653000D01*
X-145127000Y-17653000D01*
X-145127000Y-15367000D01*
X-144873000Y-15367000D01*
X-144873000Y-17653000D01*
X-143523750Y-17653000D01*
X-143365000Y-17494250D01*
X-143365000Y-16653690D01*
X-143424518Y-16510000D01*
X-143365000Y-16366310D01*
X-143365000Y-15525750D01*
X-143523750Y-15367000D01*
X-144873000Y-15367000D01*
X-145127000Y-15367000D01*
X-146476250Y-15367000D01*
X-146635000Y-15525750D01*
X-168352560Y-15525750D01*
X-168352560Y-13680000D01*
X-168401843Y-13432235D01*
X-168421526Y-13402777D01*
X-168365000Y-13266310D01*
X-168365000Y-12985750D01*
X-146635000Y-12985750D01*
X-146635000Y-13826310D01*
X-146575482Y-13970000D01*
X-146635000Y-14113690D01*
X-146635000Y-14954250D01*
X-146476250Y-15113000D01*
X-145127000Y-15113000D01*
X-145127000Y-12827000D01*
X-144873000Y-12827000D01*
X-144873000Y-15113000D01*
X-143523750Y-15113000D01*
X-143365000Y-14954250D01*
X-143365000Y-14113690D01*
X-143424518Y-13970000D01*
X-143365000Y-13826310D01*
X-143365000Y-12985750D01*
X-143523750Y-12827000D01*
X-144873000Y-12827000D01*
X-145127000Y-12827000D01*
X-146476250Y-12827000D01*
X-146635000Y-12985750D01*
X-168365000Y-12985750D01*
X-168365000Y-12425750D01*
X-168523750Y-12267000D01*
X-169873000Y-12267000D01*
X-169873000Y-12287000D01*
X-170127000Y-12287000D01*
X-170127000Y-12267000D01*
X-171476250Y-12267000D01*
X-171635000Y-12425750D01*
X-171635000Y-13266310D01*
X-171578474Y-13402777D01*
X-171598157Y-13432235D01*
X-171647440Y-13680000D01*
X-171647440Y-13920000D01*
X-176105153Y-13920000D01*
X-176180000Y-13905112D01*
X-176254847Y-13920000D01*
X-176254852Y-13920000D01*
X-176476537Y-13964096D01*
X-176727929Y-14132071D01*
X-176770329Y-14195527D01*
X-181574801Y-19000000D01*
X-189352560Y-19000000D01*
X-189352560Y-18760000D01*
X-189401843Y-18512235D01*
X-189421526Y-18482777D01*
X-189365000Y-18346310D01*
X-189365000Y-17505750D01*
X-189523750Y-17347000D01*
X-190873000Y-17347000D01*
X-190873000Y-17367000D01*
X-191127000Y-17367000D01*
X-191127000Y-17347000D01*
X-192476250Y-17347000D01*
X-192635000Y-17505750D01*
X-192635000Y-18346310D01*
X-192578474Y-18482777D01*
X-192598157Y-18512235D01*
X-192647440Y-18760000D01*
X-192647440Y-19000000D01*
X-192740000Y-19000000D01*
X-192740000Y-11140000D01*
X-192647440Y-11140000D01*
X-192647440Y-13140000D01*
X-192598157Y-13387765D01*
X-192583300Y-13410000D01*
X-192598157Y-13432235D01*
X-192647440Y-13680000D01*
X-192647440Y-15680000D01*
X-192598157Y-15927765D01*
X-192578474Y-15957223D01*
X-192635000Y-16093690D01*
X-192635000Y-16934250D01*
X-192476250Y-17093000D01*
X-191127000Y-17093000D01*
X-191127000Y-17073000D01*
X-190873000Y-17073000D01*
X-190873000Y-17093000D01*
X-189523750Y-17093000D01*
X-189365000Y-16934250D01*
X-189365000Y-16093690D01*
X-189421526Y-15957223D01*
X-189401843Y-15927765D01*
X-189352560Y-15680000D01*
X-189352560Y-15440000D01*
X-189147440Y-15440000D01*
X-189147440Y-15750000D01*
X-189098157Y-15997765D01*
X-188957809Y-16207809D01*
X-188747765Y-16348157D01*
X-188500000Y-16397440D01*
X-187500000Y-16397440D01*
X-187252235Y-16348157D01*
X-187042191Y-16207809D01*
X-187000000Y-16144666D01*
X-186957809Y-16207809D01*
X-186747765Y-16348157D01*
X-186500000Y-16397440D01*
X-185500000Y-16397440D01*
X-185252235Y-16348157D01*
X-185042191Y-16207809D01*
X-184901843Y-15997765D01*
X-184854549Y-15760000D01*
X-182074847Y-15760000D01*
X-182000000Y-15774888D01*
X-181925153Y-15760000D01*
X-181925148Y-15760000D01*
X-181703463Y-15715904D01*
X-181452071Y-15547929D01*
X-181409669Y-15484470D01*
X-176938889Y-11013690D01*
X-171635000Y-11013690D01*
X-171635000Y-11854250D01*
X-171476250Y-12013000D01*
X-170127000Y-12013000D01*
X-170127000Y-10663750D01*
X-169873000Y-10663750D01*
X-169873000Y-12013000D01*
X-168523750Y-12013000D01*
X-168365000Y-11854250D01*
X-168365000Y-11013690D01*
X-168461673Y-10780301D01*
X-168640302Y-10601673D01*
X-168873691Y-10505000D01*
X-169714250Y-10505000D01*
X-169873000Y-10663750D01*
X-170127000Y-10663750D01*
X-170285750Y-10505000D01*
X-171126309Y-10505000D01*
X-171359698Y-10601673D01*
X-171538327Y-10780301D01*
X-171635000Y-11013690D01*
X-176938889Y-11013690D01*
X-171015524Y-5090327D01*
X-170952071Y-5047929D01*
X-170909673Y-4984476D01*
X-170909671Y-4984474D01*
X-170784097Y-4796538D01*
X-170784096Y-4796537D01*
X-170740000Y-4574852D01*
X-170740000Y-4574848D01*
X-170725112Y-4500001D01*
X-170740000Y-4425154D01*
X-170740000Y1925154D01*
X-170725112Y2000001D01*
X-170740000Y2074848D01*
X-170740000Y2074852D01*
X-170784096Y2296537D01*
X-170825898Y2359098D01*
X-170909671Y2484474D01*
X-170909673Y2484476D01*
X-170952071Y2547929D01*
X-171015524Y2590327D01*
X-171965000Y3539802D01*
X-171965000Y3705874D01*
X-172122569Y4086280D01*
X-172413720Y4377431D01*
X-172794126Y4535000D01*
X-173205874Y4535000D01*
X-173586280Y4377431D01*
X-173877431Y4086280D01*
X-174035000Y3705874D01*
X-174035000Y3294126D01*
X-173877431Y2913720D01*
X-173586280Y2622569D01*
X-173205874Y2465000D01*
X-173039802Y2465000D01*
X-172259999Y1685196D01*
X-172260000Y-4185197D01*
X-182314801Y-14240000D01*
X-184854549Y-14240000D01*
X-184901843Y-14002235D01*
X-185042191Y-13792191D01*
X-185252235Y-13651843D01*
X-185500000Y-13602560D01*
X-186500000Y-13602560D01*
X-186747765Y-13651843D01*
X-186957809Y-13792191D01*
X-187000000Y-13855334D01*
X-187042191Y-13792191D01*
X-187252235Y-13651843D01*
X-187500000Y-13602560D01*
X-188500000Y-13602560D01*
X-188747765Y-13651843D01*
X-188957809Y-13792191D01*
X-189043209Y-13920000D01*
X-189352560Y-13920000D01*
X-189352560Y-13680000D01*
X-189401843Y-13432235D01*
X-189416700Y-13410000D01*
X-189401843Y-13387765D01*
X-189352560Y-13140000D01*
X-189352560Y-12900000D01*
X-189117603Y-12900000D01*
X-189098157Y-12997765D01*
X-188957809Y-13207809D01*
X-188747765Y-13348157D01*
X-188500000Y-13397440D01*
X-187500000Y-13397440D01*
X-187252235Y-13348157D01*
X-187042191Y-13207809D01*
X-187000000Y-13144666D01*
X-186957809Y-13207809D01*
X-186747765Y-13348157D01*
X-186500000Y-13397440D01*
X-185500000Y-13397440D01*
X-185252235Y-13348157D01*
X-185042191Y-13207809D01*
X-184901843Y-12997765D01*
X-184852560Y-12750000D01*
X-184852560Y-12732858D01*
X-184767325Y-12715904D01*
X-184515933Y-12547929D01*
X-184473531Y-12484470D01*
X-173685208Y-1696148D01*
X-173519136Y-1696148D01*
X-173138730Y-1538579D01*
X-172847579Y-1247428D01*
X-172690010Y-867022D01*
X-172690010Y-455274D01*
X-172847579Y-74868D01*
X-173138730Y216283D01*
X-173519136Y373852D01*
X-173930884Y373852D01*
X-174311290Y216283D01*
X-174602441Y-74868D01*
X-174760010Y-455274D01*
X-174760010Y-621346D01*
X-184997595Y-10858932D01*
X-185042191Y-10792191D01*
X-185252235Y-10651843D01*
X-185500000Y-10602560D01*
X-186500000Y-10602560D01*
X-186747765Y-10651843D01*
X-186957809Y-10792191D01*
X-187000000Y-10855334D01*
X-187042191Y-10792191D01*
X-187252235Y-10651843D01*
X-187500000Y-10602560D01*
X-188500000Y-10602560D01*
X-188747765Y-10651843D01*
X-188957809Y-10792191D01*
X-189098157Y-11002235D01*
X-189147440Y-11250000D01*
X-189147440Y-11380000D01*
X-189352560Y-11380000D01*
X-189352560Y-11140000D01*
X-189401843Y-10892235D01*
X-189542191Y-10682191D01*
X-189752235Y-10541843D01*
X-190000000Y-10492560D01*
X-192000000Y-10492560D01*
X-192247765Y-10541843D01*
X-192457809Y-10682191D01*
X-192598157Y-10892235D01*
X-192647440Y-11140000D01*
X-192740000Y-11140000D01*
X-192740000Y-3574848D01*
X-192725112Y-3500000D01*
X-192740000Y-3425152D01*
X-192740000Y-3425148D01*
X-192784096Y-3203463D01*
X-192784096Y-3203462D01*
X-192909671Y-3015527D01*
X-192952071Y-2952071D01*
X-193015527Y-2909671D01*
X-193409669Y-2515529D01*
X-193452071Y-2452071D01*
X-193703463Y-2284096D01*
X-193925148Y-2240000D01*
X-193925153Y-2240000D01*
X-194000000Y-2225112D01*
X-194074847Y-2240000D01*
X-195045091Y-2240000D01*
X-195113914Y-2073847D01*
X-195437761Y-1750000D01*
X-195113914Y-1426153D01*
X-194865000Y-825222D01*
X-194865000Y-174778D01*
X-195113914Y426153D01*
X-195437761Y750000D01*
X-195113914Y1073847D01*
X-194865000Y1674778D01*
X-194865000Y2325222D01*
X-195113914Y2926153D01*
X-195573847Y3386086D01*
X-196174778Y3635000D01*
X-196825222Y3635000D01*
X-197426153Y3386086D01*
X-197886086Y2926153D01*
X-198135000Y2325222D01*
X-198135000Y1674778D01*
X-197886086Y1073847D01*
X-197562239Y750000D01*
X-197886086Y426153D01*
X-198135000Y-174778D01*
X-198135000Y-825222D01*
X-197886086Y-1426153D01*
X-197562239Y-1750000D01*
X-197886086Y-2073847D01*
X-198135000Y-2674778D01*
X-198135000Y-3325222D01*
X-197886086Y-3926153D01*
X-197562239Y-4250000D01*
X-197886086Y-4573847D01*
X-198135000Y-5174778D01*
X-198135000Y-5825222D01*
X-197886086Y-6426153D01*
X-197426153Y-6886086D01*
X-196825222Y-7135000D01*
X-196174778Y-7135000D01*
X-195573847Y-6886086D01*
X-195113914Y-6426153D01*
X-194865000Y-5825222D01*
X-194865000Y-5174778D01*
X-195113914Y-4573847D01*
X-195437761Y-4250000D01*
X-195113914Y-3926153D01*
X-195045091Y-3760000D01*
X-194314801Y-3760000D01*
X-194260000Y-3814802D01*
X-194259999Y-19425148D01*
X-194274888Y-19500000D01*
X-194215903Y-19796537D01*
X-194111978Y-19952071D01*
X-194047928Y-20047929D01*
X-193984472Y-20090329D01*
X-193830331Y-20244470D01*
X-193787929Y-20307929D01*
X-193536537Y-20475904D01*
X-193314852Y-20520000D01*
X-193314848Y-20520000D01*
X-193240000Y-20534888D01*
X-193165152Y-20520000D01*
X-192647440Y-20520000D01*
X-192647440Y-20760000D01*
X-192598157Y-21007765D01*
X-192583300Y-21030000D01*
X-192598157Y-21052235D01*
X-192647440Y-21300000D01*
X-192647440Y-23300000D01*
X-192598157Y-23547765D01*
X-192583300Y-23570000D01*
X-192598157Y-23592235D01*
X-192647440Y-23840000D01*
X-192647440Y-24080000D01*
X-193845198Y-24080000D01*
X-195433823Y-22491376D01*
X-195365000Y-22325222D01*
X-195365000Y-21674778D01*
X-195613914Y-21073847D01*
X-196073847Y-20613914D01*
X-196674778Y-20365000D01*
X-197325222Y-20365000D01*
X-197926153Y-20613914D01*
X-198386086Y-21073847D01*
X-198635000Y-21674778D01*
X-198635000Y-22325222D01*
X-198386086Y-22926153D01*
X-197926153Y-23386086D01*
X-197325222Y-23635000D01*
X-196674778Y-23635000D01*
X-196508624Y-23566177D01*
X-194750329Y-25324473D01*
X-194707929Y-25387929D01*
X-194644473Y-25430329D01*
X-194456538Y-25555904D01*
X-194408395Y-25565480D01*
X-194234852Y-25600000D01*
X-194234848Y-25600000D01*
X-194160000Y-25614888D01*
X-194085152Y-25600000D01*
X-192647440Y-25600000D01*
X-192647440Y-25840000D01*
X-192598157Y-26087765D01*
X-192583300Y-26110000D01*
X-192598157Y-26132235D01*
X-192647440Y-26380000D01*
X-192647440Y-28380000D01*
X-192598157Y-28627765D01*
X-192578474Y-28657223D01*
X-192635000Y-28793690D01*
X-192635000Y-29634250D01*
X-192476250Y-29793000D01*
X-191127000Y-29793000D01*
X-191127000Y-29773000D01*
X-190873000Y-29773000D01*
X-190873000Y-29793000D01*
X-189523750Y-29793000D01*
X-189365000Y-29634250D01*
X-189365000Y-28793690D01*
X-189421526Y-28657223D01*
X-189401843Y-28627765D01*
X-189352560Y-28380000D01*
X-189352560Y-28140000D01*
X-184934801Y-28140000D01*
X-178759999Y-34314803D01*
X-178760000Y-71425153D01*
X-178774888Y-71500000D01*
X-178760000Y-71574847D01*
X-178760000Y-71574851D01*
X-178715904Y-71796536D01*
X-178547929Y-72047929D01*
X-178484470Y-72090331D01*
X-172722242Y-77852560D01*
X-172851517Y-77852560D01*
X-172909671Y-77765527D01*
X-172952071Y-77702071D01*
X-173015527Y-77659671D01*
X-174659669Y-76015530D01*
X-174702071Y-75952071D01*
X-174953463Y-75784096D01*
X-175175148Y-75740000D01*
X-175175153Y-75740000D01*
X-175250000Y-75725112D01*
X-175324847Y-75740000D01*
X-175796289Y-75740000D01*
X-175913720Y-75622569D01*
X-176294126Y-75465000D01*
X-176705874Y-75465000D01*
X-177086280Y-75622569D01*
X-177377431Y-75913720D01*
X-177535000Y-76294126D01*
X-177535000Y-76705874D01*
X-177377431Y-77086280D01*
X-177086280Y-77377431D01*
X-176705874Y-77535000D01*
X-176294126Y-77535000D01*
X-175913720Y-77377431D01*
X-175796289Y-77260000D01*
X-175564801Y-77260000D01*
X-174972241Y-77852560D01*
X-175000000Y-77852560D01*
X-175247765Y-77901843D01*
X-175457809Y-78042191D01*
X-175598157Y-78252235D01*
X-175647440Y-78500000D01*
X-175647440Y-79500000D01*
X-175598157Y-79747765D01*
X-175457809Y-79957809D01*
X-175247765Y-80098157D01*
X-175000000Y-80147440D01*
X-172000000Y-80147440D01*
X-171752235Y-80098157D01*
X-171571867Y-79977638D01*
X-171386086Y-80426153D01*
X-170926153Y-80886086D01*
X-170325222Y-81135000D01*
X-169674778Y-81135000D01*
X-169073847Y-80886086D01*
X-169033016Y-80845255D01*
X-168957809Y-80957809D01*
X-168747765Y-81098157D01*
X-168500000Y-81147440D01*
X-166500000Y-81147440D01*
X-166252235Y-81098157D01*
X-166250000Y-81096664D01*
X-166247765Y-81098157D01*
X-166000000Y-81147440D01*
X-165760000Y-81147440D01*
X-165759999Y-81203464D01*
X-165760000Y-82685198D01*
X-166314801Y-83240000D01*
X-171410018Y-83240000D01*
X-171542191Y-83042191D01*
X-171752235Y-82901843D01*
X-172000000Y-82852560D01*
X-175000000Y-82852560D01*
X-175247765Y-82901843D01*
X-175457809Y-83042191D01*
X-175598157Y-83252235D01*
X-175647440Y-83500000D01*
X-175647440Y-84500000D01*
X-175598157Y-84747765D01*
X-175457809Y-84957809D01*
X-175247765Y-85098157D01*
X-175000000Y-85147440D01*
X-172000000Y-85147440D01*
X-171752235Y-85098157D01*
X-171542191Y-84957809D01*
X-171410018Y-84760000D01*
X-166314801Y-84760000D01*
X-165760000Y-85314802D01*
X-165760000Y-85675153D01*
X-165774888Y-85750000D01*
X-165760000Y-85824847D01*
X-165760000Y-85824851D01*
X-165715904Y-86046536D01*
X-165547929Y-86297929D01*
X-165484470Y-86340331D01*
X-164840329Y-86984473D01*
X-164797929Y-87047929D01*
X-164546537Y-87215904D01*
X-164425399Y-87240000D01*
X-173685198Y-87240000D01*
X-176852560Y-84072639D01*
X-176852560Y-83500000D01*
X-176901843Y-83252235D01*
X-177042191Y-83042191D01*
X-177252235Y-82901843D01*
X-177500000Y-82852560D01*
X-180500000Y-82852560D01*
X-180747765Y-82901843D01*
X-180957809Y-83042191D01*
X-181098157Y-83252235D01*
X-181147440Y-83500000D01*
X-181147440Y-84500000D01*
X-181098157Y-84747765D01*
X-180957809Y-84957809D01*
X-180747765Y-85098157D01*
X-180500000Y-85147440D01*
X-177927361Y-85147440D01*
X-174590329Y-88484473D01*
X-174547929Y-88547929D01*
X-174296537Y-88715904D01*
X-174074852Y-88760000D01*
X-174074848Y-88760000D01*
X-174000001Y-88774888D01*
X-173925154Y-88760000D01*
X-158703711Y-88760000D01*
X-158590711Y-88873000D01*
X-198873000Y-88873000D01*
X-198873000Y-44674778D01*
X-197135000Y-44674778D01*
X-197135000Y-45325222D01*
X-196886086Y-45926153D01*
X-196426153Y-46386086D01*
X-196151141Y-46500000D01*
X-196426153Y-46613914D01*
X-196886086Y-47073847D01*
X-197135000Y-47674778D01*
X-197135000Y-48325222D01*
X-196886086Y-48926153D01*
X-196426153Y-49386086D01*
X-196260000Y-49454909D01*
X-196259999Y-79425148D01*
X-196274888Y-79500000D01*
X-196215903Y-79796537D01*
X-196108144Y-79957809D01*
X-196047928Y-80047929D01*
X-195984472Y-80090329D01*
X-194090329Y-81984473D01*
X-194047929Y-82047929D01*
X-193796537Y-82215904D01*
X-193574852Y-82260000D01*
X-193574848Y-82260000D01*
X-193500001Y-82274888D01*
X-193425154Y-82260000D01*
X-192497440Y-82260000D01*
X-192497440Y-82350000D01*
X-192448157Y-82597765D01*
X-192307809Y-82807809D01*
X-192097765Y-82948157D01*
X-191850000Y-82997440D01*
X-190150000Y-82997440D01*
X-189902235Y-82948157D01*
X-189692191Y-82807809D01*
X-189551843Y-82597765D01*
X-189502560Y-82350000D01*
X-189502560Y-80650000D01*
X-189551843Y-80402235D01*
X-189692191Y-80192191D01*
X-189902235Y-80051843D01*
X-190150000Y-80002560D01*
X-191850000Y-80002560D01*
X-192097765Y-80051843D01*
X-192307809Y-80192191D01*
X-192448157Y-80402235D01*
X-192497440Y-80650000D01*
X-192497440Y-80740000D01*
X-193185198Y-80740000D01*
X-194740000Y-79185199D01*
X-194740000Y-78500000D01*
X-181147440Y-78500000D01*
X-181147440Y-79500000D01*
X-181098157Y-79747765D01*
X-180957809Y-79957809D01*
X-180747765Y-80098157D01*
X-180500000Y-80147440D01*
X-177500000Y-80147440D01*
X-177252235Y-80098157D01*
X-177042191Y-79957809D01*
X-176901843Y-79747765D01*
X-176852560Y-79500000D01*
X-176852560Y-78500000D01*
X-176901843Y-78252235D01*
X-177042191Y-78042191D01*
X-177252235Y-77901843D01*
X-177500000Y-77852560D01*
X-178240000Y-77852560D01*
X-178240000Y-77203711D01*
X-178122569Y-77086280D01*
X-177965000Y-76705874D01*
X-177965000Y-76294126D01*
X-178122569Y-75913720D01*
X-178413720Y-75622569D01*
X-178794126Y-75465000D01*
X-179205874Y-75465000D01*
X-179586280Y-75622569D01*
X-179877431Y-75913720D01*
X-180035000Y-76294126D01*
X-180035000Y-76705874D01*
X-179877431Y-77086280D01*
X-179760000Y-77203711D01*
X-179759999Y-77852560D01*
X-180500000Y-77852560D01*
X-180747765Y-77901843D01*
X-180957809Y-78042191D01*
X-181098157Y-78252235D01*
X-181147440Y-78500000D01*
X-194740000Y-78500000D01*
X-194740000Y-49454909D01*
X-194573847Y-49386086D01*
X-194113914Y-48926153D01*
X-193865000Y-48325222D01*
X-193865000Y-47674778D01*
X-194113914Y-47073847D01*
X-194573847Y-46613914D01*
X-194848859Y-46500000D01*
X-194573847Y-46386086D01*
X-194174175Y-45986414D01*
X-185260000Y-54900589D01*
X-185259999Y-59854549D01*
X-185497765Y-59901843D01*
X-185707809Y-60042191D01*
X-185848157Y-60252235D01*
X-185897440Y-60500000D01*
X-185897440Y-64072638D01*
X-186484472Y-64659671D01*
X-186547928Y-64702071D01*
X-186590328Y-64765527D01*
X-186590329Y-64765528D01*
X-186715903Y-64953463D01*
X-186774888Y-65250000D01*
X-186759999Y-65324852D01*
X-186759999Y-65352560D01*
X-187000000Y-65352560D01*
X-187247765Y-65401843D01*
X-187457809Y-65542191D01*
X-187556900Y-65690490D01*
X-187902056Y-65459864D01*
X-188240000Y-65392643D01*
X-188240000Y-65145451D01*
X-188002235Y-65098157D01*
X-187792191Y-64957809D01*
X-187651843Y-64747765D01*
X-187602560Y-64500000D01*
X-187602560Y-60500000D01*
X-187651843Y-60252235D01*
X-187792191Y-60042191D01*
X-188002235Y-59901843D01*
X-188250000Y-59852560D01*
X-189750000Y-59852560D01*
X-189997765Y-59901843D01*
X-190207809Y-60042191D01*
X-190348157Y-60252235D01*
X-190397440Y-60500000D01*
X-190397440Y-64500000D01*
X-190348157Y-64747765D01*
X-190207809Y-64957809D01*
X-189997765Y-65098157D01*
X-189759999Y-65145451D01*
X-189759999Y-65882937D01*
X-190080136Y-66362056D01*
X-190158628Y-66756664D01*
X-190296537Y-66784096D01*
X-190547929Y-66952071D01*
X-190590329Y-67015527D01*
X-191484472Y-67909671D01*
X-191547928Y-67952071D01*
X-191590328Y-68015527D01*
X-191590329Y-68015528D01*
X-191715903Y-68203463D01*
X-191774888Y-68500000D01*
X-191759999Y-68574852D01*
X-191760000Y-74502560D01*
X-191850000Y-74502560D01*
X-192097765Y-74551843D01*
X-192307809Y-74692191D01*
X-192448157Y-74902235D01*
X-192497440Y-75150000D01*
X-192497440Y-76850000D01*
X-192448157Y-77097765D01*
X-192307809Y-77307809D01*
X-192097765Y-77448157D01*
X-191850000Y-77497440D01*
X-190150000Y-77497440D01*
X-189902235Y-77448157D01*
X-189692191Y-77307809D01*
X-189551843Y-77097765D01*
X-189502560Y-76850000D01*
X-189502560Y-75150000D01*
X-189551843Y-74902235D01*
X-189692191Y-74692191D01*
X-189902235Y-74551843D01*
X-190150000Y-74502560D01*
X-190240000Y-74502560D01*
X-190240000Y-68814801D01*
X-190174999Y-68749800D01*
X-190174999Y-69161031D01*
X-190080135Y-69637945D01*
X-189718768Y-70178769D01*
X-189177944Y-70540136D01*
X-188540000Y-70667031D01*
X-187902055Y-70540136D01*
X-187556900Y-70309511D01*
X-187457809Y-70457809D01*
X-187247765Y-70598157D01*
X-187000000Y-70647440D01*
X-185000000Y-70647440D01*
X-184752235Y-70598157D01*
X-184730000Y-70583300D01*
X-184707765Y-70598157D01*
X-184460000Y-70647440D01*
X-182460000Y-70647440D01*
X-182212235Y-70598157D01*
X-182182776Y-70578473D01*
X-182046309Y-70635000D01*
X-181205750Y-70635000D01*
X-181047000Y-70476250D01*
X-181047000Y-68127000D01*
X-180793000Y-68127000D01*
X-180793000Y-70476250D01*
X-180634250Y-70635000D01*
X-179793691Y-70635000D01*
X-179560302Y-70538327D01*
X-179381673Y-70359699D01*
X-179285000Y-70126310D01*
X-179285000Y-68285750D01*
X-179443750Y-68127000D01*
X-180793000Y-68127000D01*
X-181047000Y-68127000D01*
X-181067000Y-68127000D01*
X-181067000Y-67873000D01*
X-181047000Y-67873000D01*
X-181047000Y-65523750D01*
X-180793000Y-65523750D01*
X-180793000Y-67873000D01*
X-179443750Y-67873000D01*
X-179285000Y-67714250D01*
X-179285000Y-65873690D01*
X-179381673Y-65640301D01*
X-179560302Y-65461673D01*
X-179793691Y-65365000D01*
X-180634250Y-65365000D01*
X-180793000Y-65523750D01*
X-181047000Y-65523750D01*
X-181205750Y-65365000D01*
X-182046309Y-65365000D01*
X-182182776Y-65421527D01*
X-182212235Y-65401843D01*
X-182460000Y-65352560D01*
X-184460000Y-65352560D01*
X-184707765Y-65401843D01*
X-184730000Y-65416700D01*
X-184752235Y-65401843D01*
X-185000000Y-65352560D01*
X-185027758Y-65352560D01*
X-184822638Y-65147440D01*
X-183750000Y-65147440D01*
X-183502235Y-65098157D01*
X-183292191Y-64957809D01*
X-183151843Y-64747765D01*
X-183102560Y-64500000D01*
X-183102560Y-60500000D01*
X-183151843Y-60252235D01*
X-183292191Y-60042191D01*
X-183502235Y-59901843D01*
X-183740000Y-59854549D01*
X-183740000Y-54660634D01*
X-183725112Y-54585787D01*
X-183740000Y-54510940D01*
X-183740000Y-54510935D01*
X-183784096Y-54289250D01*
X-183952071Y-54037858D01*
X-184015527Y-53995458D01*
X-193495456Y-44515530D01*
X-193537858Y-44452071D01*
X-193789250Y-44284096D01*
X-194010935Y-44240000D01*
X-194010940Y-44240000D01*
X-194048158Y-44232597D01*
X-194113914Y-44073847D01*
X-194573847Y-43613914D01*
X-195174778Y-43365000D01*
X-195825222Y-43365000D01*
X-196426153Y-43613914D01*
X-196886086Y-44073847D01*
X-197135000Y-44674778D01*
X-198873000Y-44674778D01*
X-198873000Y-31460000D01*
X-192647440Y-31460000D01*
X-192647440Y-33460000D01*
X-192598157Y-33707765D01*
X-192457809Y-33917809D01*
X-192321277Y-34009038D01*
X-192386086Y-34073847D01*
X-192635000Y-34674778D01*
X-192635000Y-35325222D01*
X-192386086Y-35926153D01*
X-191926153Y-36386086D01*
X-191325222Y-36635000D01*
X-190674778Y-36635000D01*
X-190073847Y-36386086D01*
X-189613914Y-35926153D01*
X-189365000Y-35325222D01*
X-189365000Y-34674778D01*
X-189613914Y-34073847D01*
X-189678723Y-34009038D01*
X-189542191Y-33917809D01*
X-189401843Y-33707765D01*
X-189352560Y-33460000D01*
X-189352560Y-31460000D01*
X-189401843Y-31212235D01*
X-189421526Y-31182777D01*
X-189365000Y-31046310D01*
X-189365000Y-30205750D01*
X-189523750Y-30047000D01*
X-190873000Y-30047000D01*
X-190873000Y-30067000D01*
X-191127000Y-30067000D01*
X-191127000Y-30047000D01*
X-192476250Y-30047000D01*
X-192635000Y-30205750D01*
X-192635000Y-31046310D01*
X-192578474Y-31182777D01*
X-192598157Y-31212235D01*
X-192647440Y-31460000D01*
X-198873000Y-31460000D01*
X-198873000Y8873000D01*
X-115127000Y8873000D01*
X-115127000Y-15779228D01*
X-115127000Y-15779228D01*
G37*
X-115127000Y-15779228D02*
X-116005483Y-16657711D01*
X-116635000Y-18177497D01*
X-116635000Y-19822503D01*
X-116005483Y-21342289D01*
X-115127000Y-22220772D01*
X-115127000Y-47279228D01*
X-116005483Y-48157711D01*
X-116635000Y-49677497D01*
X-116635000Y-51322503D01*
X-116005483Y-52842289D01*
X-115127000Y-53720772D01*
X-115127000Y-78779228D01*
X-116005483Y-79657711D01*
X-116635000Y-81177497D01*
X-116635000Y-82822503D01*
X-116005483Y-84342289D01*
X-115127000Y-85220772D01*
X-115127000Y-88873000D01*
X-157409289Y-88873000D01*
X-157122569Y-88586280D01*
X-156965000Y-88205874D01*
X-156965000Y-87794126D01*
X-157122569Y-87413720D01*
X-157276289Y-87260000D01*
X-146574847Y-87260000D01*
X-146500000Y-87274888D01*
X-146425153Y-87260000D01*
X-146425148Y-87260000D01*
X-146203463Y-87215904D01*
X-145952071Y-87047929D01*
X-145909669Y-86984470D01*
X-141015527Y-82090329D01*
X-140952071Y-82047929D01*
X-140857444Y-81906310D01*
X-140784096Y-81796538D01*
X-140774520Y-81748395D01*
X-140740000Y-81574852D01*
X-140740000Y-81574848D01*
X-140725112Y-81500000D01*
X-140740000Y-81425152D01*
X-140740000Y-71574847D01*
X-140725112Y-71500000D01*
X-140740000Y-71425153D01*
X-140740000Y-71425148D01*
X-140784096Y-71203463D01*
X-140952071Y-70952071D01*
X-141015527Y-70909671D01*
X-141789669Y-70135530D01*
X-141832071Y-70072071D01*
X-142083463Y-69904096D01*
X-142305148Y-69860000D01*
X-142305153Y-69860000D01*
X-142380000Y-69845112D01*
X-142454847Y-69860000D01*
X-143352560Y-69860000D01*
X-143352560Y-69620000D01*
X-143401843Y-69372235D01*
X-143416700Y-69350000D01*
X-143401843Y-69327765D01*
X-143352560Y-69080000D01*
X-143352560Y-67080000D01*
X-143401843Y-66832235D01*
X-143416700Y-66810000D01*
X-143401843Y-66787765D01*
X-143352560Y-66540000D01*
X-143352560Y-64540000D01*
X-143401843Y-64292235D01*
X-143542191Y-64082191D01*
X-143678723Y-63990962D01*
X-143613914Y-63926153D01*
X-143365000Y-63325222D01*
X-143365000Y-62674778D01*
X-143613914Y-62073847D01*
X-143927761Y-61760000D01*
X-142574847Y-61760000D01*
X-142500000Y-61774888D01*
X-142425153Y-61760000D01*
X-142425148Y-61760000D01*
X-142203463Y-61715904D01*
X-141952071Y-61547929D01*
X-141909669Y-61484470D01*
X-139015527Y-58590329D01*
X-138952071Y-58547929D01*
X-138909076Y-58483582D01*
X-138784096Y-58296538D01*
X-138768057Y-58215904D01*
X-138740000Y-58074852D01*
X-138740000Y-58074848D01*
X-138725112Y-58000000D01*
X-138740000Y-57925152D01*
X-138740000Y-10074846D01*
X-138725112Y-9999999D01*
X-138740000Y-9925152D01*
X-138740000Y-9925148D01*
X-138784096Y-9703463D01*
X-138952071Y-9452071D01*
X-139015527Y-9409671D01*
X-141289669Y-7135530D01*
X-141332071Y-7072071D01*
X-141583463Y-6904096D01*
X-141805148Y-6860000D01*
X-141805153Y-6860000D01*
X-141880000Y-6845112D01*
X-141954847Y-6860000D01*
X-143352560Y-6860000D01*
X-143352560Y-6620000D01*
X-143401843Y-6372235D01*
X-143416700Y-6350000D01*
X-143401843Y-6327765D01*
X-143352560Y-6080000D01*
X-143352560Y-4080000D01*
X-143401843Y-3832235D01*
X-143416700Y-3810000D01*
X-143401843Y-3787765D01*
X-143352560Y-3540000D01*
X-143352560Y-1540000D01*
X-143401843Y-1292235D01*
X-143542191Y-1082191D01*
X-143678723Y-990962D01*
X-143613914Y-926153D01*
X-143365000Y-325222D01*
X-143365000Y325222D01*
X-143613914Y926153D01*
X-144073847Y1386086D01*
X-144674778Y1635000D01*
X-145325222Y1635000D01*
X-145926153Y1386086D01*
X-146386086Y926153D01*
X-146635000Y325222D01*
X-146635000Y-325222D01*
X-146386086Y-926153D01*
X-146321277Y-990962D01*
X-146457809Y-1082191D01*
X-146598157Y-1292235D01*
X-146647440Y-1540000D01*
X-146647440Y-3540000D01*
X-146598157Y-3787765D01*
X-146583300Y-3810000D01*
X-146598157Y-3832235D01*
X-146647440Y-4080000D01*
X-146647440Y-6080000D01*
X-146598157Y-6327765D01*
X-146583300Y-6350000D01*
X-146598157Y-6372235D01*
X-146647440Y-6620000D01*
X-146647440Y-8620000D01*
X-146598157Y-8867765D01*
X-146583300Y-8890000D01*
X-146598157Y-8912235D01*
X-146647440Y-9160000D01*
X-146647440Y-11160000D01*
X-146598157Y-11407765D01*
X-146578474Y-11437223D01*
X-146635000Y-11573690D01*
X-146635000Y-12414250D01*
X-146476250Y-12573000D01*
X-145127000Y-12573000D01*
X-145127000Y-12553000D01*
X-144873000Y-12553000D01*
X-144873000Y-12573000D01*
X-143523750Y-12573000D01*
X-143365000Y-12414250D01*
X-143365000Y-11619802D01*
X-141759999Y-13224804D01*
X-141760000Y-57185198D01*
X-144178391Y-59603590D01*
X-146425154Y-59603590D01*
X-146500001Y-59588702D01*
X-146574848Y-59603590D01*
X-146574852Y-59603590D01*
X-146796537Y-59647686D01*
X-146859098Y-59689488D01*
X-146984474Y-59773261D01*
X-146984476Y-59773263D01*
X-147047929Y-59815661D01*
X-147090327Y-59879114D01*
X-152451211Y-65240000D01*
X-156185198Y-65240000D01*
X-156720344Y-64704855D01*
X-156720344Y-62858613D01*
X-156480344Y-62858613D01*
X-156232579Y-62809330D01*
X-156230344Y-62807837D01*
X-156228109Y-62809330D01*
X-155980344Y-62858613D01*
X-153980344Y-62858613D01*
X-153732579Y-62809330D01*
X-153730344Y-62807837D01*
X-153728109Y-62809330D01*
X-153480344Y-62858613D01*
X-151480344Y-62858613D01*
X-151232579Y-62809330D01*
X-151022535Y-62668982D01*
X-150882187Y-62458938D01*
X-150832904Y-62211173D01*
X-150832904Y-60211173D01*
X-150882187Y-59963408D01*
X-151022535Y-59753364D01*
X-151232579Y-59613016D01*
X-151480344Y-59563733D01*
X-153480344Y-59563733D01*
X-153728109Y-59613016D01*
X-153730344Y-59614509D01*
X-153732579Y-59613016D01*
X-153980344Y-59563733D01*
X-155980344Y-59563733D01*
X-156228109Y-59613016D01*
X-156230344Y-59614509D01*
X-156232579Y-59613016D01*
X-156480344Y-59563733D01*
X-158480344Y-59563733D01*
X-158728109Y-59613016D01*
X-158742260Y-59622471D01*
X-158854034Y-59576173D01*
X-159694594Y-59576173D01*
X-159853344Y-59734923D01*
X-159853344Y-61084173D01*
X-159833344Y-61084173D01*
X-159833344Y-61338173D01*
X-159853344Y-61338173D01*
X-159853344Y-61358173D01*
X-160107344Y-61358173D01*
X-160107344Y-61338173D01*
X-162353344Y-61338173D01*
X-162353344Y-61358173D01*
X-162607344Y-61358173D01*
X-162607344Y-61338173D01*
X-162627344Y-61338173D01*
X-162627344Y-61084173D01*
X-162607344Y-61084173D01*
X-162607344Y-59734923D01*
X-162353344Y-59734923D01*
X-162353344Y-61084173D01*
X-160107344Y-61084173D01*
X-160107344Y-59734923D01*
X-160266094Y-59576173D01*
X-161106654Y-59576173D01*
X-161230344Y-59627407D01*
X-161354034Y-59576173D01*
X-162194594Y-59576173D01*
X-162353344Y-59734923D01*
X-162607344Y-59734923D01*
X-162766094Y-59576173D01*
X-163606654Y-59576173D01*
X-163718428Y-59622471D01*
X-163732579Y-59613016D01*
X-163980344Y-59563733D01*
X-165980344Y-59563733D01*
X-166228109Y-59613016D01*
X-166230344Y-59614509D01*
X-166232579Y-59613016D01*
X-166480344Y-59563733D01*
X-168480344Y-59563733D01*
X-168728109Y-59613016D01*
X-168938153Y-59753364D01*
X-169013360Y-59865918D01*
X-169054191Y-59825087D01*
X-169655122Y-59576173D01*
X-170305566Y-59576173D01*
X-170471719Y-59644996D01*
X-174240000Y-55876716D01*
X-174240000Y-21284801D01*
X-171630616Y-18675417D01*
X-171647440Y-18760000D01*
X-171647440Y-20760000D01*
X-171598157Y-21007765D01*
X-171583300Y-21030000D01*
X-171598157Y-21052235D01*
X-171647440Y-21300000D01*
X-171647440Y-23300000D01*
X-171598157Y-23547765D01*
X-171583300Y-23570000D01*
X-171598157Y-23592235D01*
X-171647440Y-23840000D01*
X-171647440Y-25840000D01*
X-171598157Y-26087765D01*
X-171583300Y-26110000D01*
X-171598157Y-26132235D01*
X-171647440Y-26380000D01*
X-171647440Y-28380000D01*
X-171598157Y-28627765D01*
X-171583300Y-28650000D01*
X-171598157Y-28672235D01*
X-171647440Y-28920000D01*
X-171647440Y-30920000D01*
X-171598157Y-31167765D01*
X-171583300Y-31190000D01*
X-171598157Y-31212235D01*
X-171647440Y-31460000D01*
X-171647440Y-33460000D01*
X-171598157Y-33707765D01*
X-171457809Y-33917809D01*
X-171321277Y-34009038D01*
X-171386086Y-34073847D01*
X-171635000Y-34674778D01*
X-171635000Y-35325222D01*
X-171566177Y-35491375D01*
X-173484470Y-37409669D01*
X-173547929Y-37452071D01*
X-173715904Y-37703464D01*
X-173760000Y-37925149D01*
X-173760000Y-37925153D01*
X-173774888Y-38000000D01*
X-173760000Y-38074847D01*
X-173759999Y-53838078D01*
X-173774888Y-53912930D01*
X-173759999Y-53987782D01*
X-173715903Y-54209467D01*
X-173547928Y-54460859D01*
X-173484472Y-54503259D01*
X-171003257Y-56984476D01*
X-170960859Y-57047929D01*
X-170897406Y-57090327D01*
X-170897404Y-57090329D01*
X-170772028Y-57174102D01*
X-170709467Y-57215904D01*
X-170487782Y-57260000D01*
X-170487778Y-57260000D01*
X-170412931Y-57274888D01*
X-170338084Y-57260000D01*
X-168703711Y-57260000D01*
X-168586280Y-57377431D01*
X-168205874Y-57535000D01*
X-167794126Y-57535000D01*
X-167413720Y-57377431D01*
X-167122569Y-57086280D01*
X-166965000Y-56705874D01*
X-166965000Y-56294126D01*
X-166979135Y-56260000D01*
X-153094018Y-56260000D01*
X-153019171Y-56274888D01*
X-152944324Y-56260000D01*
X-152944319Y-56260000D01*
X-152722634Y-56215904D01*
X-152471242Y-56047929D01*
X-152428841Y-55984471D01*
X-151995869Y-55551501D01*
X-151932415Y-55509102D01*
X-151890017Y-55445649D01*
X-151890015Y-55445647D01*
X-151831861Y-55358613D01*
X-151480344Y-55358613D01*
X-151232579Y-55309330D01*
X-151022535Y-55168982D01*
X-150882187Y-54958938D01*
X-150832904Y-54711173D01*
X-150832904Y-52711173D01*
X-150882187Y-52463408D01*
X-151022535Y-52253364D01*
X-151232579Y-52113016D01*
X-151480344Y-52063733D01*
X-153480344Y-52063733D01*
X-153728109Y-52113016D01*
X-153730344Y-52114509D01*
X-153732579Y-52113016D01*
X-153980344Y-52063733D01*
X-154220344Y-52063733D01*
X-154220344Y-49565750D01*
X-146635000Y-49565750D01*
X-146635000Y-50406310D01*
X-146538327Y-50639699D01*
X-146359698Y-50818327D01*
X-146126309Y-50915000D01*
X-145285750Y-50915000D01*
X-145127000Y-50756250D01*
X-145127000Y-49407000D01*
X-144873000Y-49407000D01*
X-144873000Y-50756250D01*
X-144714250Y-50915000D01*
X-143873691Y-50915000D01*
X-143640302Y-50818327D01*
X-143461673Y-50639699D01*
X-143365000Y-50406310D01*
X-143365000Y-49565750D01*
X-143523750Y-49407000D01*
X-144873000Y-49407000D01*
X-145127000Y-49407000D01*
X-146476250Y-49407000D01*
X-146635000Y-49565750D01*
X-154220344Y-49565750D01*
X-154220344Y-47025750D01*
X-146635000Y-47025750D01*
X-146635000Y-47866310D01*
X-146575482Y-48010000D01*
X-146635000Y-48153690D01*
X-146635000Y-48994250D01*
X-146476250Y-49153000D01*
X-145127000Y-49153000D01*
X-145127000Y-46867000D01*
X-144873000Y-46867000D01*
X-144873000Y-49153000D01*
X-143523750Y-49153000D01*
X-143365000Y-48994250D01*
X-143365000Y-48153690D01*
X-143424518Y-48010000D01*
X-143365000Y-47866310D01*
X-143365000Y-47025750D01*
X-143523750Y-46867000D01*
X-144873000Y-46867000D01*
X-145127000Y-46867000D01*
X-146476250Y-46867000D01*
X-146635000Y-47025750D01*
X-154220344Y-47025750D01*
X-154220344Y-45094503D01*
X-154205456Y-45019656D01*
X-154220344Y-44944809D01*
X-154220344Y-44944804D01*
X-154264440Y-44723119D01*
X-154423045Y-44485750D01*
X-146635000Y-44485750D01*
X-146635000Y-45326310D01*
X-146575482Y-45470000D01*
X-146635000Y-45613690D01*
X-146635000Y-46454250D01*
X-146476250Y-46613000D01*
X-145127000Y-46613000D01*
X-145127000Y-44327000D01*
X-144873000Y-44327000D01*
X-144873000Y-46613000D01*
X-143523750Y-46613000D01*
X-143365000Y-46454250D01*
X-143365000Y-45613690D01*
X-143424518Y-45470000D01*
X-143365000Y-45326310D01*
X-143365000Y-44485750D01*
X-143523750Y-44327000D01*
X-144873000Y-44327000D01*
X-145127000Y-44327000D01*
X-146476250Y-44327000D01*
X-146635000Y-44485750D01*
X-154423045Y-44485750D01*
X-154432415Y-44471727D01*
X-154495871Y-44429327D01*
X-155965000Y-42960199D01*
X-155965000Y-42794126D01*
X-156119968Y-42420000D01*
X-146647440Y-42420000D01*
X-146647440Y-42660000D01*
X-146598157Y-42907765D01*
X-146578474Y-42937223D01*
X-146635000Y-43073690D01*
X-146635000Y-43914250D01*
X-146476250Y-44073000D01*
X-145127000Y-44073000D01*
X-145127000Y-44053000D01*
X-144873000Y-44053000D01*
X-144873000Y-44073000D01*
X-143523750Y-44073000D01*
X-143365000Y-43914250D01*
X-143365000Y-43073690D01*
X-143421526Y-42937223D01*
X-143401843Y-42907765D01*
X-143352560Y-42660000D01*
X-143352560Y-40660000D01*
X-143401843Y-40412235D01*
X-143416700Y-40390000D01*
X-143401843Y-40367765D01*
X-143352560Y-40120000D01*
X-143352560Y-38120000D01*
X-143401843Y-37872235D01*
X-143416700Y-37850000D01*
X-143401843Y-37827765D01*
X-143352560Y-37580000D01*
X-143352560Y-35580000D01*
X-143401843Y-35332235D01*
X-143416700Y-35310000D01*
X-143401843Y-35287765D01*
X-143352560Y-35040000D01*
X-143352560Y-33040000D01*
X-143401843Y-32792235D01*
X-143542191Y-32582191D01*
X-143678723Y-32490962D01*
X-143613914Y-32426153D01*
X-143365000Y-31825222D01*
X-143365000Y-31174778D01*
X-143613914Y-30573847D01*
X-144073847Y-30113914D01*
X-144674778Y-29865000D01*
X-145325222Y-29865000D01*
X-145926153Y-30113914D01*
X-146386086Y-30573847D01*
X-146635000Y-31174778D01*
X-146635000Y-31825222D01*
X-146386086Y-32426153D01*
X-146321277Y-32490962D01*
X-146457809Y-32582191D01*
X-146598157Y-32792235D01*
X-146647440Y-33040000D01*
X-146647440Y-35040000D01*
X-146598157Y-35287765D01*
X-146583300Y-35310000D01*
X-146598157Y-35332235D01*
X-146647440Y-35580000D01*
X-146647440Y-37580000D01*
X-146598157Y-37827765D01*
X-146583300Y-37850000D01*
X-146598157Y-37872235D01*
X-146647440Y-38120000D01*
X-146647440Y-40120000D01*
X-146598157Y-40367765D01*
X-146583300Y-40390000D01*
X-146598157Y-40412235D01*
X-146647440Y-40660000D01*
X-146647440Y-40900000D01*
X-163585152Y-40900000D01*
X-163660000Y-40885112D01*
X-163734848Y-40900000D01*
X-163734852Y-40900000D01*
X-163908395Y-40934520D01*
X-163956538Y-40944096D01*
X-164143582Y-41069076D01*
X-164207929Y-41112071D01*
X-164250329Y-41175527D01*
X-166484470Y-43409669D01*
X-166547929Y-43452071D01*
X-166715904Y-43703464D01*
X-166760000Y-43925149D01*
X-166760000Y-43925153D01*
X-166774888Y-44000000D01*
X-166760000Y-44074847D01*
X-166759999Y-49925148D01*
X-166774888Y-50000000D01*
X-166715903Y-50296537D01*
X-166611978Y-50452071D01*
X-166579953Y-50500000D01*
X-166715904Y-50703463D01*
X-166760000Y-50925148D01*
X-166760000Y-50925153D01*
X-166774888Y-51000000D01*
X-166760000Y-51074847D01*
X-166760000Y-51366670D01*
X-166774888Y-51441517D01*
X-166760000Y-51516364D01*
X-166760000Y-51516368D01*
X-166715904Y-51738053D01*
X-166547929Y-51989446D01*
X-166484471Y-52031848D01*
X-166445693Y-52070625D01*
X-166480344Y-52063733D01*
X-168480344Y-52063733D01*
X-168728109Y-52113016D01*
X-168730344Y-52114509D01*
X-168732579Y-52113016D01*
X-168980344Y-52063733D01*
X-170545345Y-52063733D01*
X-170545345Y-40120146D01*
X-166015527Y-35590329D01*
X-165952071Y-35547929D01*
X-165784096Y-35296537D01*
X-165740000Y-35074852D01*
X-165740000Y-35074848D01*
X-165725112Y-35000001D01*
X-165740000Y-34925154D01*
X-165740000Y-20574846D01*
X-165725112Y-20499999D01*
X-165740000Y-20425152D01*
X-165740000Y-20425148D01*
X-165784096Y-20203463D01*
X-165952071Y-19952071D01*
X-166015527Y-19909671D01*
X-166649669Y-19275530D01*
X-166692071Y-19212071D01*
X-166943463Y-19044096D01*
X-167165148Y-19000000D01*
X-167165153Y-19000000D01*
X-167240000Y-18985112D01*
X-167314847Y-19000000D01*
X-168352560Y-19000000D01*
X-168352560Y-18760000D01*
X-168401843Y-18512235D01*
X-168416700Y-18490000D01*
X-168401843Y-18467765D01*
X-168352560Y-18220000D01*
X-168352560Y-18065750D01*
X-146635000Y-18065750D01*
X-146635000Y-18906310D01*
X-146538327Y-19139699D01*
X-146359698Y-19318327D01*
X-146126309Y-19415000D01*
X-145285750Y-19415000D01*
X-145127000Y-19256250D01*
X-145127000Y-17907000D01*
X-144873000Y-17907000D01*
X-144873000Y-19256250D01*
X-144714250Y-19415000D01*
X-143873691Y-19415000D01*
X-143640302Y-19318327D01*
X-143461673Y-19139699D01*
X-143365000Y-18906310D01*
X-143365000Y-18065750D01*
X-143523750Y-17907000D01*
X-144873000Y-17907000D01*
X-145127000Y-17907000D01*
X-146476250Y-17907000D01*
X-146635000Y-18065750D01*
X-168352560Y-18065750D01*
X-168352560Y-16220000D01*
X-168401843Y-15972235D01*
X-168416700Y-15950000D01*
X-168401843Y-15927765D01*
X-168352560Y-15680000D01*
X-168352560Y-15525750D01*
X-146635000Y-15525750D01*
X-146635000Y-16366310D01*
X-146575482Y-16510000D01*
X-146635000Y-16653690D01*
X-146635000Y-17494250D01*
X-146476250Y-17653000D01*
X-145127000Y-17653000D01*
X-145127000Y-15367000D01*
X-144873000Y-15367000D01*
X-144873000Y-17653000D01*
X-143523750Y-17653000D01*
X-143365000Y-17494250D01*
X-143365000Y-16653690D01*
X-143424518Y-16510000D01*
X-143365000Y-16366310D01*
X-143365000Y-15525750D01*
X-143523750Y-15367000D01*
X-144873000Y-15367000D01*
X-145127000Y-15367000D01*
X-146476250Y-15367000D01*
X-146635000Y-15525750D01*
X-168352560Y-15525750D01*
X-168352560Y-13680000D01*
X-168401843Y-13432235D01*
X-168421526Y-13402777D01*
X-168365000Y-13266310D01*
X-168365000Y-12985750D01*
X-146635000Y-12985750D01*
X-146635000Y-13826310D01*
X-146575482Y-13970000D01*
X-146635000Y-14113690D01*
X-146635000Y-14954250D01*
X-146476250Y-15113000D01*
X-145127000Y-15113000D01*
X-145127000Y-12827000D01*
X-144873000Y-12827000D01*
X-144873000Y-15113000D01*
X-143523750Y-15113000D01*
X-143365000Y-14954250D01*
X-143365000Y-14113690D01*
X-143424518Y-13970000D01*
X-143365000Y-13826310D01*
X-143365000Y-12985750D01*
X-143523750Y-12827000D01*
X-144873000Y-12827000D01*
X-145127000Y-12827000D01*
X-146476250Y-12827000D01*
X-146635000Y-12985750D01*
X-168365000Y-12985750D01*
X-168365000Y-12425750D01*
X-168523750Y-12267000D01*
X-169873000Y-12267000D01*
X-169873000Y-12287000D01*
X-170127000Y-12287000D01*
X-170127000Y-12267000D01*
X-171476250Y-12267000D01*
X-171635000Y-12425750D01*
X-171635000Y-13266310D01*
X-171578474Y-13402777D01*
X-171598157Y-13432235D01*
X-171647440Y-13680000D01*
X-171647440Y-13920000D01*
X-176105153Y-13920000D01*
X-176180000Y-13905112D01*
X-176254847Y-13920000D01*
X-176254852Y-13920000D01*
X-176476537Y-13964096D01*
X-176727929Y-14132071D01*
X-176770329Y-14195527D01*
X-181574801Y-19000000D01*
X-189352560Y-19000000D01*
X-189352560Y-18760000D01*
X-189401843Y-18512235D01*
X-189421526Y-18482777D01*
X-189365000Y-18346310D01*
X-189365000Y-17505750D01*
X-189523750Y-17347000D01*
X-190873000Y-17347000D01*
X-190873000Y-17367000D01*
X-191127000Y-17367000D01*
X-191127000Y-17347000D01*
X-192476250Y-17347000D01*
X-192635000Y-17505750D01*
X-192635000Y-18346310D01*
X-192578474Y-18482777D01*
X-192598157Y-18512235D01*
X-192647440Y-18760000D01*
X-192647440Y-19000000D01*
X-192740000Y-19000000D01*
X-192740000Y-11140000D01*
X-192647440Y-11140000D01*
X-192647440Y-13140000D01*
X-192598157Y-13387765D01*
X-192583300Y-13410000D01*
X-192598157Y-13432235D01*
X-192647440Y-13680000D01*
X-192647440Y-15680000D01*
X-192598157Y-15927765D01*
X-192578474Y-15957223D01*
X-192635000Y-16093690D01*
X-192635000Y-16934250D01*
X-192476250Y-17093000D01*
X-191127000Y-17093000D01*
X-191127000Y-17073000D01*
X-190873000Y-17073000D01*
X-190873000Y-17093000D01*
X-189523750Y-17093000D01*
X-189365000Y-16934250D01*
X-189365000Y-16093690D01*
X-189421526Y-15957223D01*
X-189401843Y-15927765D01*
X-189352560Y-15680000D01*
X-189352560Y-15440000D01*
X-189147440Y-15440000D01*
X-189147440Y-15750000D01*
X-189098157Y-15997765D01*
X-188957809Y-16207809D01*
X-188747765Y-16348157D01*
X-188500000Y-16397440D01*
X-187500000Y-16397440D01*
X-187252235Y-16348157D01*
X-187042191Y-16207809D01*
X-187000000Y-16144666D01*
X-186957809Y-16207809D01*
X-186747765Y-16348157D01*
X-186500000Y-16397440D01*
X-185500000Y-16397440D01*
X-185252235Y-16348157D01*
X-185042191Y-16207809D01*
X-184901843Y-15997765D01*
X-184854549Y-15760000D01*
X-182074847Y-15760000D01*
X-182000000Y-15774888D01*
X-181925153Y-15760000D01*
X-181925148Y-15760000D01*
X-181703463Y-15715904D01*
X-181452071Y-15547929D01*
X-181409669Y-15484470D01*
X-176938889Y-11013690D01*
X-171635000Y-11013690D01*
X-171635000Y-11854250D01*
X-171476250Y-12013000D01*
X-170127000Y-12013000D01*
X-170127000Y-10663750D01*
X-169873000Y-10663750D01*
X-169873000Y-12013000D01*
X-168523750Y-12013000D01*
X-168365000Y-11854250D01*
X-168365000Y-11013690D01*
X-168461673Y-10780301D01*
X-168640302Y-10601673D01*
X-168873691Y-10505000D01*
X-169714250Y-10505000D01*
X-169873000Y-10663750D01*
X-170127000Y-10663750D01*
X-170285750Y-10505000D01*
X-171126309Y-10505000D01*
X-171359698Y-10601673D01*
X-171538327Y-10780301D01*
X-171635000Y-11013690D01*
X-176938889Y-11013690D01*
X-171015524Y-5090327D01*
X-170952071Y-5047929D01*
X-170909673Y-4984476D01*
X-170909671Y-4984474D01*
X-170784097Y-4796538D01*
X-170784096Y-4796537D01*
X-170740000Y-4574852D01*
X-170740000Y-4574848D01*
X-170725112Y-4500001D01*
X-170740000Y-4425154D01*
X-170740000Y1925154D01*
X-170725112Y2000001D01*
X-170740000Y2074848D01*
X-170740000Y2074852D01*
X-170784096Y2296537D01*
X-170825898Y2359098D01*
X-170909671Y2484474D01*
X-170909673Y2484476D01*
X-170952071Y2547929D01*
X-171015524Y2590327D01*
X-171965000Y3539802D01*
X-171965000Y3705874D01*
X-172122569Y4086280D01*
X-172413720Y4377431D01*
X-172794126Y4535000D01*
X-173205874Y4535000D01*
X-173586280Y4377431D01*
X-173877431Y4086280D01*
X-174035000Y3705874D01*
X-174035000Y3294126D01*
X-173877431Y2913720D01*
X-173586280Y2622569D01*
X-173205874Y2465000D01*
X-173039802Y2465000D01*
X-172259999Y1685196D01*
X-172260000Y-4185197D01*
X-182314801Y-14240000D01*
X-184854549Y-14240000D01*
X-184901843Y-14002235D01*
X-185042191Y-13792191D01*
X-185252235Y-13651843D01*
X-185500000Y-13602560D01*
X-186500000Y-13602560D01*
X-186747765Y-13651843D01*
X-186957809Y-13792191D01*
X-187000000Y-13855334D01*
X-187042191Y-13792191D01*
X-187252235Y-13651843D01*
X-187500000Y-13602560D01*
X-188500000Y-13602560D01*
X-188747765Y-13651843D01*
X-188957809Y-13792191D01*
X-189043209Y-13920000D01*
X-189352560Y-13920000D01*
X-189352560Y-13680000D01*
X-189401843Y-13432235D01*
X-189416700Y-13410000D01*
X-189401843Y-13387765D01*
X-189352560Y-13140000D01*
X-189352560Y-12900000D01*
X-189117603Y-12900000D01*
X-189098157Y-12997765D01*
X-188957809Y-13207809D01*
X-188747765Y-13348157D01*
X-188500000Y-13397440D01*
X-187500000Y-13397440D01*
X-187252235Y-13348157D01*
X-187042191Y-13207809D01*
X-187000000Y-13144666D01*
X-186957809Y-13207809D01*
X-186747765Y-13348157D01*
X-186500000Y-13397440D01*
X-185500000Y-13397440D01*
X-185252235Y-13348157D01*
X-185042191Y-13207809D01*
X-184901843Y-12997765D01*
X-184852560Y-12750000D01*
X-184852560Y-12732858D01*
X-184767325Y-12715904D01*
X-184515933Y-12547929D01*
X-184473531Y-12484470D01*
X-173685208Y-1696148D01*
X-173519136Y-1696148D01*
X-173138730Y-1538579D01*
X-172847579Y-1247428D01*
X-172690010Y-867022D01*
X-172690010Y-455274D01*
X-172847579Y-74868D01*
X-173138730Y216283D01*
X-173519136Y373852D01*
X-173930884Y373852D01*
X-174311290Y216283D01*
X-174602441Y-74868D01*
X-174760010Y-455274D01*
X-174760010Y-621346D01*
X-184997595Y-10858932D01*
X-185042191Y-10792191D01*
X-185252235Y-10651843D01*
X-185500000Y-10602560D01*
X-186500000Y-10602560D01*
X-186747765Y-10651843D01*
X-186957809Y-10792191D01*
X-187000000Y-10855334D01*
X-187042191Y-10792191D01*
X-187252235Y-10651843D01*
X-187500000Y-10602560D01*
X-188500000Y-10602560D01*
X-188747765Y-10651843D01*
X-188957809Y-10792191D01*
X-189098157Y-11002235D01*
X-189147440Y-11250000D01*
X-189147440Y-11380000D01*
X-189352560Y-11380000D01*
X-189352560Y-11140000D01*
X-189401843Y-10892235D01*
X-189542191Y-10682191D01*
X-189752235Y-10541843D01*
X-190000000Y-10492560D01*
X-192000000Y-10492560D01*
X-192247765Y-10541843D01*
X-192457809Y-10682191D01*
X-192598157Y-10892235D01*
X-192647440Y-11140000D01*
X-192740000Y-11140000D01*
X-192740000Y-3574848D01*
X-192725112Y-3500000D01*
X-192740000Y-3425152D01*
X-192740000Y-3425148D01*
X-192784096Y-3203463D01*
X-192784096Y-3203462D01*
X-192909671Y-3015527D01*
X-192952071Y-2952071D01*
X-193015527Y-2909671D01*
X-193409669Y-2515529D01*
X-193452071Y-2452071D01*
X-193703463Y-2284096D01*
X-193925148Y-2240000D01*
X-193925153Y-2240000D01*
X-194000000Y-2225112D01*
X-194074847Y-2240000D01*
X-195045091Y-2240000D01*
X-195113914Y-2073847D01*
X-195437761Y-1750000D01*
X-195113914Y-1426153D01*
X-194865000Y-825222D01*
X-194865000Y-174778D01*
X-195113914Y426153D01*
X-195437761Y750000D01*
X-195113914Y1073847D01*
X-194865000Y1674778D01*
X-194865000Y2325222D01*
X-195113914Y2926153D01*
X-195573847Y3386086D01*
X-196174778Y3635000D01*
X-196825222Y3635000D01*
X-197426153Y3386086D01*
X-197886086Y2926153D01*
X-198135000Y2325222D01*
X-198135000Y1674778D01*
X-197886086Y1073847D01*
X-197562239Y750000D01*
X-197886086Y426153D01*
X-198135000Y-174778D01*
X-198135000Y-825222D01*
X-197886086Y-1426153D01*
X-197562239Y-1750000D01*
X-197886086Y-2073847D01*
X-198135000Y-2674778D01*
X-198135000Y-3325222D01*
X-197886086Y-3926153D01*
X-197562239Y-4250000D01*
X-197886086Y-4573847D01*
X-198135000Y-5174778D01*
X-198135000Y-5825222D01*
X-197886086Y-6426153D01*
X-197426153Y-6886086D01*
X-196825222Y-7135000D01*
X-196174778Y-7135000D01*
X-195573847Y-6886086D01*
X-195113914Y-6426153D01*
X-194865000Y-5825222D01*
X-194865000Y-5174778D01*
X-195113914Y-4573847D01*
X-195437761Y-4250000D01*
X-195113914Y-3926153D01*
X-195045091Y-3760000D01*
X-194314801Y-3760000D01*
X-194260000Y-3814802D01*
X-194259999Y-19425148D01*
X-194274888Y-19500000D01*
X-194215903Y-19796537D01*
X-194111978Y-19952071D01*
X-194047928Y-20047929D01*
X-193984472Y-20090329D01*
X-193830331Y-20244470D01*
X-193787929Y-20307929D01*
X-193536537Y-20475904D01*
X-193314852Y-20520000D01*
X-193314848Y-20520000D01*
X-193240000Y-20534888D01*
X-193165152Y-20520000D01*
X-192647440Y-20520000D01*
X-192647440Y-20760000D01*
X-192598157Y-21007765D01*
X-192583300Y-21030000D01*
X-192598157Y-21052235D01*
X-192647440Y-21300000D01*
X-192647440Y-23300000D01*
X-192598157Y-23547765D01*
X-192583300Y-23570000D01*
X-192598157Y-23592235D01*
X-192647440Y-23840000D01*
X-192647440Y-24080000D01*
X-193845198Y-24080000D01*
X-195433823Y-22491376D01*
X-195365000Y-22325222D01*
X-195365000Y-21674778D01*
X-195613914Y-21073847D01*
X-196073847Y-20613914D01*
X-196674778Y-20365000D01*
X-197325222Y-20365000D01*
X-197926153Y-20613914D01*
X-198386086Y-21073847D01*
X-198635000Y-21674778D01*
X-198635000Y-22325222D01*
X-198386086Y-22926153D01*
X-197926153Y-23386086D01*
X-197325222Y-23635000D01*
X-196674778Y-23635000D01*
X-196508624Y-23566177D01*
X-194750329Y-25324473D01*
X-194707929Y-25387929D01*
X-194644473Y-25430329D01*
X-194456538Y-25555904D01*
X-194408395Y-25565480D01*
X-194234852Y-25600000D01*
X-194234848Y-25600000D01*
X-194160000Y-25614888D01*
X-194085152Y-25600000D01*
X-192647440Y-25600000D01*
X-192647440Y-25840000D01*
X-192598157Y-26087765D01*
X-192583300Y-26110000D01*
X-192598157Y-26132235D01*
X-192647440Y-26380000D01*
X-192647440Y-28380000D01*
X-192598157Y-28627765D01*
X-192578474Y-28657223D01*
X-192635000Y-28793690D01*
X-192635000Y-29634250D01*
X-192476250Y-29793000D01*
X-191127000Y-29793000D01*
X-191127000Y-29773000D01*
X-190873000Y-29773000D01*
X-190873000Y-29793000D01*
X-189523750Y-29793000D01*
X-189365000Y-29634250D01*
X-189365000Y-28793690D01*
X-189421526Y-28657223D01*
X-189401843Y-28627765D01*
X-189352560Y-28380000D01*
X-189352560Y-28140000D01*
X-184934801Y-28140000D01*
X-178759999Y-34314803D01*
X-178760000Y-71425153D01*
X-178774888Y-71500000D01*
X-178760000Y-71574847D01*
X-178760000Y-71574851D01*
X-178715904Y-71796536D01*
X-178547929Y-72047929D01*
X-178484470Y-72090331D01*
X-172722242Y-77852560D01*
X-172851517Y-77852560D01*
X-172909671Y-77765527D01*
X-172952071Y-77702071D01*
X-173015527Y-77659671D01*
X-174659669Y-76015530D01*
X-174702071Y-75952071D01*
X-174953463Y-75784096D01*
X-175175148Y-75740000D01*
X-175175153Y-75740000D01*
X-175250000Y-75725112D01*
X-175324847Y-75740000D01*
X-175796289Y-75740000D01*
X-175913720Y-75622569D01*
X-176294126Y-75465000D01*
X-176705874Y-75465000D01*
X-177086280Y-75622569D01*
X-177377431Y-75913720D01*
X-177535000Y-76294126D01*
X-177535000Y-76705874D01*
X-177377431Y-77086280D01*
X-177086280Y-77377431D01*
X-176705874Y-77535000D01*
X-176294126Y-77535000D01*
X-175913720Y-77377431D01*
X-175796289Y-77260000D01*
X-175564801Y-77260000D01*
X-174972241Y-77852560D01*
X-175000000Y-77852560D01*
X-175247765Y-77901843D01*
X-175457809Y-78042191D01*
X-175598157Y-78252235D01*
X-175647440Y-78500000D01*
X-175647440Y-79500000D01*
X-175598157Y-79747765D01*
X-175457809Y-79957809D01*
X-175247765Y-80098157D01*
X-175000000Y-80147440D01*
X-172000000Y-80147440D01*
X-171752235Y-80098157D01*
X-171571867Y-79977638D01*
X-171386086Y-80426153D01*
X-170926153Y-80886086D01*
X-170325222Y-81135000D01*
X-169674778Y-81135000D01*
X-169073847Y-80886086D01*
X-169033016Y-80845255D01*
X-168957809Y-80957809D01*
X-168747765Y-81098157D01*
X-168500000Y-81147440D01*
X-166500000Y-81147440D01*
X-166252235Y-81098157D01*
X-166250000Y-81096664D01*
X-166247765Y-81098157D01*
X-166000000Y-81147440D01*
X-165760000Y-81147440D01*
X-165759999Y-81203464D01*
X-165760000Y-82685198D01*
X-166314801Y-83240000D01*
X-171410018Y-83240000D01*
X-171542191Y-83042191D01*
X-171752235Y-82901843D01*
X-172000000Y-82852560D01*
X-175000000Y-82852560D01*
X-175247765Y-82901843D01*
X-175457809Y-83042191D01*
X-175598157Y-83252235D01*
X-175647440Y-83500000D01*
X-175647440Y-84500000D01*
X-175598157Y-84747765D01*
X-175457809Y-84957809D01*
X-175247765Y-85098157D01*
X-175000000Y-85147440D01*
X-172000000Y-85147440D01*
X-171752235Y-85098157D01*
X-171542191Y-84957809D01*
X-171410018Y-84760000D01*
X-166314801Y-84760000D01*
X-165760000Y-85314802D01*
X-165760000Y-85675153D01*
X-165774888Y-85750000D01*
X-165760000Y-85824847D01*
X-165760000Y-85824851D01*
X-165715904Y-86046536D01*
X-165547929Y-86297929D01*
X-165484470Y-86340331D01*
X-164840329Y-86984473D01*
X-164797929Y-87047929D01*
X-164546537Y-87215904D01*
X-164425399Y-87240000D01*
X-173685198Y-87240000D01*
X-176852560Y-84072639D01*
X-176852560Y-83500000D01*
X-176901843Y-83252235D01*
X-177042191Y-83042191D01*
X-177252235Y-82901843D01*
X-177500000Y-82852560D01*
X-180500000Y-82852560D01*
X-180747765Y-82901843D01*
X-180957809Y-83042191D01*
X-181098157Y-83252235D01*
X-181147440Y-83500000D01*
X-181147440Y-84500000D01*
X-181098157Y-84747765D01*
X-180957809Y-84957809D01*
X-180747765Y-85098157D01*
X-180500000Y-85147440D01*
X-177927361Y-85147440D01*
X-174590329Y-88484473D01*
X-174547929Y-88547929D01*
X-174296537Y-88715904D01*
X-174074852Y-88760000D01*
X-174074848Y-88760000D01*
X-174000001Y-88774888D01*
X-173925154Y-88760000D01*
X-158703711Y-88760000D01*
X-158590711Y-88873000D01*
X-198873000Y-88873000D01*
X-198873000Y-44674778D01*
X-197135000Y-44674778D01*
X-197135000Y-45325222D01*
X-196886086Y-45926153D01*
X-196426153Y-46386086D01*
X-196151141Y-46500000D01*
X-196426153Y-46613914D01*
X-196886086Y-47073847D01*
X-197135000Y-47674778D01*
X-197135000Y-48325222D01*
X-196886086Y-48926153D01*
X-196426153Y-49386086D01*
X-196260000Y-49454909D01*
X-196259999Y-79425148D01*
X-196274888Y-79500000D01*
X-196215903Y-79796537D01*
X-196108144Y-79957809D01*
X-196047928Y-80047929D01*
X-195984472Y-80090329D01*
X-194090329Y-81984473D01*
X-194047929Y-82047929D01*
X-193796537Y-82215904D01*
X-193574852Y-82260000D01*
X-193574848Y-82260000D01*
X-193500001Y-82274888D01*
X-193425154Y-82260000D01*
X-192497440Y-82260000D01*
X-192497440Y-82350000D01*
X-192448157Y-82597765D01*
X-192307809Y-82807809D01*
X-192097765Y-82948157D01*
X-191850000Y-82997440D01*
X-190150000Y-82997440D01*
X-189902235Y-82948157D01*
X-189692191Y-82807809D01*
X-189551843Y-82597765D01*
X-189502560Y-82350000D01*
X-189502560Y-80650000D01*
X-189551843Y-80402235D01*
X-189692191Y-80192191D01*
X-189902235Y-80051843D01*
X-190150000Y-80002560D01*
X-191850000Y-80002560D01*
X-192097765Y-80051843D01*
X-192307809Y-80192191D01*
X-192448157Y-80402235D01*
X-192497440Y-80650000D01*
X-192497440Y-80740000D01*
X-193185198Y-80740000D01*
X-194740000Y-79185199D01*
X-194740000Y-78500000D01*
X-181147440Y-78500000D01*
X-181147440Y-79500000D01*
X-181098157Y-79747765D01*
X-180957809Y-79957809D01*
X-180747765Y-80098157D01*
X-180500000Y-80147440D01*
X-177500000Y-80147440D01*
X-177252235Y-80098157D01*
X-177042191Y-79957809D01*
X-176901843Y-79747765D01*
X-176852560Y-79500000D01*
X-176852560Y-78500000D01*
X-176901843Y-78252235D01*
X-177042191Y-78042191D01*
X-177252235Y-77901843D01*
X-177500000Y-77852560D01*
X-178240000Y-77852560D01*
X-178240000Y-77203711D01*
X-178122569Y-77086280D01*
X-177965000Y-76705874D01*
X-177965000Y-76294126D01*
X-178122569Y-75913720D01*
X-178413720Y-75622569D01*
X-178794126Y-75465000D01*
X-179205874Y-75465000D01*
X-179586280Y-75622569D01*
X-179877431Y-75913720D01*
X-180035000Y-76294126D01*
X-180035000Y-76705874D01*
X-179877431Y-77086280D01*
X-179760000Y-77203711D01*
X-179759999Y-77852560D01*
X-180500000Y-77852560D01*
X-180747765Y-77901843D01*
X-180957809Y-78042191D01*
X-181098157Y-78252235D01*
X-181147440Y-78500000D01*
X-194740000Y-78500000D01*
X-194740000Y-49454909D01*
X-194573847Y-49386086D01*
X-194113914Y-48926153D01*
X-193865000Y-48325222D01*
X-193865000Y-47674778D01*
X-194113914Y-47073847D01*
X-194573847Y-46613914D01*
X-194848859Y-46500000D01*
X-194573847Y-46386086D01*
X-194174175Y-45986414D01*
X-185260000Y-54900589D01*
X-185259999Y-59854549D01*
X-185497765Y-59901843D01*
X-185707809Y-60042191D01*
X-185848157Y-60252235D01*
X-185897440Y-60500000D01*
X-185897440Y-64072638D01*
X-186484472Y-64659671D01*
X-186547928Y-64702071D01*
X-186590328Y-64765527D01*
X-186590329Y-64765528D01*
X-186715903Y-64953463D01*
X-186774888Y-65250000D01*
X-186759999Y-65324852D01*
X-186759999Y-65352560D01*
X-187000000Y-65352560D01*
X-187247765Y-65401843D01*
X-187457809Y-65542191D01*
X-187556900Y-65690490D01*
X-187902056Y-65459864D01*
X-188240000Y-65392643D01*
X-188240000Y-65145451D01*
X-188002235Y-65098157D01*
X-187792191Y-64957809D01*
X-187651843Y-64747765D01*
X-187602560Y-64500000D01*
X-187602560Y-60500000D01*
X-187651843Y-60252235D01*
X-187792191Y-60042191D01*
X-188002235Y-59901843D01*
X-188250000Y-59852560D01*
X-189750000Y-59852560D01*
X-189997765Y-59901843D01*
X-190207809Y-60042191D01*
X-190348157Y-60252235D01*
X-190397440Y-60500000D01*
X-190397440Y-64500000D01*
X-190348157Y-64747765D01*
X-190207809Y-64957809D01*
X-189997765Y-65098157D01*
X-189759999Y-65145451D01*
X-189759999Y-65882937D01*
X-190080136Y-66362056D01*
X-190158628Y-66756664D01*
X-190296537Y-66784096D01*
X-190547929Y-66952071D01*
X-190590329Y-67015527D01*
X-191484472Y-67909671D01*
X-191547928Y-67952071D01*
X-191590328Y-68015527D01*
X-191590329Y-68015528D01*
X-191715903Y-68203463D01*
X-191774888Y-68500000D01*
X-191759999Y-68574852D01*
X-191760000Y-74502560D01*
X-191850000Y-74502560D01*
X-192097765Y-74551843D01*
X-192307809Y-74692191D01*
X-192448157Y-74902235D01*
X-192497440Y-75150000D01*
X-192497440Y-76850000D01*
X-192448157Y-77097765D01*
X-192307809Y-77307809D01*
X-192097765Y-77448157D01*
X-191850000Y-77497440D01*
X-190150000Y-77497440D01*
X-189902235Y-77448157D01*
X-189692191Y-77307809D01*
X-189551843Y-77097765D01*
X-189502560Y-76850000D01*
X-189502560Y-75150000D01*
X-189551843Y-74902235D01*
X-189692191Y-74692191D01*
X-189902235Y-74551843D01*
X-190150000Y-74502560D01*
X-190240000Y-74502560D01*
X-190240000Y-68814801D01*
X-190174999Y-68749800D01*
X-190174999Y-69161031D01*
X-190080135Y-69637945D01*
X-189718768Y-70178769D01*
X-189177944Y-70540136D01*
X-188540000Y-70667031D01*
X-187902055Y-70540136D01*
X-187556900Y-70309511D01*
X-187457809Y-70457809D01*
X-187247765Y-70598157D01*
X-187000000Y-70647440D01*
X-185000000Y-70647440D01*
X-184752235Y-70598157D01*
X-184730000Y-70583300D01*
X-184707765Y-70598157D01*
X-184460000Y-70647440D01*
X-182460000Y-70647440D01*
X-182212235Y-70598157D01*
X-182182776Y-70578473D01*
X-182046309Y-70635000D01*
X-181205750Y-70635000D01*
X-181047000Y-70476250D01*
X-181047000Y-68127000D01*
X-180793000Y-68127000D01*
X-180793000Y-70476250D01*
X-180634250Y-70635000D01*
X-179793691Y-70635000D01*
X-179560302Y-70538327D01*
X-179381673Y-70359699D01*
X-179285000Y-70126310D01*
X-179285000Y-68285750D01*
X-179443750Y-68127000D01*
X-180793000Y-68127000D01*
X-181047000Y-68127000D01*
X-181067000Y-68127000D01*
X-181067000Y-67873000D01*
X-181047000Y-67873000D01*
X-181047000Y-65523750D01*
X-180793000Y-65523750D01*
X-180793000Y-67873000D01*
X-179443750Y-67873000D01*
X-179285000Y-67714250D01*
X-179285000Y-65873690D01*
X-179381673Y-65640301D01*
X-179560302Y-65461673D01*
X-179793691Y-65365000D01*
X-180634250Y-65365000D01*
X-180793000Y-65523750D01*
X-181047000Y-65523750D01*
X-181205750Y-65365000D01*
X-182046309Y-65365000D01*
X-182182776Y-65421527D01*
X-182212235Y-65401843D01*
X-182460000Y-65352560D01*
X-184460000Y-65352560D01*
X-184707765Y-65401843D01*
X-184730000Y-65416700D01*
X-184752235Y-65401843D01*
X-185000000Y-65352560D01*
X-185027758Y-65352560D01*
X-184822638Y-65147440D01*
X-183750000Y-65147440D01*
X-183502235Y-65098157D01*
X-183292191Y-64957809D01*
X-183151843Y-64747765D01*
X-183102560Y-64500000D01*
X-183102560Y-60500000D01*
X-183151843Y-60252235D01*
X-183292191Y-60042191D01*
X-183502235Y-59901843D01*
X-183740000Y-59854549D01*
X-183740000Y-54660634D01*
X-183725112Y-54585787D01*
X-183740000Y-54510940D01*
X-183740000Y-54510935D01*
X-183784096Y-54289250D01*
X-183952071Y-54037858D01*
X-184015527Y-53995458D01*
X-193495456Y-44515530D01*
X-193537858Y-44452071D01*
X-193789250Y-44284096D01*
X-194010935Y-44240000D01*
X-194010940Y-44240000D01*
X-194048158Y-44232597D01*
X-194113914Y-44073847D01*
X-194573847Y-43613914D01*
X-195174778Y-43365000D01*
X-195825222Y-43365000D01*
X-196426153Y-43613914D01*
X-196886086Y-44073847D01*
X-197135000Y-44674778D01*
X-198873000Y-44674778D01*
X-198873000Y-31460000D01*
X-192647440Y-31460000D01*
X-192647440Y-33460000D01*
X-192598157Y-33707765D01*
X-192457809Y-33917809D01*
X-192321277Y-34009038D01*
X-192386086Y-34073847D01*
X-192635000Y-34674778D01*
X-192635000Y-35325222D01*
X-192386086Y-35926153D01*
X-191926153Y-36386086D01*
X-191325222Y-36635000D01*
X-190674778Y-36635000D01*
X-190073847Y-36386086D01*
X-189613914Y-35926153D01*
X-189365000Y-35325222D01*
X-189365000Y-34674778D01*
X-189613914Y-34073847D01*
X-189678723Y-34009038D01*
X-189542191Y-33917809D01*
X-189401843Y-33707765D01*
X-189352560Y-33460000D01*
X-189352560Y-31460000D01*
X-189401843Y-31212235D01*
X-189421526Y-31182777D01*
X-189365000Y-31046310D01*
X-189365000Y-30205750D01*
X-189523750Y-30047000D01*
X-190873000Y-30047000D01*
X-190873000Y-30067000D01*
X-191127000Y-30067000D01*
X-191127000Y-30047000D01*
X-192476250Y-30047000D01*
X-192635000Y-30205750D01*
X-192635000Y-31046310D01*
X-192578474Y-31182777D01*
X-192598157Y-31212235D01*
X-192647440Y-31460000D01*
X-198873000Y-31460000D01*
X-198873000Y8873000D01*
X-115127000Y8873000D01*
X-115127000Y-15779228D01*
G36*
X-146386086Y-62073847D02*
X-146635000Y-62674778D01*
X-146635000Y-63325222D01*
X-146386086Y-63926153D01*
X-146321277Y-63990962D01*
X-146457809Y-64082191D01*
X-146598157Y-64292235D01*
X-146647440Y-64540000D01*
X-146647440Y-66540000D01*
X-146598157Y-66787765D01*
X-146583300Y-66810000D01*
X-146598157Y-66832235D01*
X-146647440Y-67080000D01*
X-146647440Y-69080000D01*
X-146598157Y-69327765D01*
X-146583300Y-69350000D01*
X-146598157Y-69372235D01*
X-146647440Y-69620000D01*
X-146647440Y-71620000D01*
X-146598157Y-71867765D01*
X-146583300Y-71890000D01*
X-146598157Y-71912235D01*
X-146647440Y-72160000D01*
X-146647440Y-74160000D01*
X-146598157Y-74407765D01*
X-146578474Y-74437223D01*
X-146635000Y-74573690D01*
X-146635000Y-75414250D01*
X-146476250Y-75573000D01*
X-145127000Y-75573000D01*
X-145127000Y-75553000D01*
X-144873000Y-75553000D01*
X-144873000Y-75573000D01*
X-143523750Y-75573000D01*
X-143365000Y-75414250D01*
X-143365000Y-74573690D01*
X-143421526Y-74437223D01*
X-143401843Y-74407765D01*
X-143352560Y-74160000D01*
X-143352560Y-73920000D01*
X-143259999Y-73920000D01*
X-143260000Y-81185197D01*
X-143365000Y-81290197D01*
X-143365000Y-81065750D01*
X-143523750Y-80907000D01*
X-144873000Y-80907000D01*
X-144873000Y-82256250D01*
X-144714250Y-82415000D01*
X-144489802Y-82415000D01*
X-146314801Y-84240000D01*
X-156685198Y-84240000D01*
X-156740000Y-84185199D01*
X-156740000Y-81147440D01*
X-156500000Y-81147440D01*
X-156252235Y-81098157D01*
X-156250000Y-81096664D01*
X-156247765Y-81098157D01*
X-156000000Y-81147440D01*
X-154000000Y-81147440D01*
X-153752235Y-81098157D01*
X-153750000Y-81096664D01*
X-153747765Y-81098157D01*
X-153500000Y-81147440D01*
X-151500000Y-81147440D01*
X-151252235Y-81098157D01*
X-151203735Y-81065750D01*
X-146635000Y-81065750D01*
X-146635000Y-81906310D01*
X-146538327Y-82139699D01*
X-146359698Y-82318327D01*
X-146126309Y-82415000D01*
X-145285750Y-82415000D01*
X-145127000Y-82256250D01*
X-145127000Y-80907000D01*
X-146476250Y-80907000D01*
X-146635000Y-81065750D01*
X-151203735Y-81065750D01*
X-151042191Y-80957809D01*
X-150901843Y-80747765D01*
X-150852560Y-80500000D01*
X-150852560Y-78525750D01*
X-146635000Y-78525750D01*
X-146635000Y-79366310D01*
X-146575482Y-79510000D01*
X-146635000Y-79653690D01*
X-146635000Y-80494250D01*
X-146476250Y-80653000D01*
X-145127000Y-80653000D01*
X-145127000Y-78367000D01*
X-144873000Y-78367000D01*
X-144873000Y-80653000D01*
X-143523750Y-80653000D01*
X-143365000Y-80494250D01*
X-143365000Y-79653690D01*
X-143424518Y-79510000D01*
X-143365000Y-79366310D01*
X-143365000Y-78525750D01*
X-143523750Y-78367000D01*
X-144873000Y-78367000D01*
X-145127000Y-78367000D01*
X-146476250Y-78367000D01*
X-146635000Y-78525750D01*
X-150852560Y-78525750D01*
X-150852560Y-78500000D01*
X-150901843Y-78252235D01*
X-151042191Y-78042191D01*
X-151252235Y-77901843D01*
X-151500000Y-77852560D01*
X-153500000Y-77852560D01*
X-153747765Y-77901843D01*
X-153750000Y-77903336D01*
X-153752235Y-77901843D01*
X-154000000Y-77852560D01*
X-156000000Y-77852560D01*
X-156247765Y-77901843D01*
X-156250000Y-77903336D01*
X-156252235Y-77901843D01*
X-156500000Y-77852560D01*
X-158500000Y-77852560D01*
X-158747765Y-77901843D01*
X-158761916Y-77911298D01*
X-158873690Y-77865000D01*
X-159714250Y-77865000D01*
X-159873000Y-78023750D01*
X-159873000Y-79373000D01*
X-159853000Y-79373000D01*
X-159853000Y-79627000D01*
X-159873000Y-79627000D01*
X-159873000Y-80976250D01*
X-159714250Y-81135000D01*
X-158873690Y-81135000D01*
X-158761916Y-81088702D01*
X-158747765Y-81098157D01*
X-158500000Y-81147440D01*
X-158260000Y-81147440D01*
X-158260000Y-82425149D01*
X-158259999Y-84425148D01*
X-158274888Y-84500000D01*
X-158215903Y-84796537D01*
X-158108144Y-84957809D01*
X-158047928Y-85047929D01*
X-157984473Y-85090329D01*
X-157590329Y-85484472D01*
X-157547929Y-85547929D01*
X-157484473Y-85590329D01*
X-157296538Y-85715904D01*
X-157248395Y-85725480D01*
X-157175399Y-85740000D01*
X-163935198Y-85740000D01*
X-164240000Y-85435199D01*
X-164240000Y-85074848D01*
X-164225112Y-85000000D01*
X-164240000Y-84925152D01*
X-164240000Y-84925148D01*
X-164284096Y-84703463D01*
X-164452071Y-84452071D01*
X-164515527Y-84409671D01*
X-164925198Y-84000000D01*
X-164515527Y-83590329D01*
X-164452071Y-83547929D01*
X-164284096Y-83296537D01*
X-164240000Y-83074852D01*
X-164240000Y-83074848D01*
X-164225112Y-83000000D01*
X-164240000Y-82925152D01*
X-164240000Y-81147440D01*
X-164000000Y-81147440D01*
X-163752235Y-81098157D01*
X-163738084Y-81088702D01*
X-163626310Y-81135000D01*
X-162785750Y-81135000D01*
X-162627000Y-80976250D01*
X-162627000Y-79627000D01*
X-162373000Y-79627000D01*
X-162373000Y-80976250D01*
X-162214250Y-81135000D01*
X-161373690Y-81135000D01*
X-161250000Y-81083766D01*
X-161126310Y-81135000D01*
X-160285750Y-81135000D01*
X-160127000Y-80976250D01*
X-160127000Y-79627000D01*
X-162373000Y-79627000D01*
X-162627000Y-79627000D01*
X-162647000Y-79627000D01*
X-162647000Y-79373000D01*
X-162627000Y-79373000D01*
X-162627000Y-78023750D01*
X-162373000Y-78023750D01*
X-162373000Y-79373000D01*
X-160127000Y-79373000D01*
X-160127000Y-78023750D01*
X-160285750Y-77865000D01*
X-161126310Y-77865000D01*
X-161250000Y-77916234D01*
X-161373690Y-77865000D01*
X-162214250Y-77865000D01*
X-162373000Y-78023750D01*
X-162627000Y-78023750D01*
X-162785750Y-77865000D01*
X-163626310Y-77865000D01*
X-163738084Y-77911298D01*
X-163752235Y-77901843D01*
X-164000000Y-77852560D01*
X-166000000Y-77852560D01*
X-166247765Y-77901843D01*
X-166250000Y-77903336D01*
X-166252235Y-77901843D01*
X-166500000Y-77852560D01*
X-166740000Y-77852560D01*
X-166740000Y-77796261D01*
X-166725112Y-77721413D01*
X-166740000Y-77646565D01*
X-166740000Y-77646561D01*
X-166784096Y-77424876D01*
X-166784096Y-77424875D01*
X-166909671Y-77236940D01*
X-166952071Y-77173484D01*
X-167015527Y-77131084D01*
X-168160861Y-75985750D01*
X-146635000Y-75985750D01*
X-146635000Y-76826310D01*
X-146575482Y-76970000D01*
X-146635000Y-77113690D01*
X-146635000Y-77954250D01*
X-146476250Y-78113000D01*
X-145127000Y-78113000D01*
X-145127000Y-75827000D01*
X-144873000Y-75827000D01*
X-144873000Y-78113000D01*
X-143523750Y-78113000D01*
X-143365000Y-77954250D01*
X-143365000Y-77113690D01*
X-143424518Y-76970000D01*
X-143365000Y-76826310D01*
X-143365000Y-75985750D01*
X-143523750Y-75827000D01*
X-144873000Y-75827000D01*
X-145127000Y-75827000D01*
X-146476250Y-75827000D01*
X-146635000Y-75985750D01*
X-168160861Y-75985750D01*
X-170499171Y-73647440D01*
X-169000000Y-73647440D01*
X-168752235Y-73598157D01*
X-168750000Y-73596664D01*
X-168747765Y-73598157D01*
X-168500000Y-73647440D01*
X-166500000Y-73647440D01*
X-166252235Y-73598157D01*
X-166250000Y-73596664D01*
X-166247765Y-73598157D01*
X-166000000Y-73647440D01*
X-164000000Y-73647440D01*
X-163752235Y-73598157D01*
X-163738084Y-73588702D01*
X-163626310Y-73635000D01*
X-162785750Y-73635000D01*
X-162627000Y-73476250D01*
X-162627000Y-72127000D01*
X-162373000Y-72127000D01*
X-162373000Y-73476250D01*
X-162214250Y-73635000D01*
X-161373690Y-73635000D01*
X-161250000Y-73583766D01*
X-161126310Y-73635000D01*
X-160285750Y-73635000D01*
X-160127000Y-73476250D01*
X-160127000Y-72127000D01*
X-162373000Y-72127000D01*
X-162627000Y-72127000D01*
X-162647000Y-72127000D01*
X-162647000Y-71873000D01*
X-162627000Y-71873000D01*
X-162627000Y-71853000D01*
X-162373000Y-71853000D01*
X-162373000Y-71873000D01*
X-160127000Y-71873000D01*
X-160127000Y-71853000D01*
X-159873000Y-71853000D01*
X-159873000Y-71873000D01*
X-159853000Y-71873000D01*
X-159853000Y-72127000D01*
X-159873000Y-72127000D01*
X-159873000Y-73476250D01*
X-159714250Y-73635000D01*
X-158873690Y-73635000D01*
X-158761916Y-73588702D01*
X-158747765Y-73598157D01*
X-158500000Y-73647440D01*
X-156500000Y-73647440D01*
X-156252235Y-73598157D01*
X-156250000Y-73596664D01*
X-156247765Y-73598157D01*
X-156000000Y-73647440D01*
X-154000000Y-73647440D01*
X-153752235Y-73598157D01*
X-153750000Y-73596664D01*
X-153747765Y-73598157D01*
X-153500000Y-73647440D01*
X-151500000Y-73647440D01*
X-151252235Y-73598157D01*
X-151042191Y-73457809D01*
X-150901843Y-73247765D01*
X-150852560Y-73000000D01*
X-150852560Y-71260000D01*
X-149074847Y-71260000D01*
X-149000000Y-71274888D01*
X-148925153Y-71260000D01*
X-148925148Y-71260000D01*
X-148703463Y-71215904D01*
X-148452071Y-71047929D01*
X-148409669Y-70984470D01*
X-147015524Y-69590327D01*
X-146952071Y-69547929D01*
X-146909673Y-69484476D01*
X-146909671Y-69484474D01*
X-146804962Y-69327765D01*
X-146784096Y-69296537D01*
X-146740000Y-69074852D01*
X-146740000Y-69074848D01*
X-146725112Y-69000001D01*
X-146740000Y-68925154D01*
X-146740000Y-62314801D01*
X-146185198Y-61760000D01*
X-146072239Y-61760000D01*
X-146386086Y-62073847D01*
X-146386086Y-62073847D01*
G37*
X-146386086Y-62073847D02*
X-146635000Y-62674778D01*
X-146635000Y-63325222D01*
X-146386086Y-63926153D01*
X-146321277Y-63990962D01*
X-146457809Y-64082191D01*
X-146598157Y-64292235D01*
X-146647440Y-64540000D01*
X-146647440Y-66540000D01*
X-146598157Y-66787765D01*
X-146583300Y-66810000D01*
X-146598157Y-66832235D01*
X-146647440Y-67080000D01*
X-146647440Y-69080000D01*
X-146598157Y-69327765D01*
X-146583300Y-69350000D01*
X-146598157Y-69372235D01*
X-146647440Y-69620000D01*
X-146647440Y-71620000D01*
X-146598157Y-71867765D01*
X-146583300Y-71890000D01*
X-146598157Y-71912235D01*
X-146647440Y-72160000D01*
X-146647440Y-74160000D01*
X-146598157Y-74407765D01*
X-146578474Y-74437223D01*
X-146635000Y-74573690D01*
X-146635000Y-75414250D01*
X-146476250Y-75573000D01*
X-145127000Y-75573000D01*
X-145127000Y-75553000D01*
X-144873000Y-75553000D01*
X-144873000Y-75573000D01*
X-143523750Y-75573000D01*
X-143365000Y-75414250D01*
X-143365000Y-74573690D01*
X-143421526Y-74437223D01*
X-143401843Y-74407765D01*
X-143352560Y-74160000D01*
X-143352560Y-73920000D01*
X-143259999Y-73920000D01*
X-143260000Y-81185197D01*
X-143365000Y-81290197D01*
X-143365000Y-81065750D01*
X-143523750Y-80907000D01*
X-144873000Y-80907000D01*
X-144873000Y-82256250D01*
X-144714250Y-82415000D01*
X-144489802Y-82415000D01*
X-146314801Y-84240000D01*
X-156685198Y-84240000D01*
X-156740000Y-84185199D01*
X-156740000Y-81147440D01*
X-156500000Y-81147440D01*
X-156252235Y-81098157D01*
X-156250000Y-81096664D01*
X-156247765Y-81098157D01*
X-156000000Y-81147440D01*
X-154000000Y-81147440D01*
X-153752235Y-81098157D01*
X-153750000Y-81096664D01*
X-153747765Y-81098157D01*
X-153500000Y-81147440D01*
X-151500000Y-81147440D01*
X-151252235Y-81098157D01*
X-151203735Y-81065750D01*
X-146635000Y-81065750D01*
X-146635000Y-81906310D01*
X-146538327Y-82139699D01*
X-146359698Y-82318327D01*
X-146126309Y-82415000D01*
X-145285750Y-82415000D01*
X-145127000Y-82256250D01*
X-145127000Y-80907000D01*
X-146476250Y-80907000D01*
X-146635000Y-81065750D01*
X-151203735Y-81065750D01*
X-151042191Y-80957809D01*
X-150901843Y-80747765D01*
X-150852560Y-80500000D01*
X-150852560Y-78525750D01*
X-146635000Y-78525750D01*
X-146635000Y-79366310D01*
X-146575482Y-79510000D01*
X-146635000Y-79653690D01*
X-146635000Y-80494250D01*
X-146476250Y-80653000D01*
X-145127000Y-80653000D01*
X-145127000Y-78367000D01*
X-144873000Y-78367000D01*
X-144873000Y-80653000D01*
X-143523750Y-80653000D01*
X-143365000Y-80494250D01*
X-143365000Y-79653690D01*
X-143424518Y-79510000D01*
X-143365000Y-79366310D01*
X-143365000Y-78525750D01*
X-143523750Y-78367000D01*
X-144873000Y-78367000D01*
X-145127000Y-78367000D01*
X-146476250Y-78367000D01*
X-146635000Y-78525750D01*
X-150852560Y-78525750D01*
X-150852560Y-78500000D01*
X-150901843Y-78252235D01*
X-151042191Y-78042191D01*
X-151252235Y-77901843D01*
X-151500000Y-77852560D01*
X-153500000Y-77852560D01*
X-153747765Y-77901843D01*
X-153750000Y-77903336D01*
X-153752235Y-77901843D01*
X-154000000Y-77852560D01*
X-156000000Y-77852560D01*
X-156247765Y-77901843D01*
X-156250000Y-77903336D01*
X-156252235Y-77901843D01*
X-156500000Y-77852560D01*
X-158500000Y-77852560D01*
X-158747765Y-77901843D01*
X-158761916Y-77911298D01*
X-158873690Y-77865000D01*
X-159714250Y-77865000D01*
X-159873000Y-78023750D01*
X-159873000Y-79373000D01*
X-159853000Y-79373000D01*
X-159853000Y-79627000D01*
X-159873000Y-79627000D01*
X-159873000Y-80976250D01*
X-159714250Y-81135000D01*
X-158873690Y-81135000D01*
X-158761916Y-81088702D01*
X-158747765Y-81098157D01*
X-158500000Y-81147440D01*
X-158260000Y-81147440D01*
X-158260000Y-82425149D01*
X-158259999Y-84425148D01*
X-158274888Y-84500000D01*
X-158215903Y-84796537D01*
X-158108144Y-84957809D01*
X-158047928Y-85047929D01*
X-157984473Y-85090329D01*
X-157590329Y-85484472D01*
X-157547929Y-85547929D01*
X-157484473Y-85590329D01*
X-157296538Y-85715904D01*
X-157248395Y-85725480D01*
X-157175399Y-85740000D01*
X-163935198Y-85740000D01*
X-164240000Y-85435199D01*
X-164240000Y-85074848D01*
X-164225112Y-85000000D01*
X-164240000Y-84925152D01*
X-164240000Y-84925148D01*
X-164284096Y-84703463D01*
X-164452071Y-84452071D01*
X-164515527Y-84409671D01*
X-164925198Y-84000000D01*
X-164515527Y-83590329D01*
X-164452071Y-83547929D01*
X-164284096Y-83296537D01*
X-164240000Y-83074852D01*
X-164240000Y-83074848D01*
X-164225112Y-83000000D01*
X-164240000Y-82925152D01*
X-164240000Y-81147440D01*
X-164000000Y-81147440D01*
X-163752235Y-81098157D01*
X-163738084Y-81088702D01*
X-163626310Y-81135000D01*
X-162785750Y-81135000D01*
X-162627000Y-80976250D01*
X-162627000Y-79627000D01*
X-162373000Y-79627000D01*
X-162373000Y-80976250D01*
X-162214250Y-81135000D01*
X-161373690Y-81135000D01*
X-161250000Y-81083766D01*
X-161126310Y-81135000D01*
X-160285750Y-81135000D01*
X-160127000Y-80976250D01*
X-160127000Y-79627000D01*
X-162373000Y-79627000D01*
X-162627000Y-79627000D01*
X-162647000Y-79627000D01*
X-162647000Y-79373000D01*
X-162627000Y-79373000D01*
X-162627000Y-78023750D01*
X-162373000Y-78023750D01*
X-162373000Y-79373000D01*
X-160127000Y-79373000D01*
X-160127000Y-78023750D01*
X-160285750Y-77865000D01*
X-161126310Y-77865000D01*
X-161250000Y-77916234D01*
X-161373690Y-77865000D01*
X-162214250Y-77865000D01*
X-162373000Y-78023750D01*
X-162627000Y-78023750D01*
X-162785750Y-77865000D01*
X-163626310Y-77865000D01*
X-163738084Y-77911298D01*
X-163752235Y-77901843D01*
X-164000000Y-77852560D01*
X-166000000Y-77852560D01*
X-166247765Y-77901843D01*
X-166250000Y-77903336D01*
X-166252235Y-77901843D01*
X-166500000Y-77852560D01*
X-166740000Y-77852560D01*
X-166740000Y-77796261D01*
X-166725112Y-77721413D01*
X-166740000Y-77646565D01*
X-166740000Y-77646561D01*
X-166784096Y-77424876D01*
X-166784096Y-77424875D01*
X-166909671Y-77236940D01*
X-166952071Y-77173484D01*
X-167015527Y-77131084D01*
X-168160861Y-75985750D01*
X-146635000Y-75985750D01*
X-146635000Y-76826310D01*
X-146575482Y-76970000D01*
X-146635000Y-77113690D01*
X-146635000Y-77954250D01*
X-146476250Y-78113000D01*
X-145127000Y-78113000D01*
X-145127000Y-75827000D01*
X-144873000Y-75827000D01*
X-144873000Y-78113000D01*
X-143523750Y-78113000D01*
X-143365000Y-77954250D01*
X-143365000Y-77113690D01*
X-143424518Y-76970000D01*
X-143365000Y-76826310D01*
X-143365000Y-75985750D01*
X-143523750Y-75827000D01*
X-144873000Y-75827000D01*
X-145127000Y-75827000D01*
X-146476250Y-75827000D01*
X-146635000Y-75985750D01*
X-168160861Y-75985750D01*
X-170499171Y-73647440D01*
X-169000000Y-73647440D01*
X-168752235Y-73598157D01*
X-168750000Y-73596664D01*
X-168747765Y-73598157D01*
X-168500000Y-73647440D01*
X-166500000Y-73647440D01*
X-166252235Y-73598157D01*
X-166250000Y-73596664D01*
X-166247765Y-73598157D01*
X-166000000Y-73647440D01*
X-164000000Y-73647440D01*
X-163752235Y-73598157D01*
X-163738084Y-73588702D01*
X-163626310Y-73635000D01*
X-162785750Y-73635000D01*
X-162627000Y-73476250D01*
X-162627000Y-72127000D01*
X-162373000Y-72127000D01*
X-162373000Y-73476250D01*
X-162214250Y-73635000D01*
X-161373690Y-73635000D01*
X-161250000Y-73583766D01*
X-161126310Y-73635000D01*
X-160285750Y-73635000D01*
X-160127000Y-73476250D01*
X-160127000Y-72127000D01*
X-162373000Y-72127000D01*
X-162627000Y-72127000D01*
X-162647000Y-72127000D01*
X-162647000Y-71873000D01*
X-162627000Y-71873000D01*
X-162627000Y-71853000D01*
X-162373000Y-71853000D01*
X-162373000Y-71873000D01*
X-160127000Y-71873000D01*
X-160127000Y-71853000D01*
X-159873000Y-71853000D01*
X-159873000Y-71873000D01*
X-159853000Y-71873000D01*
X-159853000Y-72127000D01*
X-159873000Y-72127000D01*
X-159873000Y-73476250D01*
X-159714250Y-73635000D01*
X-158873690Y-73635000D01*
X-158761916Y-73588702D01*
X-158747765Y-73598157D01*
X-158500000Y-73647440D01*
X-156500000Y-73647440D01*
X-156252235Y-73598157D01*
X-156250000Y-73596664D01*
X-156247765Y-73598157D01*
X-156000000Y-73647440D01*
X-154000000Y-73647440D01*
X-153752235Y-73598157D01*
X-153750000Y-73596664D01*
X-153747765Y-73598157D01*
X-153500000Y-73647440D01*
X-151500000Y-73647440D01*
X-151252235Y-73598157D01*
X-151042191Y-73457809D01*
X-150901843Y-73247765D01*
X-150852560Y-73000000D01*
X-150852560Y-71260000D01*
X-149074847Y-71260000D01*
X-149000000Y-71274888D01*
X-148925153Y-71260000D01*
X-148925148Y-71260000D01*
X-148703463Y-71215904D01*
X-148452071Y-71047929D01*
X-148409669Y-70984470D01*
X-147015524Y-69590327D01*
X-146952071Y-69547929D01*
X-146909673Y-69484476D01*
X-146909671Y-69484474D01*
X-146804962Y-69327765D01*
X-146784096Y-69296537D01*
X-146740000Y-69074852D01*
X-146740000Y-69074848D01*
X-146725112Y-69000001D01*
X-146740000Y-68925154D01*
X-146740000Y-62314801D01*
X-146185198Y-61760000D01*
X-146072239Y-61760000D01*
X-146386086Y-62073847D01*
G36*
X-164747765Y-51598157D02*
X-164500000Y-51647440D01*
X-161500000Y-51647440D01*
X-161252235Y-51598157D01*
X-161250000Y-51596664D01*
X-161247765Y-51598157D01*
X-161000000Y-51647440D01*
X-158240343Y-51647440D01*
X-158240343Y-52063733D01*
X-158480344Y-52063733D01*
X-158728109Y-52113016D01*
X-158742260Y-52122471D01*
X-158854034Y-52076173D01*
X-159694594Y-52076173D01*
X-159853344Y-52234923D01*
X-159853344Y-53584173D01*
X-159833344Y-53584173D01*
X-159833344Y-53838173D01*
X-159853344Y-53838173D01*
X-159853344Y-53858173D01*
X-160107344Y-53858173D01*
X-160107344Y-53838173D01*
X-162353344Y-53838173D01*
X-162353344Y-53858173D01*
X-162607344Y-53858173D01*
X-162607344Y-53838173D01*
X-162627344Y-53838173D01*
X-162627344Y-53584173D01*
X-162607344Y-53584173D01*
X-162607344Y-52234923D01*
X-162353344Y-52234923D01*
X-162353344Y-53584173D01*
X-160107344Y-53584173D01*
X-160107344Y-52234923D01*
X-160266094Y-52076173D01*
X-161106654Y-52076173D01*
X-161230344Y-52127407D01*
X-161354034Y-52076173D01*
X-162194594Y-52076173D01*
X-162353344Y-52234923D01*
X-162607344Y-52234923D01*
X-162766094Y-52076173D01*
X-163606654Y-52076173D01*
X-163718428Y-52122471D01*
X-163732579Y-52113016D01*
X-163980344Y-52063733D01*
X-164331861Y-52063733D01*
X-164381498Y-51989446D01*
X-164390015Y-51976699D01*
X-164390017Y-51976697D01*
X-164432415Y-51913244D01*
X-164495869Y-51870846D01*
X-164810428Y-51556286D01*
X-164747765Y-51598157D01*
X-164747765Y-51598157D01*
G37*
X-164747765Y-51598157D02*
X-164500000Y-51647440D01*
X-161500000Y-51647440D01*
X-161252235Y-51598157D01*
X-161250000Y-51596664D01*
X-161247765Y-51598157D01*
X-161000000Y-51647440D01*
X-158240343Y-51647440D01*
X-158240343Y-52063733D01*
X-158480344Y-52063733D01*
X-158728109Y-52113016D01*
X-158742260Y-52122471D01*
X-158854034Y-52076173D01*
X-159694594Y-52076173D01*
X-159853344Y-52234923D01*
X-159853344Y-53584173D01*
X-159833344Y-53584173D01*
X-159833344Y-53838173D01*
X-159853344Y-53838173D01*
X-159853344Y-53858173D01*
X-160107344Y-53858173D01*
X-160107344Y-53838173D01*
X-162353344Y-53838173D01*
X-162353344Y-53858173D01*
X-162607344Y-53858173D01*
X-162607344Y-53838173D01*
X-162627344Y-53838173D01*
X-162627344Y-53584173D01*
X-162607344Y-53584173D01*
X-162607344Y-52234923D01*
X-162353344Y-52234923D01*
X-162353344Y-53584173D01*
X-160107344Y-53584173D01*
X-160107344Y-52234923D01*
X-160266094Y-52076173D01*
X-161106654Y-52076173D01*
X-161230344Y-52127407D01*
X-161354034Y-52076173D01*
X-162194594Y-52076173D01*
X-162353344Y-52234923D01*
X-162607344Y-52234923D01*
X-162766094Y-52076173D01*
X-163606654Y-52076173D01*
X-163718428Y-52122471D01*
X-163732579Y-52113016D01*
X-163980344Y-52063733D01*
X-164331861Y-52063733D01*
X-164381498Y-51989446D01*
X-164390015Y-51976699D01*
X-164390017Y-51976697D01*
X-164432415Y-51913244D01*
X-164495869Y-51870846D01*
X-164810428Y-51556286D01*
X-164747765Y-51598157D01*
G04 #@! TD*
M02*
