G04 #@! TF.GenerationSoftware,KiCad,Pcbnew,(5.0.0)*
G04 #@! TF.CreationDate,2019-01-30T09:12:48+03:00*
G04 #@! TF.ProjectId,invertor,696E766572746F722E6B696361645F70,rev?*
G04 #@! TF.SameCoordinates,Original*
G04 #@! TF.FileFunction,Soldermask,Top*
G04 #@! TF.FilePolarity,Negative*
%FSLAX46Y46*%
G04 Gerber Fmt 4.6, Leading zero omitted, Abs format (unit mm)*
G04 Created by KiCad (PCBNEW (5.0.0)) date 01/30/19 09:12:48*
%MOMM*%
%LPD*%
G01*
G04 APERTURE LIST*
%ADD10R,2.400000X2.400000*%
%ADD11C,2.400000*%
%ADD12C,7.400000*%
%ADD13R,4.900000X0.900000*%
%ADD14R,3.400000X0.900000*%
%ADD15R,2.100000X2.100000*%
%ADD16R,2.400000X4.400000*%
%ADD17O,2.400000X4.400000*%
%ADD18R,1.400000X1.400000*%
G04 APERTURE END LIST*
D10*
G04 #@! TO.C,A2*
X-110000000Y460000D03*
X-110000000Y-4620000D03*
X-110000000Y-9700000D03*
X-110000000Y-7160000D03*
X-110000000Y-2080000D03*
D11*
X-110000000Y3000000D03*
D12*
X-112500000Y-19000000D03*
D10*
X-145000000Y-17780000D03*
X-145000000Y-15240000D03*
X-145000000Y-12700000D03*
X-145000000Y-10160000D03*
X-145000000Y-7620000D03*
X-145000000Y-5080000D03*
X-145000000Y-2540000D03*
D11*
X-145000000Y0D03*
G04 #@! TD*
D10*
G04 #@! TO.C,A3*
X-110000000Y-31040000D03*
X-110000000Y-36120000D03*
X-110000000Y-41200000D03*
X-110000000Y-38660000D03*
X-110000000Y-33580000D03*
D11*
X-110000000Y-28500000D03*
D12*
X-112500000Y-50500000D03*
D10*
X-145000000Y-49280000D03*
X-145000000Y-46740000D03*
X-145000000Y-44200000D03*
X-145000000Y-41660000D03*
X-145000000Y-39120000D03*
X-145000000Y-36580000D03*
X-145000000Y-34040000D03*
D11*
X-145000000Y-31500000D03*
G04 #@! TD*
D10*
G04 #@! TO.C,A4*
X-110000000Y-62540000D03*
X-110000000Y-67620000D03*
X-110000000Y-72700000D03*
X-110000000Y-70160000D03*
X-110000000Y-65080000D03*
D11*
X-110000000Y-60000000D03*
D12*
X-112500000Y-82000000D03*
D10*
X-145000000Y-80780000D03*
X-145000000Y-78240000D03*
X-145000000Y-75700000D03*
X-145000000Y-73160000D03*
X-145000000Y-70620000D03*
X-145000000Y-68080000D03*
X-145000000Y-65540000D03*
D11*
X-145000000Y-63000000D03*
G04 #@! TD*
G04 #@! TO.C,A1*
X-170000000Y-35000000D03*
X-191000000Y-35000000D03*
D10*
X-170000000Y-32460000D03*
X-170000000Y-29920000D03*
X-170000000Y-27380000D03*
X-170000000Y-24840000D03*
X-170000000Y-22300000D03*
X-170000000Y-19760000D03*
X-170000000Y-17220000D03*
X-170000000Y-14680000D03*
X-170000000Y-12140000D03*
X-191000000Y-29920000D03*
X-191000000Y-32460000D03*
X-191000000Y-22300000D03*
X-191000000Y-17220000D03*
X-191000000Y-19760000D03*
X-191000000Y-24840000D03*
X-191000000Y-12140000D03*
X-191000000Y-27380000D03*
X-191000000Y-14680000D03*
G04 #@! TD*
D11*
G04 #@! TO.C,DA1*
X-170000000Y-79500000D03*
D10*
X-167500000Y-79500000D03*
X-165000000Y-79500000D03*
X-162500000Y-79500000D03*
X-160000000Y-79500000D03*
X-157500000Y-79500000D03*
X-155000000Y-79500000D03*
X-152500000Y-79500000D03*
X-170000000Y-72000000D03*
X-167500000Y-72000000D03*
X-165000000Y-72000000D03*
X-162500000Y-72000000D03*
X-160000000Y-72000000D03*
X-157500000Y-72000000D03*
X-155000000Y-72000000D03*
X-152500000Y-72000000D03*
G04 #@! TD*
G04 #@! TO.C,DA2*
X-152480344Y-53711173D03*
X-154980344Y-53711173D03*
X-157480344Y-53711173D03*
X-159980344Y-53711173D03*
X-162480344Y-53711173D03*
X-164980344Y-53711173D03*
X-167480344Y-53711173D03*
X-169980344Y-53711173D03*
X-152480344Y-61211173D03*
X-154980344Y-61211173D03*
X-157480344Y-61211173D03*
X-159980344Y-61211173D03*
X-162480344Y-61211173D03*
X-164980344Y-61211173D03*
X-167480344Y-61211173D03*
D11*
X-169980344Y-61211173D03*
G04 #@! TD*
D13*
G04 #@! TO.C,DD1*
X-179000000Y-500000D03*
X-179000000Y500000D03*
D14*
X-178250000Y1500000D03*
D13*
X-179000000Y2500000D03*
X-179000000Y3500000D03*
X-187500000Y-500000D03*
X-187500000Y500000D03*
D14*
X-188250000Y1500000D03*
D13*
X-187500000Y2500000D03*
X-187500000Y3500000D03*
G04 #@! TD*
D15*
G04 #@! TO.C,FU1*
X-191000000Y-76000000D03*
X-191000000Y-81500000D03*
G04 #@! TD*
D16*
G04 #@! TO.C,G1*
X-180920000Y-68000000D03*
X-183460000Y-68000000D03*
X-186000000Y-68000000D03*
D17*
X-188540000Y-68000000D03*
G04 #@! TD*
D11*
G04 #@! TO.C,X1*
X-195500000Y-48000000D03*
G04 #@! TD*
G04 #@! TO.C,X2*
X-195500000Y-45000000D03*
G04 #@! TD*
G04 #@! TO.C,X3*
X-103000000Y-9500000D03*
G04 #@! TD*
G04 #@! TO.C,X4*
X-103000000Y-30500000D03*
G04 #@! TD*
G04 #@! TO.C,X5*
X-103000000Y-73000000D03*
G04 #@! TD*
G04 #@! TO.C,X6*
X-196500000Y2000000D03*
G04 #@! TD*
G04 #@! TO.C,X7*
X-196500000Y-500000D03*
G04 #@! TD*
G04 #@! TO.C,X8*
X-196500000Y-3000000D03*
G04 #@! TD*
G04 #@! TO.C,X10*
X-197000000Y-22000000D03*
G04 #@! TD*
G04 #@! TO.C,X9*
X-196500000Y-5500000D03*
G04 #@! TD*
D18*
G04 #@! TO.C,HL1*
X-171000000Y-69000000D03*
X-171000000Y-67500000D03*
G04 #@! TD*
G04 #@! TO.C,HL2*
X-160500000Y-67000000D03*
X-160500000Y-68500000D03*
G04 #@! TD*
G04 #@! TO.C,HL3*
X-179000000Y-84000000D03*
X-179000000Y-82500000D03*
G04 #@! TD*
G04 #@! TO.C,HL4*
X-173500000Y-82500000D03*
X-173500000Y-84000000D03*
G04 #@! TD*
G04 #@! TO.C,HL5*
X-159500000Y-50500000D03*
X-159500000Y-49000000D03*
G04 #@! TD*
G04 #@! TO.C,HL6*
X-163000000Y-49000000D03*
X-163000000Y-50500000D03*
G04 #@! TD*
M02*
